<?xml version="1.0" encoding="UTF-8"?><svg xmlns="http://www.w3.org/2000/svg" width="400.26" height="343.19" xmlns:xlink="http://www.w3.org/1999/xlink" viewBox="0 0 400.26 343.19"><defs><style>.r{clip-path:url(#l);}.s{fill:#e8d6bf;}.t{fill:#5b4732;}.u{fill:#dab888;}.v{fill:none;}.w{clip-path:url(#f);}.x{fill:#907758;}</style><clipPath id="f"><rect class="v" x="-4215" y="-1721.61" width="1920" height="1082"/></clipPath><clipPath id="l"><rect class="v" x="-2275" y="-1721.61" width="1920" height="1082"/></clipPath></defs><g id="a"/><g id="b"/><g id="c"/><g id="d"/><g id="e"><g class="w"><g id="g"/><g id="h"><g id="i"/></g></g></g><g id="j"/><g id="k"><g class="r"><g id="m"><g id="n"><g id="o"/></g></g></g></g><g id="p"><g><g><path class="x" d="M77.74,159.62c1.95-5.9,6.59-19.97,18.32-24.62,5.88-2.33,9.3-.61,22.3,0,7.78,.37,23,1.08,35.04-2.38,6.89-1.98,19.01-7.14,31.06-23.03-1.86,7.68-3.72,15.35-5.57,23.03,5.93-9.83,15.96-24.02,31.85-37.32,12.59-10.54,23.79-16.03,46.19-27,26.44-12.95,39.66-19.43,57.34-23.03,26.37-5.37,33.19,.6,49.37-6.35,19.36-8.31,30.4-25.79,36.63-38.91-.17,13-2.13,29.34-8.76,46.85-21.29,56.22-73.92,80.06-87.6,85.76,3.61,1.85,10.01,4.51,18.32,4.76,13.28,.41,22.88-5.58,26.28-7.94-4.92,8.2-13.21,20.19-26.28,31.76-8.37,7.41-12.35,9.03-38.22,26.21-30.3,20.11-34.02,23.98-36.63,27-5.4,6.24-10.5,16.34-20.7,36.53-11.32,22.41-12.77,28.57-21.5,37.32-9.19,9.23-18.74,13.58-23.89,15.88-17.07,7.61-37.97,10.31-53.35,6.35-53.69-13.79-62.27-114.25-50.17-150.88Z"/><path class="u" d="M80.93,179.47c.41-4.46,1.35-14.5,8.76-21.44,2.62-2.46,6.49-4.93,23.89-7.94,21.4-3.71,26.22-1.82,37.43-5.56,5.55-1.85,13.53-5.37,22.3-12.71-.29,2.82-1.13,7.57-3.98,12.71-2.61,4.71-5.83,7.79-7.96,9.53,3.21-.54,7.96-1.48,13.54-3.18,7.39-2.25,26.26-8.88,54.95-34.94,19.96-18.13,15.82-19.47,26.28-25.41,20.48-11.64,45.83-11.91,46.98-11.91,7.6,0,14.12,.93,25.48-.79,8.16-1.24,14.73-3.23,19.11-4.76-29.71,26.9-43.73,36.78-50.97,40.5-.95,.49-6.79,3.44-13.54,8.74-4.44,3.48-8.05,6.35-11.15,11.12-1.84,2.82-4.84,8.37-5.57,16.68,3.76,.13,7.75,.38,11.95,.79,4.22,.42,8.21,.97,11.95,1.59-4.36,1.41-10.33,3.8-16.72,7.94-3.08,2-11.43,7.75-19.11,18.26-7.1,9.72-4.24,10.64-13.54,28.59-5.44,10.51-12.77,22.45-17.52,30.18-2.48,4.04-4.63,7.44-7.17,12.71-4.63,9.61-6.27,16.5-7.17,19.06-5.06,14.46-33.47,24.95-54.95,23.03-52.17-4.67-75.97-83.7-73.26-112.76Z"/><path class="s" d="M135.08,168.35c12.97-5.62,27.08-5.56,27.08-5.56,5.82,.03,9.56,.86,15.93-.79,5.23-1.36,7.52-3.18,15.13-6.35,5.64-2.35,10.41-3.86,13.54-4.76-2.62,1.14-6.15,3.07-9.56,6.35-7.02,6.77-8.96,14.9-9.56,18.26,2.95-.08,7.18-.64,11.15-3.18,6.42-4.1,7.22-10.21,11.15-17.47,4.49-8.31,10.16-12.69,21.5-21.44,9.29-7.17,18.25-11.93,25.48-15.09-2.58,3.59-6.79,9.06-12.74,15.09-6.38,6.46-9.58,8.32-13.54,13.5-2.91,3.8-6.57,9.86-8.76,19.06,6.64-.79,13.27-1.59,19.91-2.38-4.38,2.33-11.26,6.69-17.52,14.29-5.14,6.25-7.98,12.4-9.56,16.68,2.17-.99,6.1-2.43,11.15-2.38,3.74,.03,6.76,.86,8.76,1.59-3.69,1.81-8.49,4.93-11.15,10.32-2.71,5.5-1.36,9.64-2.39,17.47,0,0-1.24,9.48-6.37,19.06-8.03,15-25.16,20.58-30.26,22.24-16.64,5.42-48.13,7.48-65.3-14.29-21.72-27.54-3.62-71.74,15.93-80.21Z"/></g><g><path class="t" d="M69.18,172.15c8.8-5.62,13.17-11.91,13.17-11.91,2.34-3.37,3.06-5.62,5.76-6.81,3.93-1.73,7.19,.94,13.17,2.55,5.86,1.58,10.26,1.05,18.93,0,12.92-1.56,14.29-5.16,21.4-5.1,2.55,.02,10.23,.54,23.04,12.76,18.51,17.65,28.2,41.08,32.92,55.3,3.01,1.8,10.9,7.09,13.99,17.01,4.13,13.25-1.97,29.34-15.64,39.13-.98,2.34-2.4,6.16-3.29,11.06-1.83,10.02,.5,13.68-2.47,17.01-2.59,2.91-5.15,1-14.81,5.1-3.16,1.34-4.74,2.02-6.58,3.4-4.8,3.62-5.08,7.02-9.05,11.06-2.68,2.72-5.17,3.84-9.88,5.96-4.43,1.99-11.97,4.69-22.22,5.1-5.41,3.94-13.94,8.85-24.69,9.36-10.76,.51-14.02-3.86-31.27-7.66-20.63-4.54-22.98,.16-32.1-5.1-11.06-6.38-18.51-19.58-20.57-31.48-2.25-13.01,2.97-18.51-1.65-32.33-2.35-7.04-3.94-6.33-7.41-15.31-2.82-7.3-6.9-17.88-4.94-28.92,1.55-8.74,5.2-8.28,13.99-24.67,9.46-17.64,6.85-21.17,12.34-24.67,11.63-7.42,24.68,7.57,37.86-.85Z"/><path class="u" d="M62.61,174.71c8.51-5.25,12.74-11.12,12.74-11.12,2.26-3.14,2.96-5.24,5.57-6.35,3.8-1.61,6.96,.88,12.74,2.38,5.67,1.47,9.93,.98,18.32,0,12.5-1.46,13.83-4.81,20.7-4.76,2.47,.02,9.9,.5,22.3,11.91,17.91,16.48,27.29,38.35,31.85,51.62,2.91,1.68,10.54,6.62,13.54,15.88,4,12.37-1.91,27.38-15.13,36.53-.95,2.18-2.32,5.75-3.19,10.32-1.77,9.35,.49,12.77-2.39,15.88-2.51,2.72-4.98,.93-14.33,4.76-3.06,1.25-4.59,1.88-6.37,3.18-4.65,3.38-4.91,6.55-8.76,10.32-2.59,2.54-5.01,3.59-9.56,5.56-4.29,1.86-11.58,4.38-21.5,4.76-5.24,3.68-13.49,8.26-23.89,8.74-10.41,.47-13.57-3.6-30.26-7.15-19.96-4.24-22.23,.14-31.06-4.76-10.71-5.96-17.92-18.28-19.91-29.38-2.18-12.14,2.87-17.27-1.59-30.18-2.27-6.57-3.81-5.91-7.17-14.29-2.73-6.82-6.67-16.69-4.78-27,1.5-8.16,5.03-7.73,13.54-23.03,9.16-16.46,6.63-19.76,11.95-23.03,11.25-6.92,23.88,7.06,36.63-.79Z"/><path class="t" d="M55.6,241.55c11.44,.93,20.22-11.28,20.53-20.86,.05-1.45,.31-9.49-6.25-13.64-7.25-4.6-16.66-.52-17.85,0-6.84,2.97-13.85,10.24-12.5,19.26,1.15,7.66,8.03,14.59,16.07,15.24Z"/><path class="x" d="M46.23,240.65c9.81,2.96,19.93-7.29,22.13-16.52,.33-1.4,2.18-9.14-2.72-14.35-5.41-5.76-14.45-3.5-15.6-3.22-6.57,1.64-14.16,7.43-14.79,16.41-.54,7.63,4.08,15.59,10.97,17.67Z"/><path class="t" d="M48.61,259.06c8.25-1.77,17.8,7.78,18.73,8.74,1.15,1.17,5.24,5.56,7.33,12.71,3.71,12.72,.63,32.72-11.4,36.53-8.9,2.82-19.94-4.09-25.25-11.91-11.15-16.42-1.5-43.46,10.59-46.06Z"/><path class="x" d="M41.91,258.88c8.06-1.77,17.4,7.78,18.32,8.74,1.12,1.17,5.13,5.56,7.17,12.71,3.63,12.72,.61,32.72-11.15,36.53-8.7,2.82-19.5-4.09-24.69-11.91-10.9-16.42-1.47-43.46,10.35-46.06Z"/><path class="t" d="M125.55,289.26c5.01-4.27,13.94-5.17,17.52-.79,3.75,4.59,.14,13.17-4.78,17.47-4.01,3.51-11.19,6.17-15.13,3.18-4.74-3.6-3.79-14.59,2.39-19.85Z"/><path class="x" d="M122.34,287.47c5.01-4.27,13.94-5.17,17.52-.79,3.75,4.59,.14,13.17-4.78,17.47-4.01,3.51-11.19,6.17-15.13,3.18-4.74-3.6-3.79-14.59,2.39-19.85Z"/><path class="t" d="M91.85,240.56c3.41-2.74,9.06-4.02,11.95-1.59,4.16,3.51,2.61,14.78-3.98,17.47-3.86,1.58-9.79,.36-11.95-3.97-2.25-4.53,1.08-9.58,3.98-11.91Z"/><path class="x" d="M86.5,240.62c3.41-2.74,9.06-4.02,11.95-1.59,4.16,3.51,2.61,14.78-3.98,17.47-3.86,1.58-9.79,.36-11.95-3.97-2.25-4.53,1.08-9.58,3.98-11.91Z"/><path class="t" d="M115.57,181.12c.11,.27,2.33,6.17-.8,10.32-5.6,7.42-25.36,5.32-29.46-4.76-1.68-4.11-.75-9.55,2.39-12.71,6.87-6.93,24.03-2.61,27.87,7.15Z"/><path class="x" d="M111.19,185.03c.11,.27,2.33,6.17-.8,10.32-5.6,7.42-25.36,5.32-29.46-4.76-1.68-4.11-.75-9.55,2.39-12.71,6.87-6.93,24.03-2.61,27.87,7.15Z"/><path class="t" d="M157.17,204.41c19.05,4.02,25.16,24.26,25.48,25.41,.81,2.84,2.73,9.99,0,18.26-2.58,7.82-9.5,17.22-19.91,19.06-12.04,2.13-21.46-7.17-27.08-12.71-5.17-5.1-19.17-18.92-14.33-33.35,4.37-13.04,21.81-19.64,35.84-16.68Z"/><path class="x" d="M149.41,204.88c19.05,4.02,25.16,24.26,25.48,25.41,.81,2.84,2.73,9.99,0,18.26-2.58,7.82-9.5,17.22-19.91,19.06-12.04,2.13-21.46-7.17-27.08-12.71-5.17-5.1-19.17-18.92-14.33-33.35,4.37-13.04,21.81-19.64,35.84-16.68Z"/><path class="s" d="M27.57,204.88c-6.98,4.6-10.36,9.56-11.95,12.36-3.5,6.21-3.75,11.81-3.98,16.91-.21,4.75-.32,7.14,.8,10.41,1.85,5.4,4.97,7.12,7.17,13.01,1.32,3.53,1.57,6.58,1.59,8.46,2.62-3.35,5.79-8.58,5.57-14.96-.13-3.85-1.38-4.88-3.19-11.71-1.36-5.15-2.94-11.12-2.39-17.56,.31-3.7,1.51-9.76,6.37-16.91Z"/><path class="s" d="M84.64,264c-3.67,6.81-4.28,11.73-4.35,14.32-.16,5.73,2.05,9.2,4.06,12.36,1.87,2.94,2.82,4.42,5.13,5.71,3.82,2.12,7.09,1.32,11.41,3.52,2.59,1.32,4.1,2.99,4.93,4.08,.68-3.52,.99-8.48-1.93-12.13-1.76-2.2-3.22-2.08-7.62-5.08-3.32-2.26-7.17-4.87-9.5-9.02-1.34-2.38-2.98-6.67-2.13-13.76Z"/></g></g></g><g id="q"/></svg>