<?xml version="1.0" encoding="UTF-8"?><svg xmlns="http://www.w3.org/2000/svg" width="436" height="380" xmlns:xlink="http://www.w3.org/1999/xlink" viewBox="0 0 436 380"><defs><style>.s{fill:#30092a;}.t{clip-path:url(#m);}.u{clip-path:url(#d);}.v{fill:none;}.w{clip-path:url(#g);}</style><clipPath id="d"><rect class="v" x="-1357.82" y="-1334.41" width="1920" height="1079"/></clipPath><clipPath id="g"><rect class="v" x="581" y="-1338" width="1920" height="1082"/></clipPath><clipPath id="m"><rect class="v" x="2521" y="-1338" width="1920" height="1082"/></clipPath></defs><g id="a"><path class="s" d="M.13,323.08c-.86,.61,2.81,8.93,5.85,14.11,2.71,4.62,9.7,16.3,23.39,21.17,10.34,3.68,19.23,1.42,23.39,0,.89,3.49,.46,5.75,0,7.06-.43,1.23-2.24,3.19-5.85,7.06-1.24,1.33-2.23,2.36-3.61,4.07-.97,1.21-1.74,2.27-2.24,2.98,2.62-.1,6.69-.19,11.7,0,8.88,.34,8.08,.61,9.92,.39,1.92-.22,5.46-.68,9.15-3.15,2.89-1.93,5.2-4.65,5.09-4.79-.04-.05-.45,.24-.77,.48v-14.11c4.57-3.01,10.79-7.57,17.54-14.11,6.7-6.48,12.49-12.1,17.54-21.17,0,0,3.24-5.81,11.7-35.28-5.55,2.03-9.31,4.87-11.7,7.06-.14,.12-.14,.13-.31,.29-3.97,3.69-6.28,4.66-8.86,6.7-.47,.37-.21,.2-5.76,6.24-2.75,3-4.13,4.5-5.76,6.24-6.12,6.54-6.16,6.2-7.2,7.81-1.74,2.67-1.17,2.91-4.32,9.37-3.27,6.71-4.55,7.81-5.76,7.81-1.61,0-2.87-1.96-2.97-2.12-1.36-2.18-.13-4.04-1.35-5.69-1.02-1.37-3.08-1.71-4.5-1.37-3.18,.75-5.41,3.97-5.84,7.04-.22,1.55,.03,2.87,.26,3.7,.25,1.05,.37,2.38-.26,3.38-1.71,2.68-7.7,1.14-11.7,0-7.04-2.01-9.95-3.84-17.54-7.06-7.05-2.98-9.62-3.54-13.3-5.08-1.96-.82-3.38-1.54-4.25-1.98-2.73-1.37-6.38-3.43-10.55-6.43-.41-.39-.92-.78-1.15-.62Z"/><path class="s" d="M253.81,55.03c-1.31,1.05,3.22,16.54,7.15,26.27,3.5,8.66,12.56,30.57,32.02,40.54,14.69,7.52,27.85,4.09,34.06,1.81,.96,6.46,.12,10.54-.68,12.91-.75,2.22-3.57,5.66-9.19,12.46-1.94,2.34-3.48,4.15-5.64,7.17-1.54,2.15-2.75,4.01-3.55,5.28,3.82,.02,9.75,.17,17.03,.91,12.89,1.31,11.71,1.73,14.4,1.49,2.81-.26,8.02-.81,13.63-5.04,4.4-3.31,8.01-8.1,7.88-8.36-.05-.1-.67,.4-1.17,.82l.68-12.91,.68-12.91c6.95-5.15,16.44-13.01,26.9-24.46,10.37-11.34,19.35-21.16,27.58-37.37,0,0,5.27-10.37,20.43-63.64-8.27,3.28-14.02,8.19-17.71,12-.21,.22-.22,.23-.48,.51-6.14,6.44-9.59,8.04-13.54,11.57-.72,.65-.33,.34-8.99,10.98-4.3,5.28-6.45,7.91-8.99,10.98-9.53,11.48-9.56,10.87-11.23,13.72-2.79,4.76-1.98,5.23-7.19,16.8-5.41,12.02-7.37,13.93-9.14,13.83-2.35-.13-3.99-3.82-4.12-4.11-1.77-4.09,.19-7.4-1.42-10.5-1.35-2.59-4.31-3.36-6.41-2.86-4.7,1.13-8.25,6.84-9.18,12.43-.47,2.83-.23,5.26,.02,6.78,.26,1.94,.31,4.38-.71,6.15-2.74,4.76-11.32,1.49-17.03-.91-10.06-4.22-14.11-7.8-24.86-14.27-9.98-6-13.66-7.22-18.87-10.32-2.77-1.64-4.78-3.09-5.99-3.95-3.84-2.72-8.95-6.76-14.74-12.59-.57-.74-1.26-1.5-1.61-1.23Z"/></g><g id="b"/><g id="c"><g class="u"><g><path class="s" d="M194.88,266.27c-.26,.18,.85,2.7,1.78,4.27,.82,1.4,2.95,4.94,7.11,6.41,3.14,1.11,5.85,.43,7.11,0,.27,1.06,.14,1.74,0,2.14-.13,.37-.68,.97-1.78,2.14-.38,.4-.68,.72-1.1,1.23-.3,.37-.53,.69-.68,.9,.8-.03,2.03-.06,3.56,0,2.7,.1,2.46,.18,3.02,.12,.58-.07,1.66-.2,2.78-.95,.88-.59,1.58-1.41,1.55-1.45-.01-.02-.14,.07-.24,.15v-4.27c1.39-.91,3.28-2.29,5.33-4.27,2.04-1.96,3.8-3.66,5.33-6.41,0,0,.98-1.76,3.56-10.68-1.69,.61-2.83,1.48-3.56,2.14-.04,.04-.04,.04-.1,.09-1.21,1.12-1.91,1.41-2.69,2.03-.14,.11-.06,.06-1.75,1.89-.84,.91-1.26,1.36-1.75,1.89-1.86,1.98-1.87,1.88-2.19,2.36-.53,.81-.36,.88-1.31,2.84-.99,2.03-1.38,2.36-1.75,2.36-.49,0-.87-.59-.9-.64-.41-.66-.04-1.22-.41-1.72-.31-.42-.94-.52-1.37-.42-.97,.23-1.64,1.2-1.78,2.13-.07,.47,0,.87,.08,1.12,.08,.32,.11,.72-.08,1.02-.52,.81-2.34,.35-3.56,0-2.14-.61-3.02-1.16-5.33-2.14-2.14-.9-2.92-1.07-4.04-1.54-.59-.25-1.03-.47-1.29-.6-.83-.42-1.94-1.04-3.21-1.95-.13-.12-.28-.24-.35-.19Z"/><path class="s" d="M272.02,185.13c-.4,.32,.98,5.01,2.18,7.95,1.06,2.62,3.82,9.26,9.74,12.27,4.47,2.28,8.47,1.24,10.36,.55,.29,1.96,.04,3.19-.21,3.91-.23,.67-1.09,1.71-2.8,3.77-.59,.71-1.06,1.26-1.72,2.17-.47,.65-.84,1.21-1.08,1.6,1.16,0,2.97,.05,5.18,.27,3.92,.4,3.56,.52,4.38,.45,.86-.08,2.44-.25,4.14-1.53,1.34-1,2.44-2.45,2.4-2.53-.02-.03-.2,.12-.36,.25l.21-3.91,.21-3.91c2.11-1.56,5-3.94,8.18-7.4,3.15-3.43,5.88-6.4,8.39-11.31,0,0,1.6-3.14,6.21-19.26-2.52,.99-4.26,2.48-5.38,3.63-.06,.07-.07,.07-.15,.15-1.87,1.95-2.92,2.43-4.12,3.5-.22,.2-.1,.1-2.73,3.32-1.31,1.6-1.96,2.4-2.73,3.32-2.9,3.48-2.91,3.29-3.42,4.15-.85,1.44-.6,1.58-2.19,5.09-1.64,3.64-2.24,4.22-2.78,4.19-.71-.04-1.21-1.16-1.25-1.24-.54-1.24,.06-2.24-.43-3.18-.41-.78-1.31-1.02-1.95-.86-1.43,.34-2.51,2.07-2.79,3.76-.14,.86-.07,1.59,0,2.05,.08,.59,.09,1.33-.22,1.86-.83,1.44-3.44,.45-5.18-.27-3.06-1.28-4.29-2.36-7.56-4.32-3.03-1.82-4.15-2.19-5.74-3.12-.84-.5-1.45-.93-1.82-1.19-1.17-.82-2.72-2.05-4.48-3.81-.17-.22-.38-.45-.49-.37Z"/></g></g></g><g id="e"/><g id="f"><g class="w"><g id="h"/><g id="i"><g id="j"/></g></g></g><g id="k"/><g id="l"><g class="t"><g id="n"><g id="o"><g id="p"/></g></g></g></g><g id="q"/><g id="r"/></svg>