<?xml version="1.0" encoding="UTF-8"?><svg xmlns="http://www.w3.org/2000/svg" width="149.15" height="238.03" viewBox="0 0 149.15 238.03"><defs><style>.q{fill:none;stroke:#000;stroke-miterlimit:10;stroke-width:2px;}.r{fill:#0b38f7;}.s{fill:#fdfffe;}</style></defs><g id="a"/><g id="b"/><g id="c"/><g id="d"><g><path class="r" d="M28.65,174.63c-3.23-4.64-7.59-11.44-11.89-20.12-6.64-13.42-21.81-44.06-15.08-80.96,1.43-7.85,4.55-23.93,16.76-40.16,12.43-16.52,27.25-23.84,30.49-25.38,6.13-2.92,24.64-11.4,48.06-6.53,5.95,1.23,22.93,5,36.1,19.35,23.71,25.85,14.67,63.82,12.9,71.29-7.91,33.22-31.95,51.5-41.5,58.76-29.32,22.29-60.58,24.95-73.25,25.31,.81,3.74,1.63,7.47,2.44,11.21-1.21,.73-2.94,1.46-4.98,1.36-4.2-.21-8.12-3.88-9.66-9.23l9.61-4.9Z"/><path class="s" d="M11.03,66.85c2.66-1.38,6.49,1.28,6.69,4.84,.19,3.36-2.9,6.75-5.79,5.93-2.09-.59-3.58-3.25-3.47-5.93,.08-1.96,1.01-4.03,2.57-4.84Z"/><path class="s" d="M77.98,14.02c-17.25-5.97-38.3,12.62-39.34,13.55-6.29,5.68-9.97,11.87-11.67,14.77-3.22,5.5-5.08,10.5-6.2,14.25,5.9-5.65,10.21-10.56,13.11-14.08,4.43-5.38,6.48-8.63,11.75-11.75,2.8-1.66,5.28-2.52,10.24-4.26,5.87-2.06,10.03-3.51,15.42-4.14,9.73-1.12,15.58,1.38,16.34-.22,.74-1.57-3.85-6.1-9.67-8.11Z"/><path class="q" d="M24.49,187.25c-1.09,2.41-2.45,6.2-2.75,11.13-.26,4.27,.46,6.36,.72,10.34,.49,7.35-.94,15.2-2.89,19.62-.67,1.52-2.36,4.8-13.74,8.75"/></g></g><g id="e"><g id="f"><g id="g"/><g id="h"><g id="i"/></g></g></g><g id="j"/><g id="k"><g id="l"><g id="m"><g id="n"/></g></g></g><g id="o"/><g id="p"/></svg>