<?xml version="1.0" encoding="UTF-8"?><svg xmlns="http://www.w3.org/2000/svg" width="317.41" height="284.13" xmlns:xlink="http://www.w3.org/1999/xlink" viewBox="0 0 317.41 284.13"><defs><style>.r{fill:#fff;}.s{clip-path:url(#l);}.t{fill:#e0af00;}.u{fill:#969592;}.v{fill:gold;}.w{fill:none;}.x{clip-path:url(#f);}</style><clipPath id="f"><rect class="w" x="-219.5" y="-2487.72" width="1920" height="1082"/></clipPath><clipPath id="l"><rect class="w" x="1720.5" y="-2487.72" width="1920" height="1082"/></clipPath></defs><g id="a"/><g id="b"><g><path class="u" d="M282.61,99.13c15.29,5.64,23.37,18.74,26,23.02,20.49,33.23-.3,76.22-7,90.06-4.74,9.81-23.42,48.43-67,65.05-27.38,10.44-50.67,6.88-76,3-27.76-4.25-64.22-9.83-70-29.02-2.38-7.92-.2-20.33,55-70.05,67.17-60.5,105.7-94.34,139-82.06Z"/><path class="v" d="M153,0c86.33,3.47,151.43,58.98,158.2,120.86,7.39,67.63-57.45,116.6-66.29,122.31-42.16,27.25-114.84,47.39-176.18,17.47-17.08-8.33-30.67-19.26-41.16-31.77C-13.26,180.18,3,115.2,4.19,110.66,19.59,51.94,79.2,6.78,153,0Z"/><path class="r" d="M75.83,36.06c-4.96-.56-9.73,5-15.89,12.17-11.18,13.02-16.9,28.62-19.23,35.13-.23,.66-.77,2.18-1.52,4.49-4.69,14.52-6.64,26.45-7.53,34.72,7.96-29.36,18.23-43.05,26.62-50.07,11.52-9.64,22.31-9.04,25.37-17.98,2.54-7.43-1.52-17.75-7.82-18.46Z"/><path class="u" d="M205.69,46.75c8.49-2.1,19.08,8.41,23.38,17.5,7.19,15.18-.8,31.28-4.18,38.1-9.13,18.4-19.04,16.02-24.33,31.53-5.48,16.11,2.97,25.24-5.22,36.12-4.38,5.82-12.35,10.59-19.8,9.43-12.3-1.91-20.57-19.54-19.73-33.58,.96-15.95,13.13-17.94,26.15-39.57,18.68-31.02,11.48-56.5,23.72-59.53Z"/><path class="r" d="M19.8,145.34c5.35-2.59,12,5.84,12.06,15.02,.05,8.36-5.37,17.17-10.4,15.96-4.19-1.02-8.74-9.16-8.32-17.83,.35-7.19,3.99-11.85,6.65-13.14Z"/><path class="t" d="M125.61,110.52c3.22-6.33-7.47-12.12-4.83-21.01,3.02-10.18,20.4-13.87,25.13-14.88,4.65-.99,15.31-3.25,26.1,1.75,4.39,2.03,10.44,4.84,11.6,9.63,2.27,9.39-17.17,14.47-30.94,33.26-10.04,13.7-18.33,36.45-7.73,49.01,5.8,6.88,17.49,10.97,25.13,7.88,6.23-2.52,8.75-10.76,13.53-27.13,5.05-17.29,2.71-17.02,5.8-22.76,8.55-15.9,23.79-12.99,32.87-27.13,7.62-11.87,5.88-27.91-.97-39.39-10.65-17.87-31.9-21.71-37.7-22.76-17.86-3.23-31.9,2.05-47.37,7.88-16.58,6.24-31.73,11.94-40.6,26.26-8.21,13.24-11.72,34.94,0,42.89,9.13,6.19,26.49,3.33,29.97-3.5Z"/><path class="u" d="M176.29,199.17c7.66,3,17.68,11.03,17,21-.77,11.29-14.84,18.82-26,19-16.06,.25-31.94-14.66-30-26,2.03-11.86,23.58-20.05,39-14Z"/><path class="t" d="M166.11,193.02c7.66,3,17.68,11.03,17,21-.77,11.29-14.84,18.82-26,19-16.06,.25-31.94-14.66-30-26,2.03-11.86,23.58-20.05,39-14Z"/></g></g><g id="c"/><g id="d"/><g id="e"><g class="x"><g id="g"/><g id="h"><g id="i"/></g></g></g><g id="j"/><g id="k"><g class="s"><g id="m"><g id="n"><g id="o"/></g></g></g></g><g id="p"/><g id="q"/></svg>