<?xml version="1.0" encoding="UTF-8"?><svg xmlns="http://www.w3.org/2000/svg" width="311.78" height="290.62" xmlns:xlink="http://www.w3.org/1999/xlink" viewBox="0 0 311.78 290.62"><defs><style>.r{fill:#fff;}.s{clip-path:url(#l);}.t{fill:#e0af00;}.u{fill:#969592;}.v{fill:gold;}.w{fill:none;}.x{clip-path:url(#f);}</style><clipPath id="f"><rect class="w" x="-1334.72" y="-1858.26" width="1920" height="1082"/></clipPath><clipPath id="l"><rect class="w" x="605.28" y="-1858.26" width="1920" height="1082"/></clipPath></defs><g id="a"/><g id="b"><g><path class="u" d="M276.61,105.62c15.29,5.64,23.37,18.74,26,23.02,20.49,33.23-.3,76.22-7,90.06-4.74,9.81-23.42,48.43-67,65.05-27.38,10.44-50.67,6.88-76,3-27.76-4.25-64.22-9.83-70-29.02-2.38-7.92-.2-20.33,55-70.05,67.17-60.5,105.7-94.34,139-82.06Z"/><path class="v" d="M153,0c86.33,3.47,151.43,58.98,158.19,120.86,7.39,67.63-57.45,116.6-66.29,122.31-42.16,27.25-114.84,47.39-176.18,17.47-17.08-8.33-30.67-19.26-41.16-31.77C-13.26,180.18,3,115.2,4.19,110.66,19.59,51.94,79.2,6.78,153,0Z"/><path class="u" d="M205.21,133.76c12.48-10.85,20.88-11.62,26.77-22.55,1.51-2.79,5.62-10.42,2.77-16.66-3.85-8.45-17.48-7.89-18.46-7.84-7.25,.39-12.9,3.87-21.23,10.78-7.81,6.47-18.39,16.31-29.54,30.39-1.75-2.03-3.9-4.46-6.43-7.17-4.69,2.96-10.08,5.13-14.35,8.8-5,3-11,2-16,5-1.12,.9-2.23,1.76-3.33,2.61,3.87,3.26,7.11,6.12,9.65,8.41-3.62,3.05-8.85,7.66-14.77,13.72-15.47,15.84-32.82,33.61-28.62,48.03,1.12,3.86,4.06,8.39,8.31,9.8,7.46,2.48,14.99-6.02,33.23-22.55,6.57-5.95,14.95-13.32,24.92-21.57,6.58,2.85,15.48,7.41,24.92,14.7,15.1,11.65,19.6,21.02,30.46,21.57,6.7,.34,15.04-2.73,17.54-8.82,3.77-9.18-7.15-21.71-13.85-29.41-9.24-10.61-19.29-16.88-26.77-20.59,5.35-7.77,10.68-13.11,14.77-16.66Z"/><path class="t" d="M126.73,132.5c-3.92,3.11-9.59,7.82-16,14-16.76,16.16-35.55,34.29-31,49,1.22,3.93,4.4,8.56,9,10,8.09,2.53,16.23-6.14,36-23,7.12-6.07,16.2-13.59,27-22,7.12,2.91,16.76,7.56,27,15,16.36,11.89,21.23,21.44,33,22,7.26,.34,16.29-2.78,19-9,4.08-9.36-7.74-22.15-15-30-10.01-10.83-20.9-17.22-29-21,5.79-7.93,11.57-13.37,16-17,13.52-11.07,22.62-11.86,29-23,1.63-2.85,6.09-10.63,3-17-4.17-8.62-18.93-8.05-20-8-7.86,.4-13.97,3.95-23,11-8.46,6.61-19.92,16.64-32,31-3.71-4.06-9.1-9.68-16-16-5.97-5.47-12.25-11.18-21-17-13.54-9.01-20.31-13.52-28-12-9.76,1.92-18.95,12.23-18,21,.74,6.86,7.36,9.88,23,21,11.97,8.51,21.18,16.05,27,21Z"/><path class="r" d="M76.03,33.3c-4.96-.56-9.73,5-15.89,12.17-11.18,13.02-16.9,28.62-19.23,35.13-.23,.66-.77,2.18-1.52,4.49-4.69,14.52-6.64,26.45-7.53,34.72,7.96-29.36,18.23-43.05,26.62-50.07,11.52-9.64,22.31-9.04,25.37-17.98,2.54-7.43-1.52-17.75-7.82-18.46Z"/><path class="r" d="M20,142.59c5.35-2.59,12,5.84,12.06,15.02,.05,8.36-5.37,17.17-10.4,15.96-4.19-1.02-8.74-9.16-8.32-17.83,.35-7.19,3.99-11.85,6.65-13.14Z"/></g></g><g id="c"/><g id="d"/><g id="e"><g class="x"><g id="g"/><g id="h"><g id="i"/></g></g></g><g id="j"/><g id="k"><g class="s"><g id="m"><g id="n"><g id="o"/></g></g></g></g><g id="p"/><g id="q"/></svg>