<?xml version="1.0" encoding="UTF-8"?><svg xmlns="http://www.w3.org/2000/svg" width="427.77" height="317.98" xmlns:xlink="http://www.w3.org/1999/xlink" viewBox="0 0 427.77 317.98"><defs><style>.r{fill:#fff;}.s{clip-path:url(#l);}.t{fill:#337f5c;}.u{fill:#825e84;}.v{fill:#f2c0e3;}.w,.x{fill:none;}.y{fill:#c5a7c6;}.a`{clip-path:url(#f);}.aa{fill:#fafcfa;}.x{stroke:#000;stroke-linecap:round;stroke-miterlimit:10;stroke-width:3px;}</style><clipPath id="f"><rect class="w" x="1157.77" y="-1352" width="1920" height="1082"/></clipPath><clipPath id="l"><rect class="w" x="3097.77" y="-1352" width="1920" height="1082"/></clipPath></defs><g id="a"><g><path class="t" d="M20.62,126.63c-1.52,.43-3.36,1.34-7.65,2.42-6.02,1.52-8.59,1.28-10.77,3.49-1.25,1.27-2.7,3.49-2.03,5.4,.51,1.44,1.96,1.91,6.37,3.67,0,0,5.54,2.21,11.65,5.12,4.29,2.05,5.38,2.87,6.21,4.15,.26,.4,2.03,3.22,1,6.14-.59,1.66-1.73,2.34-4.44,4.43-4.54,3.49-6.81,5.24-7.85,6.9-1.77,2.84-2.57,7.41-.33,10.44,2.25,3.04,6.71,3.38,11.33,3.73,9.87,.74,16.03-2.36,17.43-.26,.41,.61,0,1.04-1.76,5.64-2.14,5.62-1.98,6.16-3.21,8.37-1.13,2.03-1.42,1.85-4.64,5.99-3.75,4.84-5.61,7.31-5.94,9.46-.47,3.05,.6,6.96,3.43,9.03,2.73,1.99,5.57,1.17,13.36,.8,13.37-.64,12.32,1.45,17.15,0,3.94-1.18,12.92-5.17,17.09-8.77,.31-.27,1.34-1.18,1.84-.93,.88,.45-.57,4.29-.9,5.15-1.1,2.9-2.42,5.09-5.61,9.77-3.51,5.17-4.06,5.68-4.76,7.6-.82,2.27-2.06,5.7-.38,8.01,1.86,2.55,6.34,2.39,10.37,2.24,2.03-.07,7.87-.43,18.47-4.83,6.15-2.55,9.84-4.13,14.25-7.42,4.37-3.25,6.76-6.21,8.62-5.48,.98,.38,1.23,1.56,1.95,6.38,1.4,9.45,1.17,9.8,1.89,11.64,1.31,3.33,3.34,5.45,6.44,8.67,3.76,3.91,5.64,5.86,7.5,6.1,8.3,1.08,19.51-17.24,20.42-18.75,1.94-3.22,3.8-6.96,5.91-6.75,.87,.09,1.52,.83,3.69,5.25,2.97,6.04,3.43,8.08,5.52,11.73,1.03,1.79,2.07,3.21,4.15,6.04,4.19,5.7,6.25,8.57,7.74,8.84,4.5,.82,9.9-6.66,14.2-12.62,6.02-8.35,7.49-13.76,11.89-14.17,2.31-.21,4.14,1.07,5.82,2.24,5.66,3.96,5.06,9.56,10.45,19.83,5.06,9.63,6.14,10.47,7.38,10.56,3.5,.25,6.88-5.5,13.36-16.53,2.04-3.47,4.42-6.78,6.21-10.36,2.03-4.07,2.55-6.02,4.25-6.39,3.54-.76,6.16,6.58,10.04,6.16,3.17-.35,2.76-5.41,7.96-12.59,5.16-7.12,10.38-8.81,9.94-13.17-.26-2.52-2.24-4.26-3.25-5.12-8.57-7.31-24.67-2.5-43.47-2.5-4.1,0-1.97-.23-39.68-6.62-34.2-5.8-36.01-5.62-43.01-8.28-15.7-5.95-13.79-9.57-33.51-18.33-18.3-8.12-20.66-5.33-36.69-13.37-8.44-4.24-15.31-9.38-29.12-19.56-13.86-10.22-27.06-21.16-36.29-18.57Z"/><path class="r" d="M57.28,213.3c.27,.5-2.43,2.28-4.49,2.5-.29,.03-1.93,.18-1.93,.18h0s-2.64-.23-5.44,.05c-.29,.03-.7,.08-1.46,.15-1.2,.11-2.23,.16-2.51,.17-1.16,.03-4.13-.29-5.49-2.11-1.13-1.51-.86-3.64,.61-5.42-.16,.99-.25,2.71,1.03,4.01,1.72,1.76,4.91,1.74,8.38,1.69,6.96-.11,10.95-1.87,11.3-1.21Z"/><path class="y" d="M360.82,227.54c4.59,.92,9.29,1.39,18.71,2.32,23.54,2.35,28.27,.69,30.79-.45,1.76-.79,10.25-4.84,13.76-14.06,3.48-9.13-.3-17.1-1.26-19.03-5.8-11.72-19.19-15.43-21.74-16.14-7.42-2.05-8.21,.16-24.31-2.24-1.91-.29-7.69-1.18-14.99-3.24-9.35-2.64-14.07-4.04-16-7.56-1.77-3.24,.4-4.68-.22-12.99-.55-7.33-2.44-8.85-1.11-10.38,2.74-3.13,11.91,2.02,29.96,5.62,8.95,1.79,15.73,3.09,24.31,2.24,7.99-.79,18.95-1.86,25.03-9.89,6.41-8.46,4.53-20.84-1.42-28.56-6.3-8.17-16.55-10.32-23.54-11.78-12.04-2.52-14.74,.96-28.04-2.19-7.3-1.73-6.98-2.9-17.83-5.8-10.11-2.7-15.33-4.05-21.52-3.15,0,0-8.93,1.3-17.58,8.92-21.14,18.63-26.67,88.77,9.39,113.3,5.99,4.07,19.92,11.51,37.59,15.04Z"/><g><path class="t" d="M145.63,28.61c1.38-.16,2.06-1.87,2.15-2.1,.86-2.16-.98-4.38-3.57-5.46-1.51-.63-4.1-1.2-5.01-.58-.84,.57,.1,1.9,1.43,3.77,1.48,2.09,3.23,4.57,5,4.36Z"/><path class="t" d="M169.38,9.51c1.38,.19,2.53-1.28,2.68-1.48,1.46-1.86,.34-4.46-1.84-6.15-1.27-.98-3.59-2.18-4.65-1.82-.97,.34-.46,1.86,.27,3.99,.81,2.38,1.77,5.21,3.54,5.45Z"/><path class="t" d="M157.66,11.89c1.38,.19,2.53-1.28,2.68-1.48,1.46-1.86,.34-4.46-1.84-6.15-1.27-.98-3.59-2.18-4.65-1.82-.97,.34-.46,1.86,.27,3.99,.81,2.38,1.77,5.21,3.54,5.45Z"/><path class="t" d="M149.31,17.97c1.38,.19,2.53-1.28,2.68-1.48,1.46-1.86,.34-4.46-1.84-6.15-1.27-.98-3.59-2.18-4.65-1.82-.97,.34-.46,1.86,.27,3.99,.81,2.38,1.77,5.21,3.54,5.45Z"/></g><path class="y" d="M180.86,11.32c6.5,2.75,10.5,6.31,14.3,9.75,4.18,3.79,10.05,9.93,15.24,18.93,12.91-2.27,46.05-6.4,81.8,8.91,27.41,11.73,42.79,29.09,50.87,38.42,9.16,10.58,32.25,37.24,32.96,75.09,.17,8.85,.25,26.73-11.03,45.75-6.65,11.2-14.98,18.91-21.2,23.73,2.18,5.64,4.11,12.83,4.45,21.23,1,24.78-12.53,41.82-16.19,46.28-8.5,10.37-21.96,20.84-26.74,18.14-2.03-1.14-1.04-3.85-2.19-14.77-.95-8.99-1.47-13.86-3.72-19.14-.14-.32-.09-.19-.33-.72-3.66-8.13-4.21-12.28-6.06-16.91-.99-2.47-2.73-6.04-5.98-10.09-5.6-5.99-11.19-11.98-16.79-17.96-31.92-11.03-58.37-16.45-75.85-19.33-45.85-7.55-68.92-4.07-112.02-18.36-22.77-7.55-38.48-15.86-49.28-30.4-3.03-4.08-11.67-16.03-12.59-33.21-.25-4.69-.7-14.97,4.65-25.48,11.12-21.88,39.25-27.67,44.48-28.66,1.28-2.97,3.28-7.02,6.33-11.51,1.63-2.4,7.99-11.78,15.65-16.61,15.71-9.93,38.31-1.67,41.49-.47,8.02-1.63,16.03-3.25,24.05-4.88-2.89-2.97-7.23-8.36-9.01-16.03-1.07-4.57-2.4-10.26,.97-15.83,4.34-7.21,13.22-8.71,14.66-8.95,7-1.18,12.53,1.15,17.12,3.1Z"/><path class="aa" d="M161.19,24.58c.59-1.28,1.74-3.79,5.14-4.95,5.09-1.74,11.08,.96,12.35,1.53,6.75,3.04,9.48,8.23,9.83,8.93,.58,1.15,2.88,5.69,.5,9.41-2.59,4.06-9.14,4.68-14.31,3.55-.68-.15-8.96-2.07-12.85-8.27-3.09-4.93-1.2-9.04-.67-10.2Z"/><path class="u" d="M165.38,170.06c.18-.37,.38-.74,.58-1.12,2.67-4.98,6.52-10.09,11.47-15.18l.73,.59c-4.89,5.03-8.7,10.07-11.33,14.99-.97,1.81-1.78,3.62-1.87,3.82-1.49,3.33-2.74,7.01-3.72,10.94-1.39,5.63-2.09,8.46-1.38,10.98,.68,2.41,2.14,4.66,4.35,6.68,1.77,1.95,3.75,3.29,5.93,4,6.24,2.05,13.25-2.06,27.24-10.25l1.6-.94c6.94-4.07,13.94-8.29,20.81-12.57l.56,.72c-6.87,4.28-13.88,8.51-20.83,12.58l-1.6,.94c-14.24,8.35-21.39,12.54-28.07,10.33-2.35-.77-4.48-2.2-6.33-4.25-2.3-2.11-3.85-4.5-4.58-7.07-.77-2.73-.05-5.62,1.38-11.39,.98-3.98,2.25-7.7,3.76-11.07,.07-.16,.61-1.35,1.31-2.75Z"/><path class="r" d="M335.56,111.88c12.33,11.22,10.56,28.31,10.11,32.64-1.31,12.69-7.92,21.11-11.02,25.07-2.82,3.6-5.18,5.56-7.56,7-5.1,3.09-10.18,3.72-13.73,4.02-24.69,2.12-43.37-2.38-43.37-2.38-11.38-2.74-22.28-5.37-34.12-13.48-14.47-9.92-20.89-21.55-24.07-27.49-.4-.74-8.01-15.18-4.66-24.51,.52-1.45,3.2-8.92,11.83-13.01,5.8-2.75,11.69-2.75,17.81-2.5,22.85,.94,26.5,4.45,42.62,5.23,17.44,.84,22.7-2.81,38.57,.41,2.04,.41,10.81,2.85,17.58,9.01Z"/><g><path class="t" d="M159.77,191.42c.99,1.14,.12,3.03,0,3.28-1.11,2.39-4.46,2.87-7.47,1.86-1.76-.59-4.35-2-4.57-3.18-.21-1.08,1.68-1.48,4.32-2.05,2.95-.63,6.45-1.38,7.73,.08Z"/><path class="t" d="M181.15,202.15c1.56-.06,2.67,1.74,2.82,1.98,1.4,2.27-.17,5.08-2.81,6.73-1.54,.96-4.29,2.05-5.43,1.51-1.05-.5-.28-2.15,.79-4.47,1.2-2.6,2.62-5.67,4.63-5.75Z"/><path class="t" d="M171.51,203.51c1.47,.51,1.77,2.55,1.8,2.83,.37,2.59-2.24,4.62-5.36,5.19-1.83,.33-4.82,.35-5.65-.55-.77-.83,.62-2.08,2.56-3.83,2.18-1.96,4.75-4.29,6.65-3.63Z"/><path class="t" d="M162.15,199.14c1.4,.67,1.41,2.74,1.41,3.02,.02,2.61-2.84,4.31-6.02,4.51-1.86,.12-4.83-.21-5.54-1.21-.65-.91,.89-1.99,3.06-3.5,2.42-1.69,5.3-3.69,7.09-2.82Z"/></g><ellipse class="v" cx="104.75" cy="77.39" rx="12.44" ry="18.63" transform="translate(-24.08 58.29) rotate(-28.02)"/><ellipse class="v" cx="121.67" cy="152.05" rx="12.55" ry="18.46" transform="translate(-38.92 41.9) rotate(-16.89)"/><path d="M60.5,163.73c-.22,.27-2.74-1.4-4.57-4.1-.29-.43-1.2-1.81-1.86-3.87-.72-2.22-.97-4.65-.7-4.72,.3-.08,.83,2.72,2.75,6.29,2.24,4.18,4.6,6.13,4.38,6.4Z"/><path d="M45.41,117.55c-.33,.16-1.77-2.39-2.11-5.56-.05-.51-.19-2.12,.2-4.23,.43-2.28,1.38-4.56,1.66-4.51,.31,.05-.57,2.78-.58,6.77-.02,4.66,1.15,7.39,.82,7.54Z"/><path class="r" d="M76.92,190.89c.42,2.25,4.21,3.18,11.77,4.96,7.98,1.87,14,2.39,15.62,2.52,3.96,.32,7.37,.37,9.82,.35-2.12-.78-5.37-1.91-9.52-3.06-7.3-2.03-8.15-1.58-11.92-2.94-8.18-2.95-9.77-7.1-12.81-6.25-1.95,.54-3.28,2.8-2.97,4.43Z"/><path class="r" d="M118.78,203.82c-1.72-2.4,.47-6.39,4.02-6.98,3.35-.56,7.15,2.03,6.69,4.9-.33,2.08-2.82,3.81-5.53,4.01-1.98,.14-4.18-.52-5.19-1.93Z"/><path d="M113.41,106.07c-3.08,1.79-5.27,3.5-6.72,4.77-2.25,1.96-2.54,2.69-2.57,3.32-.1,1.96,2.26,3.74,4.4,4.49,1.04,.37,1.43,.28,4.82,.77,2,.29,3.63,.57,4.72,.78-1.91-1.22-4.3-3.22-5.13-6-.38-1.27-.38-2.48-.37-3.26,.01-2.03,.45-3.71,.85-4.86Z"/><path class="aa" d="M173.95,191.49c-1.31-.88-3.89-2.6-4.55-6.07-1-5.19,3.07-10.09,3.94-11.13,4.59-5.51,10.84-6.73,11.68-6.88,1.38-.25,6.82-1.22,10.51,1.95,4.02,3.46,3.52,9.73,1.33,14.26-.29,.59-3.92,7.83-11.49,9.86-6.02,1.62-10.23-1.2-11.41-2Z"/><path class="x" d="M67.56,152.19c1.26-2.1,2.99-4.55,5.34-7.07,3.39-3.62,6.9-6.12,9.66-7.77"/><path class="x" d="M84.63,149.61c-2.5-.61-5.49-1.56-8.7-3.05-4.63-2.15-8.1-4.69-10.51-6.76"/><path class="x" d="M62.69,113.71c1.09-2.18,2.62-4.75,4.76-7.42,3.09-3.85,6.39-6.58,9.01-8.42"/><path class="x" d="M79.5,109.95c-2.55-.44-5.6-1.18-8.92-2.44-4.79-1.82-8.45-4.11-11.02-6.01"/></g></g><g id="b"/><g id="c"/><g id="d"/><g id="e"><g class="a`"><g id="g"/><g id="h"><g id="i"/></g></g></g><g id="j"/><g id="k"><g class="s"><g id="m"><g id="n"><g id="o"/></g></g></g></g><g id="p"/><g id="q"/></svg>