<?xml version="1.0" encoding="UTF-8"?><svg xmlns="http://www.w3.org/2000/svg" width="357.08" height="282.32" xmlns:xlink="http://www.w3.org/1999/xlink" viewBox="0 0 357.08 282.32"><defs><style>.r{clip-path:url(#l);}.s{fill:#969592;}.t{fill:none;}.u{clip-path:url(#f);}.v{fill:#e2dede;}</style><clipPath id="f"><rect class="t" x="-936.31" y="-2876.38" width="1920" height="1082"/></clipPath><clipPath id="l"><rect class="t" x="1003.69" y="-2876.38" width="1920" height="1082"/></clipPath></defs><g id="a"/><g id="b"><g><path class="s" d="M179.18,282.32c-7.17-4.54-20.54-14.5-27.61-31.81-12.7-31.12,4.84-61.68,12.19-74.4,4.52-7.82,22.32-38.62,58.47-49.37,23.67-7.04,29.82,5.56,61.15,2.85,36.65-3.17,62.55-27.86,68.68-21.58,7.47,7.66-27.89,62.25-78.5,108.56-35.38,32.37-69.85,53.05-94.38,65.74Z"/><path class="v" d="M185.43,60.34c2.79-8.5,8.17-20.85,19-32,29.2-30.07,87.44-40.49,124-10,34.31,28.61,32.93,79.39,21,110-8.18,21-21.65,33.31-92,82-36.15,25.02-67.51,45.94-92,62-17.13-11.72-41.35-29.13-69-52C34.87,169.42,4.02,143.24,.43,108.34-2.84,76.6,12.68,38.86,43.43,20.34c43.82-26.39,94.35,.87,102,5,20.36,10.98,33.12,25.7,40,35Z"/></g></g><g id="c"/><g id="d"/><g id="e"><g class="u"><g id="g"/><g id="h"><g id="i"/></g></g></g><g id="j"/><g id="k"><g class="r"><g id="m"><g id="n"><g id="o"/></g></g></g></g><g id="p"/><g id="q"/></svg>