<?xml version="1.0" encoding="UTF-8"?><svg xmlns="http://www.w3.org/2000/svg" width="119.71" height="233.01" viewBox="0 0 119.71 233.01"><defs><style>.q{fill:#00a01a;}.r{fill:none;stroke:#000;stroke-miterlimit:10;stroke-width:2px;}.s{fill:#fdfffe;}</style></defs><g id="a"/><g id="b"/><g id="c"/><g id="d"><g><path class="r" d="M88.15,141.93c.05,2.93,.52,7.3,2.76,12.1,1.93,4.15,3.81,5.67,6.17,9.22,4.37,6.57,6.86,14.79,7.01,20.12,.05,1.84-.1,5.94-10.61,16.6-8.71,8.84-13.06,10.55-12.8,17.17,.16,4.01,3.81,11.22,4.15,11.97,.68,1.5,1.23,2.57,1.7,3.42"/><g><path class="q" d="M85.68,137.78c-4.53-.98-10.97-2.61-18.4-5.32-11.5-4.19-37.76-13.75-54.41-37.65-3.54-5.09-10.69-15.6-12.46-30.7-1.81-15.38,2.97-26.81,4.05-29.28,2.04-4.67,8.38-18.58,25.14-27.49C33.85,5.08,46.14-1.25,62.07,.22c28.69,2.65,44.56,28.3,47.68,33.34,13.88,22.44,9.72,44.56,8.06,53.35-5.08,26.97-22.32,43.96-29.72,50.45,2.58,1.68,5.16,3.36,7.75,5.04-.32,1.01-.95,2.27-2.22,3.23-2.64,1.97-7.04,1.86-10.96-.35l3.01-7.5Z"/><path class="s" d="M14.87,86.81c.81-2.09,4.58-2.54,6.72-.67,2.01,1.77,2.09,5.19-.09,6.18-1.58,.72-3.97,0-5.42-1.55-1.06-1.12-1.68-2.74-1.2-3.97Z"/><path class="s" d="M24.85,24.06c-13.63,5.33-15.66,26.15-15.75,27.19-.53,6.29,.77,11.56,1.4,14.01,1.19,4.66,2.91,8.36,4.37,10.99,.32-6.08,.11-10.95-.16-14.35-.41-5.2-1.02-8.02,.35-12.39,.73-2.32,1.71-4.04,3.68-7.48,2.33-4.08,3.98-6.96,6.84-10.01,5.15-5.49,10.05-7.03,9.6-8.3-.44-1.24-5.74-1.45-10.34,.34Z"/></g></g></g><g id="e"><g id="f"><g id="g"/><g id="h"><g id="i"/></g></g></g><g id="j"/><g id="k"><g id="l"><g id="m"><g id="n"/></g></g></g><g id="o"/><g id="p"/></svg>