<?xml version="1.0" encoding="UTF-8"?><svg xmlns="http://www.w3.org/2000/svg" width="357.08" height="284.32" xmlns:xlink="http://www.w3.org/1999/xlink" viewBox="0 0 357.08 284.32"><defs><style>.r{fill:#fff;}.s{clip-path:url(#l);}.t{fill:#969592;}.u{fill:none;}.v{clip-path:url(#f);}.w{fill:#cb0a00;}</style><clipPath id="f"><rect class="u" x="-914.02" y="-2490.42" width="1920" height="1082"/></clipPath><clipPath id="l"><rect class="u" x="1025.98" y="-2490.42" width="1920" height="1082"/></clipPath></defs><g id="a"/><g id="b"><g><path class="t" d="M181.18,284.32c-7.17-4.54-20.54-14.5-27.61-31.81-12.7-31.12,4.84-61.68,12.19-74.4,4.52-7.82,22.32-38.62,58.47-49.37,23.67-7.04,29.82,5.56,61.15,2.85,36.65-3.17,62.55-27.86,68.68-21.58,7.47,7.66-27.89,62.25-78.5,108.56-35.38,32.37-69.85,53.05-94.38,65.74Z"/><path class="w" d="M185.43,60.34c2.79-8.5,8.17-20.85,19-32,29.2-30.07,87.44-40.49,124-10,34.31,28.61,32.93,79.39,21,110-8.18,21-21.65,33.31-92,82-36.15,25.02-67.51,45.94-92,62-17.13-11.72-41.35-29.13-69-52C34.87,169.42,4.02,143.24,.43,108.34-2.84,76.6,12.68,38.86,43.43,20.34c43.82-26.39,94.35,.87,102,5,20.36,10.98,33.12,25.7,40,35Z"/><path class="r" d="M68.16,28.24c-3.7-.68-7.58,3.36-12.58,8.56-9.08,9.45-14.19,21.16-16.28,26.06-.21,.49-.69,1.64-1.37,3.37-4.27,10.93-6.35,20.01-7.45,26.33,7.49-22.18,15.93-32.2,22.6-37.18,9.17-6.83,17.26-5.84,20.02-12.56,2.3-5.59-.24-13.73-4.94-14.59Z"/><path class="r" d="M31.68,112.38c4.04-2,9.06,4.5,9.1,11.58,.04,6.45-4.05,13.24-7.84,12.3-3.16-.78-6.59-7.06-6.28-13.75,.27-5.55,3.01-9.13,5.02-10.13Z"/></g></g><g id="c"/><g id="d"/><g id="e"><g class="v"><g id="g"/><g id="h"><g id="i"/></g></g></g><g id="j"/><g id="k"><g class="s"><g id="m"><g id="n"><g id="o"/></g></g></g></g><g id="p"/><g id="q"/></svg>