<?xml version="1.0" encoding="UTF-8"?><svg xmlns="http://www.w3.org/2000/svg" width="311.8" height="290.65" xmlns:xlink="http://www.w3.org/1999/xlink" viewBox="0 0 311.8 290.65"><defs><style>.r{fill:#fff;}.s{clip-path:url(#l);}.t{fill:#e0af00;}.u{fill:#969592;}.v{fill:gold;}.w{fill:none;}.x{clip-path:url(#f);}</style><clipPath id="f"><rect class="w" x="-1110.89" y="-1339.74" width="1920" height="1082"/></clipPath><clipPath id="l"><rect class="w" x="829.11" y="-1339.74" width="1920" height="1082"/></clipPath></defs><g id="a"/><g id="b"><g><path class="u" d="M277,105.65c15.29,5.64,23.37,18.74,26,23.02,20.49,33.23-.3,76.22-7,90.06-4.74,9.81-23.42,48.43-67,65.05-27.38,10.44-50.67,6.88-76,3-27.76-4.25-64.22-9.83-70-29.02-2.38-7.92-.2-20.33,55-70.05,67.17-60.5,105.7-94.34,139-82.06Z"/><path class="v" d="M153,0c86.33,3.47,151.43,58.98,158.19,120.86,7.39,67.63-57.45,116.6-66.29,122.31-42.16,27.25-114.84,47.39-176.18,17.47-17.08-8.33-30.67-19.26-41.16-31.77C-13.26,180.18,3,115.2,4.19,110.66,19.59,51.94,79.2,6.78,153,0Z"/><path class="r" d="M76.42,38.34c-4.96-.56-9.73,5-15.89,12.17-11.18,13.02-16.9,28.62-19.23,35.13-.23,.66-.77,2.18-1.52,4.49-4.69,14.52-6.64,26.45-7.53,34.72,7.96-29.36,18.23-43.05,26.62-50.07,11.52-9.64,22.31-9.04,25.37-17.98,2.54-7.43-1.52-17.75-7.82-18.46Z"/><path class="r" d="M20.39,147.62c5.35-2.59,12,5.84,12.06,15.02,.05,8.36-5.37,17.17-10.4,15.96-4.19-1.02-8.74-9.16-8.32-17.83,.35-7.19,3.99-11.85,6.65-13.14Z"/><path class="u" d="M183.11,72.02c6.01-.83,14.01,3.45,30,12,6.34,3.39,25.38,14.06,38.51,33.56,3.35,4.97,5.44,9.52,4.17,13.71-1.6,5.26-8.45,7.09-14.59,8.73-11.02,2.94-14.51,.07-17.72,3.74-1.06,1.22-2.76,3.91-1.04,23.68,0,0,1.01,11.65,4.17,32.41h0s2.02,8.37,.51,12.17c-2.13,5.33-13.2,6.3-37,5-24.64-1.35-36.96-2.03-41.67-5.95-13.23-11.02-10.12-33.98-7.3-54.85,1.06-7.83,10.81-79.92,41.97-84.2Z"/><g><path class="t" d="M68.22,134.76c1.82-7.08,6.41-10.9,12.86-17.18,3.36-3.27,8.25-8.21,14.03-14.73,.06-3.67-.29-8.92-2.34-14.73-1.53-4.34-3.1-6.37-2.34-8.59,.75-2.2,3.77-4.55,14.03-4.91,2.34,4.5,4.68,9,7.02,13.5,4.29-3.33,10.97-8.72,18.71-15.96,14.77-13.79,15.89-17.89,22.22-19.64,8.85-2.44,18.38,4.1,37.42,17.18,17.62,12.1,28,22.61,30.76,25.45,15.06,15.5,25.96,26.72,23.04,34.69-4.12,11.23-33,8.78-35.08,8.59-.09,9.37,.25,22.96,2.34,39.28,1.93,15.08,3.59,18.63,1.17,23.32-5.18,10.03-19.33,6.55-54.97,11.05-29.44,3.71-40.15,8.65-46.78,1.23-3.48-3.9-3.88-11.19-4.68-25.77-.59-10.74,.43-17.59-1.17-31.91-.41-3.69-.86-6.69-1.17-8.59-8.3,.63-15.1,.37-19.88,0-11.31-.88-14.03-2.64-15.2-4.91-1.24-2.4-.59-5.08,0-7.36Z"/><path class="t" d="M68.22,134.76c1.82-7.08,6.41-10.9,12.86-17.18,3.36-3.27,8.25-8.21,14.03-14.73,.06-3.67-.29-8.92-2.34-14.73-1.53-4.34-3.1-6.37-2.34-8.59,.75-2.2,3.77-4.55,14.03-4.91,2.34,4.5,4.68,9,7.02,13.5,4.29-3.33,10.97-8.72,18.71-15.96,14.77-13.79,15.89-17.89,22.22-19.64,8.85-2.44,18.38,4.1,37.42,17.18,17.62,12.1,28,22.61,30.76,25.45,15.06,15.5,25.96,26.72,23.04,34.69-4.12,11.23-33,8.78-35.08,8.59-.09,9.37,.25,22.96,2.34,39.28,1.93,15.08,3.59,18.63,1.17,23.32-5.18,10.03-19.33,6.55-54.97,11.05-29.44,3.71-40.15,8.65-46.78,1.23-3.48-3.9-3.88-11.19-4.68-25.77-.59-10.74,.43-17.59-1.17-31.91-.41-3.69-.86-6.69-1.17-8.59-8.3,.63-15.1,.37-19.88,0-11.31-.88-14.03-2.64-15.2-4.91-1.24-2.4-.59-5.08,0-7.36Z"/><path class="t" d="M68.22,134.76c1.82-7.08,6.41-10.9,12.86-17.18,3.36-3.27,8.25-8.21,14.03-14.73,.06-3.67-.29-8.92-2.34-14.73-1.53-4.34-3.1-6.37-2.34-8.59,.75-2.2,3.77-4.55,14.03-4.91,2.34,4.5,4.68,9,7.02,13.5,4.29-3.33,10.97-8.72,18.71-15.96,14.77-13.79,15.89-17.89,22.22-19.64,8.85-2.44,18.38,4.1,37.42,17.18,17.62,12.1,28,22.61,30.76,25.45,15.06,15.5,25.96,26.72,23.04,34.69-4.12,11.23-33,8.78-35.08,8.59-.09,9.37,.25,22.96,2.34,39.28,1.93,15.08,3.59,18.63,1.17,23.32-5.18,10.03-19.33,6.55-54.97,11.05-29.44,3.71-40.15,8.65-46.78,1.23-3.48-3.9-3.88-11.19-4.68-25.77-.59-10.74,.43-17.59-1.17-31.91-.41-3.69-.86-6.69-1.17-8.59-8.3,.63-15.1,.37-19.88,0-11.31-.88-14.03-2.64-15.2-4.91-1.24-2.4-.59-5.08,0-7.36Z"/><path class="t" d="M68.22,134.76c1.82-7.08,6.41-10.9,12.86-17.18,3.36-3.27,8.25-8.21,14.03-14.73,.06-3.67-.29-8.92-2.34-14.73-1.53-4.34-3.1-6.37-2.34-8.59,.75-2.2,3.77-4.55,14.03-4.91,2.34,4.5,4.68,9,7.02,13.5,4.29-3.33,10.97-8.72,18.71-15.96,14.77-13.79,15.89-17.89,22.22-19.64,8.85-2.44,18.38,4.1,37.42,17.18,17.62,12.1,28,22.61,30.76,25.45,15.06,15.5,25.96,26.72,23.04,34.69-4.12,11.23-33,8.78-35.08,8.59-.09,9.37,.25,22.96,2.34,39.28,1.93,15.08,3.59,18.63,1.17,23.32-5.18,10.03-19.33,6.55-54.97,11.05-29.44,3.71-40.15,8.65-46.78,1.23-3.48-3.9-3.88-11.19-4.68-25.77-.59-10.74,.43-17.59-1.17-31.91-.41-3.69-.86-6.69-1.17-8.59-8.3,.63-15.1,.37-19.88,0-11.31-.88-14.03-2.64-15.2-4.91-1.24-2.4-.59-5.08,0-7.36Z"/><path class="t" d="M68.22,134.76c1.82-7.08,6.41-10.9,12.86-17.18,3.36-3.27,8.25-8.21,14.03-14.73,.06-3.67-.29-8.92-2.34-14.73-1.53-4.34-3.1-6.37-2.34-8.59,.75-2.2,3.77-4.55,14.03-4.91,2.34,4.5,4.68,9,7.02,13.5,4.29-3.33,10.97-8.72,18.71-15.96,14.77-13.79,15.89-17.89,22.22-19.64,8.85-2.44,18.38,4.1,37.42,17.18,17.62,12.1,28,22.61,30.76,25.45,15.06,15.5,25.96,26.72,23.04,34.69-4.12,11.23-33,8.78-35.08,8.59-.09,9.37,.25,22.96,2.34,39.28,1.93,15.08,3.59,18.63,1.17,23.32-5.18,10.03-19.33,6.55-54.97,11.05-29.44,3.71-40.15,8.65-46.78,1.23-3.48-3.9-3.88-11.19-4.68-25.77-.59-10.74,.43-17.59-1.17-31.91-.41-3.69-.86-6.69-1.17-8.59-8.3,.63-15.1,.37-19.88,0-11.31-.88-14.03-2.64-15.2-4.91-1.24-2.4-.59-5.08,0-7.36Z"/></g><path class="u" d="M128.11,140.25v23.06c6.8,.5,13.61,.99,20.41,1.49,.34-8.92,.68-17.85,1.02-26.77l-21.44,2.23Z"/><path class="u" d="M164.11,137.35v24.11c8.25,.52,16.51,1.04,24.76,1.56,.41-9.33,.83-18.67,1.24-28l-26,2.33Z"/></g></g><g id="c"/><g id="d"/><g id="e"><g class="x"><g id="g"/><g id="h"><g id="i"/></g></g></g><g id="j"/><g id="k"><g class="s"><g id="m"><g id="n"><g id="o"/></g></g></g></g><g id="p"/><g id="q"/></svg>