<?xml version="1.0" encoding="utf-8"?>
<!-- Generator: Adobe Illustrator 26.2.1, SVG Export Plug-In . SVG Version: 6.00 Build 0)  -->
<svg version="1.1" xmlns="http://www.w3.org/2000/svg" xmlns:xlink="http://www.w3.org/1999/xlink" x="0px" y="0px"
	 viewBox="0 0 247.8 327.2" style="enable-background:new 0 0 247.8 327.2;" xml:space="preserve">
<style type="text/css">
	.st0{fill:#337F5C;}
	.st1{fill:#C5A7C6;}
	.st2{fill:#FAFCFA;}
	.st3{fill:#825E84;}
	.st4{fill:#FFFFFF;}
	.st5{fill:#A283A5;}
	.st6{fill:#000200;}
	.st7{fill:#F2C0E3;}
	.st8{fill:#FDFFFE;}
	.st9{fill:#F7DA06;}
	.st10{fill:#00A01A;}
	.st11{fill:#0B38F7;}
	.st12{fill:#CE287F;}
	.st13{fill:#F45A0C;}
	.st14{fill:none;stroke:#000000;stroke-width:3;stroke-linecap:round;stroke-miterlimit:10;}
	.st15{fill:#30092A;}
	.st16{fill:#969592;}
	.st17{fill:#CB0A00;}
	.st18{fill:#FFD700;}
	.st19{fill:#E0AF00;}
	.st20{fill:#E2DEDE;}
	.st21{fill:#1E0D00;}
	.st22{clip-path:url(#SVGID_00000063630073428959283790000006401343270880693145_);}
	.st23{fill:#C4E4F7;}
	.st24{fill:#D8E8B3;}
	.st25{fill:#C6DB8A;}
	.st26{fill:#8ED0FF;}
	.st27{fill:#B7FFFF;}
	.st28{fill:#C9FFFF;}
	.st29{fill:#C5CC83;}
	.st30{fill:#8EA87D;}
	.st31{fill:#FCFAFC;}
	.st32{fill:#A0BC8E;}
	.st33{fill:#56134E;}
	.st34{fill:#EEDCEF;}
	.st35{fill:#E0B6E0;}
	.st36{fill:#7C3E7B;}
	.st37{fill:#E6F0F4;}
	.st38{fill:#A06EA0;}
	.st39{fill:#F9D606;}
	.st40{fill:#FDFEFF;}
	.st41{fill:none;stroke:#000000;stroke-width:2;stroke-miterlimit:10;}
	.st42{clip-path:url(#SVGID_00000124130716883471195030000014319096285908083350_);}
	.st43{fill:url(#SVGID_00000083802267844621641850000007836796727864834989_);}
	.st44{clip-path:url(#SVGID_00000124130716883471195030000014319096285908083350_);fill:#FFFAFE;}
	.st45{fill:#C02F02;}
	.st46{fill:#F47003;}
	.st47{fill:#EDA43A;}
	.st48{fill:#3A1801;}
	.st49{fill:#EAB56E;}
	.st50{clip-path:url(#SVGID_00000115492485517824199630000017754544698908038028_);}
	.st51{filter:url(#AI_BevelShadow_1);}
	.st52{fill:url(#SVGID_00000037688745317736525150000005625636355417217213_);}
	.st53{opacity:0.3;}
	.st54{fill:#FAFAFC;}
	.st55{fill:#FCFCFC;}
	.st56{fill:#5FB8E0;}
	.st57{fill:#45DB7A;}
	.st58{fill:#DCF4E4;}
	.st59{fill:#907758;}
	.st60{fill:#DAB888;}
	.st61{fill:#E8D6BF;}
	.st62{fill:#5B4732;}
</style>
<g id="Dinos">
</g>
<g id="UI">
	<g id="FallingLeaf">
		<g>
			<g>
				<path class="st21" d="M184.4,255.5c-1.1,2.6-17.7-2.2-31.3-13.4c-7.7-6.3-23.7-22.2-32.2-58c14.9,5.3,23.2,13.5,28.1,19.9
					c7.3,9.7,6.9,15.7,16.1,29C175.6,248.3,185.3,253.5,184.4,255.5z"/>
				<path class="st21" d="M198.6,195.3c-5.9-1.2-15.1-3.8-25.6-9.4c-9.4-5-12-8.3-28.1-19.9c-19-13.7-28.5-18.6-28.1-19.9
					c0.5-1.5,13.3,2.7,25.6,9.4c11.6,6.2,16.9,11.4,33.7,23.9C185.7,186.4,193.6,191.9,198.6,195.3z"/>
				<path class="st21" d="M107.1,104.1c6.8,7.9,19.9,20.9,39.3,27.8c36.2,12.9,66.2-5.6,72.8-10c-9.9,2.3-17.8,2-23.2,1.1
					c-5.2-0.8-7.7-1.9-20-5.4c0,0-8.4-2.4-20-5.4C138.8,107.9,120.6,105.4,107.1,104.1z"/>
				<path class="st21" d="M233.5,61.7c-0.3-0.9-6.9,1.7-17.6,5.1c-9.3,3-14,4.4-17.6,5.1c-9.5,1.8-17.4,1.4-23.2,1.1
					c-7.2-0.4-7.8-1-14.4-1.4c-11.3-0.7-18.6,0.7-23.2,1.1C113.3,75,92.6,56.2,91.8,58c-0.6,1.5,11.8,12.2,28.1,19.9
					c7,3.3,7.6,2.7,25.6,9.4c21.5,7.9,20.5,8.8,25.6,9.4c4.6,0.5,21.9,1.8,35.2-10.2c5.3-4.8,6.5-8.6,15.2-15.6
					C228.3,65.3,233.8,62.5,233.5,61.7z"/>
				<path class="st21" d="M233.3,0c-11.6,0.4-20.8,4.5-26.4,7.7c-4.3,1.3-22,6.4-26.4,7.7c-34.5,10.1-34,9.9-35.2,10.2
					c-37.4,9.7-63.8,4-64,7.4c-0.2,3,20.1,8.9,40.1,10.8c25.5,2.4,45-2.6,55.2-4.8c12.9-2.9,29.5-8.3,47.2-19.3
					c9.4-5.9,17.4-12.2,24-18.2C243.7,0.5,238.9-0.2,233.3,0z"/>
				<path class="st21" d="M111.7,327.2c4.5-6.8,9.2-15.5,12.7-26.2c13-38.8,2.4-76.3-1.8-89.2c-4.2,8.1-9.3,20.6-10.3,36.7
					c-0.7,10.6,0.8,17,1.7,27.6C115,287.9,115.3,305.3,111.7,327.2z"/>
				<path class="st21" d="M121.5,175.8c-2.6,5.3-6.5,13.3-11.3,23.2c-8.5,17.6-9.6,19.9-11.3,23.2c-4.8,9-13,21-27.4,32.6
					c2.6,0.4,6.9,0.6,12.3-1.6c0,0,10.2-4.2,19.9-17.1C121.5,212.3,121.5,177.5,121.5,175.8z"/>
				<path class="st21" d="M50.5,204.7c-1.3-1.3,5.6-15.7,13.5-27.8c8.5-13,14.7-18.3,19.2-23.8c8.1-10,16.2-28.1,15.8-63.5
					c3.4,6.5,8.4,18.6,6.7,32.8c-1.2,9.6-6.4,18-16.9,34.7c-8.2,13.1-15.1,21.6-22.5,30.8C58.7,197.1,51.7,205.8,50.5,204.7z"/>
				<path class="st21" d="M110.6,125.2c1.2,0,3.5,12.9,2.3,27.9c-0.5,6.5-1.2,6.8-3.8,22.8c-3.1,19.1-2.2,18.6-3.8,22.8
					c-1.4,3.7-7.3,17.5-20.5,24.1c-5.3,2.6-8.2,2.4-16.3,6.9c-6.3,3.6-10.3,7-10.7,6.5c-0.5-0.5,3.8-4.8,10.2-12
					c5.6-6.3,8.4-9.4,10.2-12c4.9-6.8,7.7-13,9.8-17.6c2.6-5.7,2.4-6.4,4.7-11.6c4-9,7.7-14.2,9.8-17.6
					C113.4,147.1,109,125.2,110.6,125.2z"/>
				<path class="st21" d="M83.4,39.7c-2.7-0.9-7.5,57.2-37.6,94c-0.4,0.4-0.2,0.3-22.9,27c-1.8,2.1-21.2,24.9-22.9,27
					c12.2-3.5,32.7-12,50-33.9c16-20.3,21.6-42.4,26.9-63.1C83.4,64.7,85.2,40.3,83.4,39.7z"/>
			</g>
			<path class="st21" d="M82.3,29c-3,2.8-5.9,5.6-8.6,8.6c0,0,0,0,0,0c0.3,0.6,0.5,1,0.8,1.6c54.4,111,47.6,186.4,48.1,186.5
				C123,225.8,129.3,134,82.3,29z"/>
		</g>
	</g>
</g>
<g id="Welcome">
	<defs>
		<rect id="SVGID_1_" x="-1433.6" y="-2195" width="1920" height="1083"/>
	</defs>
	<clipPath id="SVGID_00000183948338671375379110000015701600956653070265_">
		<use xlink:href="#SVGID_1_"  style="overflow:visible;"/>
	</clipPath>
	<g id="WelcomeScreen" style="clip-path:url(#SVGID_00000183948338671375379110000015701600956653070265_);">
	</g>
</g>
<g id="Balloons">
</g>
<g id="GameOver">
	<g id="Layer_5">
		<defs>
			<rect id="SVGID_00000143581679202470612010000004705169752858166174_" x="898.4" y="-471" width="1916" height="1085"/>
		</defs>
		<clipPath id="SVGID_00000043425727594822750060000011333147984081444256_">
			<use xlink:href="#SVGID_00000143581679202470612010000004705169752858166174_"  style="overflow:visible;"/>
		</clipPath>
		<g id="Layer_6" style="clip-path:url(#SVGID_00000043425727594822750060000011333147984081444256_);">
		</g>
		<g id="Layer_7" style="clip-path:url(#SVGID_00000043425727594822750060000011333147984081444256_);">
			<g id="Layer_9">
			</g>
		</g>
	</g>
</g>
<g id="FallingAsteroid">
</g>
<g id="WinScreen">
	<defs>
		<rect id="SVGID_00000039837290459036227070000001909734457179692173_" x="2947.4" y="-2424" width="1922" height="1084"/>
	</defs>
	<clipPath id="SVGID_00000175282720183013946100000001418812432080134020_">
		<use xlink:href="#SVGID_00000039837290459036227070000001909734457179692173_"  style="overflow:visible;"/>
	</clipPath>
	<g id="Layer_12" style="clip-path:url(#SVGID_00000175282720183013946100000001418812432080134020_);">
		<g id="Layer_13">
			<g id="Layer_14">
			</g>
		</g>
	</g>
</g>
<g id="Asteroid">
</g>
<g id="GameScreen">
</g>
</svg>
