<?xml version="1.0" encoding="utf-8"?>
<!-- Generator: Adobe Illustrator 26.2.1, SVG Export Plug-In . SVG Version: 6.00 Build 0)  -->
<svg version="1.1" xmlns="http://www.w3.org/2000/svg" xmlns:xlink="http://www.w3.org/1999/xlink" x="0px" y="0px"
	 viewBox="0 0 1191.1 292.3" style="enable-background:new 0 0 1191.1 292.3;" xml:space="preserve">
<style type="text/css">
	.st0{clip-path:url(#SVGID_00000139996342496108803400000002710671731966277508_);fill:#C4E4F7;}
	.st1{clip-path:url(#SVGID_00000139996342496108803400000002710671731966277508_);fill:#D8E8B3;}
	.st2{clip-path:url(#SVGID_00000139996342496108803400000002710671731966277508_);}
	.st3{fill:#D8E8B3;}
	.st4{clip-path:url(#SVGID_00000139996342496108803400000002710671731966277508_);fill:#C6DB8A;}
	.st5{fill:#8ED0FF;}
	.st6{fill:#B7FFFF;}
	.st7{fill:#C9FFFF;}
	.st8{fill:#FFFFFF;}
	.st9{clip-path:url(#SVGID_00000139996342496108803400000002710671731966277508_);fill:#C5CC83;}
	.st10{clip-path:url(#SVGID_00000139996342496108803400000002710671731966277508_);fill:#8EA87D;}
	.st11{clip-path:url(#SVGID_00000139996342496108803400000002710671731966277508_);fill:#FCFAFC;}
	.st12{fill:#A0BC8E;}
	.st13{clip-path:url(#SVGID_00000139996342496108803400000002710671731966277508_);fill:#56134E;}
	.st14{fill:#EEDCEF;}
	.st15{clip-path:url(#SVGID_00000139996342496108803400000002710671731966277508_);fill:#E0B6E0;}
	.st16{clip-path:url(#SVGID_00000139996342496108803400000002710671731966277508_);fill:#7C3E7B;}
	.st17{fill:#30092A;}
	.st18{clip-path:url(#SVGID_00000139996342496108803400000002710671731966277508_);fill:#30092A;}
	.st19{fill:#C5CC83;}
	.st20{fill:#E6F0F4;}
	.st21{clip-path:url(#SVGID_00000139996342496108803400000002710671731966277508_);fill:#A06EA0;}
	.st22{clip-path:url(#SVGID_00000139996342496108803400000002710671731966277508_);fill:#FDFEFF;}
	.st23{fill:#337F5C;}
	.st24{fill:#C5A7C6;}
	.st25{fill:#FAFCFA;}
	.st26{fill:#825E84;}
	.st27{fill:#A283A5;}
	.st28{fill:#000200;}
	.st29{fill:#F2C0E3;}
	.st30{fill:#56134E;}
	.st31{fill:none;stroke:#000000;stroke-width:2;stroke-miterlimit:10;}
	.st32{fill:#F7DA06;}
	.st33{fill:#FDFFFE;}
	.st34{fill:#00A01A;}
	.st35{fill:#907758;}
	.st36{fill:#DAB888;}
	.st37{fill:#E8D6BF;}
	.st38{fill:#5B4732;}
	.st39{fill:#969592;}
	.st40{fill:#CB0A00;}
	.st41{fill:#CE287F;}
	.st42{fill:#F45A0C;}
	.st43{fill:#0B38F7;}
	.st44{fill:none;stroke:#000000;stroke-width:3;stroke-linecap:round;stroke-miterlimit:10;}
	.st45{fill:#FFD700;}
	.st46{fill:#E0AF00;}
	.st47{fill:#E2DEDE;}
	.st48{fill:#1E0D00;}
	.st49{clip-path:url(#SVGID_00000178924734495464899560000008707660387570728105_);}
	.st50{fill:#C4E4F7;}
	.st51{fill:#C6DB8A;}
	.st52{fill:#8EA87D;}
	.st53{fill:#FCFAFC;}
	.st54{fill:#E0B6E0;}
	.st55{fill:#7C3E7B;}
	.st56{fill:#A06EA0;}
	.st57{fill:#F9D606;}
	.st58{fill:#FDFEFF;}
	.st59{clip-path:url(#SVGID_00000055665616319260291200000003981093916867085991_);}
	.st60{fill:url(#SVGID_00000142874308694022819180000015994640926157869209_);}
	.st61{clip-path:url(#SVGID_00000055665616319260291200000003981093916867085991_);fill:#FFFAFE;}
	.st62{fill:#C02F02;}
	.st63{fill:#F47003;}
	.st64{fill:#EDA43A;}
	.st65{fill:#3A1801;}
	.st66{fill:#EAB56E;}
	.st67{clip-path:url(#SVGID_00000102544333027205501720000015190566063368642965_);}
	.st68{filter:url(#AI_BevelShadow_1);}
	.st69{fill:url(#SVGID_00000012442505100063680310000004307126255332377238_);}
	.st70{opacity:0.3;}
	.st71{fill:#FAFAFC;}
	.st72{fill:#FCFCFC;}
	.st73{fill:#5FB8E0;}
	.st74{fill:#45DB7A;}
	.st75{fill:#DCF4E4;}
</style>
<g id="Instructions">
	<defs>
		<rect id="SVGID_1_" x="-2635.1" y="-3369.9" width="1920" height="1081"/>
	</defs>
	<clipPath id="SVGID_00000059276140397576814020000017033202593181543598_">
		<use xlink:href="#SVGID_1_"  style="overflow:visible;"/>
	</clipPath>
</g>
<g id="Dinos">
</g>
<g id="UI">
	<g id="FallingLeaf">
	</g>
	<g id="Layer_22">
	</g>
	<g id="Layer_23">
		<g>
			<g>
				<path class="st39" d="M181.2,292.3c-7.2-4.5-20.5-14.5-27.6-31.8c-12.7-31.1,4.8-61.7,12.2-74.4c4.5-7.8,22.3-38.6,58.5-49.4
					c23.7-7,29.8,5.6,61.2,2.9c36.6-3.2,62.6-27.9,68.7-21.6c7.5,7.7-27.9,62.3-78.5,108.6C240.2,258.9,205.7,279.6,181.2,292.3z"/>
				<path class="st40" d="M185.4,68.3c2.8-8.5,8.2-20.9,19-32c29.2-30.1,87.4-40.5,124-10c34.3,28.6,32.9,79.4,21,110
					c-8.2,21-21.7,33.3-92,82c-36.2,25-67.5,45.9-92,62c-17.1-11.7-41.4-29.1-69-52c-61.6-50.9-92.4-77.1-96-112
					c-3.3-31.7,12.2-69.5,43-88c43.8-26.4,94.4,0.9,102,5C165.8,44.3,178.6,59,185.4,68.3z"/>
				<path class="st8" d="M68.2,36.2c-3.7-0.7-7.6,3.4-12.6,8.6C46.5,54.3,41.4,66,39.3,70.9c-0.2,0.5-0.7,1.6-1.4,3.4
					c-4.3,10.9-6.4,20-7.4,26.3C38,78.4,46.4,68.4,53.1,63.4c9.2-6.8,17.3-5.8,20-12.6C75.4,45.2,72.9,37.1,68.2,36.2z"/>
				<path class="st8" d="M31.7,120.4c4-2,9.1,4.5,9.1,11.6c0,6.4-4.1,13.2-7.8,12.3c-3.2-0.8-6.6-7.1-6.3-13.7
					C26.9,125,29.7,121.4,31.7,120.4z"/>
			</g>
			<g>
				<path class="st39" d="M1013.2,282.3c-7.2-4.5-20.5-14.5-27.6-31.8c-12.7-31.1,4.8-61.7,12.2-74.4c4.5-7.8,22.3-38.6,58.5-49.4
					c23.7-7,29.8,5.6,61.2,2.9c36.6-3.2,62.6-27.9,68.7-21.6c7.5,7.7-27.9,62.3-78.5,108.6C1072.2,248.9,1037.7,269.6,1013.2,282.3z
					"/>
				<path class="st47" d="M1019.4,60.3c2.8-8.5,8.2-20.9,19-32c29.2-30.1,87.4-40.5,124-10c34.3,28.6,32.9,79.4,21,110
					c-8.2,21-21.7,33.3-92,82c-36.2,25-67.5,45.9-92,62c-17.1-11.7-41.4-29.1-69-52c-61.6-50.9-92.4-77.1-96-112
					c-3.3-31.7,12.2-69.5,43-88c43.8-26.4,94.4,0.9,102,5C999.8,36.3,1012.6,51,1019.4,60.3z"/>
			</g>
			<g>
				<path class="st39" d="M592.2,288.3c-7.2-4.5-20.5-14.5-27.6-31.8c-12.7-31.1,4.8-61.7,12.2-74.4c4.5-7.8,22.3-38.6,58.5-49.4
					c23.7-7,29.8,5.6,61.2,2.9c36.6-3.2,62.6-27.9,68.7-21.6c7.5,7.7-27.9,62.3-78.5,108.6C651.2,254.9,616.7,275.6,592.2,288.3z"/>
				<path class="st47" d="M598.4,66.3c2.8-8.5,8.2-20.9,19-32c29.2-30.1,87.4-40.5,124-10c34.3,28.6,32.9,79.4,21,110
					c-8.2,21-21.7,33.3-92,82c-36.2,25-67.5,45.9-92,62c-17.1-11.7-41.4-29.1-69-52c-61.6-50.9-92.4-77.1-96-112
					c-3.3-31.7,12.2-69.5,43-88c43.8-26.4,94.4,0.9,102,5C578.8,42.3,591.6,57,598.4,66.3z"/>
			</g>
		</g>
	</g>
	<g id="Layer_24">
	</g>
</g>
<g id="Welcome1">
	<defs>
		<rect id="SVGID_00000007413480970239304420000011012954055791615381_" x="-4653.1" y="-1855.9" width="1920" height="1083"/>
	</defs>
	<clipPath id="SVGID_00000158744791683654184150000013340749863461056438_">
		<use xlink:href="#SVGID_00000007413480970239304420000011012954055791615381_"  style="overflow:visible;"/>
	</clipPath>
	<g id="WelcomeScreen" style="clip-path:url(#SVGID_00000158744791683654184150000013340749863461056438_);">
	</g>
</g>
<g id="Balloons">
</g>
<g id="GameOver">
	<g id="Layer_5">
		<defs>
			<rect id="SVGID_00000020359348907056088330000009745322745639282598_" x="-2321.1" y="-129.9" width="1920" height="1080"/>
		</defs>
		<clipPath id="SVGID_00000152250192312493094440000004951460991955820722_">
			<use xlink:href="#SVGID_00000020359348907056088330000009745322745639282598_"  style="overflow:visible;"/>
		</clipPath>
		<g id="Layer_6" style="clip-path:url(#SVGID_00000152250192312493094440000004951460991955820722_);">
		</g>
		<g id="Layer_7" style="clip-path:url(#SVGID_00000152250192312493094440000004951460991955820722_);">
			<g id="Layer_9">
			</g>
		</g>
	</g>
</g>
<g id="FallingAsteroid">
</g>
<g id="WinScreen">
	<defs>
		<rect id="SVGID_00000120526030102068077430000015401082934735844262_" x="-272.1" y="-2084.9" width="1922" height="1084"/>
	</defs>
	<clipPath id="SVGID_00000011000383837989101060000006782316796520824496_">
		<use xlink:href="#SVGID_00000120526030102068077430000015401082934735844262_"  style="overflow:visible;"/>
	</clipPath>
	<g id="Layer_12" style="clip-path:url(#SVGID_00000011000383837989101060000006782316796520824496_);">
		<g id="Layer_13">
			<g id="Layer_14">
			</g>
		</g>
	</g>
</g>
<g id="Asteroid">
</g>
<g id="GameScreen">
</g>
</svg>
