<?xml version="1.0" encoding="utf-8"?>
<!-- Generator: Adobe Illustrator 26.2.1, SVG Export Plug-In . SVG Version: 6.00 Build 0)  -->
<svg version="1.1" xmlns="http://www.w3.org/2000/svg" xmlns:xlink="http://www.w3.org/1999/xlink" x="0px" y="0px"
	 viewBox="0 0 1183.1 290.3" style="enable-background:new 0 0 1183.1 290.3;" xml:space="preserve">
<style type="text/css">
	.st0{clip-path:url(#SVGID_00000096032221791414260110000004009330997424503732_);fill:#C4E4F7;}
	.st1{clip-path:url(#SVGID_00000096032221791414260110000004009330997424503732_);fill:#D8E8B3;}
	.st2{clip-path:url(#SVGID_00000096032221791414260110000004009330997424503732_);}
	.st3{fill:#D8E8B3;}
	.st4{clip-path:url(#SVGID_00000096032221791414260110000004009330997424503732_);fill:#C6DB8A;}
	.st5{fill:#8ED0FF;}
	.st6{fill:#B7FFFF;}
	.st7{fill:#C9FFFF;}
	.st8{fill:#FFFFFF;}
	.st9{clip-path:url(#SVGID_00000096032221791414260110000004009330997424503732_);fill:#C5CC83;}
	.st10{clip-path:url(#SVGID_00000096032221791414260110000004009330997424503732_);fill:#8EA87D;}
	.st11{clip-path:url(#SVGID_00000096032221791414260110000004009330997424503732_);fill:#FCFAFC;}
	.st12{fill:#A0BC8E;}
	.st13{clip-path:url(#SVGID_00000096032221791414260110000004009330997424503732_);fill:#56134E;}
	.st14{fill:#EEDCEF;}
	.st15{clip-path:url(#SVGID_00000096032221791414260110000004009330997424503732_);fill:#E0B6E0;}
	.st16{clip-path:url(#SVGID_00000096032221791414260110000004009330997424503732_);fill:#7C3E7B;}
	.st17{fill:#30092A;}
	.st18{clip-path:url(#SVGID_00000096032221791414260110000004009330997424503732_);fill:#30092A;}
	.st19{fill:#C5CC83;}
	.st20{fill:#E6F0F4;}
	.st21{clip-path:url(#SVGID_00000096032221791414260110000004009330997424503732_);fill:#A06EA0;}
	.st22{clip-path:url(#SVGID_00000096032221791414260110000004009330997424503732_);fill:#FDFEFF;}
	.st23{fill:#337F5C;}
	.st24{fill:#C5A7C6;}
	.st25{fill:#FAFCFA;}
	.st26{fill:#825E84;}
	.st27{fill:#A283A5;}
	.st28{fill:#000200;}
	.st29{fill:#F2C0E3;}
	.st30{fill:#56134E;}
	.st31{fill:none;stroke:#000000;stroke-width:2;stroke-miterlimit:10;}
	.st32{fill:#F7DA06;}
	.st33{fill:#FDFFFE;}
	.st34{fill:#00A01A;}
	.st35{fill:#907758;}
	.st36{fill:#DAB888;}
	.st37{fill:#E8D6BF;}
	.st38{fill:#5B4732;}
	.st39{fill:#969592;}
	.st40{fill:#CB0A00;}
	.st41{fill:#CE287F;}
	.st42{fill:#F45A0C;}
	.st43{fill:#0B38F7;}
	.st44{fill:none;stroke:#000000;stroke-width:3;stroke-linecap:round;stroke-miterlimit:10;}
	.st45{fill:#FFD700;}
	.st46{fill:#E0AF00;}
	.st47{fill:#E2DEDE;}
	.st48{fill:#1E0D00;}
	.st49{clip-path:url(#SVGID_00000043421795606202497820000002094431427446660017_);}
	.st50{fill:#C4E4F7;}
	.st51{fill:#C6DB8A;}
	.st52{fill:#8EA87D;}
	.st53{fill:#FCFAFC;}
	.st54{fill:#E0B6E0;}
	.st55{fill:#7C3E7B;}
	.st56{fill:#A06EA0;}
	.st57{fill:#F9D606;}
	.st58{fill:#FDFEFF;}
	.st59{clip-path:url(#SVGID_00000183207974430618743250000013596092588584881333_);}
	.st60{fill:url(#SVGID_00000129916555445355891500000011414801413409620915_);}
	.st61{clip-path:url(#SVGID_00000183207974430618743250000013596092588584881333_);fill:#FFFAFE;}
	.st62{fill:#C02F02;}
	.st63{fill:#F47003;}
	.st64{fill:#EDA43A;}
	.st65{fill:#3A1801;}
	.st66{fill:#EAB56E;}
	.st67{clip-path:url(#SVGID_00000120525877845497866340000016515793631000015773_);}
	.st68{filter:url(#AI_BevelShadow_1);}
	.st69{fill:url(#SVGID_00000027575673726537061960000000202800465922687932_);}
	.st70{opacity:0.3;}
	.st71{fill:#FAFAFC;}
	.st72{fill:#FCFCFC;}
	.st73{fill:#5FB8E0;}
	.st74{fill:#45DB7A;}
	.st75{fill:#DCF4E4;}
</style>
<g id="Instructions">
	<defs>
		<rect id="SVGID_1_" x="-2640.1" y="-4631.9" width="1920" height="1081"/>
	</defs>
	<clipPath id="SVGID_00000039124973706768785620000004430991852783753906_">
		<use xlink:href="#SVGID_1_"  style="overflow:visible;"/>
	</clipPath>
</g>
<g id="Dinos">
</g>
<g id="UI">
	<g id="FallingLeaf">
	</g>
	<g id="Layer_22">
	</g>
	<g id="Layer_23">
	</g>
	<g id="Layer_24">
	</g>
	<g>
		<g>
			<path class="st39" d="M598.2,290.3c-7.2-4.5-20.5-14.5-27.6-31.8c-12.7-31.1,4.8-61.7,12.2-74.4c4.5-7.8,22.3-38.6,58.5-49.4
				c23.7-7,29.8,5.6,61.2,2.9c36.6-3.2,62.6-27.9,68.7-21.6c7.5,7.7-27.9,62.3-78.5,108.6C657.2,256.9,622.7,277.6,598.2,290.3z"/>
			<path class="st40" d="M602.4,66.3c2.8-8.5,8.2-20.9,19-32c29.2-30.1,87.4-40.5,124-10c34.3,28.6,32.9,79.4,21,110
				c-8.2,21-21.7,33.3-92,82c-36.2,25-67.5,45.9-92,62c-17.1-11.7-41.4-29.1-69-52c-61.6-50.9-92.4-77.1-96-112
				c-3.3-31.7,12.2-69.5,43-88c43.8-26.4,94.4,0.9,102,5C582.8,42.3,595.6,57,602.4,66.3z"/>
			<path class="st8" d="M485.2,34.2c-3.7-0.7-7.6,3.4-12.6,8.6c-9.1,9.5-14.2,21.2-16.3,26.1c-0.2,0.5-0.7,1.6-1.4,3.4
				c-4.3,10.9-6.4,20-7.4,26.3c7.5-22.2,15.9-32.2,22.6-37.2c9.2-6.8,17.3-5.8,20-12.6C492.4,43.2,489.9,35.1,485.2,34.2z"/>
			<path class="st8" d="M448.7,118.4c4-2,9.1,4.5,9.1,11.6c0,6.4-4.1,13.2-7.8,12.3c-3.2-0.8-6.6-7.1-6.3-13.7
				C443.9,123,446.7,119.4,448.7,118.4z"/>
		</g>
		<g>
			<path class="st39" d="M1007.2,284.3c-7.2-4.5-20.5-14.5-27.6-31.8c-12.7-31.1,4.8-61.7,12.2-74.4c4.5-7.8,22.3-38.6,58.5-49.4
				c23.7-7,29.8,5.6,61.2,2.9c36.6-3.2,62.6-27.9,68.7-21.6c7.5,7.7-27.9,62.3-78.5,108.6C1066.2,250.9,1031.7,271.6,1007.2,284.3z"
				/>
			<path class="st40" d="M1011.4,60.3c2.8-8.5,8.2-20.9,19-32c29.2-30.1,87.4-40.5,124-10c34.3,28.6,32.9,79.4,21,110
				c-8.2,21-21.7,33.3-92,82c-36.2,25-67.5,45.9-92,62c-17.1-11.7-41.4-29.1-69-52c-61.6-50.9-92.4-77.1-96-112
				c-3.3-31.7,12.2-69.5,43-88c43.8-26.4,94.4,0.9,102,5C991.8,36.3,1004.6,51,1011.4,60.3z"/>
			<path class="st8" d="M894.2,28.2c-3.7-0.7-7.6,3.4-12.6,8.6c-9.1,9.5-14.2,21.2-16.3,26.1c-0.2,0.5-0.7,1.6-1.4,3.4
				c-4.3,10.9-6.4,20-7.4,26.3c7.5-22.2,15.9-32.2,22.6-37.2c9.2-6.8,17.3-5.8,20-12.6C901.4,37.2,898.9,29.1,894.2,28.2z"/>
			<path class="st8" d="M857.7,112.4c4-2,9.1,4.5,9.1,11.6c0,6.4-4.1,13.2-7.8,12.3c-3.2-0.8-6.6-7.1-6.3-13.7
				C852.9,117,855.7,113.4,857.7,112.4z"/>
		</g>
		<g>
			<path class="st39" d="M181.2,290.3c-7.2-4.5-20.5-14.5-27.6-31.8c-12.7-31.1,4.8-61.7,12.2-74.4c4.5-7.8,22.3-38.6,58.5-49.4
				c23.7-7,29.8,5.6,61.2,2.9c36.6-3.2,62.6-27.9,68.7-21.6c7.5,7.7-27.9,62.3-78.5,108.6C240.2,256.9,205.7,277.6,181.2,290.3z"/>
			<path class="st40" d="M185.4,66.3c2.8-8.5,8.2-20.9,19-32c29.2-30.1,87.4-40.5,124-10c34.3,28.6,32.9,79.4,21,110
				c-8.2,21-21.7,33.3-92,82c-36.2,25-67.5,45.9-92,62c-17.1-11.7-41.4-29.1-69-52c-61.6-50.9-92.4-77.1-96-112
				c-3.3-31.7,12.2-69.5,43-88c43.8-26.4,94.4,0.9,102,5C165.8,42.3,178.6,57,185.4,66.3z"/>
			<path class="st8" d="M68.2,34.2c-3.7-0.7-7.6,3.4-12.6,8.6C46.5,52.3,41.4,64,39.3,68.9c-0.2,0.5-0.7,1.6-1.4,3.4
				c-4.3,10.9-6.4,20-7.4,26.3C38,76.4,46.4,66.4,53.1,61.4c9.2-6.8,17.3-5.8,20-12.6C75.4,43.2,72.9,35.1,68.2,34.2z"/>
			<path class="st8" d="M31.7,118.4c4-2,9.1,4.5,9.1,11.6c0,6.4-4.1,13.2-7.8,12.3c-3.2-0.8-6.6-7.1-6.3-13.7
				C26.9,123,29.7,119.4,31.7,118.4z"/>
		</g>
	</g>
</g>
<g id="Welcome1">
	<defs>
		<rect id="SVGID_00000173872079630312498180000006731155822843996040_" x="-4658.1" y="-3117.9" width="1920" height="1083"/>
	</defs>
	<clipPath id="SVGID_00000142892862612406954710000000823874731150486164_">
		<use xlink:href="#SVGID_00000173872079630312498180000006731155822843996040_"  style="overflow:visible;"/>
	</clipPath>
	<g id="WelcomeScreen" style="clip-path:url(#SVGID_00000142892862612406954710000000823874731150486164_);">
	</g>
</g>
<g id="Balloons">
</g>
<g id="GameOver">
	<g id="Layer_5">
		<defs>
			<rect id="SVGID_00000000208748411537022650000003743899890887849880_" x="-2326.1" y="-1391.9" width="1920" height="1080"/>
		</defs>
		<clipPath id="SVGID_00000155111052260701708060000004819535863398760598_">
			<use xlink:href="#SVGID_00000000208748411537022650000003743899890887849880_"  style="overflow:visible;"/>
		</clipPath>
		<g id="Layer_6" style="clip-path:url(#SVGID_00000155111052260701708060000004819535863398760598_);">
		</g>
		<g id="Layer_7" style="clip-path:url(#SVGID_00000155111052260701708060000004819535863398760598_);">
			<g id="Layer_9">
			</g>
		</g>
	</g>
</g>
<g id="FallingAsteroid">
</g>
<g id="WinScreen">
	<defs>
		<rect id="SVGID_00000111181246917850903940000000402441579609444265_" x="-277.1" y="-3346.9" width="1922" height="1084"/>
	</defs>
	<clipPath id="SVGID_00000174569254693185146670000008252720719407883452_">
		<use xlink:href="#SVGID_00000111181246917850903940000000402441579609444265_"  style="overflow:visible;"/>
	</clipPath>
	<g id="Layer_12" style="clip-path:url(#SVGID_00000174569254693185146670000008252720719407883452_);">
		<g id="Layer_13">
			<g id="Layer_14">
			</g>
		</g>
	</g>
</g>
<g id="Asteroid">
</g>
<g id="GameScreen">
</g>
</svg>
