<?xml version="1.0" encoding="UTF-8"?><svg xmlns="http://www.w3.org/2000/svg" width="186.01" height="250.58" viewBox="0 0 186.01 250.58"><defs><style>.q{fill:#f45a0c;}.r{fill:none;stroke:#000;stroke-miterlimit:10;stroke-width:2px;}.s{fill:#fdfffe;}</style></defs><g id="a"/><g id="b"/><g id="c"/><g id="d"><g><path class="r" d="M46.07,171.97c-1.36,2.59-3.06,6.65-3.41,11.93-.31,4.56,.61,6.8,.96,11.06,.66,7.87-1.11,16.26-3.55,21-.84,1.63-2.95,5.15-17.29,9.44-11.89,3.55-16.52,2.95-19.49,8.88-1.8,3.59-2.07,11.67-2.13,12.49-.12,1.64-.16,2.84-.16,3.81"/><g><path class="q" d="M49.37,165.17c-2.48-5.08-5.76-12.47-8.67-21.7-4.51-14.28-14.82-46.88-2.53-82.31,2.61-7.54,8.16-22.96,22.7-37.13,14.81-14.43,30.57-19.4,34.01-20.43,6.5-1.95,26.09-7.5,48.49,.89,5.69,2.13,21.9,8.44,32.72,24.64,19.48,29.17,4.75,65.31,1.85,72.42-12.89,31.62-39.44,46.01-49.99,51.73-32.38,17.55-63.68,15.4-76.26,13.81,.23,3.82,.47,7.63,.7,11.45-1.31,.54-3.13,.99-5.12,.58-4.12-.85-7.43-5.07-8.14-10.59l10.24-3.37Z"/><path class="s" d="M61.92,58.05c2.84-.95,6.22,2.25,5.87,5.81-.33,3.35-3.9,6.23-6.63,4.98-1.98-.91-3.04-3.76-2.53-6.39,.38-1.92,1.62-3.83,3.28-4.39Z"/><path class="s" d="M136.15,16.08c-16.13-8.53-39.78,6.62-40.94,7.38-7.08,4.65-11.67,10.21-13.79,12.81-4.02,4.94-6.63,9.6-8.3,13.14,6.69-4.68,11.7-8.87,15.1-11.91,5.2-4.64,7.72-7.54,13.41-9.82,3.02-1.21,5.6-1.69,10.77-2.65,6.12-1.14,10.45-1.94,15.87-1.73,9.78,.38,15.19,3.75,16.19,2.28,.97-1.44-2.87-6.62-8.31-9.5Z"/></g></g></g><g id="e"><g id="f"><g id="g"/><g id="h"><g id="i"/></g></g></g><g id="j"/><g id="k"><g id="l"><g id="m"><g id="n"/></g></g></g><g id="o"/><g id="p"/></svg>