<?xml version="1.0" encoding="UTF-8"?><svg xmlns="http://www.w3.org/2000/svg" width="148.82" height="269.07" viewBox="0 0 148.82 269.07"><defs><style>.q{fill:#ce287f;}.r{fill:none;stroke:#000;stroke-miterlimit:10;stroke-width:2px;}.s{fill:#fdfffe;}</style></defs><g id="a"/><g id="b"/><g id="c"/><g id="d"><g><path class="r" d="M38.24,180.07c-.5,2.88-.85,7.27,.44,12.4,1.12,4.44,2.68,6.28,4.34,10.22,3.06,7.28,3.97,15.81,3.12,21.07-.29,1.81-1.21,5.81-13.53,14.32-10.21,7.06-14.8,7.92-15.78,14.47-.6,3.97,1.64,11.74,1.83,12.54,.39,1.6,.73,2.75,1.03,3.68"/><path class="q" d="M38.53,172.22c-3.76-4.02-8.91-9.96-14.19-17.67C16.17,142.61-2.47,115.35,.27,79.61c.58-7.6,1.97-23.2,12.51-40,10.73-17.1,24.87-25.76,27.97-27.6C46.61,8.54,64.35-1.65,88.5,.23c6.13,.48,23.67,2.07,38.52,14.13,26.74,21.72,21.78,58.75,20.8,66.03-4.34,32.39-26.58,52.51-35.42,60.5-27.13,24.53-58.36,30.69-71.1,32.5,1.23,3.44,2.46,6.89,3.69,10.33-1.14,.83-2.81,1.73-4.87,1.87-4.26,.29-8.61-2.73-10.75-7.61l9.15-5.76Z"/><path class="s" d="M8.97,72.17c2.53-1.61,6.69,.45,7.28,3.81,.55,3.16-2.18,6.73-5.19,6.29-2.17-.32-3.97-2.66-4.15-5.22-.13-1.86,.58-3.94,2.07-4.88Z"/><path class="s" d="M70.7,14.33c-18.04-3.65-37.25,16.42-38.18,17.42-5.72,6.12-8.76,12.41-10.15,15.35-2.65,5.58-3.97,10.54-4.69,14.22,5.33-6.04,9.14-11.19,11.68-14.87,3.88-5.62,5.59-8.93,10.57-12.5,2.64-1.89,5.05-3.01,9.86-5.23,5.7-2.63,9.73-4.5,15.1-5.71,9.69-2.2,15.87-.5,16.46-2.11,.58-1.57-4.55-5.33-10.64-6.56Z"/></g></g><g id="e"><g id="f"><g id="g"/><g id="h"><g id="i"/></g></g></g><g id="j"/><g id="k"><g id="l"><g id="m"><g id="n"/></g></g></g><g id="o"/><g id="p"/></svg>