<?xml version="1.0" encoding="UTF-8"?><svg xmlns="http://www.w3.org/2000/svg" width="320.59" height="286.5" xmlns:xlink="http://www.w3.org/1999/xlink" viewBox="0 0 320.59 286.5"><defs><style>.r{fill:#fff;}.s{clip-path:url(#l);}.t{fill:#e0af00;}.u{fill:#969592;}.v{fill:gold;}.w{fill:none;}.x{clip-path:url(#f);}</style><clipPath id="f"><rect class="w" x="-553.66" y="-1369.72" width="1920" height="1082"/></clipPath><clipPath id="l"><rect class="w" x="1386.34" y="-1369.72" width="1920" height="1082"/></clipPath></defs><g id="a"/><g id="b"><g><path class="u" d="M285.78,101.5c15.29,5.64,23.37,18.74,26,23.02,20.49,33.23-.3,76.22-7,90.06-4.74,9.81-23.42,48.43-67,65.05-27.38,10.44-50.67,6.88-76,3-27.76-4.25-64.22-9.83-70-29.02-2.38-7.92-.2-20.33,55-70.05,67.17-60.5,105.7-94.34,139-82.06Z"/><path class="v" d="M153,0c86.33,3.47,151.43,58.98,158.2,120.86,7.39,67.63-57.45,116.6-66.29,122.31-42.16,27.25-114.84,47.39-176.18,17.47-17.08-8.33-30.67-19.26-41.16-31.77C-13.26,180.18,3,115.2,4.19,110.66,19.59,51.94,79.2,6.78,153,0Z"/><path class="u" d="M231.03,129.05c6.37,3.86,4.87,14.96,3.73,23.4-2.49,18.48-15.28,30.81-24.65,39.6-9.38,8.8-23.45,22.01-48.54,28.2-16.83,4.15-51.23,8.26-57.51-1.8-13.4-21.49,104.22-103.17,126.96-89.4Z"/><path class="r" d="M71.83,37.24c-5.82-.6-11.42,5.32-18.65,12.96-13.12,13.87-19.83,30.48-22.57,37.43-.28,.7-.91,2.32-1.78,4.78-5.5,15.46-7.79,28.18-8.84,36.99,9.34-31.27,21.39-45.86,31.24-53.34,13.52-10.26,26.19-9.63,29.78-19.16,2.99-7.92-1.79-18.9-9.18-19.66Z"/><path class="r" d="M16.63,143.01c6.28-2.76,14.09,6.22,14.16,16,.06,8.91-6.3,18.3-12.2,17-4.92-1.08-10.26-9.76-9.76-19,.41-7.66,4.68-12.62,7.81-14Z"/><path class="t" d="M84.28,131c-2.52,18.63-4.32,39.65,3,63,2.93,9.33,5.68,13.88,10,17,3.75,2.71,13.34,7.73,47-4,22.41-7.81,40.16-17.7,56-28,30.43-19.79,45.64-29.69,46-41,.52-16.44-21.9-29.42-54-48-11.95-6.92-24.63-11.61-50-21-19.68-7.28-30.21-8.83-38-5-11.71,5.76-14.47,26.17-20,67Z"/></g></g><g id="c"/><g id="d"/><g id="e"><g class="x"><g id="g"/><g id="h"><g id="i"/></g></g></g><g id="j"/><g id="k"><g class="s"><g id="m"><g id="n"><g id="o"/></g></g></g></g><g id="p"/><g id="q"/></svg>