<?xml version="1.0" encoding="UTF-8"?><svg xmlns="http://www.w3.org/2000/svg" width="320.9" height="285.39" xmlns:xlink="http://www.w3.org/1999/xlink" viewBox="0 0 320.9 285.39"><defs><style>.r{fill:#fff;}.s{clip-path:url(#l);}.t{fill:#e0af00;}.u{fill:#969592;}.v{fill:gold;}.w{fill:none;}.x{clip-path:url(#f);}</style><clipPath id="f"><rect class="w" x="-771.69" y="-1801.94" width="1920" height="1082"/></clipPath><clipPath id="l"><rect class="w" x="1168.31" y="-1801.94" width="1920" height="1082"/></clipPath></defs><g id="a"/><g id="b"><g><path class="u" d="M286.09,100.39c15.29,5.64,23.37,18.74,26,23.02,20.49,33.23-.3,76.22-7,90.06-4.74,9.81-23.42,48.43-67,65.05-27.38,10.44-50.67,6.88-76,3-27.76-4.25-64.22-9.83-70-29.02-2.38-7.92-.2-20.33,55-70.05,67.17-60.5,105.7-94.34,139-82.06Z"/><path class="v" d="M153,0c86.33,3.47,151.43,58.98,158.19,120.86,7.39,67.63-57.45,116.6-66.29,122.31-42.16,27.25-114.84,47.39-176.18,17.47-17.08-8.33-30.67-19.26-41.16-31.77C-13.26,180.18,3,115.2,4.19,110.66,19.59,51.94,79.2,6.78,153,0Z"/><path class="r" d="M82.52,33.08c-4.96-.56-9.73,5-15.89,12.17-11.18,13.02-16.9,28.62-19.23,35.13-.23,.66-.77,2.18-1.52,4.49-4.69,14.52-6.64,26.45-7.53,34.72,7.96-29.36,18.23-43.05,26.62-50.07,11.52-9.64,22.31-9.04,25.37-17.98,2.54-7.43-1.52-17.75-7.82-18.46Z"/><path class="r" d="M26.49,142.36c5.35-2.59,12,5.84,12.06,15.02,.05,8.36-5.37,17.17-10.4,15.96-4.19-1.02-8.74-9.16-8.32-17.83,.35-7.19,3.99-11.85,6.65-13.14Z"/><path class="u" d="M123.5,188.25c1.18,14.34,19.52,22.33,34.29,28.76,16.56,7.22,33.98,14.81,53.2,9.43,31.38-8.79,48.51-46.83,49.07-77.24,.1-5.59,.24-45.26-28.73-65.38-17.57-12.2-37.73-11.57-43.72-11.39-14.41,.45-25.66,4.72-32.25,7.83-3.83-8.33-7.66-16.66-11.49-25-11.96,18.02-23.91,36.05-35.87,54.07,14.06,6.05,28.11,12.09,42.17,18.14,3.69,1.59,7.39,3.18,11.08,4.77-.66-7.06-1.32-14.12-1.98-21.18,3.55-2.49,9.33-5.91,17.06-7.77,5.16-1.24,25.49-5.23,39.9,7.55,15.25,13.53,12.57,35.84,11.56,44.26-.73,6.04-4.03,33.54-22.63,40.54-16.27,6.12-34.63-7.06-38.01-9.48-15.1-10.84-16.07-22.93-24.77-23.02-9.24-.09-19.85,13.44-18.89,25.11Z"/><path class="t" d="M111.69,182.66c1.18,14.34,19.52,22.33,34.29,28.76,16.56,7.22,33.98,14.81,53.2,9.43,31.38-8.79,48.51-46.83,49.07-77.24,.1-5.59,.24-45.26-28.73-65.38-17.57-12.2-37.73-11.57-43.72-11.39-14.41,.45-25.66,4.72-32.25,7.83-3.83-8.33-7.66-16.66-11.49-25-11.96,18.02-23.91,36.05-35.87,54.07,14.06,6.05,28.11,12.09,42.17,18.14,3.69,1.59,7.39,3.18,11.08,4.77-.66-7.06-1.32-14.12-1.98-21.18,3.55-2.49,9.33-5.91,17.06-7.77,5.16-1.24,25.49-5.23,39.9,7.55,15.25,13.53,12.57,35.84,11.56,44.26-.73,6.04-4.03,33.54-22.63,40.54-16.27,6.12-34.63-7.06-38.01-9.48-15.1-10.84-16.07-22.93-24.77-23.02-9.24-.09-19.85,13.44-18.89,25.11Z"/></g></g><g id="c"/><g id="d"/><g id="e"><g class="x"><g id="g"/><g id="h"><g id="i"/></g></g></g><g id="j"/><g id="k"><g class="s"><g id="m"><g id="n"><g id="o"/></g></g></g></g><g id="p"/><g id="q"/></svg>