<?xml version="1.0" encoding="UTF-8"?><svg xmlns="http://www.w3.org/2000/svg" width="371.05" height="214.72" xmlns:xlink="http://www.w3.org/1999/xlink" viewBox="0 0 371.05 214.72"><defs><style>.s{fill:#e0af00;}.t{fill:#969592;}.u{fill:gold;}.v{clip-path:url(#d);}.w{fill:none;}</style><clipPath id="d"><rect class="w" x="-4195.82" y="-3670.94" width="1920" height="1083"/></clipPath></defs><g id="a"/><g id="b"><g><path class="t" d="M18.06,66.72c-.88,32.85-4.22,29.67-5,58-1.16,42.07-1.74,63.1,8,75,8.83,10.79,22.88,15.1,77,15,82.24-.15,80.34-10.16,139-9,0,0,52.44,1.03,106-11,5.8-1.3,18.74-4.43,25-15,4.64-7.85,2.99-15.39,1-32,0,0-3.14-26.16-4-52-.77-23.17,1.26-30.91-3-48-2.75-11.06-4.13-16.58-8-21-12.68-14.47-38.93-7.91-74-3-12.42,1.74-43.28,3.49-105,7-58.65,3.33-87.97,5-88,5-30.78-.58-56.65-3.58-66,11-3,4.67-2.7,8.66-3,20Z"/><path class="s" d="M5.62,48.82c-.88,32.85-4.22,29.67-5,58-1.16,42.07-1.74,63.1,8,75,8.83,10.79,22.88,15.1,77,15,82.24-.15,80.34-10.16,139-9,0,0,52.44,1.03,106-11,5.8-1.3,18.74-4.43,25-15,4.64-7.85,2.99-15.39,1-32,0,0-3.14-26.16-4-52-.77-23.17,1.26-30.91-3-48-2.75-11.06-4.13-16.58-8-21-12.68-14.47-38.93-7.91-74-3-12.42,1.74-43.28,3.49-105,7-58.65,3.33-87.97,5-88,5-30.78-.58-56.65-3.58-66,11-3,4.67-2.7,8.66-3,20Z"/><path class="u" d="M25.59,57c-.78,27.71-3.73,25.03-4.42,48.92-1.02,35.48-1.53,53.22,7.07,63.25,7.8,9.1,20.21,12.73,68.03,12.65,72.66-.12,70.98-8.57,122.81-7.59,0,0,46.33,.87,93.65-9.28,5.13-1.1,16.56-3.73,22.09-12.65,4.1-6.62,2.65-12.98,.88-26.99,0,0-2.78-22.06-3.53-43.86-.68-19.54,1.11-26.07-2.65-40.48-2.43-9.32-3.65-13.99-7.07-17.71-11.2-12.2-34.4-6.67-65.38-2.53-10.98,1.47-38.24,2.94-92.77,5.9-51.82,2.81-77.72,4.22-77.75,4.22-27.2-.49-50.05-3.02-58.31,9.28-2.65,3.94-2.38,7.31-2.65,16.87Z"/></g></g><g id="c"><g class="v"><g id="e"/></g></g><g id="f"/><g id="g"><g id="h"><g id="i"/><g id="j"><g id="k"/></g></g></g><g id="l"/><g id="m"><g id="n"><g id="o"><g id="p"/></g></g></g><g id="q"/><g id="r"/></svg>