<?xml version="1.0" encoding="UTF-8"?><svg xmlns="http://www.w3.org/2000/svg" width="1642.42" height="362.81" xmlns:xlink="http://www.w3.org/1999/xlink" viewBox="0 0 1642.42 362.81"><defs><style>.r{clip-path:url(#l);}.s{fill:none;}.t{fill:#eab56e;}.u{clip-path:url(#f);}</style><clipPath id="f"><rect class="s" x="-1644.97" y="-2453.08" width="1920" height="1082"/></clipPath><clipPath id="l"><rect class="s" x="295.03" y="-2453.08" width="1920" height="1082"/></clipPath></defs><g id="a"/><g id="b"/><g id="c"/><g id="d"/><g id="e"><g class="u"><g id="g"/><g id="h"><g id="i"/></g></g></g><g id="j"><g><path class="t" d="M1423.15,143.14L1642.42,0l-214.23,151.56c-5.34,3.53-10.33-4.7-5.04-8.43h0Z"/><path class="t" d="M345.74,72.11L427.9,15l-80.27,60.47c-2,1.41-3.87-1.88-1.89-3.36h0Z"/><path class="t" d="M1432.16,359.23l92.74-55.23-90.61,58.48c-2.26,1.36-4.37-1.81-2.13-3.25h0Z"/><path class="t" d="M1.01,152.48L98.9,84,3.26,156.51c-2.38,1.69-4.61-2.25-2.25-4.03h0Z"/></g></g><g id="k"><g class="r"><g id="m"><g id="n"><g id="o"/></g></g></g></g><g id="p"/><g id="q"/></svg>