<?xml version="1.0" encoding="UTF-8"?><svg xmlns="http://www.w3.org/2000/svg" width="332.29" height="342.21" xmlns:xlink="http://www.w3.org/1999/xlink" viewBox="0 0 332.29 342.21"><defs><style>.s{fill:#fff;}.t{fill:#e0af00;}.u{fill:#969592;}.v{fill:gold;}.w{clip-path:url(#d);}.x{fill:none;}</style><clipPath id="d"><rect class="x" x="-2455.71" y="-3063.44" width="1920" height="1083"/></clipPath></defs><g id="a"/><g id="b"><g><path class="t" d="M155.37,0c19.04,.85,33.41,14.52,34.9,29.75,1.63,16.64-12.67,28.7-14.62,30.1-9.3,6.71-25.33,11.66-38.87,4.3-3.77-2.05-6.77-4.74-9.08-7.82-9.01-11.99-5.42-27.98-5.16-29.09,3.4-14.45,16.55-25.57,32.83-27.24Z"/><path class="t" d="M60.9,86.89c-3.14-3.84-6.28-7.68-9.42-11.52-2.06,.97-5.11,2.61-8.37,5.23-4.42,3.56-4.8,5.38-7.33,6.28-5.35,1.91-14.26-2.47-15.7-8.37-1.2-4.94,3.2-9.39,11.52-17.8,1.49-1.51,6.42-6.39,19.89-15.7,15.65-10.81,18.69-10.92,20.94-10.47,6.78,1.36,12.66,8.84,11.52,13.61-.44,1.85-1.77,2.55-6.28,6.28-4.09,3.37-7.29,6.33-9.42,8.37,2.79,3.84,5.58,7.68,8.37,11.52l-15.7,12.56Z"/><path class="u" d="M295.86,148.54c16,5.9,24.46,19.62,27.22,24.1,21.45,34.79-.32,79.79-7.33,94.29-4.96,10.27-24.52,50.7-70.14,68.09-28.67,10.93-53.04,7.2-79.56,3.14-29.06-4.45-67.23-10.29-73.28-30.38-2.49-8.29-.21-21.29,57.58-73.33,70.32-63.33,110.66-98.76,145.51-85.9Z"/><path class="t" d="M160.17,44.76c90.37,3.64,158.53,61.74,165.61,126.52,7.73,70.8-60.14,122.07-69.39,128.05-44.13,28.53-120.22,49.61-184.44,18.29-17.88-8.72-32.11-20.17-43.08-33.25C-13.88,233.38,3.14,165.36,4.38,160.61,20.51,99.14,82.91,51.85,160.17,44.76Z"/><path class="v" d="M160.23,54.44c82.03,3.35,143.9,56.79,150.32,116.38,7.02,65.12-54.59,112.28-62.99,117.78-40.06,26.24-109.12,45.63-167.41,16.83-16.23-8.02-29.14-18.55-39.11-30.59C2.24,227.94,17.69,165.37,18.82,161c14.64-56.54,71.28-100.04,141.41-106.56Z"/><path class="t" d="M250.76,74.96c3.02-3.93,6.05-7.86,9.07-11.8-1.41-1.78-3.7-4.39-7-6.96-4.47-3.49-6.33-3.45-7.78-5.71-3.08-4.78-.84-14.45,4.58-17.2,4.54-2.3,9.87,.98,19.95,7.16,1.81,1.11,7.69,4.79,19.82,15.79,14.09,12.78,14.89,15.71,14.96,18,.22,6.91-5.72,14.34-10.63,14.31-1.9-.01-2.89-1.14-7.55-4.69-4.22-3.21-7.82-5.65-10.3-7.27-3.1,3.59-6.2,7.18-9.31,10.78l-15.81-12.43Z"/><path class="s" d="M90.62,89.05c-5.19-.59-10.18,5.23-16.63,12.74-11.7,13.63-17.69,29.96-20.13,36.78-.25,.69-.81,2.28-1.59,4.7-4.91,15.2-6.95,27.69-7.88,36.35,8.33-30.73,19.08-45.07,27.87-52.42,12.06-10.09,23.36-9.47,26.56-18.83,2.66-7.78-1.59-18.58-8.19-19.32Z"/><path class="s" d="M31.96,203.45c5.6-2.71,12.57,6.11,12.63,15.72,.05,8.75-5.62,17.98-10.88,16.7-4.39-1.06-9.15-9.59-8.71-18.67,.37-7.53,4.17-12.4,6.97-13.76Z"/></g></g><g id="c"><g class="w"><g id="e"/></g></g><g id="f"/><g id="g"><g id="h"><g id="i"/><g id="j"><g id="k"/></g></g></g><g id="l"/><g id="m"><g id="n"><g id="o"><g id="p"/></g></g></g><g id="q"/><g id="r"/></svg>