<?xml version="1.0" encoding="utf-8"?>
<!-- Generator: Adobe Illustrator 26.2.1, SVG Export Plug-In . SVG Version: 6.00 Build 0)  -->
<svg version="1.1" xmlns="http://www.w3.org/2000/svg" xmlns:xlink="http://www.w3.org/1999/xlink" x="0px" y="0px"
	 viewBox="0 0 315.2 286.6" style="enable-background:new 0 0 315.2 286.6;" xml:space="preserve">
<style type="text/css">
	.st0{clip-path:url(#SVGID_00000023258796939943327550000008763119846320076448_);fill:#C4E4F7;}
	.st1{clip-path:url(#SVGID_00000023258796939943327550000008763119846320076448_);fill:#D8E8B3;}
	.st2{clip-path:url(#SVGID_00000023258796939943327550000008763119846320076448_);}
	.st3{fill:#D8E8B3;}
	.st4{clip-path:url(#SVGID_00000023258796939943327550000008763119846320076448_);fill:#C6DB8A;}
	.st5{fill:#8ED0FF;}
	.st6{fill:#B7FFFF;}
	.st7{fill:#C9FFFF;}
	.st8{fill:#FFFFFF;}
	.st9{clip-path:url(#SVGID_00000023258796939943327550000008763119846320076448_);fill:#C5CC83;}
	.st10{clip-path:url(#SVGID_00000023258796939943327550000008763119846320076448_);fill:#8EA87D;}
	.st11{clip-path:url(#SVGID_00000023258796939943327550000008763119846320076448_);fill:#FCFAFC;}
	.st12{fill:#A0BC8E;}
	.st13{clip-path:url(#SVGID_00000023258796939943327550000008763119846320076448_);fill:#56134E;}
	.st14{fill:#EEDCEF;}
	.st15{clip-path:url(#SVGID_00000023258796939943327550000008763119846320076448_);fill:#E0B6E0;}
	.st16{clip-path:url(#SVGID_00000023258796939943327550000008763119846320076448_);fill:#7C3E7B;}
	.st17{fill:#30092A;}
	.st18{clip-path:url(#SVGID_00000023258796939943327550000008763119846320076448_);fill:#30092A;}
	.st19{fill:#C5CC83;}
	.st20{fill:#E6F0F4;}
	.st21{clip-path:url(#SVGID_00000023258796939943327550000008763119846320076448_);fill:#A06EA0;}
	.st22{clip-path:url(#SVGID_00000023258796939943327550000008763119846320076448_);fill:#FDFEFF;}
	.st23{fill:#337F5C;}
	.st24{fill:#C5A7C6;}
	.st25{fill:#FAFCFA;}
	.st26{fill:#825E84;}
	.st27{fill:#A283A5;}
	.st28{fill:#000200;}
	.st29{fill:#F2C0E3;}
	.st30{fill:#56134E;}
	.st31{fill:none;stroke:#000000;stroke-width:2;stroke-miterlimit:10;}
	.st32{fill:#F7DA06;}
	.st33{fill:#FDFFFE;}
	.st34{fill:#00A01A;}
	.st35{fill:#907758;}
	.st36{fill:#DAB888;}
	.st37{fill:#E8D6BF;}
	.st38{fill:#5B4732;}
	.st39{fill:#969592;}
	.st40{fill:#CB0A00;}
	.st41{fill:#CE287F;}
	.st42{fill:#F45A0C;}
	.st43{fill:#0B38F7;}
	.st44{fill:none;stroke:#000000;stroke-width:3;stroke-linecap:round;stroke-miterlimit:10;}
	.st45{fill:#FFD700;}
	.st46{fill:#E0AF00;}
	.st47{fill:#E2DEDE;}
	.st48{fill:#1E0D00;}
	.st49{clip-path:url(#SVGID_00000025439898893620975650000010613918086796335012_);}
	.st50{fill:#C4E4F7;}
	.st51{fill:#C6DB8A;}
	.st52{fill:#8EA87D;}
	.st53{fill:#FCFAFC;}
	.st54{fill:#E0B6E0;}
	.st55{fill:#7C3E7B;}
	.st56{fill:#A06EA0;}
	.st57{fill:#F9D606;}
	.st58{fill:#FDFEFF;}
	.st59{clip-path:url(#SVGID_00000021107759758932556090000015638123638382966703_);}
	.st60{fill:url(#SVGID_00000104677244205157957570000002925380039245534628_);}
	.st61{clip-path:url(#SVGID_00000021107759758932556090000015638123638382966703_);fill:#FFFAFE;}
	.st62{fill:#C02F02;}
	.st63{fill:#F47003;}
	.st64{fill:#EDA43A;}
	.st65{fill:#3A1801;}
	.st66{fill:#EAB56E;}
	.st67{clip-path:url(#SVGID_00000106120866822164518260000017227937208480469673_);}
	.st68{filter:url(#AI_BevelShadow_1);}
	.st69{fill:url(#SVGID_00000039830093173688866860000004368090182987490231_);}
	.st70{opacity:0.3;}
	.st71{fill:#FAFAFC;}
	.st72{fill:#FCFCFC;}
	.st73{fill:#5FB8E0;}
	.st74{fill:#45DB7A;}
	.st75{fill:#DCF4E4;}
</style>
<g id="Instructions">
	<defs>
		<rect id="SVGID_1_" x="-481.8" y="-5033.7" width="1920" height="1081"/>
	</defs>
	<clipPath id="SVGID_00000116231320721783921230000013902087991326479037_">
		<use xlink:href="#SVGID_1_"  style="overflow:visible;"/>
	</clipPath>
</g>
<g id="Dinos">
</g>
<g id="UI">
	<g>
		<path class="st39" d="M280.4,101.6c15.3,5.6,23.4,18.7,26,23c20.5,33.2-0.3,76.2-7,90.1c-4.7,9.8-23.4,48.4-67,65
			c-27.4,10.4-50.7,6.9-76,3c-27.8-4.2-64.2-9.8-70-29c-2.4-7.9-0.2-20.3,55-70C208.6,123.1,247.1,89.3,280.4,101.6z"/>
		<path class="st45" d="M153,0c86.3,3.5,151.4,59,158.2,120.9c7.4,67.6-57.5,116.6-66.3,122.3c-42.2,27.3-114.8,47.4-176.2,17.5
			c-17.1-8.3-30.7-19.3-41.2-31.8C-13.3,180.2,3,115.2,4.2,110.7C19.6,51.9,79.2,6.8,153,0z"/>
		<path class="st8" d="M72,37.8c-5-0.6-9.7,5-15.9,12.2C45,63,39.2,78.6,36.9,85.1c-0.2,0.7-0.8,2.2-1.5,4.5
			c-4.7,14.5-6.6,26.5-7.5,34.7c8-29.4,18.2-43.1,26.6-50.1c11.5-9.6,22.3-9,25.4-18C82.4,48.8,78.3,38.5,72,37.8z"/>
		<path class="st39" d="M153.7,168.1c1-16.1,1.6-34.3-3.5-54.4c-2-8-3.9-11.9-6.6-14.5c-2.4-2.3-8.4-6.4-28.7,4.4
			c-13.5,7.2-24.2,16.1-33.6,25.3c-18.1,17.7-27.2,26.5-27.1,36.3c0.1,14.2,14.2,25,34.4,40.4c7.5,5.7,15.4,9.6,31.3,17.2
			c12.3,5.9,18.8,7.1,23.5,3.6C150.3,221.1,151.4,203.4,153.7,168.1z"/>
		<path class="st8" d="M16,147.1c5.4-2.6,12,5.8,12.1,15c0.1,8.4-5.4,17.2-10.4,16c-4.2-1-8.7-9.2-8.3-17.8
			C9.7,153,13.3,148.4,16,147.1z"/>
		<path class="st46" d="M144.3,150c1-16.1,1.6-34.3-3.5-54.4c-2-8-3.9-11.9-6.6-14.5c-2.4-2.3-8.4-6.4-28.7,4.4
			c-13.5,7.2-24.2,16.1-33.6,25.3c-18.1,17.7-27.2,26.5-27.1,36.3c0.1,14.2,14.2,25,34.4,40.4c7.5,5.7,15.4,9.6,31.3,17.2
			c12.3,5.9,18.8,7.1,23.5,3.6C140.9,203.1,142,185.4,144.3,150z"/>
		<path class="st39" d="M183.1,107.6c8.2,6.8,15.9,14.3,24.2,21c11.4,9.3,17.1,19.2,24.5,32.1c15.5,27,15.3,47.3,22.3,46.9
			c4.5-0.2,8.4-8.8,9.7-14.6c1.3-5.9,0.6-11.9-10.8-33.3c-7.3-13.7-12-22.6-20.9-34.2c-4-5.1-9.2-10.6-19.6-21.4
			c-9.5-9.9-13.1-13-18.9-13.9c-8.1-1.3-18,2-19.1,6.5C173.7,100,177.3,102.9,183.1,107.6z"/>
		<path class="st39" d="M239.3,95.8c-3.8,10-8.4,19.6-12,29.7c-5.1,13.8-12.6,22.4-22.4,33.6c-20.5,23.4-39.7,29.8-37.2,36.3
			c1.6,4.2,11,5.1,16.9,4.4c6-0.7,11.4-3.3,28-21c10.6-11.3,17.5-18.7,25.5-30.9c3.6-5.4,7-12.1,13.9-25.5c6.3-12.2,8-16.6,7-22.4
			c-1.4-8.1-7.7-16.4-12.4-16C243.5,84.4,242,88.8,239.3,95.8z"/>
		<path class="st46" d="M173,98.9c8.4,6.9,16.3,14.4,24.7,21.2c11.7,9.4,17.8,19.3,25.7,32.3c16.6,27.2,17.6,47.6,24.3,47.3
			c4.3-0.2,7.7-8.8,8.6-14.7c0.9-5.9-0.1-11.9-12.3-33.5c-7.8-13.8-13-22.8-22.3-34.4c-4.1-5.2-9.5-10.6-20.3-21.6
			c-9.8-10-13.5-13.1-19.2-14c-8-1.3-17.4,2-18.3,6.5C163.4,91.2,167.1,94.1,173,98.9z"/>
		<path class="st46" d="M237.4,90.5c-4,10.1-8.8,19.9-12.7,30c-5.4,14-13,22.8-23,34.3c-20.9,24.1-40,31.2-37.6,37.5
			c1.5,4.1,10.8,4.6,16.6,3.7c5.9-0.9,11.4-3.7,28.2-21.9c10.7-11.7,17.8-19.3,26-31.7c3.7-5.5,7.2-12.3,14.4-25.9
			c6.5-12.4,8.4-16.8,7.5-22.5c-1.1-8-7.2-16-11.8-15.4C241.9,79,240.2,83.5,237.4,90.5z"/>
	</g>
	<g id="FallingLeaf">
	</g>
	<g id="Layer_22">
	</g>
	<g id="Layer_23">
	</g>
	<g id="Layer_24">
	</g>
</g>
<g id="Welcome1">
	<defs>
		<rect id="SVGID_00000096050702954540162930000004011148230114534062_" x="-2499.8" y="-3519.7" width="1920" height="1083"/>
	</defs>
	<clipPath id="SVGID_00000098900501941110768700000016678859923250633890_">
		<use xlink:href="#SVGID_00000096050702954540162930000004011148230114534062_"  style="overflow:visible;"/>
	</clipPath>
	<g id="WelcomeScreen" style="clip-path:url(#SVGID_00000098900501941110768700000016678859923250633890_);">
	</g>
</g>
<g id="Balloons">
</g>
<g id="GameOver">
	<g id="Layer_5">
		<defs>
			<rect id="SVGID_00000080181249454054840950000018125064135818554002_" x="-167.8" y="-1793.7" width="1920" height="1080"/>
		</defs>
		<clipPath id="SVGID_00000174602038614006516250000010579562804773910967_">
			<use xlink:href="#SVGID_00000080181249454054840950000018125064135818554002_"  style="overflow:visible;"/>
		</clipPath>
		<g id="Layer_6" style="clip-path:url(#SVGID_00000174602038614006516250000010579562804773910967_);">
		</g>
		<g id="Layer_7" style="clip-path:url(#SVGID_00000174602038614006516250000010579562804773910967_);">
			<g id="Layer_9">
			</g>
		</g>
	</g>
</g>
<g id="FallingAsteroid">
</g>
<g id="WinScreen">
	<defs>
		<rect id="SVGID_00000046333114344187571530000013278864822969894279_" x="1881.2" y="-3748.7" width="1922" height="1084"/>
	</defs>
	<clipPath id="SVGID_00000029753126249081770660000008217432768247251860_">
		<use xlink:href="#SVGID_00000046333114344187571530000013278864822969894279_"  style="overflow:visible;"/>
	</clipPath>
	<g id="Layer_12" style="clip-path:url(#SVGID_00000029753126249081770660000008217432768247251860_);">
		<g id="Layer_13">
			<g id="Layer_14">
			</g>
		</g>
	</g>
</g>
<g id="Asteroid">
</g>
<g id="GameScreen">
</g>
</svg>
