<?xml version="1.0" encoding="utf-8"?>
<!-- Generator: Adobe Illustrator 26.2.1, SVG Export Plug-In . SVG Version: 6.00 Build 0)  -->
<svg version="1.1" xmlns="http://www.w3.org/2000/svg" xmlns:xlink="http://www.w3.org/1999/xlink" x="0px" y="0px"
	 viewBox="0 0 315.2 286.6" style="enable-background:new 0 0 315.2 286.6;" xml:space="preserve">
<style type="text/css">
	.st0{clip-path:url(#SVGID_00000112621323564626313980000011834626085709733310_);fill:#C4E4F7;}
	.st1{clip-path:url(#SVGID_00000112621323564626313980000011834626085709733310_);fill:#D8E8B3;}
	.st2{clip-path:url(#SVGID_00000112621323564626313980000011834626085709733310_);}
	.st3{fill:#D8E8B3;}
	.st4{clip-path:url(#SVGID_00000112621323564626313980000011834626085709733310_);fill:#C6DB8A;}
	.st5{fill:#8ED0FF;}
	.st6{fill:#B7FFFF;}
	.st7{fill:#C9FFFF;}
	.st8{fill:#FFFFFF;}
	.st9{clip-path:url(#SVGID_00000112621323564626313980000011834626085709733310_);fill:#C5CC83;}
	.st10{clip-path:url(#SVGID_00000112621323564626313980000011834626085709733310_);fill:#8EA87D;}
	.st11{clip-path:url(#SVGID_00000112621323564626313980000011834626085709733310_);fill:#FCFAFC;}
	.st12{fill:#A0BC8E;}
	.st13{clip-path:url(#SVGID_00000112621323564626313980000011834626085709733310_);fill:#56134E;}
	.st14{fill:#EEDCEF;}
	.st15{clip-path:url(#SVGID_00000112621323564626313980000011834626085709733310_);fill:#E0B6E0;}
	.st16{clip-path:url(#SVGID_00000112621323564626313980000011834626085709733310_);fill:#7C3E7B;}
	.st17{fill:#30092A;}
	.st18{clip-path:url(#SVGID_00000112621323564626313980000011834626085709733310_);fill:#30092A;}
	.st19{fill:#C5CC83;}
	.st20{fill:#E6F0F4;}
	.st21{clip-path:url(#SVGID_00000112621323564626313980000011834626085709733310_);fill:#A06EA0;}
	.st22{clip-path:url(#SVGID_00000112621323564626313980000011834626085709733310_);fill:#FDFEFF;}
	.st23{fill:#337F5C;}
	.st24{fill:#C5A7C6;}
	.st25{fill:#FAFCFA;}
	.st26{fill:#825E84;}
	.st27{fill:#A283A5;}
	.st28{fill:#000200;}
	.st29{fill:#F2C0E3;}
	.st30{fill:#56134E;}
	.st31{fill:none;stroke:#000000;stroke-width:2;stroke-miterlimit:10;}
	.st32{fill:#F7DA06;}
	.st33{fill:#FDFFFE;}
	.st34{fill:#00A01A;}
	.st35{fill:#907758;}
	.st36{fill:#DAB888;}
	.st37{fill:#E8D6BF;}
	.st38{fill:#5B4732;}
	.st39{fill:#969592;}
	.st40{fill:#CB0A00;}
	.st41{fill:#CE287F;}
	.st42{fill:#F45A0C;}
	.st43{fill:#0B38F7;}
	.st44{fill:none;stroke:#000000;stroke-width:3;stroke-linecap:round;stroke-miterlimit:10;}
	.st45{fill:#FFD700;}
	.st46{fill:#E0AF00;}
	.st47{fill:#E2DEDE;}
	.st48{fill:#1E0D00;}
	.st49{clip-path:url(#SVGID_00000178895536928757699390000010564382893614109116_);}
	.st50{fill:#C4E4F7;}
	.st51{fill:#C6DB8A;}
	.st52{fill:#8EA87D;}
	.st53{fill:#FCFAFC;}
	.st54{fill:#E0B6E0;}
	.st55{fill:#7C3E7B;}
	.st56{fill:#A06EA0;}
	.st57{fill:#F9D606;}
	.st58{fill:#FDFEFF;}
	.st59{clip-path:url(#SVGID_00000081646263716469935870000002292660367287251091_);}
	.st60{fill:url(#SVGID_00000011029844798353916360000000032444134375044248_);}
	.st61{clip-path:url(#SVGID_00000081646263716469935870000002292660367287251091_);fill:#FFFAFE;}
	.st62{fill:#C02F02;}
	.st63{fill:#F47003;}
	.st64{fill:#EDA43A;}
	.st65{fill:#3A1801;}
	.st66{fill:#EAB56E;}
	.st67{clip-path:url(#SVGID_00000021799377598534812500000000108993242162602154_);}
	.st68{filter:url(#AI_BevelShadow_1);}
	.st69{fill:url(#SVGID_00000053536210619036770050000012796291949064000167_);}
	.st70{opacity:0.3;}
	.st71{fill:#FAFAFC;}
	.st72{fill:#FCFCFC;}
	.st73{fill:#5FB8E0;}
	.st74{fill:#45DB7A;}
	.st75{fill:#DCF4E4;}
</style>
<g id="Instructions">
	<defs>
		<rect id="SVGID_1_" x="-1973" y="-4614.9" width="1920" height="1081"/>
	</defs>
	<clipPath id="SVGID_00000178909451683613865830000017463078345750384284_">
		<use xlink:href="#SVGID_1_"  style="overflow:visible;"/>
	</clipPath>
</g>
<g id="Dinos">
</g>
<g id="UI">
	<g>
		<path class="st39" d="M280.4,101.6c15.3,5.6,23.4,18.7,26,23c20.5,33.2-0.3,76.2-7,90.1c-4.7,9.8-23.4,48.4-67,65
			c-27.4,10.4-50.7,6.9-76,3c-27.8-4.2-64.2-9.8-70-29c-2.4-7.9-0.2-20.3,55-70C208.6,123.1,247.1,89.3,280.4,101.6z"/>
		<path class="st45" d="M153,0c86.3,3.5,151.4,59,158.2,120.9c7.4,67.6-57.5,116.6-66.3,122.3c-42.2,27.3-114.8,47.4-176.2,17.5
			c-17.1-8.3-30.7-19.3-41.2-31.8C-13.3,180.2,3,115.2,4.2,110.7C19.6,51.9,79.2,6.8,153,0z"/>
		<path class="st8" d="M72,37.8c-5-0.6-9.7,5-15.9,12.2C45,63,39.2,78.6,36.9,85.1c-0.2,0.7-0.8,2.2-1.5,4.5
			c-4.7,14.5-6.6,26.5-7.5,34.7c8-29.4,18.2-43.1,26.6-50.1c11.5-9.6,22.3-9,25.4-18C82.4,48.8,78.3,38.5,72,37.8z"/>
		<path class="st39" d="M153.7,168.1c1-16.1,1.6-34.3-3.5-54.4c-2-8-3.9-11.9-6.6-14.5c-2.4-2.3-8.4-6.4-28.7,4.4
			c-13.5,7.2-24.2,16.1-33.6,25.3c-18.1,17.7-27.2,26.5-27.1,36.3c0.1,14.2,14.2,25,34.4,40.4c7.5,5.7,15.4,9.6,31.3,17.2
			c12.3,5.9,18.8,7.1,23.5,3.6C150.3,221.1,151.4,203.4,153.7,168.1z"/>
		<path class="st8" d="M16,147.1c5.4-2.6,12,5.8,12.1,15c0.1,8.4-5.4,17.2-10.4,16c-4.2-1-8.7-9.2-8.3-17.8
			C9.7,153,13.3,148.4,16,147.1z"/>
		<path class="st46" d="M144.3,150c1-16.1,1.6-34.3-3.5-54.4c-2-8-3.9-11.9-6.6-14.5c-2.4-2.3-8.4-6.4-28.7,4.4
			c-13.5,7.2-24.2,16.1-33.6,25.3c-18.1,17.7-27.2,26.5-27.1,36.3c0.1,14.2,14.2,25,34.4,40.4c7.5,5.7,15.4,9.6,31.3,17.2
			c12.3,5.9,18.8,7.1,23.5,3.6C140.9,203.1,142,185.4,144.3,150z"/>
		<path class="st39" d="M171.5,118.9c2.4,5.2,4.3,10.5,6.8,15.6c3.4,7.1,3.4,13,3.4,20.6c0,16-6.7,25-2.7,26.7
			c2.6,1.1,7.6-1.8,10.2-4c2.6-2.3,4.2-5.1,4.8-17.6c0.4-8,0.6-13.2-0.7-20.6c-0.6-3.3-1.7-7.1-4.1-14.6c-2.1-6.9-3.2-9.2-6.1-11.1
			c-4.1-2.7-10.8-3.7-12.9-2C168.7,113.1,169.9,115.3,171.5,118.9z"/>
		<path class="st46" d="M167.5,115.8c2.4,5.2,4.3,10.5,6.8,15.6c3.4,7.1,3.4,13,3.4,20.6c0,16-6.7,25-2.7,26.7
			c2.6,1.1,7.6-1.8,10.2-4c2.6-2.3,4.2-5.1,4.8-17.6c0.4-8,0.6-13.2-0.7-20.6c-0.6-3.3-1.7-7.1-4.1-14.6c-2.1-6.9-3.2-9.2-6.1-11.1
			c-4.1-2.7-10.8-3.7-12.9-2C164.6,109.9,165.8,112.2,167.5,115.8z"/>
		<path class="st39" d="M200.9,97.5c2.3,7.5,4.2,15.2,6.6,22.6c3.3,10.3,3.3,18.8,3.3,29.9c0,23.3-6.5,36.3-2.6,38.7
			c2.5,1.5,7.4-2.6,9.9-5.8c2.6-3.3,4.1-7.5,4.6-25.5c0.3-11.6,0.6-19.1-0.7-29.9c-0.5-4.8-1.7-10.3-4-21.2
			c-2.1-9.9-3.1-13.3-5.9-16.1c-4-3.9-10.5-5.4-12.5-2.9C198.1,89,199.2,92.3,200.9,97.5z"/>
		<path class="st46" d="M196.4,92.3c2.3,7.5,4.2,15.2,6.6,22.6c3.3,10.3,3.3,18.8,3.3,29.9c0,23.3-6.5,36.3-2.6,38.7
			c2.5,1.5,7.4-2.6,9.9-5.8c2.6-3.3,4.1-7.5,4.6-25.5c0.3-11.6,0.6-19.1-0.7-29.9c-0.5-4.8-1.7-10.3-4-21.2
			c-2.1-9.9-3.1-13.3-5.9-16.1c-4-3.9-10.5-5.4-12.5-2.9C193.7,83.8,194.8,87.1,196.4,92.3z"/>
		<path class="st39" d="M228.6,74.9c3.6,10.3,6.3,20.8,10,31c5.1,14.1,5,25.8,5,41c-0.1,31.9-9.9,49.7-4,53c3.8,2.1,11.2-3.5,15-8
			c3.9-4.5,6.2-10.2,7-35c0.5-15.8,0.9-26.2-1-41c-0.8-6.6-2.6-14.1-6-29c-3.1-13.6-4.7-18.2-9-22c-6.1-5.3-15.9-7.4-19-4
			C224.5,63.3,226.1,67.7,228.6,74.9z"/>
		<path class="st46" d="M225.4,69.9c3.6,10.3,6.3,20.8,10,31c5.1,14.1,5,25.8,5,41c-0.1,31.9-9.9,49.7-4,53c3.8,2.1,11.2-3.5,15-8
			c3.9-4.5,6.2-10.2,7-35c0.5-15.8,0.9-26.2-1-41c-0.8-6.6-2.6-14.1-6-29c-3.1-13.6-4.7-18.2-9-22c-6.1-5.3-15.9-7.4-19-4
			C221.3,58.3,223,62.7,225.4,69.9z"/>
	</g>
	<g id="FallingLeaf">
	</g>
	<g id="Layer_22">
	</g>
	<g id="Layer_23">
	</g>
	<g id="Layer_24">
	</g>
</g>
<g id="Welcome1">
	<defs>
		<rect id="SVGID_00000123421241317003386890000016129689492798026159_" x="-3991" y="-3100.9" width="1920" height="1083"/>
	</defs>
	<clipPath id="SVGID_00000163764898307282084670000000022340457001595032_">
		<use xlink:href="#SVGID_00000123421241317003386890000016129689492798026159_"  style="overflow:visible;"/>
	</clipPath>
	<g id="WelcomeScreen" style="clip-path:url(#SVGID_00000163764898307282084670000000022340457001595032_);">
	</g>
</g>
<g id="Balloons">
</g>
<g id="GameOver">
	<g id="Layer_5">
		<defs>
			<rect id="SVGID_00000135669450173720311960000011187897962403906967_" x="-1659" y="-1374.9" width="1920" height="1080"/>
		</defs>
		<clipPath id="SVGID_00000129202298794968789700000000128911570548236974_">
			<use xlink:href="#SVGID_00000135669450173720311960000011187897962403906967_"  style="overflow:visible;"/>
		</clipPath>
		<g id="Layer_6" style="clip-path:url(#SVGID_00000129202298794968789700000000128911570548236974_);">
		</g>
		<g id="Layer_7" style="clip-path:url(#SVGID_00000129202298794968789700000000128911570548236974_);">
			<g id="Layer_9">
			</g>
		</g>
	</g>
</g>
<g id="FallingAsteroid">
</g>
<g id="WinScreen">
	<defs>
		<rect id="SVGID_00000088812461614467002940000014481315316720608185_" x="390" y="-3329.9" width="1922" height="1084"/>
	</defs>
	<clipPath id="SVGID_00000091706729946502543180000009969176694118532028_">
		<use xlink:href="#SVGID_00000088812461614467002940000014481315316720608185_"  style="overflow:visible;"/>
	</clipPath>
	<g id="Layer_12" style="clip-path:url(#SVGID_00000091706729946502543180000009969176694118532028_);">
		<g id="Layer_13">
			<g id="Layer_14">
			</g>
		</g>
	</g>
</g>
<g id="Asteroid">
</g>
<g id="GameScreen">
</g>
</svg>
