<?xml version="1.0" encoding="UTF-8"?><svg xmlns="http://www.w3.org/2000/svg" width="361.26" height="379.7" xmlns:xlink="http://www.w3.org/1999/xlink" viewBox="0 0 361.26 379.7"><defs><style>.r{fill:#fff;}.s{fill:#a283a5;}.t{clip-path:url(#l);}.u{fill:#000200;}.v{fill:#337f5c;}.w{fill:#825e84;}.x{fill:#f2c0e3;}.y{fill:#fdfffe;}.a`{fill:none;}.aa{fill:#c5a7c6;}.ab{clip-path:url(#f);}.ac{fill:#fafcfa;}</style><clipPath id="f"><rect class="a`" x="1874.77" y="-1330.54" width="1920" height="1082"/></clipPath><clipPath id="l"><rect class="a`" x="3814.77" y="-1330.54" width="1920" height="1082"/></clipPath></defs><g id="a"><g><g><path class="v" d="M326.56,163.93c.44,1.34,2.4,1.66,2.67,1.7,2.49,.4,4.52-1.88,5.18-4.68,.38-1.63,.5-4.32-.34-5.1-.77-.72-2.03,.5-3.78,2.2-1.96,1.9-4.29,4.16-3.72,5.88Z"/><path class="v" d="M351.64,183.61c.06,1.41,1.86,2.25,2.1,2.36,2.28,1.07,4.86-.58,6.25-3.09,.81-1.47,1.66-4.02,1.06-5-.55-.9-2.08-.07-4.23,1.09-2.4,1.3-5.25,2.83-5.18,4.64Z"/><path class="v" d="M346.83,172.45c.06,1.41,1.86,2.25,2.1,2.36,2.28,1.07,4.86-.58,6.25-3.09,.81-1.47,1.66-4.02,1.06-5-.55-.9-2.08-.07-4.23,1.09-2.4,1.3-5.25,2.83-5.18,4.64Z"/><path class="v" d="M338.71,165.4c.06,1.41,1.86,2.25,2.1,2.36,2.28,1.07,4.86-.58,6.25-3.09,.81-1.47,1.66-4.02,1.06-5-.55-.9-2.08-.07-4.23,1.09-2.4,1.3-5.25,2.83-5.18,4.64Z"/></g><path class="v" d="M237.69,24.4c0-1.61-.41-3.68-.29-8.18,.18-6.32,1.18-8.74-.49-11.54-.96-1.61-2.86-3.72-5.06-3.67-1.66,.04-2.58,1.3-5.71,5.02,0,0-3.94,4.68-8.78,9.68-3.4,3.51-4.59,4.31-6.17,4.71-.5,.13-3.97,.96-6.73-.97-1.56-1.09-1.94-2.41-3.33-5.7-2.33-5.5-3.49-8.26-4.92-9.78-2.46-2.62-7.01-4.83-10.84-3.61-3.85,1.22-5.51,5.44-7.23,9.81-3.67,9.33-2.23,16.29-4.84,16.98-.76,.2-1.08-.33-5.39-3.49-5.26-3.85-5.88-3.87-7.83-5.75-1.79-1.73-1.52-1.96-4.92-6.39-3.97-5.17-6.01-7.74-8.17-8.75-3.06-1.42-7.47-1.61-10.47,.48-2.89,2.02-2.86,5.03-4.75,12.7-3.26,13.17-5.14,11.49-5.04,16.63,.08,4.2,1.63,14.16,4.18,19.34,.19,.39,.84,1.67,.43,2.07-.73,.71-4.32-1.91-5.13-2.5-2.71-1.98-4.62-3.95-8.59-8.52-4.38-5.04-4.76-5.73-6.57-7.01-2.13-1.51-5.37-3.8-8.28-2.9-3.21,1-4.36,5.39-5.39,9.35-.52,1.99-1.85,7.77-.36,19.43,.87,6.77,1.44,10.84,3.59,16.16,2.12,5.26,4.52,8.51,3.22,10.09-.69,.83-2,.7-7.25-.12-10.31-1.62-10.61-1.96-12.75-1.84-3.87,.22-6.68,1.52-10.97,3.51-5.2,2.41-7.79,3.62-8.59,5.35-3.56,7.71,12.33,24.36,13.65,25.72,2.8,2.9,6.18,5.88,5.33,7.86-.35,.82-1.32,1.22-6.58,1.93-7.2,.97-9.48,.78-13.9,1.66-2.18,.43-3.97,.99-7.55,2.12-7.2,2.26-10.81,3.35-11.53,4.72-2.18,4.11,4.07,11.7,9.05,17.75,6.98,8.48,12.22,11.6,11.35,16-.45,2.31-2.34,3.68-4.06,4.93-5.81,4.24-11.5,1.89-23.83,3.87-11.58,1.86-12.77,2.65-13.23,3.83-1.29,3.32,3.75,8.41,13.39,18.17,3.04,3.07,5.8,6.42,9.03,9.29,3.67,3.26,5.56,4.37,5.44,6.14-.24,3.67-8.7,3.9-9.39,7.79-.57,3.19,4.86,4.38,10.86,11.69,5.95,7.25,6.18,12.84,10.88,13.79,2.72,.55,5.12-.83,6.32-1.53,10.17-6,9.86-23.13,15.37-41.36,1.2-3.97,.82-1.84,18.58-36.39,16.11-31.33,16.46-33.15,21.29-39.1,10.84-13.34,14.07-10.35,29.03-26.71,13.88-15.18,11.64-18.35,24.77-31.35,6.92-6.85,14.32-11.89,29.03-22.06,14.77-10.22,30.1-19.56,30.11-29.33Z"/><path class="aa" d="M348.57,199.7c-3.78,6.18-8.13,9.73-12.33,13.1-4.63,3.71-12.01,8.8-22.42,12.84-.53,17.93-3.15,44.7-13.64,75.21-8.83,25.68-13.99,40.69-27.97,54.14-34.09,32.81-87.72,24.74-111.56,21.15-26.8-4.04-40.57-11.5-48.36-17.09-11.36-8.15-18.72-17.54-23.2-24.43-6.39,1.45-14.44,2.45-23.61,1.69-27.04-2.24-43.9-18.08-48.3-22.34-10.23-9.91-19.96-24.81-16.45-29.27,1.49-1.89,4.31-.54,16.31-.27,9.88,.22,15.24,.34,21.25-1.23,1.94-.51,4.47-1.33,19.95-10.67,2.35-1.42,4.36-2.65,6.11-3.72-.02-.12-.04-.23-.06-.35-1.66-10.73-7.01-50.77,7.77-100.44,3.29-11.06,18.62-59.71,61.31-102.78,23.75-23.97,42.38-32.48,52.2-36.22,24.01-9.15,41.93-7.5,46.4-7,7.6,.85,17.44,1.96,27.11,8.01,22.41,14.05,25.28,43.09,25.72,48.48,3.07,1.68,7.23,4.22,11.73,7.87,2.41,1.95,11.82,9.58,16.14,17.91,8.87,17.1-2.85,38.74-4.55,41.78,.79,8.28,1.58,16.55,2.37,24.82,3.58-2.52,9.96-6.17,18.51-6.96,5.1-.48,11.44-1.07,17.08,3.05,7.3,5.31,7.85,14.43,7.94,15.91,.43,7.19-2.78,12.45-5.45,16.81Z"/><path class="ac" d="M337.17,173.34c1.32,.76,3.91,2.25,4.75,5.82,1.27,5.34-2.39,11.01-3.17,12.22-4.12,6.39-10.09,8.45-10.9,8.72-1.32,.43-6.53,2.15-10.28-.73-4.09-3.13-3.97-9.81-2.11-14.85,.24-.66,3.34-8.74,10.55-11.84,5.73-2.46,9.97-.02,11.16,.66Z"/><path class="w" d="M171.38,220.52c-.39,0-.8,0-1.21-.01-5.39-.12-11.34-1.15-17.7-3.08l.23-.83c6.29,1.9,12.17,2.93,17.49,3.04,1.96,.04,3.85-.04,4.06-.05,3.49-.15,7.19-.65,10.99-1.47,5.46-1.18,8.2-1.77,10.13-3.38,1.84-1.54,3.24-3.65,4.14-6.27,1.02-2.23,1.41-4.39,1.19-6.45-.63-5.9-6.95-9.9-19.53-17.88l-1.44-.91c-6.25-3.96-12.66-7.91-19.05-11.72l.41-.75c6.4,3.82,12.82,7.77,19.07,11.73l1.44,.91c12.82,8.13,19.25,12.21,19.93,18.53,.24,2.22-.18,4.54-1.25,6.88-.95,2.73-2.43,4.97-4.39,6.61-2.08,1.74-4.89,2.35-10.48,3.56-3.85,.83-7.6,1.33-11.13,1.49-.17,0-1.41,.06-2.91,.06Z"/><path class="r" d="M240.94,373.64c-1.37,.54-4.8,1.52-7.26,2.15-1.24,.32-4.65,1.18-9.33,1.98-1.45,.25-7.47,1.25-15.77,1.71-5.75,.31-10.1,.23-12.98,.16-6.81-.15-11.9-.63-16.24-1.04-3.71-.36-10.38-1.07-18.72-2.45-5.83-.97-11.1-2.03-15.7-3.07-.51-4.3-1.14-11.28-1.02-19.89,.07-4.69,.3-10.87,4.26-38.32,2.56-17.75,3.4-21.76,4.45-25.94,2.49-9.87,4.02-15.75,8.26-22.71,5.89-9.69,13.21-15.23,17.03-18.06,7.1-5.27,13.23-7.77,19.61-10.32,14.16-5.67,23.06-9.22,33.78-6.67,2.05,.49,12.61,3.01,18.87,12.34,4.21,6.27,4.59,12.81,4.65,19.61,.2,25.42-4.45,29.68-4.48,47.62-.03,19.41,5.4,25.02,1.96,42.83-.77,4.01-3.62,17.01-11.38,20.06Z"/><g><path class="v" d="M194.77,193.67c.06,1.41,1.86,2.25,2.1,2.36,2.28,1.07,4.86-.58,6.25-3.09,.81-1.47,1.66-4.02,1.06-5-.55-.9-2.08-.07-4.23,1.09-2.4,1.3-5.25,2.83-5.18,4.64Z"/><path class="v" d="M187.17,214.08c-1.1,.89-.7,2.83-.64,3.1,.51,2.47,3.37,3.56,6.21,3.17,1.66-.22,4.22-1.07,4.64-2.13,.39-.98-1.18-1.72-3.4-2.75-2.47-1.16-5.41-2.53-6.82-1.39Z"/><path class="v" d="M194.57,209.34c-.67,1.24,.44,2.89,.59,3.11,1.41,2.09,4.47,2,6.96,.55,1.45-.84,3.49-2.6,3.47-3.75-.01-1.05-1.75-1.13-4.19-1.24-2.73-.12-5.96-.26-6.83,1.33Z"/><path class="v" d="M198.1,200.64c-.51,1.31,.8,2.81,.98,3.01,1.66,1.89,4.69,1.42,6.97-.32,1.33-1.02,3.13-3.02,2.98-4.15-.14-1.04-1.88-.9-4.31-.7-2.72,.22-5.95,.49-6.61,2.17Z"/></g><g><path class="v" d="M134.35,311.71c1.28,.6,2.86-.61,3.07-.77,2-1.53,1.74-4.58,.15-6.98-.92-1.4-2.8-3.33-3.94-3.25-1.05,.07-1.03,1.81-1,4.26,.04,2.73,.08,5.97,1.72,6.74Z"/><path class="v" d="M146.14,307.27c1.16,.8,2.92-.14,3.15-.27,2.22-1.19,2.45-4.24,1.27-6.86-.69-1.53-2.23-3.74-3.37-3.84-1.05-.1-1.31,1.63-1.67,4.04-.4,2.7-.88,5.9,.61,6.93Z"/><path class="v" d="M158.23,309.4c.68,1.24,2.67,1.19,2.94,1.18,2.52-.06,4.09-2.69,4.22-5.55,.07-1.68-.31-4.34-1.28-4.95-.89-.56-1.9,.86-3.31,2.86-1.58,2.23-3.44,4.88-2.57,6.46Z"/><path class="v" d="M167.64,315.29c.29,1.38,2.21,1.9,2.47,1.98,2.43,.67,4.69-1.39,5.64-4.1,.55-1.58,.96-4.24,.2-5.11-.69-.79-2.07,.28-3.99,1.78-2.15,1.68-4.7,3.68-4.32,5.45Z"/></g><g><path class="v" d="M259.75,316.17c.06,1.41,1.86,2.25,2.1,2.36,2.28,1.07,4.86-.58,6.25-3.09,.81-1.47,1.66-4.02,1.06-5-.55-.9-2.08-.07-4.23,1.09-2.4,1.3-5.25,2.83-5.18,4.64Z"/><path class="v" d="M231.26,312.67c1.3,.54,2.82-.75,3.03-.92,1.92-1.63,1.5-4.66-.2-6.97-.99-1.35-2.96-3.19-4.1-3.05-1.05,.13-.94,1.86-.78,4.3,.17,2.73,.38,5.96,2.05,6.65Z"/><path class="v" d="M240.97,308.89c.99,1.01,2.89,.42,3.14,.34,2.41-.74,3.22-3.69,2.56-6.49-.38-1.63-1.47-4.1-2.57-4.42-1.01-.3-1.59,1.34-2.41,3.65-.91,2.57-2,5.63-.73,6.92Z"/><path class="v" d="M250.36,310.74c.54,1.3,2.52,1.47,2.79,1.49,2.51,.21,4.36-2.23,4.79-5.07,.25-1.66,.16-4.35-.74-5.06-.83-.65-1.98,.65-3.6,2.49-1.81,2.05-3.95,4.48-3.25,6.15Z"/></g><path class="s" d="M243.56,307.08c10.06-.6,17.42,6.07,19.49,7.94,8.74,7.92,14.2,22,9.38,35.67-3.79,10.75-13.65,20.42-26.67,21.58-14.13,1.25-28.07-7.86-31.75-20.34-3.12-10.58,2.2-19.98,5.28-25.43,2.73-4.83,10.51-18.59,24.27-19.41Z"/><path class="s" d="M149.23,305.74c9.48-.14,16.34,5.54,21.75,10.01,5.63,4.65,13.74,11.36,15.15,22.82,1.79,14.48-8.57,24.82-9.84,26.05-11.26,10.88-26.12,9.13-29.44,8.74-4-.47-22.69-3.31-28.94-18.79-5.18-12.82,1.86-25.17,4.2-29.26,1.43-2.51,11.02-19.33,27.12-19.56Z"/><path class="ac" d="M250.08,329.44c1.2,.16,5.28,.82,9.47,3.71,5.55,3.82,11.28,11.55,9.49,19.35-1,4.37-3.96,6.97-7.71,10.27-4.56,4.01-11.09,9.76-17.98,8.24-7.94-1.76-10.99-11.98-12.19-16.03-1.39-4.66-4.17-14.01,1.69-20.47,5.87-6.47,16.05-5.24,17.23-5.08Z"/><path class="ac" d="M150.27,329.03c2.66-.28,7.87-.83,12.91,2.26,7.53,4.62,8.55,13.62,8.77,15.53,1.15,10.14-4.95,17.22-5.78,18.16-1.37,1.54-6.78,7.63-15.12,7.66-9.08,.04-16.11-7.13-18.97-13.99-.37-.9-4.78-11.99,1.93-21.18,5.33-7.3,13.86-8.2,16.27-8.45Z"/><g><ellipse class="u" cx="222.08" cy="81.77" rx="9.03" ry="13.55"/><ellipse class="r" cx="222.08" cy="88.11" rx="4.3" ry="5.91"/><circle class="r" cx="224.43" cy="79.74" r="2.15"/><circle class="r" cx="227.55" cy="83.8" r="1.99"/></g><g><ellipse class="u" cx="258.07" cy="76.74" rx="9.03" ry="13.55"/><ellipse class="r" cx="258.07" cy="83.08" rx="4.3" ry="5.91"/><circle class="r" cx="260.41" cy="74.71" r="2.15"/><circle class="r" cx="263.53" cy="78.76" r="1.99"/></g><ellipse class="x" cx="286.68" cy="109.66" rx="20.09" ry="12.78" transform="translate(-19.48 87.78) rotate(-16.85)"/><ellipse class="x" cx="203.51" cy="116.9" rx="20.09" ry="12.78" transform="translate(-12.97 26.25) rotate(-7.15)"/><path d="M198.28,53.86c-.27-.25,1.86-2.57,5.01-4.06,.5-.24,2.12-.97,4.43-1.36,2.5-.43,5.17-.37,5.22-.08,.05,.31-3.05,.48-7.17,1.94-4.81,1.7-7.22,3.82-7.49,3.57Z"/><path d="M250.28,44.74c-.13-.35,2.81-1.47,6.3-1.39,.56,.01,2.32,.08,4.57,.76,2.43,.73,4.79,1.98,4.7,2.26-.09,.3-2.95-.93-7.28-1.47-5.06-.63-8.16,.19-8.29-.16Z"/><path d="M235.65,112.06c-.27,.59,1.29,2.07,2.67,2.93,.47,.29,4.18,2.52,7.7,.98,1.18-.52,2.07-1.35,3.14-2.34,1.1-1.02,2.49-2.57,2.49-2.57h0s-.53-1.26-1.15-1.38c-.43-.08-.73,.41-1.82,1.57-.69,.75-1.38,1.48-2.2,2.11-.79,.61-1.42,1.09-2.36,1.3-1.73,.39-3.25-.44-3.61-.65-1.34-.78-1.34-1.57-2.63-2.02-.86-.3-2.05-.36-2.24,.07Z"/><path class="y" d="M117.71,106.26c1.36-1.09,3.85-.02,4.37,1.99,.49,1.89-.88,4.18-2.62,4.05-1.26-.1-2.42-1.44-2.66-2.98-.18-1.12,.11-2.42,.91-3.05Z"/><path class="y" d="M144.61,65.56c-3.13-1.41-10.87,9.75-12.77,12.39-2.2,3.05-5.53,7.73-6.58,12.83-.75,3.62-.84,7.96-.84,7.96-.02,.91-.01,1.75,0,2.51,1.17-2.42,2.14-4.63,2.94-6.61,1.27-3.11,1.2-3.52,1.94-5.13,1.39-2.98,3.04-4.83,6.02-8.08,3.05-3.34,3.32-3.04,6.58-6.58,2.26-2.45,5.23-5.82,5.23-5.82h0s-1.27-2.91-2.52-3.47Z"/></g></g><g id="b"/><g id="c"/><g id="d"/><g id="e"><g class="ab"><g id="g"/><g id="h"><g id="i"/></g></g></g><g id="j"/><g id="k"><g class="t"><g id="m"><g id="n"><g id="o"/></g></g></g></g><g id="p"/><g id="q"/></svg>