<?xml version="1.0" encoding="utf-8"?>
<!-- Generator: Adobe Illustrator 26.2.1, SVG Export Plug-In . SVG Version: 6.00 Build 0)  -->
<svg version="1.1" xmlns="http://www.w3.org/2000/svg" xmlns:xlink="http://www.w3.org/1999/xlink" x="0px" y="0px"
	 viewBox="0 0 574.3 601.7" style="enable-background:new 0 0 574.3 601.7;" xml:space="preserve">
<style type="text/css">
	.st0{clip-path:url(#SVGID_00000168800013975026946440000012346810579719125399_);fill:#C4E4F7;}
	.st1{clip-path:url(#SVGID_00000168800013975026946440000012346810579719125399_);fill:#D8E8B3;}
	.st2{clip-path:url(#SVGID_00000168800013975026946440000012346810579719125399_);}
	.st3{fill:#D8E8B3;}
	.st4{clip-path:url(#SVGID_00000168800013975026946440000012346810579719125399_);fill:#C6DB8A;}
	.st5{fill:#8ED0FF;}
	.st6{fill:#B7FFFF;}
	.st7{fill:#C9FFFF;}
	.st8{fill:#FFFFFF;}
	.st9{clip-path:url(#SVGID_00000168800013975026946440000012346810579719125399_);fill:#C5CC83;}
	.st10{clip-path:url(#SVGID_00000168800013975026946440000012346810579719125399_);fill:#8EA87D;}
	.st11{clip-path:url(#SVGID_00000168800013975026946440000012346810579719125399_);fill:#FCFAFC;}
	.st12{fill:#A0BC8E;}
	.st13{clip-path:url(#SVGID_00000168800013975026946440000012346810579719125399_);fill:#56134E;}
	.st14{fill:#EEDCEF;}
	.st15{clip-path:url(#SVGID_00000168800013975026946440000012346810579719125399_);fill:#E0B6E0;}
	.st16{clip-path:url(#SVGID_00000168800013975026946440000012346810579719125399_);fill:#7C3E7B;}
	.st17{fill:#30092A;}
	.st18{clip-path:url(#SVGID_00000168800013975026946440000012346810579719125399_);fill:#30092A;}
	.st19{fill:#C5CC83;}
	.st20{fill:#E6F0F4;}
	.st21{clip-path:url(#SVGID_00000168800013975026946440000012346810579719125399_);fill:#A06EA0;}
	.st22{clip-path:url(#SVGID_00000168800013975026946440000012346810579719125399_);fill:#FDFEFF;}
	.st23{fill:#337F5C;}
	.st24{fill:#C5A7C6;}
	.st25{fill:#FAFCFA;}
	.st26{fill:#825E84;}
	.st27{fill:#A283A5;}
	.st28{fill:#000200;}
	.st29{fill:#F2C0E3;}
	.st30{fill:#56134E;}
	.st31{fill:none;stroke:#000000;stroke-width:2;stroke-miterlimit:10;}
	.st32{fill:#F7DA06;}
	.st33{fill:#FDFFFE;}
	.st34{fill:#00A01A;}
	.st35{fill:#907758;}
	.st36{fill:#DAB888;}
	.st37{fill:#E8D6BF;}
	.st38{fill:#5B4732;}
	.st39{fill:#969592;}
	.st40{fill:#CB0A00;}
	.st41{fill:#CE287F;}
	.st42{fill:#F45A0C;}
	.st43{fill:#0B38F7;}
	.st44{fill:none;stroke:#000000;stroke-width:3;stroke-linecap:round;stroke-miterlimit:10;}
	.st45{fill:#FFD700;}
	.st46{fill:#E0AF00;}
	.st47{fill:#E2DEDE;}
	.st48{fill:#1E0D00;}
	.st49{clip-path:url(#SVGID_00000103256210769936897630000001888060568259941537_);}
	.st50{fill:#C4E4F7;}
	.st51{fill:#C6DB8A;}
	.st52{fill:#8EA87D;}
	.st53{fill:#FCFAFC;}
	.st54{fill:#E0B6E0;}
	.st55{fill:#7C3E7B;}
	.st56{fill:#A06EA0;}
	.st57{fill:#F9D606;}
	.st58{fill:#FDFEFF;}
	.st59{clip-path:url(#SVGID_00000034785987467737168820000008265411151088708269_);}
	.st60{fill:url(#SVGID_00000146484876763923181150000006198783746684544688_);}
	.st61{clip-path:url(#SVGID_00000034785987467737168820000008265411151088708269_);fill:#FFFAFE;}
	.st62{fill:#C02F02;}
	.st63{fill:#F47003;}
	.st64{fill:#EDA43A;}
	.st65{fill:#3A1801;}
	.st66{fill:#EAB56E;}
	.st67{clip-path:url(#SVGID_00000085972301973967786620000006830838701896635579_);}
	.st68{filter:url(#AI_BevelShadow_1);}
	.st69{fill:url(#SVGID_00000011744536873640808680000014542395648328101507_);}
	.st70{opacity:0.3;}
	.st71{fill:#FAFAFC;}
	.st72{fill:#FCFCFC;}
	.st73{fill:#5FB8E0;}
	.st74{fill:#45DB7A;}
	.st75{fill:#DCF4E4;}
</style>
<g id="Instructions">
	<defs>
		<rect id="SVGID_1_" x="335.9" y="-6599.6" width="1920" height="1081"/>
	</defs>
	<clipPath id="SVGID_00000140009685101325900980000010909772235976000422_">
		<use xlink:href="#SVGID_1_"  style="overflow:visible;"/>
	</clipPath>
</g>
<g id="Dinos">
	<g>
		<g>
			<path class="st32" d="M478.5,147.1c-2.5-2.2-5.9-5.4-9.6-9.8c-5.7-6.7-18.7-22.1-20.2-44.5c-0.3-4.8-0.9-14.6,3.7-25.8
				c4.7-11.5,12-18,13.6-19.4c3-2.6,12.3-10.4,26.2-11.2c3.5-0.2,13.7-0.7,23.2,5.6C532.6,53.2,533,76.5,533,81.1
				c0.3,20.4-10.7,34.8-15,40.4c-13.4,17.4-30.7,23.8-37.8,26c1,2,2,4.1,3,6.1c-0.6,0.6-1.5,1.3-2.6,1.6c-2.4,0.5-5.1-1-6.8-3.8
				C475.4,149.9,476.9,148.5,478.5,147.1z"/>
			<path class="st33" d="M458.2,85.5c1.3-1.2,3.9-0.3,4.5,1.8c0.6,1.9-0.7,4.4-2.4,4.3c-1.3,0-2.5-1.3-2.8-2.9
				C457.2,87.6,457.5,86.2,458.2,85.5z"/>
			<path class="st33" d="M488.5,44.6c-10.6-0.8-19.9,13.2-20.3,13.9c-2.7,4.3-3.9,8.4-4.5,10.4c-1,3.7-1.4,6.9-1.5,9.2
				c2.5-4.2,4.3-7.7,5.4-10.2c1.7-3.8,2.4-6,5-8.6c1.3-1.4,2.6-2.3,5.2-4.1c3-2.1,5.2-3.6,8.1-4.8c5.3-2.2,9-1.6,9.2-2.7
				C495.3,46.7,492.1,44.8,488.5,44.6z"/>
		</g>
		<g>
			<path class="st34" d="M393.3,184.4c-1.1-4-2.4-9.7-3.2-16.7c-1.3-10.9-4.1-35.6,9.1-59.7c2.8-5.1,8.7-15.5,20.6-23.9
				c12.2-8.6,23.8-10.2,26.3-10.5c4.8-0.6,19.1-2.2,33.5,6.7c3.7,2.2,14.1,8.8,19.4,21.8c9.7,23.5-5.3,47.7-8.2,52.4
				c-13.1,21.2-33.4,28.3-41.5,31.1c-24.8,8.6-46.2,3.2-54.7,0.5c-0.3,2.8-0.7,5.6-1,8.3c-1,0.2-2.3,0.3-3.6-0.2
				c-2.7-1.1-4.5-4.6-4.2-8.7C388.2,185.2,390.7,184.8,393.3,184.4z"/>
			<path class="st33" d="M407.5,118.6c2-0.7,4.4,1.7,4.1,4.3c-0.3,2.4-2.8,4.5-4.8,3.6c-1.4-0.7-2.1-2.8-1.7-4.7
				C405.4,120.4,406.3,119,407.5,118.6z"/>
			<path class="st33" d="M468.3,88.6c-11.3-6.3-28.2,4.7-29,5.3c-5.1,3.4-8.4,7.4-9.9,9.3c-2.9,3.6-4.8,7-6.1,9.6
				c4.8-3.4,8.4-6.5,10.8-8.7c3.7-3.4,5.6-5.5,9.6-7.1c2.1-0.9,4-1.2,7.6-1.9c4.3-0.8,7.4-1.4,11.2-1.2c6.9,0.3,10.7,2.8,11.4,1.7
				C474.8,94.5,472.1,90.7,468.3,88.6z"/>
		</g>
		<g>
			<path class="st43" d="M501.3,165.2c-1.2-2.6-2.9-6.5-4.3-11.3c-2.2-7.4-7.3-24.3-0.6-42.6c1.4-3.9,4.4-11.8,12-19.1
				c7.7-7.4,15.9-9.9,17.7-10.4c3.4-1,13.5-3.7,25,0.7c2.9,1.1,11.2,4.5,16.7,12.9c9.8,15.2,1.9,33.8,0.4,37.5
				c-6.9,16.3-20.7,23.6-26.2,26.5c-16.8,8.9-32.9,7.6-39.4,6.7c0.1,2,0.2,3.9,0.3,5.9c-0.7,0.3-1.6,0.5-2.6,0.3
				c-2.1-0.5-3.8-2.7-4.1-5.5C497.7,166.3,499.5,165.7,501.3,165.2z"/>
			<path class="st33" d="M501.5,111.4c1.5-0.5,3.2,1.2,3,3c-0.2,1.7-2.1,3.2-3.5,2.5c-1-0.5-1.5-2-1.3-3.3
				C500,112.6,500.6,111.6,501.5,111.4z"/>
			<path class="st33" d="M543,89.8c-8.2-4.5-20.6,3.2-21.2,3.6c-3.7,2.4-6.1,5.2-7.2,6.6c-2.1,2.5-3.5,4.9-4.4,6.7
				c3.5-2.4,6.1-4.5,7.9-6.1c2.7-2.4,4-3.9,7-5c1.6-0.6,2.9-0.8,5.6-1.3c3.2-0.6,5.4-0.9,8.2-0.8c5,0.2,7.8,2,8.3,1.3
				C547.7,94.1,545.8,91.4,543,89.8z"/>
		</g>
		<g>
			<path class="st41" d="M397.8,85c-1.2-2.6-2.9-6.5-4.3-11.3c-2.2-7.4-7.3-24.3-0.6-42.6c1.4-3.9,4.4-11.8,12-19.1
				c7.7-7.4,15.9-9.9,17.7-10.4c3.4-1,13.5-3.7,25,0.7c2.9,1.1,11.2,4.5,16.7,12.9c9.8,15.2,1.9,33.8,0.4,37.5
				c-6.9,16.3-20.7,23.6-26.2,26.5c-16.8,8.9-32.9,7.6-39.4,6.7c0.1,2,0.2,3.9,0.3,5.9c-0.7,0.3-1.6,0.5-2.6,0.3
				c-2.1-0.5-3.8-2.7-4.1-5.5C394.2,86.2,396,85.6,397.8,85z"/>
			<path class="st33" d="M408,33.1c1.5-0.5,3.2,1.2,3,3c-0.2,1.7-2.1,3.2-3.5,2.5c-1-0.5-1.5-2-1.3-3.3
				C406.5,34.4,407.1,33.4,408,33.1z"/>
			<path class="st33" d="M446.6,11.8c-8.2-4.5-20.6,3.2-21.2,3.6c-3.7,2.4-6.1,5.2-7.2,6.6c-2.1,2.5-3.5,4.9-4.4,6.7
				c3.5-2.4,6.1-4.5,7.9-6.1c2.7-2.4,4-3.9,7-5c1.6-0.6,2.9-0.8,5.6-1.3c3.2-0.6,5.4-0.9,8.2-0.8c5,0.2,7.8,2,8.3,1.3
				C451.3,16,449.4,13.3,446.6,11.8z"/>
		</g>
		<g>
			<path class="st42" d="M335.7,94.6c-1.2-2.6-2.9-6.5-4.3-11.3c-2.2-7.4-7.3-24.3-0.6-42.6c1.4-3.9,4.4-11.8,12-19.1
				c7.7-7.4,15.9-9.9,17.7-10.4c3.4-1,13.5-3.7,25,0.7c2.9,1.1,11.2,4.5,16.7,12.9c9.8,15.2,1.9,33.8,0.4,37.5
				c-6.9,16.3-20.7,23.6-26.2,26.5c-16.8,8.9-32.9,7.6-39.4,6.7c0.1,2,0.2,3.9,0.3,5.9c-0.7,0.3-1.6,0.5-2.6,0.3
				c-2.1-0.5-3.8-2.7-4.1-5.5C332.1,95.7,333.9,95.1,335.7,94.6z"/>
			<path class="st33" d="M343,39.3c1.5-0.5,3.2,1.2,3,3c-0.2,1.7-2.1,3.2-3.5,2.5c-1-0.5-1.5-2-1.3-3.3
				C341.5,40.5,342.1,39.5,343,39.3z"/>
			<path class="st33" d="M381.6,17.9c-8.2-4.5-20.6,3.2-21.2,3.6c-3.7,2.4-6.1,5.2-7.2,6.6c-2.1,2.5-3.5,4.9-4.4,6.7
				c3.5-2.4,6.1-4.5,7.9-6.1c2.7-2.4,4-3.9,7-5c1.6-0.6,2.9-0.8,5.6-1.3c3.2-0.6,5.4-0.9,8.2-0.8c5,0.2,7.8,2,8.3,1.3
				C386.3,22.2,384.4,19.5,381.6,17.9z"/>
		</g>
		<g>
			<path class="st32" d="M387.6,159.6c-2.5-1.5-5.9-3.9-9.7-7.1c-5.9-5-19.2-16.4-23.5-35.3c-0.9-4-2.7-12.3-0.2-22.5
				c2.6-10.4,8.1-16.9,9.3-18.3c2.3-2.6,9.4-10.5,21.5-13c3.1-0.6,11.9-2.3,21,1.8c16.5,7.4,19.8,27.3,20.5,31.2
				c3,17.4-4.8,31-7.8,36.4c-9.4,16.6-23.7,24.3-29.6,27c1.1,1.6,2.3,3.2,3.4,4.8c-0.4,0.6-1.1,1.3-2.1,1.7c-2,0.8-4.6-0.2-6.4-2.4
				C385.2,162.4,386.4,161,387.6,159.6z"/>
			<path class="st33" d="M361.7,109.7c1-1.2,3.3-0.7,4.1,0.9c0.8,1.6,0,3.8-1.5,4c-1.1,0.1-2.4-0.8-2.8-2.1
				C361.1,111.6,361.2,110.4,361.7,109.7z"/>
			<path class="st33" d="M382.8,70.9c-9.4,0.7-15.6,13.8-15.9,14.5c-1.8,4-2.3,7.7-2.6,9.4c-0.4,3.3-0.3,6-0.1,8
				c1.7-3.9,2.7-7.1,3.4-9.4c1-3.5,1.3-5.4,3.2-8c1-1.4,2-2.3,4-4.1c2.4-2.2,4-3.7,6.5-5.1c4.4-2.5,7.7-2.5,7.7-3.5
				C389.1,71.9,386,70.7,382.8,70.9z"/>
		</g>
		<g>
			<path class="st42" d="M472.9,203.1c-1-2.7-2.3-6.7-3.3-11.6c-1.6-7.6-5.2-24.8,2.9-42.5c1.7-3.8,5.3-11.4,13.5-18
				c8.3-6.7,16.7-8.5,18.5-8.9c3.4-0.7,13.8-2.6,24.8,2.8c2.8,1.4,10.8,5.4,15.5,14.3c8.5,16-0.9,33.9-2.7,37.4
				c-8.2,15.7-22.6,21.8-28.3,24.2c-17.5,7.5-33.4,4.9-39.8,3.4c-0.1,2-0.1,4-0.2,5.9c-0.7,0.2-1.7,0.4-2.7,0.1
				c-2.1-0.6-3.6-3-3.6-5.8C469.3,203.9,471.1,203.5,472.9,203.1z"/>
			<path class="st33" d="M484.8,148.6c1.5-0.4,3.1,1.5,2.7,3.3c-0.3,1.7-2.3,3-3.7,2.2c-1-0.6-1.4-2.1-1-3.4
				C483.2,149.7,483.9,148.8,484.8,148.6z"/>
			<path class="st33" d="M525,130.5c-7.8-5.2-20.7,1.5-21.4,1.8c-3.9,2.1-6.5,4.7-7.7,5.9c-2.3,2.4-3.9,4.6-4.9,6.4
				c3.7-2.1,6.5-4,8.4-5.4c2.9-2.1,4.3-3.5,7.4-4.4c1.6-0.5,3-0.6,5.7-0.8c3.2-0.3,5.5-0.5,8.2-0.1c5,0.7,7.6,2.7,8.2,2
				C529.4,135.1,527.7,132.3,525,130.5z"/>
		</g>
		<g>
			<path class="st41" d="M422.8,212.4c-0.8-1.8-1.8-4.4-2.7-7.6c-1.4-5-4.6-16.4-0.2-28.7c0.9-2.6,2.9-8,7.9-12.9
				c5-5,10.3-6.7,11.5-7.1c2.2-0.7,8.8-2.6,16.2,0.4c1.9,0.7,7.2,3,10.7,8.6c6.3,10.2,1.1,22.8,0.1,25.3c-4.5,11-13.5,16-17.1,18
				c-10.9,6.1-21.4,5.3-25.5,4.7c0,1.3,0.1,2.7,0.1,4c-0.4,0.2-1.1,0.3-1.7,0.2c-1.4-0.3-2.4-1.8-2.6-3.7
				C420.5,213.2,421.7,212.8,422.8,212.4z"/>
			<path class="st33" d="M429.7,177.3c1-0.3,2.1,0.8,1.9,2c-0.1,1.2-1.3,2.2-2.2,1.7c-0.7-0.3-1-1.3-0.8-2.2
				C428.7,178.1,429.2,177.5,429.7,177.3z"/>
			<path class="st33" d="M454.8,162.7c-5.3-3-13.3,2.3-13.7,2.5c-2.4,1.6-4,3.5-4.7,4.5c-1.4,1.7-2.3,3.3-2.9,4.6
				c2.3-1.6,4-3.1,5.1-4.1c1.8-1.6,2.6-2.6,4.5-3.4c1-0.4,1.9-0.6,3.6-0.9c2-0.4,3.5-0.7,5.3-0.6c3.3,0.1,5,1.3,5.4,0.8
				C457.8,165.5,456.6,163.7,454.8,162.7z"/>
		</g>
		<g>
			<path class="st32" d="M459.9,286.7c-2.1-3.9-4.9-9.5-7.3-16.5c-3.8-10.9-12.5-35.7-2.3-62.1c2.2-5.6,6.8-17.1,19-27.5
				c12.4-10.5,25.6-13.9,28.5-14.6c5.5-1.3,21.9-5.1,40.7,1.8c4.8,1.7,18.4,6.9,27.5,19.3c16.4,22.4,4.1,49.3,1.7,54.6
				c-10.7,23.5-33,33.8-41.8,37.9c-27.1,12.5-53.4,10.2-64,8.7c0.2,2.9,0.4,5.8,0.6,8.6c-1.1,0.4-2.6,0.7-4.3,0.3
				c-3.5-0.7-6.2-4-6.9-8.2C454.1,288.3,457,287.5,459.9,286.7z"/>
			<path class="st33" d="M466.7,205.1c2.4-0.7,5.2,1.8,4.9,4.5c-0.3,2.5-3.3,4.6-5.6,3.6c-1.7-0.7-2.6-2.9-2.1-4.9
				C464.3,206.9,465.3,205.4,466.7,205.1z"/>
			<path class="st33" d="M528.9,175.1c-13.6-6.8-33.4,4.1-34.3,4.6c-5.9,3.3-9.8,7.4-11.5,9.3c-3.4,3.6-5.5,7.1-6.9,9.7
				c5.6-3.4,9.8-6.4,12.6-8.6c4.4-3.4,6.5-5.5,11.2-7.1c2.5-0.8,4.7-1.1,9-1.8c5.1-0.7,8.8-1.2,13.3-0.9c8.2,0.5,12.8,3.2,13.6,2.1
				C536.7,181.4,533.5,177.4,528.9,175.1z"/>
		</g>
		<g>
			<path class="st43" d="M362.7,224.9c-1.2-2.6-2.9-6.5-4.3-11.3c-2.2-7.4-7.3-24.3-0.6-42.6c1.4-3.9,4.4-11.8,12-19.1
				c7.7-7.4,15.9-9.9,17.7-10.4c3.4-1,13.5-3.7,25,0.7c2.9,1.1,11.2,4.5,16.7,12.9c9.8,15.2,1.9,33.8,0.4,37.5
				c-6.9,16.3-20.7,23.6-26.2,26.5c-16.8,8.9-32.9,7.6-39.4,6.7c0.1,2,0.2,3.9,0.3,5.9c-0.7,0.3-1.6,0.5-2.6,0.3
				c-2.1-0.5-3.8-2.7-4.1-5.5C359.1,226,360.9,225.5,362.7,224.9z"/>
			<path class="st33" d="M362.9,171.1c1.5-0.5,3.2,1.2,3,3c-0.2,1.7-2.1,3.2-3.5,2.5c-1-0.5-1.5-2-1.3-3.3
				C361.4,172.4,362,171.4,362.9,171.1z"/>
			<path class="st33" d="M404.4,149.6c-8.2-4.5-20.6,3.2-21.2,3.6c-3.7,2.4-6.1,5.2-7.2,6.6c-2.1,2.5-3.5,4.9-4.4,6.7
				c3.5-2.4,6.1-4.5,7.9-6.1c2.7-2.4,4-3.9,7-5c1.6-0.6,2.9-0.8,5.6-1.3c3.2-0.6,5.4-0.9,8.2-0.8c5,0.2,7.8,2,8.3,1.3
				C409.1,153.8,407.2,151.1,404.4,149.6z"/>
		</g>
		<g>
			<path class="st34" d="M349.6,173.3c-4.2-0.9-10.1-2.3-16.9-4.8c-10.6-3.8-34.7-12.6-50.1-35.6c-3.3-4.9-9.9-15-11.6-29.7
				c-1.8-15,2.5-26.2,3.5-28.7c1.8-4.6,7.6-18.3,22.9-27.4c3.9-2.3,15.1-8.7,29.7-7.6c26.3,2,41,26.7,43.9,31.5
				c12.9,21.6,9.2,43.3,7.7,51.9c-4.5,26.4-20.2,43.4-26.9,49.9c2.4,1.6,4.8,3.2,7.1,4.8c-0.3,1-0.9,2.2-2,3.2
				c-2.4,2-6.4,2-10.1-0.1C347.8,178.2,348.7,175.8,349.6,173.3z"/>
			<path class="st33" d="M296.5,130.2c0.4-2.1,3.7-3.2,5.9-1.7c2.1,1.4,2.7,4.7,0.9,6c-1.3,0.9-3.6,0.6-5.1-0.6
				C297.1,132.9,296.3,131.5,296.5,130.2z"/>
			<path class="st33" d="M299.4,61.2C288,68.6,289.6,89,289.7,90c0.6,6.2,2.6,11,3.6,13.3c1.8,4.3,4,7.6,5.8,9.9
				c-0.7-5.9-1.7-10.6-2.5-13.8c-1.2-4.9-2.2-7.6-1.7-12c0.3-2.3,0.9-4.2,2.1-7.8c1.4-4.3,2.4-7.4,4.5-10.7c3.7-6.1,7.9-8.4,7.3-9.5
				C308.1,58.1,303.3,58.8,299.4,61.2z"/>
		</g>
		<g>
			<path class="st41" d="M446.2,328.9c-0.3-2.9-0.7-7.1-0.5-12.1c0.2-7.7,0.8-25.4,12.8-40.7c2.6-3.2,7.9-9.8,17.4-14.3
				c9.7-4.6,18.2-4.3,20-4.2c3.5,0.1,14,0.7,23.4,8.6c2.4,2,9.2,7.8,11.7,17.6c4.5,17.5-8.8,32.7-11.5,35.7
				c-11.7,13.3-27,15.8-33.1,16.8c-18.7,3.1-33.6-3.2-39.4-6.1c-0.5,1.9-1.1,3.8-1.6,5.7c-0.7,0-1.7,0-2.6-0.6
				c-1.9-1.1-2.7-3.7-2.1-6.6C442.5,328.8,444.4,328.9,446.2,328.9z"/>
			<path class="st33" d="M472.3,282.8c1.5,0,2.6,2.2,1.9,3.8c-0.7,1.6-3,2.4-4.1,1.3c-0.8-0.8-0.8-2.4-0.1-3.6
				C470.5,283.5,471.4,282.8,472.3,282.8z"/>
			<path class="st33" d="M515.6,274.8c-6.4-6.9-20.5-3.5-21.2-3.3c-4.2,1.1-7.4,3-8.9,3.9c-2.8,1.7-4.9,3.6-6.3,5
				c4.1-1.2,7.2-2.4,9.4-3.3c3.3-1.4,5-2.4,8.2-2.5c1.7-0.1,3,0.1,5.7,0.5c3.2,0.5,5.4,0.8,8,1.8c4.7,1.8,6.7,4.4,7.5,3.8
				C518.7,280.3,517.7,277.1,515.6,274.8z"/>
		</g>
		<g>
			<path class="st42" d="M294.4,242.6c-1.5-3.2-3.5-7.8-5.2-13.6c-2.7-9-8.7-29.4-0.7-51.5c1.7-4.7,5.3-14.3,14.5-23.1
				c9.3-8.9,19.2-11.9,21.3-12.6c4.1-1.2,16.3-4.5,30.1,0.8c3.5,1.4,13.5,5.4,20.1,15.6c11.8,18.4,2.3,40.9,0.4,45.3
				c-8.3,19.7-25,28.5-31.6,32c-20.3,10.8-39.7,9.2-47.5,8.2c0.1,2.4,0.2,4.8,0.3,7.2c-0.8,0.3-2,0.6-3.2,0.3
				c-2.6-0.6-4.6-3.2-4.9-6.7C290.1,243.9,292.3,243.2,294.4,242.6z"/>
			<path class="st33" d="M303.3,175.7c1.8-0.6,3.8,1.4,3.6,3.7c-0.2,2.1-2.5,3.9-4.2,3.1c-1.2-0.6-1.9-2.4-1.5-4
				C301.4,177.2,302.2,176,303.3,175.7z"/>
			<path class="st33" d="M349.8,149.9c-9.9-5.4-24.8,3.9-25.5,4.4c-4.4,2.9-7.4,6.3-8.7,7.9c-2.5,3.1-4.2,6-5.3,8.2
				c4.2-2.9,7.4-5.5,9.5-7.4c3.3-2.9,4.9-4.7,8.4-6.1c1.9-0.7,3.5-1,6.7-1.6c3.8-0.7,6.5-1.1,9.9-1c6.1,0.3,9.4,2.4,10,1.5
				C355.5,155,353.2,151.7,349.8,149.9z"/>
		</g>
		<g>
			<path class="st32" d="M276.8,209.6c-2.7-1.1-6.4-2.9-10.7-5.5c-6.6-4-21.5-13.3-28.6-31.3c-1.5-3.8-4.5-11.7-3.6-22.2
				c0.9-10.7,5.4-17.9,6.4-19.5c1.9-3,7.7-11.8,19.2-16.1c2.9-1.1,11.4-4.1,21.1-1.5c17.4,4.8,23.8,23.9,25.1,27.6
				c5.6,16.7,0.1,31.3-2.1,37.1c-6.8,17.8-19.7,27.6-25.2,31.3c1.4,1.4,2.7,2.8,4.1,4.2c-0.3,0.7-0.9,1.4-1.8,2
				c-1.9,1.1-4.6,0.5-6.7-1.4C274.9,212.8,275.9,211.2,276.8,209.6z"/>
			<path class="st33" d="M243.6,164.4c0.8-1.3,3.2-1.2,4.2,0.3c1,1.4,0.6,3.8-0.9,4.2c-1.1,0.3-2.5-0.4-3.1-1.6
				C243.3,166.3,243.2,165.1,243.6,164.4z"/>
			<path class="st33" d="M258.5,122.8c-9.2,2.1-13.3,16.1-13.5,16.8c-1.2,4.2-1.1,7.9-1.1,9.7c0.1,3.3,0.6,6,1.2,7.9
				c1-4.1,1.6-7.4,1.9-9.8c0.5-3.6,0.5-5.6,1.9-8.4c0.8-1.5,1.6-2.6,3.3-4.7c2-2.5,3.4-4.3,5.6-6.1c3.9-3.2,7.2-3.7,7.1-4.6
				C264.9,122.8,261.6,122.1,258.5,122.8z"/>
		</g>
		<g>
			<path class="st34" d="M376.7,293.3c-0.8-3.5-1.8-8.5-2.4-14.6c-0.9-9.5-3-31.2,8-52.3c2.3-4.5,7.3-13.7,17.1-21.2
				c10-7.6,19.5-9.1,21.6-9.4c3.9-0.6,15.6-2.1,27.4,5.5c3,1.9,11.4,7.6,15.7,18.9c7.7,20.4-4.8,41.8-7.3,46
				c-10.9,18.7-27.6,25.1-34.3,27.6c-20.4,7.8-37.8,3.2-44.8,1c-0.3,2.4-0.6,4.9-0.9,7.3c-0.8,0.2-1.9,0.3-3-0.2
				c-2.2-1-3.6-4-3.4-7.5C372.6,294,374.6,293.6,376.7,293.3z"/>
			<path class="st33" d="M389,235.5c1.7-0.6,3.5,1.4,3.3,3.7c-0.3,2.1-2.4,4-3.9,3.2c-1.1-0.6-1.7-2.4-1.3-4.1
				C387.3,237.1,388,235.9,389,235.5z"/>
			<path class="st33" d="M439.1,208.6c-9.1-5.4-23.1,4.4-23.8,4.9c-4.2,3-6.9,6.6-8.2,8.3c-2.4,3.2-4,6.2-5.1,8.5c4-3,6.9-5.7,9-7.7
				c3.1-3,4.6-4.9,7.9-6.3c1.8-0.8,3.3-1.1,6.3-1.7c3.6-0.8,6.1-1.3,9.2-1.2c5.6,0.2,8.7,2.3,9.3,1.4
				C444.3,213.8,442.2,210.4,439.1,208.6z"/>
		</g>
		<g>
			<path class="st43" d="M346.4,362.9c-0.3-4.4-0.6-10.7,0-18.2c0.9-11.6,2.8-38.1,22.3-59.5c4.1-4.5,12.8-13.8,27.7-19.3
				c15.2-5.6,28.3-4.1,31.1-3.8c5.4,0.7,21.5,2.9,35.6,16c3.6,3.3,13.7,13,16.9,27.9c5.8,27-15.7,48.1-19.9,52.2
				c-18.8,18.5-42.7,20.3-52.2,21.1c-29.1,2.3-51.6-9.2-60.4-14.3c-1,2.8-1.9,5.6-2.9,8.4c-1.1,0-2.6-0.3-4-1.2
				c-2.8-1.9-4-6-2.9-10.1C340.7,362.4,343.6,362.7,346.4,362.9z"/>
			<path class="st33" d="M376.2,288.4c2.4,0.2,3.9,3.6,2.6,6c-1.2,2.3-4.7,3.2-6.4,1.5c-1.2-1.3-1.1-3.6,0-5.4
				C373.3,289.2,374.8,288.2,376.2,288.4z"/>
			<path class="st33" d="M447.6,283.4c-9.4-11.2-31.3-7.9-32.4-7.7c-6.6,1.1-11.6,3.6-14,4.8c-4.4,2.3-7.7,4.8-10,6.7
				c6.3-1.2,11.3-2.6,14.7-3.7c5.2-1.7,7.9-2.9,12.8-2.8c2.6,0.1,4.6,0.6,8.7,1.5c4.9,1.1,8.3,1.9,12.2,3.8
				c7.1,3.4,10.1,7.5,11.3,6.8C452.1,292.1,450.8,287.2,447.6,283.4z"/>
		</g>
		<g>
			<g>
				<path d="M258.4,444.5l-0.7-1.9c11.8-6.1,20.6-14.3,26.2-24.3c5.8-10.4,8.3-23,10.8-35.1c0.9-4.7,1.5-8.4,2-11.4
					c1-6.6,1.6-10.5,4.6-15.4c4.4-7.4,11.6-13,21.3-16.4l0.5,2c-9.3,3.3-16.1,8.6-20.2,15.6c-2.7,4.6-3.3,8.1-4.3,14.6
					c-0.5,3-1.1,6.8-2,11.5c-2.5,12.4-5.1,25.1-11,35.8C279.6,429.8,270.5,438.3,258.4,444.5z"/>
			</g>
			<g>
				<path d="M246.1,446.2l0.2-2.1c14.4,0.7,28.8-2.6,42.7-9.9c14.3-7.5,28.4-19.4,42-30.9c5.2-4.4,9.2-8,12.5-10.9
					c7.2-6.5,11.2-10,18-13.4c10.3-5.1,20.7-6.6,31-4.4l-0.4,2c-9.9-2.1-20-0.7-29.9,4.2c-6.5,3.3-10.4,6.8-17.6,13.1
					c-3.2,2.9-7.3,6.5-12.5,10.9c-13.7,11.6-27.8,23.5-42.4,31.2C275.5,443.6,260.9,447,246.1,446.2z"/>
			</g>
			<g>
				<path d="M259.7,441.3l0.2-2.1c12.7,1.1,23.9-1.3,33.2-7.2c9.6-6,17.5-15.8,25-25.2c2.9-3.6,5.1-6.6,6.8-9
					c3.8-5.2,6.2-8.4,10.9-11.2c7.1-4.1,15.7-5.1,25.5-2.9l-0.4,2c-9.4-2.1-17.5-1.2-24.2,2.7c-4.4,2.5-6.5,5.4-10.3,10.6
					c-1.8,2.4-4,5.4-6.9,9.1c-7.7,9.6-15.7,19.5-25.5,25.6C284.4,439.9,272.9,442.4,259.7,441.3z"/>
			</g>
			<g>
				<path d="M260.3,443.3c2.3-22,8.3-39.2,17.9-51.2c9.8-12.3,23.3-19.2,36.3-25.9c5-2.6,9-4.3,12.3-5.7c7-3,10.8-4.7,15-10.3
					c6.4-8.6,9.6-21.4,9.8-38.1l1.9-0.1c-0.1,17.2-3.6,30.5-10.2,39.4c-4.4,6-8.7,7.9-15.8,10.9c-3.2,1.4-7.2,3.1-12.2,5.7
					c-12.9,6.6-26.2,13.4-35.7,25.4c-9.3,11.7-15.1,28.5-17.4,50L260.3,443.3z"/>
			</g>
			<g>
				<path d="M261.3,441.7l-1.4-1.3c7.8-9.6,12.3-19,13.3-27.9c1.1-9.2-1.4-18.1-3.9-26.7c-0.9-3.3-1.8-5.9-2.5-7.9
					c-1.6-4.6-2.6-7.4-1.9-12c1-6.8,5.1-13.8,12.1-20.8l1.2,1.5c-6.7,6.7-10.5,13.2-11.5,19.5c-0.6,4,0.2,6.5,1.8,10.9
					c0.7,2.1,1.6,4.7,2.6,8.1c2.5,8.8,5.1,18,3.9,27.6C274.1,422.1,269.4,431.8,261.3,441.7z"/>
			</g>
			<g>
				<path d="M248.7,447.6l-0.2-2c12.7-2.1,23.2-7.2,31.2-15.1c8.2-8.2,14-19.5,19.5-30.5c2.1-4.2,3.7-7.6,4.9-10.4
					c2.7-6,4.3-9.6,8.4-13.5c6.1-5.8,14.4-8.8,24.5-9.1l0,2.1c-9.6,0.2-17.5,3.1-23.3,8.5c-3.8,3.5-5.3,6.8-8,12.8
					c-1.2,2.8-2.8,6.2-5,10.5c-5.6,11.1-11.5,22.7-19.9,31.1C272.6,440.1,261.8,445.4,248.7,447.6z"/>
			</g>
		</g>
		<g>
			<path class="st42" d="M361,382.1c-1.2-2.6-2.9-6.5-4.3-11.3c-2.2-7.4-7.3-24.3-0.6-42.6c1.4-3.9,4.4-11.8,12-19.1
				c7.7-7.4,15.9-9.9,17.7-10.4c3.4-1,13.5-3.7,25,0.7c2.9,1.1,11.2,4.5,16.7,12.9c9.8,15.2,1.9,33.8,0.4,37.5
				c-6.9,16.3-20.7,23.6-26.2,26.5c-16.8,8.9-32.9,7.6-39.4,6.7c0.1,2,0.2,3.9,0.3,5.9c-0.7,0.3-1.6,0.5-2.6,0.3
				c-2.1-0.5-3.8-2.7-4.1-5.5C357.4,383.2,359.2,382.7,361,382.1z"/>
			<path class="st33" d="M368.3,326.8c1.5-0.5,3.2,1.2,3,3c-0.2,1.7-2.1,3.2-3.5,2.5c-1-0.5-1.5-2-1.3-3.3
				C366.8,328.1,367.4,327.1,368.3,326.8z"/>
			<path class="st33" d="M406.9,305.5c-8.2-4.5-20.6,3.2-21.2,3.6c-3.7,2.4-6.1,5.2-7.2,6.6c-2.1,2.5-3.5,4.9-4.4,6.7
				c3.5-2.4,6.1-4.5,7.9-6.1c2.7-2.4,4-3.9,7-5c1.6-0.6,2.9-0.8,5.6-1.3c3.2-0.6,5.4-0.9,8.2-0.8c5,0.2,7.8,2,8.3,1.3
				C411.6,309.7,409.7,307,406.9,305.5z"/>
		</g>
		<g>
			<path class="st32" d="M354.1,307.1c-2.2-2.5-5.1-6.2-8.1-11c-4.6-7.4-15.2-24.3-12.7-45.3c0.5-4.5,1.7-13.7,8.4-23.2
				c6.8-9.7,15.5-14.3,17.4-15.3c3.6-1.8,14.5-7.2,28.9-5.1c3.7,0.5,14.1,2.2,22.8,9.9c15.5,13.9,11.7,35.7,11,39.9
				c-3.3,19-17.1,30.1-22.6,34.5c-16.8,13.5-35.7,15.9-43.3,16.5c0.7,2.1,1.3,4.2,2,6.3c-0.7,0.4-1.7,0.9-3,0.9
				c-2.6,0-5.1-2-6.3-4.9C350.3,309.2,352.2,308.1,354.1,307.1z"/>
			<path class="st33" d="M344.3,245.9c1.6-0.9,4,0.5,4.3,2.5c0.3,1.9-1.5,3.9-3.3,3.5c-1.3-0.3-2.3-1.7-2.4-3.3
				C342.9,247.6,343.4,246.4,344.3,245.9z"/>
			<path class="st33" d="M382.6,214.1c-10.7-2.9-22.7,8.3-23.3,8.8c-3.6,3.4-5.5,7-6.4,8.7c-1.7,3.2-2.6,6.1-3.1,8.2
				c3.3-3.4,5.7-6.3,7.3-8.3c2.5-3.2,3.6-5.1,6.6-7c1.6-1,3.1-1.6,6-2.7c3.5-1.3,5.9-2.3,9.2-2.8c5.9-0.9,9.5,0.3,9.9-0.6
				C389.2,217.5,386.2,215.1,382.6,214.1z"/>
		</g>
		<g>
			<path class="st34" d="M323.2,353.5c-2.4-1.3-5.6-3.2-9.3-6c-5.6-4.3-18.4-14.1-22.8-31.6c-0.9-3.7-2.8-11.4-0.6-21.2
				c2.2-10,7.3-16.5,8.4-17.9c2.1-2.7,8.6-10.5,19.9-13.7c2.9-0.8,11.1-3,19.8,0.2c15.6,5.8,19.2,24.3,19.9,27.9
				c3.1,16.2-3.8,29.5-6.6,34.9c-8.5,16.3-21.8,24.6-27.3,27.6c1.1,1.4,2.2,2.9,3.3,4.3c-0.4,0.6-1,1.3-1.9,1.7
				c-1.9,0.9-4.4,0.2-6.1-1.8C321.1,356.3,322.1,354.9,323.2,353.5z"/>
			<path class="st33" d="M300.2,316.5c0.7-1.3,3-1.4,4-0.1c1,1.3,0.7,3.5-0.7,4c-1,0.4-2.3-0.2-3-1.3
				C300,318.3,299.8,317.3,300.2,316.5z"/>
			<path class="st33" d="M317,272.4c-8.6,2.8-12,16.2-12.2,16.9c-1,4.1-0.8,7.6-0.7,9.2c0.2,3.1,0.8,5.6,1.4,7.4
				c0.9-3.9,1.3-7.1,1.5-9.4c0.3-3.4,0.3-5.3,1.6-8c0.7-1.5,1.4-2.5,3-4.7c1.8-2.5,3.1-4.3,5.1-6.2c3.6-3.3,6.7-4.1,6.5-4.9
				C323,271.9,319.9,271.5,317,272.4z"/>
		</g>
		<g>
			<path class="st41" d="M274.6,342.2c-3.7-2.6-8.8-6.6-14.4-11.9c-8.7-8.3-28.5-27.3-34.1-57.2c-1.2-6.4-3.5-19.4,0.9-35.2
				c4.4-16,13.2-25.7,15.1-27.8c3.7-3.9,14.8-15.6,33.4-18.4c4.7-0.7,18.2-2.6,32,4.6c24.7,13,28.9,44.3,29.7,50.5
				c3.7,27.4-8.8,48.1-13.7,56.2c-15.2,25.1-37.4,35.9-46.5,39.7c1.7,2.6,3.3,5.2,5,7.8c-0.7,0.9-1.7,1.9-3.3,2.4
				c-3.1,1-7.1-0.7-9.7-4.3C270.8,346.5,272.7,344.3,274.6,342.2z"/>
			<path class="st33" d="M247.5,263.8c1.6-1.8,5.1-0.9,6.3,1.8c1.1,2.5-0.2,5.9-2.6,6.1c-1.7,0.1-3.6-1.5-4.2-3.5
				C246.5,266.7,246.6,264.9,247.5,263.8z"/>
			<path class="st33" d="M281.6,204.9c-14.4,0.3-24.5,20.3-25,21.3c-3,6.1-3.9,11.8-4.4,14.5c-0.8,5.1-0.7,9.4-0.5,12.6
				c2.7-5.9,4.5-10.9,5.6-14.4c1.7-5.3,2.3-8.4,5.3-12.2c1.6-2,3.2-3.4,6.3-6.1c3.7-3.2,6.4-5.5,10.1-7.5c6.8-3.6,11.8-3.3,11.9-4.7
				C291.1,207,286.4,204.8,281.6,204.9z"/>
		</g>
		<path class="st24" d="M58.7,531.5c-1.7,3-3,6.3-5.7,12.7c-6.7,16.1-6.4,19.9-6.1,21.9c0.2,1.4,1.5,8.3,7.8,12.9
			c6.2,4.5,13.1,3.6,14.7,3.3c10.1-1.5,15.7-10.2,16.8-11.8c3.1-4.8,1.6-5.9,6.8-16.7c0.6-1.3,2.5-5.2,5.6-9.9c4-6,6-9.1,9.1-9.6
			c2.8-0.5,3.5,1.3,9.9,2.7c5.7,1.2,7.2,0.2,8.1,1.5c1.8,2.6-4,8-10.6,20c-3.2,5.9-5.6,10.4-6.8,16.7c-1.1,5.8-2.6,13.8,2.3,19.9
			c5.1,6.4,14.9,7.8,22,5.4c7.5-2.6,11.3-9.4,13.9-14c4.4-8,2.4-10.7,7.5-19.4c2.8-4.8,3.7-4.3,8.1-11.3c4.2-6.6,6.3-10,6.9-14.5
			c0,0,0.9-6.6-3.1-14.4c-9.7-19.1-61.8-38.7-88-18.6C73.6,511.6,65,519.8,58.7,531.5z"/>
		<g>
			<path class="st23" d="M248.2,427.3c0.1,1,1.5,1.5,1.7,1.5c1.7,0.6,3.5-0.8,4.3-2.7c0.5-1.1,0.9-3,0.4-3.7c-0.5-0.6-1.5,0.1-3,1.1
				C250,424.7,248.1,426,248.2,427.3z"/>
			<path class="st23" d="M263.7,444.4c-0.1,1,1.1,1.8,1.2,1.9c1.5,1,3.5,0.2,4.8-1.5c0.8-1,1.7-2.7,1.4-3.5
				c-0.3-0.7-1.5-0.3-3.2,0.3C266.1,442.4,263.9,443.1,263.7,444.4z"/>
			<path class="st23" d="M261.7,435.9c-0.1,1,1.1,1.8,1.2,1.9c1.5,1,3.5,0.2,4.8-1.5c0.8-1,1.7-2.7,1.4-3.5
				c-0.3-0.7-1.5-0.3-3.2,0.3C264.1,433.8,261.8,434.5,261.7,435.9z"/>
			<path class="st23" d="M256.7,429.8c-0.1,1,1.1,1.8,1.2,1.9c1.5,1,3.5,0.2,4.8-1.5c0.8-1,1.7-2.7,1.4-3.5
				c-0.3-0.7-1.5-0.3-3.2,0.3C259.1,427.8,256.9,428.5,256.7,429.8z"/>
		</g>
		<path class="st23" d="M201.8,316.6c0.2-1.2,0.2-2.7,0.8-5.9c0.9-4.5,1.9-6.1,1.1-8.4c-0.5-1.3-1.6-3-3.2-3.2
			c-1.2-0.2-2,0.6-4.7,2.9c0,0-3.4,2.9-7.4,5.9c-2.9,2.1-3.8,2.6-5,2.7c-0.4,0-3,0.2-4.7-1.5c-1-1-1.1-2-1.7-4.5
			c-1-4.2-1.5-6.3-2.3-7.6c-1.4-2.2-4.4-4.3-7.3-3.9c-2.9,0.4-4.6,3.3-6.4,6.2c-3.8,6.3-3.6,11.4-5.5,11.6c-0.6,0.1-0.7-0.4-3.4-3.1
			c-3.3-3.4-3.7-3.5-4.9-5.1c-1.1-1.5-0.8-1.6-2.7-5.2c-2.2-4.2-3.3-6.3-4.8-7.3c-2-1.4-5.1-2-7.5-0.9c-2.3,1.1-2.7,3.3-4.9,8.6
			c-3.9,9.1-5.1,7.6-5.6,11.4c-0.5,3-0.6,10.4,0.6,14.4c0.1,0.3,0.4,1.3,0.1,1.5c-0.6,0.4-2.9-1.9-3.4-2.4c-1.7-1.7-2.8-3.4-5.1-7.1
			c-2.5-4.1-2.7-4.7-3.8-5.8c-1.3-1.3-3.4-3.4-5.6-3.1c-2.4,0.3-3.8,3.4-5,6.1c-0.6,1.4-2.3,5.4-2.6,13.9c-0.2,5-0.3,8,0.6,12
			c0.9,4,2.2,6.6,1.1,7.6c-0.6,0.5-1.5,0.3-5.2-0.9c-7.2-2.4-7.3-2.7-8.9-2.8c-2.8-0.3-5,0.3-8.3,1.2c-4,1.1-6,1.7-6.8,2.8
			c-3.5,5.1,5.8,19,6.6,20.1c1.6,2.4,3.7,5,2.8,6.3c-0.4,0.5-1.1,0.7-4.9,0.6c-5.3-0.2-6.9-0.6-10.1-0.5c-1.6,0.1-3,0.2-5.6,0.6
			c-5.4,0.8-8.1,1.1-8.8,2c-2.1,2.7,1.5,8.9,4.3,13.8c3.9,6.9,7.3,9.8,6.2,12.8c-0.6,1.6-2.1,2.4-3.5,3.1c-4.7,2.4-8.4,0-17.5,0
			c-8.5,0-9.4,0.4-9.9,1.2c-1.3,2.2,1.6,6.5,7.3,14.6c1.8,2.6,3.4,5.3,5.3,7.7c2.2,2.8,3.4,3.8,3.1,5.1c-0.6,2.6-6.7,1.8-7.7,4.5
			c-0.8,2.2,2.9,3.7,6.3,9.7c3.4,5.9,2.8,10,6.1,11.2c1.9,0.7,3.8,0,4.7-0.4c8-3.1,9.9-15.5,16-27.9c1.3-2.7,0.8-1.2,17.7-23.9
			c15.3-20.6,15.8-21.9,20-25.6c9.4-8.3,11.3-5.8,24-15.8c11.8-9.3,10.6-11.8,21.5-19.6c5.8-4.1,11.7-6.8,23.4-12.4
			C188.5,328.5,200.6,323.6,201.8,316.6z"/>
		<g>
			<path class="st24" d="M259.6,455.6c-3.5,4-7,6-10.4,8c-3.8,2.1-9.6,4.9-17.6,6.6c-1,9.6-4.8,34-23.9,55.9
				c-14.7,16.8-31.1,23.8-39.8,27.5c-10,4.1-35.1,14.5-63.9,6.6c-6.8-1.9-20.4-5.8-32.4-18c-7.1-7.2-11.2-14.8-13.6-20.3
				c-4.7,0.3-10.6,0.1-17.1-1.6c-19-4.8-29.1-18.2-31.8-21.8c-6.1-8.3-11.2-20.2-8.2-23c1.3-1.2,3.1,0.1,11.7,1.7
				c7,1.3,10.8,2,15.3,1.6c1.4-0.1,3.4-0.4,15.5-5.3c1.9-0.7,3.4-1.4,4.8-2c0-0.1,0-0.2,0-0.3c0.1-7.9,1.2-37.3,17.8-71.3
				c3.7-7.6,20.6-40.7,56.3-66.6c19.9-14.4,34.2-18.3,41.7-19.8c18.3-3.7,30.8-0.4,34,0.5c5.3,1.5,12.2,3.5,18.4,9
				c14.3,12.7,12.8,34,12.4,37.9c2,1.6,4.6,3.9,7.4,7c1.5,1.7,7.3,8.3,9.3,14.8c4.2,13.3-6.8,27.5-8.3,29.5
				c-0.4,6-0.9,12.1-1.3,18.1c2.9-1.4,7.9-3.3,14.1-2.8c3.7,0.3,8.3,0.6,11.8,4.2c4.6,4.7,3.8,11.3,3.7,12.4
				C265,449.4,262,452.8,259.6,455.6z"/>
		</g>
		<path class="st25" d="M254.7,435.4c0.9,0.7,2.5,2.1,2.7,4.7c0.3,4-3.1,7.6-3.8,8.4c-3.7,4.1-8.2,4.9-8.8,5c-1,0.2-4.9,0.8-7.3-1.7
			c-2.5-2.7-1.6-7.5,0.3-10.9c0.3-0.4,3.5-5.9,9-7.3C251.2,432.5,253.9,434.7,254.7,435.4z"/>
		<path class="st26" d="M117.8,404.8c0.2,0.2,0.5,0.4,0.7,0.7c3.2,3,6.3,6.9,9.1,11.5l-0.6,0.4c-2.8-4.6-5.8-8.4-9-11.4
			c-1.2-1.1-2.4-2.1-2.5-2.2c-2.2-1.8-4.7-3.5-7.5-5.1c-4-2.2-6-3.4-8.1-3.4c-2-0.1-4,0.5-6,1.6c-1.9,0.8-3.3,1.9-4.3,3.3
			c-2.9,4-1.2,9.8,2.1,21.6l0.4,1.3c1.6,5.8,3.4,11.7,5.2,17.5l-0.7,0.2c-1.8-5.8-3.6-11.7-5.2-17.6L91,422c-3.4-11.9-5-17.9-2-22.2
			c1.1-1.5,2.6-2.7,4.6-3.5c2.1-1.2,4.2-1.7,6.3-1.7c2.2,0.1,4.3,1.2,8.4,3.5c2.8,1.6,5.4,3.3,7.6,5.1
			C116.1,403.3,116.8,404,117.8,404.8z"/>
		<path class="st8" d="M151.8,539.4c-11.1,6.2-23.7,1.2-26.9-0.1c-9.4-3.8-14.4-10.3-16.7-13.4c-2.1-2.8-3.1-4.9-3.7-6.9
			c-1.3-4.3-0.7-8-0.2-10.6c3.6-18,10.9-30.2,10.9-30.2c4.5-7.5,8.7-14.6,17.4-21.2c10.6-8,20.8-10,25.9-10.9
			c0.6-0.1,13.2-2.3,19.6,2.2c1,0.7,6.1,4.3,7.4,11.3c0.9,4.7-0.4,8.9-1.8,13.2c-5.5,16-8.9,17.8-12.9,29
			c-4.3,12.2-2.6,16.7-8.4,27.2C161.6,530.3,157.9,536,151.8,539.4z"/>
		<g>
			<path class="st23" d="M101.9,395.8c-1.1,0.4-2.3-0.6-2.5-0.7c-1.6-1.3-1.2-3.8,0.2-5.7c0.8-1.1,2.4-2.6,3.4-2.5
				c0.9,0.1,0.8,1.5,0.7,3.5C103.4,392.6,103.2,395.2,101.9,395.8z"/>
			<path class="st23" d="M89.2,408.6c-0.3,1.1-1.9,1.5-2.1,1.6c-2,0.5-3.8-1.2-4.5-3.5c-0.4-1.3-0.7-3.5,0-4.2
				c0.6-0.6,1.7,0.3,3.2,1.6C87.5,405.4,89.6,407.1,89.2,408.6z"/>
			<path class="st23" d="M90.2,401.4c-0.7,0.9-2.3,0.7-2.5,0.6c-2-0.3-3-2.6-2.8-5c0.1-1.4,0.7-3.5,1.6-3.9c0.8-0.4,1.5,0.9,2.4,2.7
				C89.9,397.9,91.1,400.2,90.2,401.4z"/>
			<path class="st23" d="M95.5,395.8c-0.8,0.8-2.4,0.4-2.6,0.3c-2-0.6-2.7-3-2.2-5.3c0.3-1.3,1.2-3.4,2.1-3.7c0.8-0.3,1.3,1.1,2,2.9
				C95.6,392.2,96.5,394.7,95.5,395.8z"/>
		</g>
		<g>
			
				<ellipse transform="matrix(0.1705 -0.9854 0.9854 0.1705 -198.354 476.2364)" class="st28" cx="183.7" cy="355.9" rx="9.9" ry="6.5"/>
			
				<ellipse transform="matrix(0.1718 -0.9851 0.9851 0.1718 -203.6353 478.7704)" class="st8" cx="182.9" cy="360.5" rx="4.3" ry="3.1"/>
			
				<ellipse transform="matrix(0.4058 -0.914 0.914 0.4058 -213.9392 380.4421)" class="st8" cx="185.6" cy="354.8" rx="1.6" ry="1.6"/>
			
				<ellipse transform="matrix(0.4058 -0.914 0.914 0.4058 -215.9138 383.9754)" class="st8" cx="187.3" cy="358" rx="1.4" ry="1.4"/>
		</g>
		<g>
			
				<ellipse transform="matrix(0.1705 -0.9854 0.9854 0.1705 -177.1702 502.6846)" class="st28" cx="210" cy="356.6" rx="9.9" ry="6.5"/>
			
				<ellipse transform="matrix(0.1718 -0.9851 0.9851 0.1718 -182.4838 505.2121)" class="st8" cx="209.2" cy="361.1" rx="4.3" ry="3.1"/>
			
				<ellipse transform="matrix(0.4058 -0.914 0.914 0.4058 -198.8973 404.8617)" class="st8" cx="211.9" cy="355.4" rx="1.6" ry="1.6"/>
			
				<ellipse transform="matrix(0.4058 -0.914 0.914 0.4058 -200.8717 408.3951)" class="st8" cx="213.6" cy="358.7" rx="1.4" ry="1.4"/>
		</g>
		
			<ellipse transform="matrix(0.9907 -0.1361 0.1361 0.9907 -50.088 34.3692)" class="st29" cx="226.4" cy="383.6" rx="14.6" ry="9.3"/>
		
			<ellipse transform="matrix(3.463847e-02 -0.9994 0.9994 3.463847e-02 -218.3615 531.8922)" class="st29" cx="166.1" cy="379" rx="9.3" ry="14.5"/>
		<path d="M170.1,333.1c-0.2-0.2,1.6-1.6,4.1-2.3c0.4-0.1,1.6-0.4,3.3-0.5c1.8,0,3.7,0.3,3.7,0.6c0,0.2-2.2,0-5.4,0.5
			C172.2,332,170.3,333.3,170.1,333.1z"/>
		<path d="M208.3,332.7c-0.1-0.3,2.2-0.7,4.7-0.3c0.4,0.1,1.6,0.3,3.2,1.1c1.6,0.8,3.2,2,3.1,2.2c-0.1,0.2-2-1-5-1.9
			C210.7,332.7,208.4,332.9,208.3,332.7z"/>
		<path class="st8" d="M124.1,339.9c-2.6-0.6-5,2.1-9.9,7.4c-5.2,5.6-8.1,10.2-8.9,11.4c-1.9,3-3.3,5.7-4.3,7.7
			c1.7-1.4,4.2-3.5,7-6.3c5.1-5,4.9-5.9,7.9-8.3c6.4-5.3,11.4-4.9,11.7-7.7C127.8,342.4,126,340.4,124.1,339.9z"/>
		<path class="st8" d="M94.8,371.1c2.3-0.9,4.8,2,4.4,5.4c-0.4,3.2-3.3,5.9-5.4,4.8c-1.5-0.8-2.3-3.5-1.8-6
			C92.4,373.4,93.5,371.6,94.8,371.1z"/>
		<path class="st8" d="M129.4,307.4c-0.4,0-1-2.3-0.6-3.8c0.1-0.2,0.4-1.4,0.4-1.4l0,0c0,0,0.9-1.8,1.4-3.8c0.1-0.2,0.1-0.5,0.3-1
			c0.2-0.9,0.5-1.6,0.5-1.8c0.3-0.8,1.3-2.8,3-3.2c1.4-0.3,2.9,0.4,3.8,2c-0.7-0.4-1.9-0.9-3.2-0.4c-1.8,0.7-2.6,2.9-3.5,5.3
			C129.7,304.1,130,307.3,129.4,307.4z"/>
		<path d="M192.6,377.3c1,2.5,2,4.3,2.8,5.6c1.2,1.9,1.7,2.2,2.2,2.4c1.5,0.4,3.2-1.1,4.1-2.5c0.4-0.7,0.4-1,1.3-3.4
			c0.5-1.4,1-2.5,1.3-3.3c-1.2,1.2-3.1,2.6-5.4,2.8c-1,0.1-2-0.1-2.6-0.2C194.7,378.3,193.5,377.7,192.6,377.3z"/>
		<path class="st25" d="M98.8,405.8c0.9-0.7,2.8-2.2,5.6-1.9c4.2,0.5,7,4.4,7.6,5.3c3.2,4.5,2.8,9.2,2.8,9.8c-0.1,1-0.5,5.1-3.7,7
			c-3.5,2.1-8.1,0.3-11.1-2.2c-0.4-0.3-5.1-4.5-5.1-10.3C95,408.9,98,406.5,98.8,405.8z"/>
	</g>
</g>
<g id="UI">
	<g id="FallingLeaf">
	</g>
	<g id="Layer_22">
	</g>
	<g id="Layer_23">
	</g>
	<g id="Layer_24">
	</g>
</g>
<g id="Welcome1">
	<defs>
		<rect id="SVGID_00000183967994957924255520000008333217621493049517_" x="-1682.1" y="-5085.6" width="1920" height="1083"/>
	</defs>
	<clipPath id="SVGID_00000160176795927767303160000006958864081398520706_">
		<use xlink:href="#SVGID_00000183967994957924255520000008333217621493049517_"  style="overflow:visible;"/>
	</clipPath>
	<g id="WelcomeScreen" style="clip-path:url(#SVGID_00000160176795927767303160000006958864081398520706_);">
	</g>
</g>
<g id="Balloons">
</g>
<g id="GameOver">
	<g id="Layer_5">
		<defs>
			<rect id="SVGID_00000065059013503527741130000013763158684107817912_" x="649.9" y="-3359.6" width="1920" height="1080"/>
		</defs>
		<clipPath id="SVGID_00000110455242637414772580000013627624714652723605_">
			<use xlink:href="#SVGID_00000065059013503527741130000013763158684107817912_"  style="overflow:visible;"/>
		</clipPath>
		<g id="Layer_6" style="clip-path:url(#SVGID_00000110455242637414772580000013627624714652723605_);">
		</g>
		<g id="Layer_7" style="clip-path:url(#SVGID_00000110455242637414772580000013627624714652723605_);">
			<g id="Layer_9">
			</g>
		</g>
	</g>
</g>
<g id="FallingAsteroid">
</g>
<g id="WinScreen">
	<defs>
		<rect id="SVGID_00000152956111201396972500000000202363936804894653_" x="2698.9" y="-5314.6" width="1922" height="1084"/>
	</defs>
	<clipPath id="SVGID_00000105403717798321150500000011671268709757785519_">
		<use xlink:href="#SVGID_00000152956111201396972500000000202363936804894653_"  style="overflow:visible;"/>
	</clipPath>
	<g id="Layer_12" style="clip-path:url(#SVGID_00000105403717798321150500000011671268709757785519_);">
		<g id="Layer_13">
			<g id="Layer_14">
			</g>
		</g>
	</g>
</g>
<g id="Asteroid">
</g>
<g id="GameScreen">
</g>
</svg>
