<?xml version="1.0" encoding="UTF-8"?><svg xmlns="http://www.w3.org/2000/svg" width="587.31" height="723.27" viewBox="0 0 587.31 723.27"><defs><style>.q{fill:#fff;}.r{fill:#ce287f;}.s{fill:#000200;}.t{fill:#337f5c;}.u{fill:#f45a0c;}.v{fill:#00a01a;}.w{fill:#825e84;}.x{fill:#f2c0e3;}.y{fill:#0b38f7;}.a`{fill:#fdfffe;}.aa{fill:#c5a7c6;}.ab{fill:#fafcfa;}.ac{fill:#f7da06;}</style></defs><g id="a"><g><g><path class="ac" d="M467.81,154.68c-3.17-1.95-7.6-4.92-12.49-9.05-7.57-6.39-24.84-20.97-30.71-45.4-1.25-5.2-3.7-15.89-.75-29.17,3-13.52,9.89-22.07,11.41-23.9,2.88-3.47,11.67-13.74,26.96-17.19,3.88-.88,15.04-3.24,26.75,1.93,21.09,9.31,25.87,35.02,26.81,40.08,4.18,22.5-5.28,40.28-9.04,47.35-11.54,21.69-29.5,31.89-36.98,35.59,1.49,2.06,2.98,4.13,4.46,6.19-.53,.78-1.37,1.7-2.61,2.2-2.57,1.03-5.89-.15-8.24-2.99l4.43-5.63Z"/><path class="a`" d="M433.76,90.48c1.22-1.57,4.22-1,5.29,1.12,1.01,2,.08,4.93-1.87,5.22-1.41,.21-3.01-1-3.67-2.68-.48-1.22-.48-2.75,.24-3.67Z"/><path class="a`" d="M459.59,39.78c-11.9,1.08-19.5,18.24-19.87,19.09-2.23,5.2-2.78,10-3.01,12.24-.45,4.25-.22,7.82,.12,10.42,2.01-5.07,3.27-9.26,4.06-12.21,1.2-4.51,1.56-7.06,3.87-10.42,1.23-1.78,2.48-2.99,4.97-5.42,2.96-2.87,5.05-4.9,8.11-6.76,5.51-3.36,9.68-3.43,9.71-4.62,.02-1.16-3.93-2.68-7.95-2.31Z"/></g><g><path class="v" d="M380.39,211.43c-1.91-4.18-4.43-10.28-6.65-17.87-3.43-11.75-11.26-38.56-1.17-67.47,2.15-6.15,6.69-18.73,18.34-30.18,11.87-11.67,24.4-15.57,27.13-16.38,5.17-1.53,20.73-5.87,38.38,1.23,4.48,1.8,17.25,7.15,25.65,20.53,15.13,24.1,3.1,53.56,.74,59.36-10.52,25.77-31.68,37.29-40.09,41.86-25.81,14.04-50.56,11.95-60.5,10.52,.15,3.13,.29,6.26,.44,9.39-1.04,.43-2.49,.78-4.06,.42-3.25-.74-5.83-4.23-6.33-8.77l8.14-2.65Z"/><path class="a`" d="M383.81,136.28c2.11-1.13,5.14,1.04,5.3,3.97,.15,2.75-2.29,5.53-4.58,4.86-1.66-.49-2.84-2.66-2.75-4.86,.06-1.6,.8-3.3,2.04-3.97Z"/><path class="a`" d="M445.54,92.03c-13.65-4.89-30.32,10.34-31.14,11.1-4.98,4.66-7.89,9.73-9.24,12.1-2.55,4.51-4.02,8.61-4.9,11.68,4.67-4.63,8.08-8.65,10.37-11.54,3.51-4.41,5.13-7.07,9.3-9.63,2.21-1.36,4.18-2.07,8.11-3.49,4.65-1.69,7.94-2.88,12.21-3.39,7.7-.92,12.34,1.13,12.94-.18,.59-1.29-3.05-5-7.65-6.65Z"/></g><g><path class="y" d="M496.43,170.47c-1.87-2.68-4.39-6.62-6.88-11.64-3.84-7.77-12.62-25.49-8.72-46.84,.83-4.54,2.63-13.85,9.7-23.23,7.19-9.56,15.77-13.79,17.64-14.69,3.55-1.69,14.26-6.59,27.81-3.78,3.44,.71,13.27,2.89,20.88,11.2,13.72,14.95,8.49,36.92,7.46,41.24-4.57,19.22-18.48,29.8-24.01,34-16.96,12.9-35.05,14.43-42.38,14.64,.47,2.16,.94,4.32,1.41,6.49-.7,.42-1.7,.84-2.88,.79-2.43-.12-4.7-2.24-5.59-5.34l5.56-2.83Z"/><path class="a`" d="M486.56,111.08c1.54-.8,3.76,.74,3.87,2.8,.11,1.94-1.68,3.91-3.35,3.43-1.21-.34-2.07-1.88-2.01-3.43,.05-1.13,.59-2.33,1.49-2.8Z"/><path class="a`" d="M528.45,79.78c-9.98-3.45-22.16,7.3-22.76,7.84-3.64,3.29-5.77,6.87-6.75,8.54-1.86,3.18-2.94,6.08-3.58,8.24,3.41-3.27,5.91-6.11,7.58-8.15,2.56-3.12,3.75-4.99,6.8-6.8,1.62-.96,3.05-1.46,5.92-2.47,3.4-1.19,5.8-2.03,8.92-2.39,5.63-.65,9.02,.8,9.46-.13,.43-.91-2.23-3.53-5.59-4.69Z"/></g><g><path class="r" d="M366.68,101.03c-1.87-2.68-4.39-6.62-6.88-11.64-3.84-7.77-12.62-25.49-8.72-46.84,.83-4.54,2.63-13.85,9.7-23.23,7.19-9.56,15.77-13.79,17.64-14.69,3.55-1.69,14.26-6.59,27.81-3.78,3.44,.71,13.27,2.89,20.88,11.2,13.72,14.95,8.49,36.92,7.46,41.24-4.57,19.22-18.48,29.8-24.01,34-16.96,12.9-35.05,14.43-42.38,14.64,.47,2.16,.94,4.32,1.41,6.49-.7,.42-1.7,.84-2.88,.79-2.43-.12-4.7-2.24-5.59-5.34l5.56-2.83Z"/><path class="a`" d="M368.25,41.87c1.54-.8,3.76,.74,3.87,2.8,.11,1.94-1.68,3.91-3.35,3.43-1.21-.34-2.07-1.88-2.01-3.43,.05-1.13,.59-2.33,1.49-2.8Z"/><path class="a`" d="M406.98,11.31c-9.98-3.45-22.16,7.3-22.76,7.84-3.64,3.29-5.77,6.87-6.75,8.54-1.86,3.18-2.94,6.08-3.58,8.24,3.41-3.27,5.91-6.11,7.58-8.15,2.56-3.12,3.75-4.99,6.8-6.8,1.62-.96,3.05-1.46,5.92-2.47,3.4-1.19,5.8-2.03,8.92-2.39,5.63-.65,9.02,.8,9.46-.13,.43-.91-2.23-3.53-5.59-4.69Z"/></g><g><path class="u" d="M299.69,122.89c-1.87-2.68-4.39-6.62-6.88-11.64-3.84-7.77-12.62-25.49-8.72-46.84,.83-4.54,2.63-13.85,9.7-23.23,7.19-9.56,15.77-13.79,17.64-14.69,3.55-1.69,14.26-6.59,27.81-3.78,3.44,.71,13.27,2.89,20.88,11.2,13.72,14.95,8.49,36.92,7.46,41.24-4.57,19.22-18.48,29.8-24.01,34-16.96,12.9-35.05,14.43-42.38,14.64,.47,2.16,.94,4.32,1.41,6.49-.7,.42-1.7,.84-2.88,.79-2.43-.12-4.7-2.24-5.59-5.34l5.56-2.83Z"/><path class="a`" d="M297.39,60.54c1.54-.8,3.76,.74,3.87,2.8,.11,1.94-1.68,3.91-3.35,3.43-1.21-.34-2.07-1.88-2.01-3.43,.05-1.13,.59-2.33,1.49-2.8Z"/><path class="a`" d="M336.12,29.98c-9.98-3.45-22.16,7.3-22.76,7.84-3.64,3.29-5.77,6.87-6.75,8.54-1.86,3.18-2.94,6.08-3.58,8.24,3.41-3.27,5.91-6.11,7.58-8.15,2.56-3.12,3.75-4.99,6.8-6.8,1.62-.96,3.05-1.46,5.92-2.47,3.4-1.19,5.8-2.03,8.92-2.39,5.63-.65,9.02,.8,9.46-.13,.43-.91-2.23-3.53-5.59-4.69Z"/></g><g><path class="ac" d="M369.41,185.09c-3.02-1.25-7.28-3.19-12.08-6.07-7.43-4.45-24.4-14.62-32.66-34.69-1.76-4.27-5.27-13.07-4.4-24.79,.88-11.93,5.81-20.13,6.9-21.89,2.07-3.34,8.43-13.25,21.35-18.21,3.28-1.26,12.72-4.74,23.62-1.87,19.62,5.16,27.1,26.47,28.57,30.66,6.54,18.64,.56,35.06-1.82,41.58-7.3,20.02-21.68,31.09-27.74,35.23,1.56,1.56,3.13,3.13,4.69,4.69-.36,.74-.98,1.63-2,2.22-2.11,1.21-5.16,.65-7.59-1.47l3.15-5.39Z"/><path class="a`" d="M331.41,134.81c.86-1.5,3.56-1.41,4.77,.26,1.14,1.58,.7,4.19-.96,4.7-1.2,.37-2.76-.46-3.55-1.8-.57-.98-.77-2.28-.26-3.16Z"/><path class="a`" d="M347.47,88.15c-10.26,2.49-14.7,18.12-14.91,18.9-1.28,4.73-1.14,8.9-1.06,10.84,.15,3.68,.81,6.7,1.44,8.87,1.1-4.59,1.67-8.33,1.97-10.95,.47-4.01,.45-6.23,2.04-9.4,.84-1.68,1.78-2.88,3.65-5.28,2.22-2.84,3.78-4.85,6.21-6.84,4.38-3.59,8.02-4.2,7.89-5.22-.13-1-3.78-1.77-7.24-.93Z"/></g><g><path class="u" d="M472.18,217.52c-1.64-2.83-3.83-6.96-5.89-12.17-3.18-8.06-10.45-26.45-4.8-47.4,1.2-4.46,3.77-13.58,11.59-22.35,7.96-8.93,16.86-12.44,18.8-13.17,3.67-1.39,14.75-5.39,28.02-1.46,3.37,1,12.98,3.98,19.88,12.89,12.43,16.04,5.39,37.5,4.01,41.72-6.15,18.77-20.9,28.16-26.75,31.88-17.98,11.44-36.13,11.47-43.45,11.07,.29,2.19,.58,4.39,.87,6.58-.73,.36-1.77,.7-2.93,.54-2.41-.32-4.49-2.63-5.13-5.78l5.78-2.36Z"/><path class="a`" d="M475.07,155.19c1.6-.67,3.68,1.05,3.62,3.11-.05,1.95-2,3.75-3.62,3.14-1.18-.44-1.91-2.05-1.72-3.59,.14-1.12,.78-2.28,1.72-2.67Z"/><path class="a`" d="M516.21,127.95c-9.66-4.27-22.69,5.43-23.33,5.92-3.9,2.97-6.32,6.36-7.44,7.95-2.12,3.02-3.43,5.81-4.26,7.92,3.67-2.97,6.39-5.6,8.23-7.49,2.81-2.89,4.15-4.66,7.34-6.21,1.69-.82,3.16-1.2,6.11-1.97,3.49-.9,5.95-1.54,9.09-1.64,5.66-.18,8.92,1.55,9.43,.66,.5-.87-1.93-3.7-5.18-5.14Z"/></g><g><path class="r" d="M418.43,236.91c-1.21-1.81-2.84-4.47-4.45-7.87-2.48-5.25-8.15-17.23-5.64-31.65,.54-3.07,1.7-9.36,6.27-15.7,4.65-6.46,10.19-9.32,11.4-9.92,2.29-1.14,9.21-4.46,17.97-2.55,2.22,.48,8.58,1.95,13.5,7.57,8.87,10.11,5.49,24.95,4.82,27.87-2.96,12.99-11.95,20.14-15.52,22.97-10.96,8.72-22.66,9.75-27.39,9.89,.3,1.46,.61,2.92,.91,4.38-.45,.29-1.1,.57-1.86,.53-1.57-.08-3.04-1.52-3.61-3.61l3.59-1.91Z"/><path class="a`" d="M419.44,196.93c.99-.54,2.43,.5,2.5,1.89,.07,1.31-1.08,2.64-2.17,2.32-.78-.23-1.34-1.27-1.3-2.32,.03-.77,.38-1.58,.96-1.89Z"/><path class="a`" d="M444.48,176.27c-6.45-2.33-14.33,4.93-14.71,5.3-2.35,2.22-3.73,4.64-4.36,5.77-1.2,2.15-1.9,4.11-2.32,5.57,2.21-2.21,3.82-4.13,4.9-5.5,1.66-2.11,2.42-3.37,4.4-4.59,1.05-.65,1.97-.99,3.83-1.67,2.2-.8,3.75-1.37,5.77-1.62,3.64-.44,5.83,.54,6.11-.09,.28-.61-1.44-2.39-3.61-3.17Z"/></g><g><path class="ac" d="M473.43,312.12c-3.05-3.9-7.18-9.62-11.23-16.91-6.28-11.28-20.61-37.04-14.25-68.06,1.35-6.6,4.3-20.12,15.84-33.76,11.75-13.89,25.75-20.04,28.81-21.34,5.79-2.45,23.29-9.58,45.42-5.49,5.62,1.04,21.67,4.2,34.11,16.27,22.4,21.73,13.87,53.65,12.19,59.93-7.47,27.93-30.19,43.3-39.22,49.4-27.71,18.74-57.25,20.97-69.22,21.27,.77,3.14,1.54,6.28,2.31,9.42-1.15,.62-2.78,1.23-4.7,1.14-3.97-.18-7.67-3.26-9.13-7.76l9.08-4.12Z"/><path class="a`" d="M465.63,220.8c2.51-1.16,6.14,1.07,6.32,4.07,.18,2.82-2.74,5.68-5.47,4.99-1.98-.5-3.39-2.73-3.28-4.99,.07-1.65,.96-3.39,2.43-4.07Z"/><path class="a`" d="M528.9,176.39c-16.3-5.02-36.2,10.61-37.17,11.39-5.94,4.78-9.42,9.98-11.03,12.41-3.04,4.62-4.8,8.83-5.85,11.98,5.57-4.75,9.65-8.88,12.39-11.84,4.19-4.53,6.12-7.25,11.11-9.88,2.64-1.39,4.99-2.12,9.68-3.58,5.55-1.73,9.48-2.95,14.57-3.48,9.19-.94,14.73,1.16,15.45-.18,.7-1.32-3.64-5.13-9.13-6.82Z"/></g><g><path class="y" d="M354.14,261.71c-1.87-2.68-4.39-6.62-6.88-11.64-3.84-7.77-12.62-25.49-8.72-46.84,.83-4.54,2.63-13.85,9.7-23.23,7.19-9.56,15.77-13.79,17.64-14.69,3.55-1.69,14.26-6.59,27.81-3.78,3.44,.71,13.27,2.89,20.88,11.2,13.72,14.95,8.49,36.92,7.46,41.24-4.57,19.22-18.48,29.8-24.01,34-16.96,12.9-35.05,14.43-42.38,14.64,.47,2.16,.94,4.32,1.41,6.49-.7,.42-1.7,.84-2.88,.79-2.43-.12-4.7-2.24-5.59-5.34l5.56-2.83Z"/><path class="a`" d="M344.27,202.32c1.54-.8,3.76,.74,3.87,2.8,.11,1.94-1.68,3.91-3.35,3.43-1.21-.34-2.07-1.88-2.01-3.43,.05-1.13,.59-2.33,1.49-2.8Z"/><path class="a`" d="M386.16,171.02c-9.98-3.45-22.16,7.3-22.76,7.84-3.64,3.29-5.77,6.87-6.75,8.54-1.86,3.18-2.94,6.08-3.58,8.24,3.41-3.27,5.91-6.11,7.58-8.15,2.56-3.12,3.75-4.99,6.8-6.8,1.62-.96,3.05-1.46,5.92-2.47,3.4-1.19,5.8-2.03,8.92-2.39,5.63-.65,9.02,.8,9.46-.13,.43-.91-2.23-3.53-5.59-4.69Z"/></g><g><path class="v" d="M329.99,207.18c-4.77-.19-11.59-.71-19.63-2.2-12.44-2.3-40.83-7.56-62.23-30.09-4.55-4.79-13.79-14.73-18.47-30.63-4.77-16.19-2.11-29.4-1.49-32.25,1.17-5.41,4.93-21.58,20.19-34.36,3.87-3.24,15.1-12.4,31.5-13.86,29.53-2.64,50.48,21.91,54.6,26.74,18.33,21.48,18.34,46.06,18.34,55.82,.01,29.97-14.19,51.54-20.43,59.93,2.93,1.31,5.86,2.62,8.8,3.94-.13,1.15-.52,2.62-1.63,3.89-2.29,2.62-6.76,3.35-11.16,1.72l1.62-8.64Z"/><path class="a`" d="M263.03,169.37c.02-2.44,3.51-4.2,6.25-2.99,2.59,1.14,3.92,4.64,2.17,6.42-1.27,1.28-3.84,1.35-5.81,.26-1.43-.8-2.62-2.26-2.61-3.69Z"/><path class="a`" d="M253.26,92.76c-11.25,10.17-5.61,32.37-5.32,33.47,1.78,6.68,4.97,11.68,6.47,13.99,2.85,4.4,5.87,7.64,8.23,9.86-1.91-6.39-3.89-11.35-5.39-14.77-2.29-5.23-3.91-7.93-4.18-12.92-.14-2.64,.18-4.76,.83-8.99,.77-5.01,1.31-8.56,2.97-12.68,2.99-7.43,7.16-10.7,6.26-11.86-.88-1.13-6.08,.46-9.88,3.89Z"/></g><g><path class="r" d="M466.25,361.13c-.92-3.14-2.07-7.67-2.84-13.22-1.19-8.58-3.89-28.18,6.56-47.19,2.22-4.05,6.88-12.3,16.56-18.97,9.85-6.79,19.32-8.09,21.38-8.34,3.9-.48,15.61-1.74,27.57,5.22,3.04,1.77,11.67,6.95,16.26,17.24,8.27,18.53-3.64,37.71-5.99,41.48-10.43,16.78-26.97,22.41-33.54,24.64-20.17,6.86-37.82,2.59-44.83,.46-.24,2.2-.48,4.4-.71,6.6-.8,.18-1.88,.26-2.98-.17-2.27-.89-3.74-3.62-3.61-6.83l6.17-.93Z"/><path class="a`" d="M486.48,305.51c1.71-.27,3.33,1.89,2.78,3.88-.51,1.88-2.83,3.17-4.26,2.19-1.04-.71-1.37-2.44-.82-3.89,.4-1.06,1.29-2.03,2.3-2.18Z"/><path class="a`" d="M532.9,288.79c-8.37-6.44-23.33-.1-24.07,.23-4.49,1.97-7.65,4.69-9.11,5.96-2.77,2.43-4.71,4.83-6.01,6.68,4.27-2.02,7.54-3.92,9.77-5.32,3.42-2.14,5.14-3.55,8.6-4.3,1.84-.4,3.36-.42,6.4-.46,3.6-.05,6.15-.09,9.22,.56,5.54,1.17,8.3,3.61,9.01,2.87,.7-.72-.99-4.05-3.82-6.22Z"/></g><g><path class="u" d="M281.84,293.67c-2.25-3.24-5.3-8.01-8.29-14.07-4.63-9.39-15.21-30.83-10.52-56.64,1-5.49,3.17-16.74,11.69-28.09,8.67-11.56,19-16.68,21.26-17.76,4.27-2.04,17.18-7.97,33.52-4.57,4.15,.86,15.99,3.5,25.17,13.54,16.53,18.08,10.23,44.65,8.99,49.87-5.51,23.24-22.28,36.03-28.94,41.11-20.45,15.59-42.25,17.45-51.08,17.7,.57,2.61,1.14,5.23,1.7,7.84-.85,.51-2.05,1.02-3.47,.95-2.93-.15-5.66-2.71-6.74-6.45l6.7-3.42Z"/><path class="a`" d="M279.07,218.27c1.86-.96,4.53,.89,4.67,3.39,.13,2.35-2.02,4.72-4.04,4.15-1.46-.41-2.5-2.27-2.42-4.15,.06-1.37,.71-2.82,1.79-3.39Z"/><path class="a`" d="M325.76,181.31c-12.03-4.18-26.71,8.83-27.43,9.48-4.39,3.98-6.95,8.3-8.14,10.33-2.25,3.85-3.54,7.35-4.32,9.97,4.11-3.95,7.12-7.39,9.14-9.85,3.09-3.77,4.52-6.04,8.2-8.22,1.95-1.16,3.68-1.77,7.14-2.98,4.1-1.44,6.99-2.46,10.76-2.89,6.78-.78,10.87,.97,11.4-.15,.52-1.1-2.68-4.27-6.74-5.68Z"/></g><g><path class="ac" d="M256.17,260.53c-3.18-.77-7.68-2.04-12.87-4.14-8.03-3.26-26.36-10.69-37.62-29.24-2.4-3.95-7.22-12.1-8.17-23.81-.97-11.92,2.64-20.78,3.44-22.69,1.53-3.62,6.29-14.39,18.29-21.28,3.05-1.75,11.84-6.64,23.05-5.49,20.18,2.08,30.86,21.98,32.96,25.89,9.34,17.41,5.95,34.55,4.61,41.36-4.13,20.91-16.63,34.06-21.98,39.08,1.79,1.3,3.57,2.61,5.36,3.91-.24,.78-.71,1.76-1.63,2.5-1.9,1.52-5,1.44-7.72-.28l2.28-5.81Z"/><path class="a`" d="M210.88,216.69c.62-1.62,3.3-1.94,4.75-.47,1.37,1.38,1.34,4.03-.23,4.79-1.13,.55-2.8-.03-3.78-1.23-.72-.88-1.11-2.13-.75-3.08Z"/><path class="a`" d="M219.56,168.13c-9.75,4.04-11.73,20.17-11.82,20.97-.54,4.87,.24,8.97,.62,10.87,.72,3.62,1.84,6.5,2.79,8.55,.38-4.71,.36-8.49,.26-11.13-.15-4.03-.51-6.22,.57-9.6,.57-1.79,1.31-3.12,2.79-5.78,1.75-3.15,2.99-5.37,5.09-7.71,3.78-4.22,7.27-5.39,6.99-6.37-.28-.96-4.01-1.16-7.3,.2Z"/></g><g><path class="v" d="M382.52,334.53c-1.56-3.67-3.62-9.02-5.43-15.68-2.8-10.31-9.19-33.83-.96-59.2,1.75-5.4,5.46-16.43,14.98-26.48,9.69-10.24,19.92-13.66,22.15-14.37,4.22-1.34,16.93-5.15,31.34,1.08,3.66,1.58,14.09,6.27,20.95,18.01,12.35,21.14,2.53,46.99,.6,52.08-8.59,22.61-25.88,32.72-32.74,36.73-21.08,12.32-41.29,10.49-49.41,9.23,.12,2.75,.24,5.49,.36,8.24-.85,.37-2.03,.68-3.32,.37-2.66-.65-4.76-3.71-5.17-7.69l6.65-2.33Z"/><path class="a`" d="M385.31,268.6c1.72-.99,4.2,.92,4.32,3.48,.12,2.41-1.87,4.85-3.74,4.27-1.35-.43-2.32-2.34-2.25-4.27,.05-1.41,.65-2.9,1.66-3.48Z"/><path class="a`" d="M435.72,229.78c-11.15-4.29-24.76,9.07-25.43,9.74-4.07,4.09-6.45,8.53-7.54,10.61-2.08,3.95-3.28,7.55-4.01,10.25,3.81-4.06,6.6-7.59,8.47-10.12,2.87-3.87,4.19-6.2,7.6-8.45,1.81-1.19,3.41-1.82,6.62-3.06,3.8-1.48,6.48-2.53,9.97-2.97,6.29-.81,10.07,.99,10.57-.16,.48-1.13-2.49-4.39-6.25-5.83Z"/></g><g><path class="y" d="M362.12,416.92c-1.2-4.8-2.67-11.71-3.46-20.09-1.23-12.97-4.03-42.57,13.55-69.72,3.74-5.78,11.56-17.55,27.05-26.34,15.77-8.95,30.57-9.75,33.78-9.88,6.08-.24,24.35-.71,42.42,11.14,4.59,3.01,17.61,11.79,24.01,27.72,11.52,28.68-8.35,55.91-12.25,61.26-17.38,23.81-43.46,30.22-53.82,32.76-31.8,7.81-58.88-.7-69.62-4.73-.53,3.26-1.05,6.52-1.58,9.77-1.25,.17-2.94,.16-4.61-.61-3.46-1.6-5.55-5.86-5.12-10.65l9.64-.64Z"/><path class="a`" d="M381.02,329.23c2.68-.19,5.03,3.23,4.04,6.14-.93,2.74-4.62,4.4-6.78,2.76-1.56-1.18-1.95-3.81-.99-5.91,.7-1.53,2.15-2.87,3.72-2.99Z"/><path class="a`" d="M459.26,310.69c-12.53-10.63-36.21-2.96-37.37-2.57-7.11,2.39-12.2,6.08-14.56,7.81-4.48,3.29-7.66,6.65-9.81,9.26,6.77-2.5,11.98-4.95,15.55-6.77,5.46-2.79,8.23-4.68,13.66-5.38,2.88-.37,5.24-.22,9.97,.08,5.59,.36,9.55,.61,14.27,1.95,8.52,2.41,12.62,6.4,13.78,5.38,1.13-1-1.25-6.18-5.48-9.76Z"/></g><g><path d="M279.93,523.01l-1.17-1.91c11.89-8.87,20.11-19.51,24.43-31.64,4.45-12.49,4.9-26.84,5.32-40.72,.16-5.33,.11-9.54,.07-12.93-.09-7.42-.15-11.89,2.18-17.88,3.5-8.99,10.38-16.4,20.45-22.02l.94,2.06c-9.62,5.37-16.17,12.39-19.47,20.87-2.15,5.53-2.1,9.58-2.01,16.94,.04,3.41,.1,7.66-.07,13.03-.43,14.08-.88,28.63-5.47,41.49-4.48,12.57-12.96,23.57-25.21,32.71Z"/><path d="M266.66,527.13l-.21-2.3c16.14-1.83,31.43-8.13,45.45-18.75,14.45-10.94,27.8-26.62,40.71-41.78,4.94-5.81,8.73-10.53,11.78-14.32,6.8-8.47,10.54-13.13,17.39-18.09,10.4-7.53,21.69-11.06,33.55-10.51l-.09,2.31c-11.42-.54-22.29,2.88-32.32,10.14-6.62,4.79-10.3,9.37-16.97,17.69-3.05,3.8-6.85,8.53-11.82,14.36-12.99,15.25-26.42,31.02-41.05,42.1-14.31,10.83-29.92,17.27-46.42,19.14Z"/><path d="M280.83,519.15l-.15-2.3c14.31-1.14,26.24-5.84,35.46-13.97,9.5-8.38,16.37-20.58,23-32.37,2.55-4.52,4.4-8.21,5.89-11.17,3.27-6.48,5.24-10.39,9.96-14.3,7.09-5.87,16.4-8.5,27.67-7.83l-.11,2.31c-10.76-.64-19.62,1.84-26.31,7.37-4.36,3.61-6.15,7.15-9.38,13.57-1.5,2.98-3.37,6.69-5.94,11.26-6.73,11.96-13.69,24.33-23.47,32.96-9.56,8.43-21.88,13.3-36.62,14.47Z"/><path d="M281.86,521.35c-1.55-24.64,1.87-44.72,10.17-59.7,8.52-15.38,22.18-25.48,35.39-35.25,5.05-3.73,9.19-6.39,12.52-8.53,7.17-4.6,11.11-7.14,14.63-14.04,5.42-10.64,6.66-25.39,3.66-43.83l2.06-.41c3.08,18.98,1.77,34.25-3.9,45.37-3.8,7.45-8.16,10.25-15.4,14.91-3.3,2.12-7.41,4.76-12.4,8.46-13.02,9.63-26.49,19.59-34.77,34.53-8.06,14.55-11.38,34.18-9.86,58.33l-2.09,.16Z"/><path d="M282.69,519.4l-1.77-1.23c6.83-12,10.04-23.16,9.52-33.18-.53-10.29-5-19.69-9.32-28.77-1.66-3.49-3.12-6.15-4.3-8.3-2.63-4.78-4.21-7.66-4.31-12.86-.14-7.69,3.06-16.15,9.51-25.14l1.64,1.43c-6.14,8.56-9.19,16.51-9.06,23.65,.09,4.58,1.48,7.11,4,11.71,1.19,2.17,2.68,4.87,4.37,8.42,4.42,9.3,9,18.92,9.56,29.72,.54,10.51-2.77,22.13-9.84,34.54Z"/><path d="M269.74,528.14l-.61-2.21c13.72-4.64,24.4-12.17,31.74-22.37,7.57-10.51,11.79-24.09,15.87-37.23,1.57-5.04,2.63-9.08,3.49-12.34,1.87-7.12,3-11.42,6.82-16.4,5.73-7.47,14.27-12.33,25.39-14.46l.36,2.27c-10.62,2.03-18.75,6.63-24.15,13.67-3.52,4.6-4.55,8.49-6.4,15.55-.86,3.28-1.93,7.35-3.52,12.44-4.14,13.32-8.42,27.09-16.22,37.91-7.61,10.57-18.64,18.36-32.77,23.14Z"/></g><g><path class="u" d="M381.82,435.42c-1.87-2.68-4.39-6.62-6.88-11.64-3.84-7.77-12.62-25.49-8.72-46.84,.83-4.54,2.63-13.85,9.7-23.23,7.19-9.56,15.77-13.79,17.64-14.69,3.55-1.69,14.26-6.59,27.81-3.78,3.44,.71,13.27,2.89,20.88,11.2,13.72,14.95,8.49,36.92,7.46,41.24-4.57,19.22-18.48,29.8-24.01,34-16.96,12.9-35.05,14.43-42.38,14.64,.47,2.16,.94,4.32,1.41,6.49-.7,.42-1.7,.84-2.88,.79-2.43-.12-4.7-2.24-5.59-5.34l5.56-2.83Z"/><path class="a`" d="M379.52,373.06c1.54-.8,3.76,.74,3.87,2.8,.11,1.94-1.68,3.91-3.35,3.43-1.21-.34-2.07-1.88-2.01-3.43,.05-1.13,.59-2.33,1.49-2.8Z"/><path class="a`" d="M418.25,342.5c-9.98-3.45-22.16,7.3-22.76,7.84-3.64,3.29-5.77,6.87-6.75,8.54-1.86,3.18-2.94,6.08-3.58,8.24,3.41-3.27,5.91-6.11,7.58-8.15,2.56-3.12,3.75-4.99,6.8-6.8,1.62-.96,3.05-1.46,5.92-2.47,3.4-1.19,5.8-2.03,8.92-2.39,5.63-.65,9.02,.8,9.46-.13,.43-.91-2.23-3.53-5.59-4.69Z"/></g><g><path class="ac" d="M360.08,353.97c-2.87-2.39-6.84-5.96-11.05-10.68-6.51-7.31-21.38-24-22.63-47.69-.27-5.04-.68-15.39,4.94-27.13,5.72-11.96,14.47-18.59,16.39-20,3.63-2.67,14.66-10.55,31.03-10.92,4.16-.09,16.07-.21,27.08,6.74,19.82,12.51,19.7,37.19,19.67,42.04-.11,21.59-13.3,36.29-18.55,42.13-16.09,17.93-36.52,24.05-44.91,26.09,1.12,2.18,2.25,4.37,3.37,6.55-.69,.62-1.73,1.32-3.11,1.55-2.84,.47-6.01-1.22-7.88-4.3l5.65-4.39Z"/><path class="a`" d="M337.7,288.27c1.56-1.23,4.53-.15,5.21,2.02,.65,2.04-.88,4.57-2.94,4.48-1.49-.06-2.89-1.49-3.24-3.15-.25-1.22,.05-2.63,.96-3.35Z"/><path class="a`" d="M374.13,246.14c-12.43-1.2-23.58,13.26-24.12,13.99-3.31,4.4-4.81,8.74-5.49,10.76-1.29,3.85-1.76,7.2-1.92,9.66,3.06-4.32,5.17-7.96,6.55-10.55,2.12-3.95,2.98-6.24,6.01-8.92,1.61-1.42,3.13-2.31,6.17-4.09,3.6-2.11,6.14-3.6,9.64-4.76,6.31-2.09,10.61-1.38,10.86-2.48,.25-1.07-3.51-3.2-7.71-3.61Z"/></g><g><path class="v" d="M334.63,410.71c-2.85-.98-6.86-2.53-11.4-4.93-7.03-3.72-23.09-12.21-31.25-30.7-1.74-3.94-5.21-12.06-4.67-23.26,.55-11.4,4.96-19.54,5.94-21.29,1.86-3.32,7.56-13.19,19.51-18.8,3.03-1.43,11.76-5.39,22-3.42,18.42,3.54,25.88,23.28,27.35,27.16,6.52,17.27,1.31,33.29-.76,39.66-6.36,19.54-19.53,31.07-25.08,35.42,1.5,1.38,2.99,2.76,4.49,4.13-.32,.72-.87,1.62-1.81,2.25-1.94,1.3-4.8,.98-7.11-.87l2.81-5.34Z"/><path class="a`" d="M302.16,374.13c.53-1.59,3.01-2.11,4.42-.83,1.32,1.2,1.38,3.72-.05,4.57-1.04,.61-2.61,.2-3.57-.87-.7-.78-1.11-1.94-.8-2.87Z"/><path class="a`" d="M312.51,322.45c-8.96,4.62-10.27,20.1-10.32,20.87-.34,4.67,.52,8.5,.94,10.28,.79,3.38,1.93,6.02,2.89,7.89,.2-4.5,.06-8.09-.12-10.59-.27-3.82-.68-5.87,.22-9.16,.48-1.75,1.12-3.07,2.41-5.71,1.53-3.13,2.61-5.34,4.49-7.74,3.38-4.31,6.6-5.7,6.3-6.61-.29-.89-3.78-.78-6.8,.78Z"/></g><path class="r" d="M278.61,407.19c-4.58-2.21-11.01-5.62-18.25-10.53-11.19-7.6-36.75-24.94-48.54-56.9-2.51-6.8-7.5-20.81-5.65-38.97,1.88-18.48,9.79-30.8,11.55-33.45,3.32-5.01,13.51-19.87,33.54-26.43,5.08-1.67,19.72-6.24,36.3-.8,29.86,9.79,40.38,43.62,42.45,50.27,9.21,29.59-.7,54.61-4.63,64.54-12.07,30.5-34.62,46.44-44.08,52.34,2.33,2.57,4.66,5.15,6.99,7.72-.59,1.11-1.57,2.45-3.16,3.27-3.29,1.7-7.94,.55-11.57-2.96l5.06-8.1Z"/><path class="a`" d="M233.84,325.68c1.39-2.26,5.52-1.88,7.3,.84,1.68,2.56,.89,6.59-1.68,7.23-1.86,.46-4.21-.96-5.36-3.12-.84-1.57-1.08-3.62-.26-4.94Z"/><path class="a`" d="M260.53,254.52c-15.84,2.96-23.33,26.89-23.69,28.08-2.18,7.25-2.14,13.74-2.11,16.77,.07,5.75,.95,10.5,1.82,13.94,1.9-7.05,2.92-12.81,3.51-16.87,.9-6.19,.97-9.65,3.55-14.44,1.37-2.54,2.85-4.32,5.83-7.89,3.52-4.22,6.01-7.21,9.83-10.08,6.88-5.19,12.48-5.82,12.32-7.42-.15-1.56-5.72-3.09-11.06-2.09Z"/><path class="aa" d="M75.09,657.73c-1.26,3.66-2.14,7.47-3.91,15.08-4.41,19.03-3.41,23.09-2.65,25.28,.53,1.53,3.26,8.92,11.05,12.78,7.72,3.82,15.13,1.58,16.93,1,10.93-3.5,15.53-14.08,16.41-16.09,2.55-5.86,.67-6.75,4.39-19.68,.44-1.53,1.81-6.17,4.35-11.94,3.26-7.38,4.96-11.1,8.26-12.3,3.04-1.11,4.09,.83,11.49,1.21,6.53,.33,8.06-1.06,9.27,.2,2.5,2.58-2.96,9.54-7.94,23.95-2.46,7.14-4.28,12.56-4.39,19.68-.1,6.63-.23,15.73,6.26,21.57,6.84,6.16,17.96,5.94,25.36,1.89,7.84-4.29,10.75-12.46,12.74-18.03,3.42-9.6,.61-12.18,4.71-22.74,2.25-5.8,3.25-5.41,6.89-13.99,3.39-8,5.09-12.13,4.91-17.3,0,0-.26-7.46-6.13-15.36-14.36-19.31-75.76-31.34-101-4.4-4.19,4.47-12.14,15.1-17.01,29.2Z"/><g><path class="t" d="M265.5,508.17c.36,1.09,1.95,1.35,2.17,1.39,2.02,.33,3.68-1.53,4.21-3.81,.31-1.33,.41-3.52-.28-4.16-.63-.58-1.65,.4-3.07,1.79-1.59,1.55-3.48,3.39-3.03,4.79Z"/><path class="t" d="M285.89,524.2c.05,1.15,1.51,1.83,1.71,1.93,1.86,.87,3.95-.47,5.08-2.52,.66-1.2,1.35-3.28,.86-4.07-.45-.73-1.69-.06-3.44,.89-1.95,1.06-4.27,2.31-4.21,3.78Z"/><path class="t" d="M281.98,515.11c.05,1.15,1.51,1.83,1.71,1.93,1.86,.87,3.95-.47,5.08-2.52,.66-1.2,1.35-3.28,.86-4.07-.45-.73-1.69-.06-3.44,.89-1.95,1.06-4.27,2.31-4.21,3.78Z"/><path class="t" d="M275.37,509.36c.05,1.15,1.51,1.83,1.71,1.93,1.86,.87,3.95-.47,5.08-2.52,.66-1.2,1.35-3.28,.86-4.07-.45-.73-1.69-.06-3.44,.89-1.95,1.06-4.27,2.31-4.21,3.78Z"/></g><path class="t" d="M193.24,394.46c0-1.31-.34-3-.23-6.67,.15-5.15,.96-7.12-.4-9.41-.78-1.31-2.33-3.03-4.11-2.99-1.35,.03-2.1,1.06-4.64,4.09,0,0-3.2,3.81-7.14,7.89-2.76,2.86-3.73,3.51-5.02,3.84-.41,.1-3.23,.78-5.47-.79-1.27-.89-1.58-1.97-2.71-4.64-1.89-4.48-2.84-6.73-4-7.97-2-2.13-5.7-3.94-8.81-2.94-3.13,1-4.48,4.43-5.87,7.99-2.99,7.61-1.81,13.28-3.94,13.84-.62,.16-.88-.27-4.39-2.84-4.28-3.14-4.78-3.15-6.36-4.69-1.46-1.41-1.24-1.6-4-5.2-3.23-4.21-4.89-6.31-6.64-7.13-2.49-1.16-6.07-1.31-8.51,.39-2.35,1.64-2.32,4.1-3.87,10.35-2.65,10.73-4.18,9.36-4.1,13.55,.07,3.42,1.32,11.54,3.4,15.76,.15,.31,.69,1.36,.35,1.69-.6,.58-3.52-1.56-4.17-2.04-2.21-1.61-3.75-3.22-6.99-6.94-3.56-4.1-3.87-4.67-5.34-5.71-1.73-1.23-4.37-3.1-6.73-2.36-2.61,.81-3.55,4.4-4.39,7.62-.42,1.62-1.51,6.33-.29,15.83,.7,5.52,1.17,8.84,2.92,13.17,1.73,4.29,3.67,6.93,2.61,8.22-.56,.68-1.62,.57-5.9-.1-8.39-1.32-8.62-1.59-10.36-1.5-3.15,.18-5.43,1.24-8.92,2.86-4.22,1.96-6.34,2.95-6.99,4.36-2.9,6.28,10.03,19.85,11.09,20.96,2.28,2.36,5.03,4.79,4.33,6.41-.29,.67-1.07,.99-5.35,1.57-5.85,.79-7.7,.63-11.3,1.35-1.77,.35-3.22,.81-6.13,1.73-5.85,1.85-8.79,2.73-9.37,3.85-1.77,3.35,3.31,9.54,7.36,14.46,5.67,6.91,9.93,9.46,9.23,13.04-.37,1.88-1.9,3-3.3,4.02-4.73,3.45-9.35,1.54-19.38,3.16-9.41,1.52-10.38,2.16-10.75,3.12-1.05,2.71,3.05,6.85,10.89,14.81,2.47,2.5,4.72,5.23,7.34,7.57,2.98,2.65,4.52,3.56,4.42,5-.2,2.99-7.07,3.18-7.64,6.35-.46,2.6,3.95,3.57,8.83,9.52,4.84,5.91,5.03,10.47,8.85,11.24,2.21,.45,4.16-.67,5.14-1.25,8.27-4.89,8.02-18.85,12.5-33.7,.98-3.24,.66-1.5,15.11-29.65,13.1-25.53,13.38-27.01,17.31-31.86,8.81-10.87,11.44-8.43,23.6-21.76,11.28-12.37,9.46-14.95,20.14-25.55,5.62-5.58,11.64-9.69,23.6-17.98,12.01-8.33,24.47-15.94,24.48-23.9Z"/><path class="aa" d="M283.39,537.31c-3.07,5.04-6.61,7.93-10.02,10.67-3.76,3.02-9.76,7.17-18.23,10.46,.72,10.82,1.09,38.42-15.97,66.07-13.08,21.21-29.93,31.96-38.97,37.58-10.25,6.38-36.09,22.45-69.59,18.99-7.84-.81-23.64-2.65-39.32-13.93-9.24-6.64-15.22-14.29-18.86-19.91-5.2,1.18-11.74,2-19.2,1.38-21.98-1.83-35.69-14.73-39.27-18.2-8.32-8.08-16.23-20.22-13.37-23.85,1.21-1.54,3.5-.44,13.26-.22,8.03,.18,12.39,.28,17.28-1,1.58-.42,3.63-1.08,16.22-8.69,1.91-1.16,3.54-2.16,4.97-3.03-.02-.1-.03-.19-.05-.29-1.35-8.74-5.7-41.37,6.32-81.85,2.67-9.01,15.14-48.66,49.85-83.75,19.31-19.53,34.46-26.47,42.44-29.51,19.52-7.46,34.09-6.11,37.72-5.7,6.18,.69,14.18,1.6,22.04,6.53,18.22,11.45,20.55,35.11,20.91,39.5,2.5,1.37,5.88,3.44,9.54,6.41,1.96,1.59,9.61,7.81,13.12,14.59,7.21,13.93-2.32,31.57-3.7,34.05,.64,6.75,1.28,13.49,1.93,20.22,2.91-2.05,8.1-5.03,15.05-5.67,4.15-.39,9.3-.87,13.89,2.49,5.93,4.33,6.38,11.76,6.46,12.96,.35,5.86-2.26,10.15-4.43,13.7Z"/><path class="ab" d="M274.12,515.83c1.08,.62,3.18,1.83,3.87,4.74,1.03,4.36-1.94,8.97-2.58,9.96-3.35,5.2-8.21,6.89-8.86,7.1-1.07,.35-5.31,1.75-8.36-.59-3.33-2.55-3.23-7.99-1.72-12.1,.2-.54,2.72-7.12,8.58-9.64,4.66-2.01,8.1-.02,9.07,.54Z"/><path class="w" d="M116.71,507.17c.3,.19,.62,.39,.94,.6,4.14,2.72,8.26,6.42,12.27,11.02l-.59,.54c-3.96-4.54-8.04-8.21-12.12-10.89-1.5-.99-3.02-1.85-3.19-1.94-2.79-1.58-5.92-3-9.3-4.21-4.84-1.74-7.27-2.62-9.56-2.31-2.2,.3-4.33,1.26-6.33,2.85-1.9,1.24-3.27,2.72-4.12,4.43-2.43,4.89,.51,11.08,6.36,23.41l.67,1.41c2.9,6.12,5.94,12.31,9.04,18.39l-.69,.38c-3.1-6.09-6.14-12.28-9.05-18.41l-.67-1.41c-5.96-12.56-8.95-18.86-6.35-24.11,.92-1.84,2.39-3.43,4.38-4.73,2.09-1.66,4.35-2.68,6.7-3,2.48-.34,4.97,.56,9.92,2.34,3.41,1.23,6.58,2.67,9.41,4.27,.13,.08,1.13,.64,2.29,1.37Z"/><path class="q" d="M179.74,649.39c-11.13,8.9-26.05,5.63-29.83,4.8-11.08-2.43-17.86-8.74-21.05-11.71-2.9-2.7-4.4-4.84-5.43-6.94-2.22-4.51-2.27-8.74-2.19-11.68,.57-20.45,6.4-35.28,6.4-35.28,3.55-9.04,6.95-17.68,15.29-26.52,10.2-10.8,21.11-14.81,26.67-16.78,.69-.25,14.2-4.94,22.11-1.2,1.23,.58,7.56,3.58,10.32,11.09,1.86,5.05,1.27,9.87,.44,14.86-3.09,18.62-6.56,21.24-8.84,34.36-2.47,14.2,.23,18.9-4.18,31.56-.57,1.63-3.59,8.55-9.7,13.44Z"/><g><path class="t" d="M97.41,500.17c-1.1,.69-2.69-.23-2.9-.35-2-1.16-2.1-3.96-.91-6.32,.69-1.38,2.2-3.35,3.26-3.41,.97-.05,1.14,1.53,1.38,3.76,.27,2.49,.58,5.44-.84,6.32Z"/><path class="t" d="M85.82,516.54c-.1,1.29-1.8,2-2.03,2.1-2.15,.91-4.47-.68-5.66-3.02-.7-1.37-1.39-3.73-.8-4.61,.54-.81,1.93,0,3.87,1.12,2.17,1.26,4.75,2.75,4.62,4.41Z"/><path class="t" d="M85.57,508.49c-.59,1.15-2.43,1.17-2.68,1.18-2.33,.03-3.86-2.33-4.05-4.95-.11-1.53,.16-3.98,1.05-4.57,.81-.54,1.78,.73,3.13,2.51,1.52,1.99,3.31,4.35,2.55,5.83Z"/><path class="t" d="M90.36,501.3c-.73,1.07-2.56,.86-2.8,.83-2.31-.26-3.53-2.79-3.39-5.42,.08-1.53,.67-3.93,1.62-4.41,.87-.44,1.67,.94,2.79,2.88,1.25,2.17,2.73,4.73,1.79,6.11Z"/></g><g><ellipse class="s" cx="180.55" cy="441.21" rx="7.34" ry="11.04"/><ellipse class="q" cx="180.55" cy="446.38" rx="3.49" ry="4.81"/><ellipse class="q" cx="182.46" cy="439.56" rx="1.75" ry="1.75"/><circle class="q" cx="185" cy="442.87" r="1.61"/></g><g><ellipse class="s" cx="209.81" cy="437.11" rx="7.34" ry="11.04"/><ellipse class="q" cx="209.81" cy="442.28" rx="3.49" ry="4.81"/><ellipse class="q" cx="211.72" cy="435.46" rx="1.75" ry="1.75"/><circle class="q" cx="214.25" cy="438.76" r="1.61"/></g><ellipse class="x" cx="233.07" cy="463.94" rx="16.34" ry="10.41" transform="translate(-125.01 87.99) rotate(-16.93)"/><ellipse class="x" cx="165.45" cy="469.84" rx="16.33" ry="10.42" transform="translate(-57.52 24.41) rotate(-7.19)"/><path d="M161.2,418.47c-.22-.21,1.51-2.09,4.07-3.31,.41-.19,1.72-.79,3.6-1.11,2.03-.35,4.2-.3,4.24-.07,.04,.25-2.48,.39-5.83,1.58-3.91,1.39-5.87,3.11-6.09,2.91Z"/><path d="M203.48,411.04c-.11-.28,2.29-1.2,5.12-1.13,.45,.01,1.89,.07,3.72,.62,1.97,.6,3.89,1.62,3.82,1.84-.07,.25-2.39-.76-5.92-1.2-4.12-.51-6.64,.16-6.74-.13Z"/><path class="q" d="M111.55,434.47c-2.94-.18-5.21,3.19-9.62,9.93-4.66,7.12-7.07,12.73-7.7,14.24-1.55,3.69-2.61,6.93-3.3,9.27,1.59-1.82,3.95-4.62,6.6-8.28,4.66-6.43,4.35-7.36,7.15-10.6,6.07-7.03,11.72-7.48,11.55-10.6-.11-2-2.55-3.84-4.67-3.97Z"/><path class="q" d="M84.95,474.15c2.35-1.46,5.74,1.35,5.92,5.13,.16,3.56-2.56,7.16-5.12,6.29-1.85-.63-3.17-3.45-3.07-6.29,.07-2.08,.9-4.28,2.28-5.13Z"/><path class="q" d="M111.27,397.61c-.48,.13-1.58-2.37-1.43-4.08,.02-.24,.16-1.59,.16-1.59h0s.64-2.1,.86-4.41c.02-.24,.05-.58,.11-1.21,.11-.99,.23-1.83,.27-2.06,.16-.94,.93-3.29,2.75-4.07,1.5-.64,3.31-.04,4.62,1.46-.83-.31-2.32-.68-3.67,.11-1.82,1.07-2.33,3.66-2.86,6.48-1.06,5.65-.18,9.19-.82,9.36Z"/><path d="M194.48,463.1c1.53,2.58,3.02,4.42,4.12,5.64,1.71,1.89,2.35,2.15,2.9,2.19,1.74,.12,3.37-1.79,4.08-3.54,.34-.85,.27-1.17,.77-3.97,.29-1.65,.58-2.98,.78-3.88-1.12,1.55-2.94,3.48-5.43,4.12-1.13,.29-2.21,.26-2.91,.24-1.81-.05-3.29-.44-4.31-.8Z"/><path class="ab" d="M95.94,511.78c.91-.98,2.68-2.91,5.81-3.08,4.69-.26,8.61,3.6,9.44,4.42,4.42,4.35,4.87,9.6,4.92,10.3,.08,1.16,.4,5.72-2.77,8.41-3.45,2.93-8.95,1.85-12.73-.43-.49-.3-6.52-4.05-7.57-10.47-.83-5.1,2.08-8.25,2.89-9.14Z"/></g></g><g id="b"/><g id="c"/><g id="d"/><g id="e"><g id="f"><g id="g"/><g id="h"><g id="i"/></g></g></g><g id="j"/><g id="k"><g id="l"><g id="m"><g id="n"/></g></g></g><g id="o"/><g id="p"/></svg>