<?xml version="1.0" encoding="utf-8"?>
<!-- Generator: Adobe Illustrator 26.2.1, SVG Export Plug-In . SVG Version: 6.00 Build 0)  -->
<svg version="1.1" xmlns="http://www.w3.org/2000/svg" xmlns:xlink="http://www.w3.org/1999/xlink" x="0px" y="0px"
	 viewBox="0 0 1920 1080" style="enable-background:new 0 0 1920 1080;" xml:space="preserve">
<style type="text/css">
	.st0{fill:#337F5C;}
	.st1{fill:#C5A7C6;}
	.st2{fill:#FAFCFA;}
	.st3{fill:#825E84;}
	.st4{fill:#FFFFFF;}
	.st5{fill:#A283A5;}
	.st6{fill:#000200;}
	.st7{fill:#F2C0E3;}
	.st8{fill:#FDFFFE;}
	.st9{fill:#F7DA06;}
	.st10{fill:#00A01A;}
	.st11{fill:#0B38F7;}
	.st12{fill:#CE287F;}
	.st13{fill:#F45A0C;}
	.st14{fill:none;stroke:#000000;stroke-width:3;stroke-linecap:round;stroke-miterlimit:10;}
	.st15{fill:#30092A;}
	.st16{fill:#969592;}
	.st17{fill:#CB0A00;}
	.st18{fill:#FFD700;}
	.st19{fill:#E0AF00;}
	.st20{fill:#E2DEDE;}
	.st21{fill:#1E0D00;}
	.st22{clip-path:url(#SVGID_00000009562539095219923840000009465196597096744348_);}
	.st23{fill:#C4E4F7;}
	.st24{fill:#D8E8B3;}
	.st25{fill:#C6DB8A;}
	.st26{fill:#8ED0FF;}
	.st27{fill:#B7FFFF;}
	.st28{fill:#C9FFFF;}
	.st29{fill:#C5CC83;}
	.st30{fill:#8EA87D;}
	.st31{fill:#FCFAFC;}
	.st32{fill:#A0BC8E;}
	.st33{fill:#56134E;}
	.st34{fill:#EEDCEF;}
	.st35{fill:#E0B6E0;}
	.st36{fill:#7C3E7B;}
	.st37{fill:#E6F0F4;}
	.st38{fill:#A06EA0;}
	.st39{fill:#F9D606;}
	.st40{fill:#FDFEFF;}
	.st41{fill:none;stroke:#000000;stroke-width:2;stroke-miterlimit:10;}
	.st42{clip-path:url(#SVGID_00000129891161333778358940000002898627735729381017_);}
	.st43{fill:url(#SVGID_00000121270221852800053030000014905718580486014343_);}
	.st44{clip-path:url(#SVGID_00000129891161333778358940000002898627735729381017_);fill:#FFFAFE;}
	.st45{fill:#C02F02;}
	.st46{fill:#F47003;}
	.st47{fill:#EDA43A;}
	.st48{fill:#3A1801;}
	.st49{fill:#EAB56E;}
	.st50{clip-path:url(#SVGID_00000088093800633703470740000010680908250950355628_);}
	.st51{filter:url(#AI_BevelShadow_1);}
	.st52{fill:url(#SVGID_00000042010487555816709700000008287056510928369797_);}
	.st53{opacity:0.3;}
	.st54{fill:#FAFAFC;}
	.st55{fill:#FCFCFC;}
	.st56{fill:#5FB8E0;}
	.st57{fill:#45DB7A;}
	.st58{fill:#DCF4E4;}
	.st59{fill:#907758;}
	.st60{fill:#DAB888;}
	.st61{fill:#E8D6BF;}
	.st62{fill:#5B4732;}
</style>
<filter  height="140%" id="AI_BevelShadow_1" width="140%" x="-20%" y="-20%">
	<feGaussianBlur  in="SourceAlpha" result="blur" stdDeviation="4"></feGaussianBlur>
	<feOffset  dx="4" dy="4" in="blur" result="offsetBlur"></feOffset>
	
		<feSpecularLighting  in="blur" result="specOut" specularConstant="1" specularExponent="10" style="lighting-color:white" surfaceScale="5">
		<fePointLight  x="-5000" y="-10000" z="-20000"></fePointLight>
	</feSpecularLighting>
	<feComposite  in="specOut" in2="SourceAlpha" operator="in" result="specOut"></feComposite>
	<feComposite  in="SourceGraphic" in2="specOut" k1="0" k2="1" k3="1" k4="0" operator="arithmetic" result="litPaint">
		</feComposite>
	<feMerge>
		<feMergeNode  in="offsetBlur"></feMergeNode>
		<feMergeNode  in="litPaint"></feMergeNode>
	</feMerge>
</filter>
<g id="Dinos">
</g>
<g id="UI">
	<g id="FallingLeaf">
	</g>
</g>
<g id="Welcome">
	<defs>
		<rect id="SVGID_1_" x="-4381" y="227" width="1920" height="1083"/>
	</defs>
	<clipPath id="SVGID_00000088129601083262902740000014225776007012119725_">
		<use xlink:href="#SVGID_1_"  style="overflow:visible;"/>
	</clipPath>
	<g id="WelcomeScreen" style="clip-path:url(#SVGID_00000088129601083262902740000014225776007012119725_);">
	</g>
</g>
<g id="Balloons">
</g>
<g id="GameOver">
	<g id="Layer_5">
		<defs>
			<rect id="SVGID_00000127748353048375450560000003400152396107938463_" x="-2049" y="1951" width="1916" height="1085"/>
		</defs>
		<clipPath id="SVGID_00000182508639384438510210000010327815060052058528_">
			<use xlink:href="#SVGID_00000127748353048375450560000003400152396107938463_"  style="overflow:visible;"/>
		</clipPath>
		<g id="Layer_6" style="clip-path:url(#SVGID_00000182508639384438510210000010327815060052058528_);">
		</g>
		<g id="Layer_7" style="clip-path:url(#SVGID_00000182508639384438510210000010327815060052058528_);">
			<g id="Layer_9">
			</g>
		</g>
	</g>
</g>
<g id="FallingAsteroid">
</g>
<g id="WinScreen">
	<defs>
		<rect id="SVGID_00000106854592753789112490000006207797047733202595_" y="-2" width="1922" height="1084"/>
	</defs>
	<clipPath id="SVGID_00000087369843407953078050000012856769696664733824_">
		<use xlink:href="#SVGID_00000106854592753789112490000006207797047733202595_"  style="overflow:visible;"/>
	</clipPath>
	<g id="Layer_12" style="clip-path:url(#SVGID_00000087369843407953078050000012856769696664733824_);">
		<g id="Layer_13">
			<g class="st51">
				
					<linearGradient id="SVGID_00000078043692819845248140000003505758613662055850_" gradientUnits="userSpaceOnUse" x1="83.909" y1="1944.7505" x2="1099.4198" y2="315.2911">
					<stop  offset="0" style="stop-color:#FFFFFF"/>
					<stop  offset="3.508452e-02" style="stop-color:#FFFFFF"/>
					<stop  offset="0.1391" style="stop-color:#D8D5DD"/>
					<stop  offset="0.2553" style="stop-color:#B7B2C1"/>
					<stop  offset="0.3922" style="stop-color:#968FA5"/>
					<stop  offset="0.612" style="stop-color:#79708C"/>
					<stop  offset="0.6474" style="stop-color:#625879"/>
					<stop  offset="0.728" style="stop-color:#44385F"/>
					<stop  offset="0.8203" style="stop-color:#271A46"/>
					<stop  offset="1" style="stop-color:#110334"/>
				</linearGradient>
				<rect y="-2" style="fill:url(#SVGID_00000078043692819845248140000003505758613662055850_);" width="1920" height="1082"/>
			</g>
			<g class="st53">
				<g>
					<circle class="st54" cx="1876.5" cy="935.5" r="2.4"/>
				</g>
				<g>
					<circle class="st54" cx="1789.5" cy="1048.7" r="3.6"/>
				</g>
				<g>
					<circle class="st54" cx="1732.7" cy="1005.2" r="2.7"/>
				</g>
				<g>
					<circle class="st54" cx="1662.9" cy="1024.9" r="2.5"/>
				</g>
				<g>
					<circle class="st54" cx="1713.1" cy="1015.8" r="3.3"/>
				</g>
				<g>
					<circle class="st54" cx="1712.7" cy="933.4" r="2.1"/>
				</g>
				<g>
					<circle class="st54" cx="1724" cy="760.5" r="3.7"/>
				</g>
				<g>
					<circle class="st54" cx="1670.6" cy="705.9" r="2.4"/>
				</g>
				<g>
					<circle class="st54" cx="1429.9" cy="250.7" r="3.2"/>
				</g>
				<g>
					<circle class="st54" cx="1099.5" cy="746.3" r="3.7"/>
				</g>
				<g>
					<circle class="st54" cx="1173.6" cy="786.8" r="3.1"/>
				</g>
				<g>
					<circle class="st54" cx="1072.8" cy="952.7" r="1.9"/>
				</g>
				<g>
					<circle class="st54" cx="1184.3" cy="791.8" r="1.8"/>
				</g>
				<g>
					<circle class="st54" cx="1014.2" cy="828.5" r="2.8"/>
				</g>
				<g>
					<circle class="st54" cx="895.5" cy="814.1" r="1.7"/>
				</g>
				<g>
					<circle class="st54" cx="978.5" cy="714.9" r="1.5"/>
				</g>
				<g>
					<circle class="st54" cx="1115.4" cy="680.5" r="4.2"/>
				</g>
				<g>
					<circle class="st54" cx="1019.4" cy="507.9" r="3.4"/>
				</g>
				<g>
					<circle class="st54" cx="947.2" cy="440.3" r="1.7"/>
				</g>
				<g>
					<circle class="st54" cx="964.1" cy="647.3" r="1.5"/>
				</g>
				<g>
					<circle class="st54" cx="1015.1" cy="846.4" r="4.4"/>
				</g>
				<g>
					<circle class="st54" cx="1177" cy="1038.8" r="3"/>
				</g>
				<g>
					<circle class="st54" cx="1777.2" cy="192.8" r="4.2"/>
				</g>
				<g>
					<circle class="st54" cx="1426.9" cy="296.7" r="2.6"/>
				</g>
				<g>
					<circle class="st54" cx="1291.9" cy="432.3" r="3"/>
				</g>
				<g>
					<circle class="st54" cx="1120.3" cy="597.9" r="3.7"/>
				</g>
				<g>
					<circle class="st54" cx="1051.5" cy="452.3" r="3.2"/>
				</g>
				<g>
					<circle class="st54" cx="837.7" cy="567" r="2"/>
				</g>
				<g>
					<circle class="st54" cx="759.3" cy="480" r="4.5"/>
				</g>
				<g>
					<circle class="st54" cx="720.2" cy="558.5" r="1.7"/>
				</g>
				<g>
					<circle class="st54" cx="497.6" cy="431.3" r="3.6"/>
				</g>
				<g>
					<circle class="st54" cx="365.2" cy="528.3" r="1.5"/>
				</g>
				<g>
					<circle class="st54" cx="410.8" cy="496.1" r="4"/>
				</g>
				<g>
					<circle class="st54" cx="361.9" cy="629.8" r="2.8"/>
				</g>
				<g>
					<circle class="st54" cx="445.3" cy="685.5" r="3.2"/>
				</g>
				<g>
					<circle class="st54" cx="600.9" cy="652.1" r="4.2"/>
				</g>
				<g>
					<circle class="st54" cx="632.9" cy="746.4" r="3.6"/>
				</g>
				<g>
					<circle class="st54" cx="665.6" cy="694.2" r="2.8"/>
				</g>
				<g>
					<circle class="st54" cx="722.7" cy="827.5" r="2.9"/>
				</g>
				<g>
					<circle class="st54" cx="827.9" cy="879.2" r="2.5"/>
				</g>
				<g>
					<circle class="st54" cx="1026.1" cy="1005.1" r="4"/>
				</g>
				<g>
					<circle class="st54" cx="1229.9" cy="1074.6" r="3.6"/>
				</g>
				<g>
					<circle class="st54" cx="1788.1" cy="95.1" r="2.7"/>
				</g>
				<g>
					<circle class="st54" cx="1547.4" cy="86.8" r="2.1"/>
				</g>
				<g>
					<circle class="st54" cx="1521.3" cy="48.3" r="1.6"/>
				</g>
				<g>
					<circle class="st54" cx="1218.8" cy="81.2" r="1.7"/>
				</g>
				<g>
					<circle class="st54" cx="987" cy="50.8" r="4"/>
				</g>
				<g>
					<circle class="st54" cx="772.8" cy="108" r="2.4"/>
				</g>
				<g>
					<circle class="st54" cx="581.2" cy="68.3" r="2.9"/>
				</g>
				<g>
					<circle class="st54" cx="414.3" cy="74.1" r="2.8"/>
				</g>
				<g>
					<circle class="st54" cx="197.7" cy="111.3" r="3.2"/>
				</g>
				<g>
					<circle class="st54" cx="61.4" cy="717.2" r="1.9"/>
				</g>
				<g>
					<circle class="st54" cx="158.4" cy="695.9" r="4.1"/>
				</g>
				<g>
					<circle class="st54" cx="413.3" cy="787.6" r="1.7"/>
				</g>
				<g>
					<circle class="st54" cx="473.6" cy="914.1" r="4.1"/>
				</g>
				<g>
					<circle class="st54" cx="662" cy="907.7" r="3.5"/>
				</g>
				<g>
					<circle class="st54" cx="697.8" cy="1058.5" r="3.5"/>
				</g>
				<g>
					<circle class="st54" cx="1815.5" cy="585.6" r="4.3"/>
				</g>
				<g>
					<circle class="st54" cx="1661" cy="483.1" r="2.4"/>
				</g>
				<g>
					<circle class="st54" cx="1517.6" cy="367.1" r="1.7"/>
				</g>
				<g>
					<circle class="st54" cx="1413.1" cy="346.7" r="4.5"/>
				</g>
				<g>
					<circle class="st54" cx="1129.1" cy="331.8" r="2.2"/>
				</g>
				<g>
					<circle class="st54" cx="823.4" cy="367.9" r="3.3"/>
				</g>
				<g>
					<circle class="st54" cx="771.6" cy="831.3" r="3.5"/>
				</g>
				<g>
					<circle class="st54" cx="1796.9" cy="1049.2" r="2"/>
				</g>
				<g>
					<circle class="st54" cx="1852.5" cy="997.2" r="3.2"/>
				</g>
				<g>
					<circle class="st54" cx="1880.7" cy="804.7" r="2.1"/>
				</g>
				<g>
					<circle class="st54" cx="1643.8" cy="368.2" r="4.4"/>
				</g>
				<g>
					<circle class="st54" cx="1393.5" cy="329" r="2.4"/>
				</g>
				<g>
					<circle class="st54" cx="1221.7" cy="359.9" r="2"/>
				</g>
				<g>
					<circle class="st54" cx="895.7" cy="269.6" r="3.7"/>
				</g>
				<g>
					<circle class="st54" cx="681.6" cy="248.9" r="4"/>
				</g>
				<g>
					<circle class="st54" cx="510.6" cy="352.3" r="2.7"/>
				</g>
				<g>
					<circle class="st54" cx="283.7" cy="789.8" r="3.9"/>
				</g>
				<g>
					<circle class="st54" cx="561.6" cy="1077.1" r="1.8"/>
				</g>
				<g>
					<circle class="st54" cx="1653.1" cy="1033.7" r="3.2"/>
				</g>
				<g>
					<circle class="st54" cx="1829.2" cy="956.5" r="2.9"/>
				</g>
				<g>
					<circle class="st54" cx="1779.9" cy="397.4" r="4.4"/>
				</g>
				<g>
					<circle class="st54" cx="1471" cy="373.9" r="3.7"/>
				</g>
				<g>
					<circle class="st54" cx="1165.2" cy="452.5" r="4.3"/>
				</g>
				<g>
					<circle class="st54" cx="1400.9" cy="949.3" r="2.8"/>
				</g>
				<g>
					<circle class="st54" cx="1485.6" cy="885.2" r="3.5"/>
				</g>
				<g>
					<circle class="st54" cx="1651.9" cy="780.3" r="4.2"/>
				</g>
				<g>
					<circle class="st54" cx="1760.3" cy="356.2" r="3.9"/>
				</g>
				<g>
					<circle class="st54" cx="1398.3" cy="194.9" r="3.3"/>
				</g>
				<g>
					<circle class="st54" cx="986.4" cy="179.1" r="4.3"/>
				</g>
				<g>
					<circle class="st54" cx="839" cy="381.6" r="4"/>
				</g>
				<g>
					<circle class="st54" cx="1030.5" cy="826.9" r="3.5"/>
				</g>
				<g>
					<circle class="st54" cx="1366.8" cy="968.6" r="2.8"/>
				</g>
				<g>
					<circle class="st54" cx="1402.1" cy="837.9" r="3.8"/>
				</g>
				<g>
					<circle class="st54" cx="1457.9" cy="821.6" r="2.7"/>
				</g>
				<g>
					<circle class="st54" cx="1769.7" cy="770.2" r="2.9"/>
				</g>
				<g>
					<circle class="st54" cx="1920" cy="139.2" r="2.5"/>
				</g>
				<g>
					<circle class="st54" cx="1746.6" cy="180.6" r="3.3"/>
				</g>
				<g>
					<circle class="st54" cx="1590.9" cy="34.6" r="1.7"/>
				</g>
				<g>
					<circle class="st54" cx="1476.9" cy="116.6" r="4.2"/>
				</g>
				<g>
					<circle class="st54" cx="1197.9" cy="151.8" r="4.2"/>
				</g>
				<g>
					<circle class="st54" cx="1116.9" cy="192.5" r="3.8"/>
				</g>
				<g>
					<circle class="st54" cx="1028.7" cy="129.1" r="2.4"/>
				</g>
				<g>
					<circle class="st54" cx="899.6" cy="205.9" r="1.8"/>
				</g>
				<g>
					<circle class="st54" cx="621.6" cy="169.2" r="2.7"/>
				</g>
				<g>
					<circle class="st54" cx="516.5" cy="169.9" r="2.1"/>
				</g>
				<g>
					<circle class="st54" cx="234.2" cy="424" r="4.1"/>
				</g>
			</g>
			<g>
				<g>
					<circle class="st54" cx="1492.6" cy="862" r="3.7"/>
				</g>
				<g>
					<circle class="st54" cx="1511.6" cy="753.5" r="3.6"/>
				</g>
				<g>
					<circle class="st54" cx="1307.6" cy="891.6" r="3.6"/>
				</g>
				<g>
					<circle class="st54" cx="1390.1" cy="868.8" r="1.9"/>
				</g>
				<g>
					<circle class="st54" cx="1372.3" cy="803.2" r="3.6"/>
				</g>
				<g>
					<circle class="st54" cx="1388.9" cy="609.5" r="2.9"/>
				</g>
				<g>
					<circle class="st54" cx="1433.6" cy="424.6" r="2.2"/>
				</g>
				<g>
					<circle class="st54" cx="1000.3" cy="212.3" r="1.9"/>
				</g>
				<g>
					<circle class="st54" cx="943.8" cy="493.1" r="3.7"/>
				</g>
				<g>
					<circle class="st54" cx="832.1" cy="521.8" r="3.5"/>
				</g>
				<g>
					<circle class="st54" cx="881.5" cy="719.3" r="2.8"/>
				</g>
				<g>
					<circle class="st54" cx="835.7" cy="620.9" r="1.6"/>
				</g>
				<g>
					<circle class="st54" cx="731.3" cy="603.7" r="2.3"/>
				</g>
				<g>
					<circle class="st54" cx="595.2" cy="552.8" r="2"/>
				</g>
				<g>
					<circle class="st54" cx="635.6" cy="459.7" r="2.2"/>
				</g>
				<g>
					<circle class="st54" cx="703.9" cy="337.3" r="3.1"/>
				</g>
				<g>
					<circle class="st54" cx="811.5" cy="419.4" r="4.4"/>
				</g>
				<g>
					<circle class="st54" cx="807.1" cy="397.1" r="4"/>
				</g>
				<g>
					<circle class="st54" cx="594.8" cy="343.4" r="3.3"/>
				</g>
				<g>
					<circle class="st54" cx="680.3" cy="672.2" r="4.5"/>
				</g>
				<g>
					<circle class="st54" cx="967.8" cy="901.9" r="3.9"/>
				</g>
				<g>
					<circle class="st54" cx="969.6" cy="1045.8" r="2.9"/>
				</g>
				<g>
					<circle class="st54" cx="1142.1" cy="1081.5" r="3.5"/>
				</g>
				<g>
					<circle class="st54" cx="1624" cy="1011.7" r="2.2"/>
				</g>
				<g>
					<circle class="st54" cx="1771.8" cy="777.3" r="4"/>
				</g>
				<g>
					<circle class="st54" cx="1803.7" cy="595.5" r="3.5"/>
				</g>
				<g>
					<circle class="st54" cx="1775.8" cy="440.2" r="3.8"/>
				</g>
				<g>
					<circle class="st54" cx="1645.8" cy="81.7" r="2.7"/>
				</g>
				<g>
					<circle class="st54" cx="1287.2" cy="-3" r="4.5"/>
				</g>
				<g>
					<circle class="st54" cx="1229.3" cy="131.7" r="4"/>
				</g>
				<g>
					<circle class="st54" cx="1037.9" cy="149.5" r="4.5"/>
				</g>
				<g>
					<circle class="st54" cx="879.6" cy="269.1" r="1.7"/>
				</g>
				<g>
					<circle class="st54" cx="785.2" cy="307" r="4.3"/>
				</g>
				<g>
					<circle class="st54" cx="641.6" cy="273.1" r="3.7"/>
				</g>
				<g>
					<circle class="st54" cx="605.4" cy="183.2" r="3.5"/>
				</g>
				<g>
					<circle class="st54" cx="324.3" cy="311.1" r="2.9"/>
				</g>
				<g>
					<circle class="st54" cx="198.3" cy="337.9" r="3"/>
				</g>
				<g>
					<circle class="st54" cx="158.4" cy="246.3" r="3.5"/>
				</g>
				<g>
					<circle class="st54" cx="122.7" cy="264.2" r="3.3"/>
				</g>
				<g>
					<circle class="st54" cx="97.6" cy="330.4" r="4.4"/>
				</g>
				<g>
					<circle class="st54" cx="115.1" cy="473.4" r="2.9"/>
				</g>
				<g>
					<circle class="st54" cx="283.3" cy="397.4" r="2.7"/>
				</g>
				<g>
					<circle class="st54" cx="399.3" cy="419.5" r="1.9"/>
				</g>
				<g>
					<circle class="st54" cx="371.7" cy="571.2" r="4.2"/>
				</g>
				<g>
					<circle class="st54" cx="480.6" cy="664.6" r="4.1"/>
				</g>
				<g>
					<circle class="st54" cx="575.6" cy="608.3" r="2.7"/>
				</g>
				<g>
					<circle class="st54" cx="834.9" cy="850.7" r="3.3"/>
				</g>
				<g>
					<circle class="st54" cx="1167.8" cy="1022.4" r="4.1"/>
				</g>
				<g>
					<circle class="st54" cx="1405.8" cy="903.5" r="2.9"/>
				</g>
				<g>
					<circle class="st54" cx="1555.6" cy="931.4" r="3.9"/>
				</g>
				<g>
					<circle class="st54" cx="1658.1" cy="984.6" r="2.4"/>
				</g>
				<g>
					<circle class="st54" cx="1908.1" cy="615.7" r="3.1"/>
				</g>
				<g>
					<circle class="st54" cx="1907.1" cy="420.6" r="1.8"/>
				</g>
				<g>
					<circle class="st54" cx="1911.1" cy="148.6" r="3.9"/>
				</g>
				<g>
					<circle class="st54" cx="1862.9" cy="104.5" r="3.2"/>
				</g>
				<g>
					<circle class="st54" cx="105" cy="608.6" r="3.5"/>
				</g>
				<g>
					<circle class="st54" cx="159.5" cy="583.2" r="3.4"/>
				</g>
				<g>
					<circle class="st54" cx="237.3" cy="613.2" r="2.8"/>
				</g>
				<g>
					<circle class="st54" cx="379.9" cy="605" r="2.2"/>
				</g>
				<g>
					<circle class="st54" cx="513.4" cy="755.8" r="2"/>
				</g>
				<g>
					<circle class="st54" cx="676.2" cy="872.3" r="1.7"/>
				</g>
				<g>
					<circle class="st54" cx="750.1" cy="1038.9" r="3.4"/>
				</g>
				<g>
					<circle class="st54" cx="1134.8" cy="1051" r="2.1"/>
				</g>
				<g>
					<circle class="st54" cx="1865.8" cy="728.6" r="3.8"/>
				</g>
				<g>
					<circle class="st54" cx="1673.8" cy="419.3" r="2.5"/>
				</g>
				<g>
					<circle class="st54" cx="1442.6" cy="279.7" r="4"/>
				</g>
				<g>
					<circle class="st54" cx="1372" cy="256.6" r="2.4"/>
				</g>
				<g>
					<circle class="st54" cx="1116.8" cy="168.8" r="1.6"/>
				</g>
				<g>
					<circle class="st54" cx="855.9" cy="71.4" r="2.5"/>
				</g>
				<g>
					<circle class="st54" cx="701.4" cy="135.2" r="2.1"/>
				</g>
				<g>
					<circle class="st54" cx="484.6" cy="549.6" r="2.8"/>
				</g>
				<g>
					<circle class="st54" cx="666" cy="903.2" r="2.5"/>
				</g>
				<g>
					<circle class="st54" cx="864" cy="1018.5" r="4.5"/>
				</g>
				<g>
					<circle class="st54" cx="949.7" cy="1033" r="1.8"/>
				</g>
				<g>
					<circle class="st54" cx="1164.2" cy="971" r="4.2"/>
				</g>
				<g>
					<circle class="st54" cx="1252.5" cy="988.1" r="3.6"/>
				</g>
				<g>
					<circle class="st54" cx="1487" cy="859.8" r="1.8"/>
				</g>
				<g>
					<circle class="st54" cx="1734.3" cy="490.2" r="3.3"/>
				</g>
				<g>
					<circle class="st54" cx="1560.5" cy="197.4" r="2.9"/>
				</g>
				<g>
					<circle class="st54" cx="1263.3" cy="42.2" r="3.3"/>
				</g>
				<g>
					<circle class="st54" cx="994" cy="5.9" r="4.5"/>
				</g>
				<g>
					<circle class="st54" cx="959.4" cy="8.7" r="2.3"/>
				</g>
				<g>
					<circle class="st54" cx="647.8" cy="43.5" r="2.5"/>
				</g>
				<g>
					<circle class="st54" cx="182.7" cy="194.6" r="3.7"/>
				</g>
				<g>
					<circle class="st54" cx="130.9" cy="691.2" r="4.3"/>
				</g>
				<g>
					<circle class="st54" cx="318.3" cy="925.6" r="2.4"/>
				</g>
				<g>
					<circle class="st54" cx="663.8" cy="1036.8" r="1.8"/>
				</g>
				<g>
					<circle class="st54" cx="754.4" cy="1054.2" r="2.7"/>
				</g>
				<g>
					<circle class="st54" cx="1022" cy="952.2" r="3"/>
				</g>
				<g>
					<circle class="st54" cx="1293.4" cy="928.1" r="3.7"/>
				</g>
				<g>
					<circle class="st54" cx="1291.9" cy="807.9" r="2.3"/>
				</g>
				<g>
					<circle class="st54" cx="1526.2" cy="414.5" r="2.3"/>
				</g>
				<g>
					<circle class="st54" cx="1146.6" cy="40.8" r="3.3"/>
				</g>
				<g>
					<circle class="st54" cx="942.1" cy="52.6" r="4"/>
				</g>
				<g>
					<circle class="st54" cx="922.4" cy="192.6" r="3.7"/>
				</g>
				<g>
					<circle class="st54" cx="975.6" cy="692.5" r="2.2"/>
				</g>
				<g>
					<circle class="st54" cx="1287.5" cy="645.3" r="2"/>
				</g>
				<g>
					<circle class="st54" cx="1590.6" cy="45" r="3"/>
				</g>
				<g>
					<circle class="st54" cx="483.1" cy="196.4" r="3.9"/>
				</g>
				<g>
					<circle class="st54" cx="706.2" cy="660.2" r="2.5"/>
				</g>
				<g>
					<circle class="st54" cx="1061.8" cy="718.9" r="4.1"/>
				</g>
				<g>
					<circle class="st54" cx="1152.2" cy="636.1" r="3.9"/>
				</g>
				<g>
					<circle class="st54" cx="1201.7" cy="693.4" r="2.7"/>
				</g>
				<g>
					<circle class="st54" cx="1366.3" cy="561.6" r="1.9"/>
				</g>
				<g>
					<circle class="st54" cx="1680" cy="413.7" r="3.2"/>
				</g>
			</g>
			<path class="st4" d="M1632.3,192.1l227.5-129.1l-226,131.7C1632.1,195.6,1630.6,193.1,1632.3,192.1L1632.3,192.1z"/>
			<path class="st4" d="M1641.7,930l128.3-72l-126.8,74.6C1641.5,933.6,1640,931,1641.7,930L1641.7,930z"/>
			<g id="Layer_14">
				<path class="st55" d="M1407.1,767H631.9c-41.2,0-74.9-33.7-74.9-74.9V453.9c0-41.2,33.7-74.9,74.9-74.9h775.3
					c41.2,0,74.9,33.7,74.9,74.9v238.3C1482,733.3,1448.3,767,1407.1,767z"/>
				<g>
					<path class="st54" d="M705.1,211.3c8,0,15.3,11,21.7,20.7c7.7,11.2,10.8,14.5,13.9,14.5c3.4,0,7-3.7,15.3-16.7
						c9.1-13.4,13.3-18,17.3-18c4,0,6.7,4,6.7,9.9c0,8.1-4.8,21.5-10.4,36.7c-5.9,16.5-12.5,35-14.4,50.6
						c-2.8,21.5-8.5,32.5-17.3,32.5c-9,0-14.7-11-17.3-32.5c-1.9-15-8.4-29.9-14.2-43.5c-6.2-14.1-11.8-27-11.8-38
						C694.6,217.9,698.8,211.3,705.1,211.3z M707.9,263.8c5.9,13.9,12.5,29.2,14.5,44.4c2.2,19.1,7,29.5,14.2,30.6
						c-5.6-2.2-9.3-11.4-11.4-28.6c-2-15.6-8.7-31.4-14.7-45.1c-6.2-14.1-11.3-25.9-11.3-35.6c0-7.3,2.9-11.7,7.4-11.7
						c6.7,0,13,9.7,19.5,19.3c8.2,12.1,11.9,15.8,16.1,15.8c4.5,0,8.7-4.4,17.6-18c8.5-12.8,12.2-16.7,15-16.7
						c1.7,0,2.8,0.9,3.2,2.9c-0.2-4.2-2-6.8-4.8-6.8c-3.4,0-7.4,4.4-15.9,17.2c-8.8,13.6-12.7,17.6-16.7,17.6
						c-3.7,0-7.1-3.5-15.2-15.4c-6.5-9.5-13.3-19.8-20.4-19.8c-5.3,0-8.7,5.3-8.7,13.4C696.5,237.4,701.7,249.8,707.9,263.8z"/>
					<path class="st54" d="M824.9,210.8c31.4,0,43.9,18.5,43.9,64.9c0,45.1-13.5,65.1-43.9,65.1s-43.3-19.3-43.3-65.1
						C781.5,231.1,795.2,210.8,824.9,210.8z M812,336.6c-18.3-5.5-25.8-23.3-25.8-58.7c0-42.2,12.2-60.5,40.2-60.5
						c23.8,0,35.7,10.6,39.4,37.4c-3.4-29.7-15.8-41.3-41-41.3c-28.8,0-41.5,19.1-41.5,62.2C783.4,312.9,791.9,331.6,812,336.6z
						 M832.6,299.9c15,0,22.3-10.8,22.3-33.2c0-19.6-4.8-29.7-15.9-32.3c9.3,3.1,13.1,12.3,13.1,30.1c0,21.5-6.7,31.4-21,31.4
						c-11.8,0-18.3-5.9-20.4-19.3C812.5,292.6,819.6,299.9,832.6,299.9z M831.1,293.3c13.3,0,19.2-8.8,19.2-28.8
						c0-20.7-5.3-28.6-19.2-28.6c-13.5,0-19.3,8.8-19.3,28.6C811.7,284.9,817.3,293.3,831.1,293.3z"/>
					<path class="st54" d="M898.6,211.5c14.2,0,14.4,25.1,14.5,48.8c0.2,21.3,0.3,41.6,10.7,41.6c10.1,0,10.5-24.2,11-47.5
						c0.6-32.1,2.6-42.9,9.1-42.9c12.4,0,19,27.3,19,74.3c0,33.4-6.5,56.5-16.6,56.5c-2.5,0-4-0.9-7-3.3c-2.3-2.2-5.1-4.4-10.7-4.6
						c-3.2-0.2-6.2,1.3-9.4,2.6c-3.7,1.8-7.7,3.7-13.5,3.7c-18.3,0-27.8-23.1-27.8-66.2C878.1,240.5,887.4,211.5,898.6,211.5z
						 M902.4,337.7c-13-4-19.6-24.8-19.6-60.9c0-31.7,8.5-58.7,17.5-58.7c5.7,0,8.5,5.5,10.1,14.1c-1.4-10.8-4.5-18-11.6-18
						c-10.1,0-18.7,28.4-18.7,60.5C879.9,313.1,887.5,334.9,902.4,337.7z M925.4,308.5c13,0,13.6-28.4,14.1-51.7
						c0.6-29.7,2.3-38.7,6-38.7c6.2,0,11,10.3,13.6,29.5c-2.6-21.5-7.7-33.4-15.2-33.4c-5,0-6.7,10.3-7.3,40.5
						c-0.5,23.3-1.1,49.9-12.8,49.9c-6.5,0-9.6-6.6-11.1-15.8C914.3,300.1,917.5,308.5,925.4,308.5z"/>
					<path class="st54" d="M1012,211.7c6,0,9.3,7,12.8,26.4c3.1,15,4.6,18.2,7.4,18.2c2.6,0,4.8-3.7,9.6-18
						c6.5-19.8,10.7-26.6,16.6-26.6c5.9,0,10.1,6.8,16.6,26.6c4.8,14.3,7,18,9.6,18c2.8,0,4.3-3.3,7.4-18.2
						c3.6-19.3,6.8-26.4,12.8-26.4c10.8,0,13.6,24.2,8.4,64.9c-5.1,39.8-15.9,64.6-28.8,64.6c-6.3,0-10.2-7.5-15.3-28.8
						c-4.3-18-6.7-22.6-10.7-22.6c-4,0-6.3,4.6-10.7,22.9c-5.1,21.1-9,28.6-15.3,28.6c-12.8,0-23.7-24.8-28.8-64.6
						C998.4,235.9,1001.2,211.7,1012,211.7z M1031.2,338.6c-9.7-3.7-18.4-26.2-22.9-60.7c-5-37.8-2.5-59.6,5.3-59.6
						c4.2,0,5.3,5.5,8.8,23.1c2.8,13.9,4.6,21.5,11.1,21.5c5,0,8.2-7,12.7-20.4c6-18.2,9.4-24.2,13.8-24.2c4.3,0,7.1,5.9,13.1,24.2
						c4.5,13.4,7.3,20.4,12.2,20.4c5.6,0,8.5-7.7,11.1-21.5c3.4-17.6,5.7-23.1,9.9-23.1c3.4,0,5.9,4.4,7,12.3
						c-1.1-10.3-4-16.3-8.5-16.3c-5,0-7.7,6.4-11.1,24.4c-3.2,16.3-5.1,20.2-9.1,20.2c-3.7,0-6.2-4.2-11.3-19.3
						c-6.2-18.9-9.9-25.3-14.9-25.3s-8.7,6.4-14.9,25.3c-5.1,15.2-7.6,19.3-11.3,19.3c-4,0-5.9-4-9.1-20.2
						c-3.4-18-6.2-24.4-11.1-24.4c-9.1,0-11.4,23.7-6.5,61.6C1010.3,313.1,1019.9,336.8,1031.2,338.6z M1070.8,311.8
						c4.8,19.3,8.2,26.4,13.1,26.8c-3.4-1.8-6.3-8.6-10.4-25.3c-4-16.5-6.8-25.1-12.7-25.7C1064.5,289.3,1067.1,295.7,1070.8,311.8z
						"/>
					<path class="st54" d="M1166.1,210.8c31.4,0,43.9,18.5,43.9,64.9c0,45.1-13.5,65.1-43.9,65.1s-43.3-19.3-43.3-65.1
						C1122.8,231.1,1136.4,210.8,1166.1,210.8z M1153.3,336.6c-18.3-5.5-25.8-23.3-25.8-58.7c0-42.2,12.2-60.5,40.2-60.5
						c23.8,0,35.7,10.6,39.4,37.4c-3.4-29.7-15.8-41.3-41-41.3c-28.8,0-41.5,19.1-41.5,62.2C1124.6,312.9,1133.1,331.6,1153.3,336.6
						z M1173.8,299.9c15,0,22.3-10.8,22.3-33.2c0-19.6-4.8-29.7-15.9-32.3c9.3,3.1,13.1,12.3,13.1,30.1c0,21.5-6.7,31.4-21,31.4
						c-11.8,0-18.3-5.9-20.4-19.3C1153.7,292.6,1160.8,299.9,1173.8,299.9z M1172.3,293.3c13.3,0,19.2-8.8,19.2-28.8
						c0-20.7-5.3-28.6-19.2-28.6c-13.5,0-19.3,8.8-19.3,28.6C1152.9,284.9,1158.5,293.3,1172.3,293.3z"/>
					<path class="st54" d="M1235.9,211.7c6,0,11.8,7.7,22.7,30.6c8.8,18.2,12.4,23.1,15.9,23.1c3.4,0,4.8-4.4,5.9-22.4
						c1.4-23.5,3.9-31.2,10.7-31.2c10.5,0,15.6,23.1,15.6,67.1c0,43.5-5.7,62.4-19.3,62.4c-7.3,0-13.6-10.6-19.6-20.7
						c-5-9-9.9-17.4-15.2-17.4c-4.2,0-6,3.7-7.6,17.8c-1.9,15-4.2,20.2-9.6,20.2c-10.4,0-16.1-24.2-16.1-64.9
						C1219.3,233.3,1224.6,211.7,1235.9,211.7z M1235.1,338.6c-6.7-3.3-11.1-25.1-11.1-60c0-40.9,4.8-60.2,13.5-60.2
						c4.8,0,9,7.3,19.3,28.6c9.1,18.9,14.2,25.1,19.3,25.1c6.5,0,8-9.5,9-26.4c1.1-20.9,2.9-27.3,7.6-27.3c4.8,0,8.4,7.9,10.5,23.3
						c-2.2-17.8-6.2-27.3-12.1-27.3c-5.6,0-7.6,7-8.8,28.8c-1.2,19.3-2.9,24.8-7.7,24.8c-4.3,0-8.2-5.3-17.3-24.4
						c-10.7-21.8-16.1-29.2-21.3-29.2c-9.9,0-14.7,21.1-14.7,62C1221.2,314.4,1226.3,338.2,1235.1,338.6z M1269.3,318.8
						c5.6,9.7,11.1,18.9,17.2,19.8c-4.9-2-9.7-9.9-14.7-18.7c-4.8-8.6-10.4-18-16.7-18.9C1260.1,303.2,1264.9,311.1,1269.3,318.8z"
						/>
					<path class="st54" d="M1334.7,211.1c13.9,0,18.7,6.4,18.7,24.8c0,25.9-8.7,49-18.7,49c-10.1,0-18.7-23.1-18.7-49
						C1316,217.4,1320.8,211.1,1334.7,211.1z M1334.9,294.4c13.1,0,18.4,6.4,18.4,22.9c0,15.6-5.9,22.6-18.4,22.6
						c-13.5,0-18.6-6.2-18.6-22.6C1316.3,301.2,1321.9,294.4,1334.9,294.4z M1334.2,282.3c-7.1-3.3-13.6-22.9-13.6-44.2
						c0-16.1,3.6-20.4,15.6-20.4c9.3,0,13.6,2.6,15,11.2c-1.1-11.4-5.7-15.2-16.6-15.2c-12.8,0-16.9,5.3-16.9,22.2
						C1317.8,259.4,1325.6,281.4,1334.2,282.3z M1328.7,336.6c-5.7-2-7.7-7-7.7-17.2c0-13.4,4-18.5,15.5-18.5
						c9.1,0,13.5,2.9,14.9,11c-1.1-11-5.7-15-16.4-15c-12.1,0-16.7,5.7-16.7,20.2C1318.2,329.4,1320.9,335.1,1328.7,336.6z"/>
				</g>
				<g>
					<path d="M898.5,436.5h-7.1v-2.7h16.9v2.7h-7.1v22.2h-2.7V436.5z"/>
					<path d="M912.7,431.7h2.7v7.4l-0.2,4.4h0.1c1.6-2.1,3.5-3.6,5.9-3.6c3.8,0,5.5,2.6,5.5,7.4v11.5h-2.7v-11.1
						c0-3.5-1-5.1-3.6-5.1c-1.9,0-3.2,1.1-5,3.3v12.9h-2.7V431.7z"/>
					<path d="M931.9,454c0-4.1,3.3-6.2,11.5-6.9c-0.1-2.5-1.1-4.6-4.2-4.6c-2.1,0-4.1,1.1-5.5,2.2l-1.1-2.1c1.6-1.2,4.3-2.7,7.1-2.7
						c4.3,0,6.5,3,6.5,7.6v11.3h-2.3l-0.2-2.5h-0.1c-1.7,1.6-4,3-6.2,3C934.3,459.2,931.9,457.3,931.9,454z M943.4,453.9v-4.8
						c-6.8,0.6-8.8,2.2-8.8,4.6c0,2.1,1.6,2.9,3.5,2.9C939.8,456.7,941.6,455.7,943.4,453.9z"/>
					<path d="M951.9,440.3h2.2l0.2,3.1h0.1c1.7-2,3.5-3.6,6-3.6c3.8,0,5.5,2.6,5.5,7.4v11.5h-2.7v-11.1c0-3.5-1-5.1-3.6-5.1
						c-1.9,0-3.2,1.1-5,3.3v12.9h-2.7V440.3z"/>
					<path d="M971.9,431.7h2.7V450h0.1l8.5-9.7h3.1l-11.8,13.5v5h-2.7V431.7z M978,448.9l1.6-2.1l7.6,11.9h-3L978,448.9z"/>
					<path d="M990.3,456.3l1.2-2.1c1.8,1.5,4,2.5,6.9,2.5c2.7,0,4-1.3,4-2.8c0-1.4-0.6-2.4-4.9-3.4c-4.1-1-6.2-2.6-6.2-5.4
						c0-3,2.3-5.2,6.6-5.2c2.4,0,4.8,1.1,6.4,2.4l-1.3,2c-1.5-1.2-3.3-1.9-5.3-1.9c-2.7,0-3.7,1.3-3.7,2.7c0,1.6,1.4,2.3,4.6,3.1
						c5.3,1.3,6.5,2.8,6.5,5.7c0,3-2.5,5.5-7,5.5C995,459.2,992.3,457.9,990.3,456.3z"/>
					<path d="M1033.9,451.6v-8.7h-4.5v-2.4l4.6-0.2l0.4-5.9h2.3v5.9h7.8v2.5h-7.8v8.8c0,3.3,0.9,5,4,5c1.5,0,2.6-0.3,3.8-0.8
						l0.6,2.3c-1.4,0.6-3,1.1-5,1.1C1035.4,459.2,1033.9,456.1,1033.9,451.6z"/>
					<path d="M1048.7,449.5c0-6.2,3.7-9.7,7.8-9.7s7.8,3.5,7.8,9.7c0,6.1-3.7,9.7-7.8,9.7S1048.7,455.7,1048.7,449.5z M1061.6,449.5
						c0-4.3-2-7.1-5.1-7.1c-3,0-5.1,2.8-5.1,7.1c0,4.2,2,7,5.1,7C1059.6,456.6,1061.6,453.8,1061.6,449.5z"/>
					<path d="M1088.1,466.3l0.6-2.5c0.4,0.2,0.9,0.3,1.4,0.3c2.2,0,3.6-1.6,4.3-3.9l0.5-1.4l-7.4-18.5h2.7l3.9,10.2
						c0.6,1.6,1.3,3.6,2,5.4h0.1c0.6-1.7,1.2-3.7,1.7-5.4l3.4-10.2h2.6l-7,20c-1.2,3.6-3.1,6.4-6.7,6.4
						C1089.5,466.7,1088.7,466.5,1088.1,466.3z"/>
					<path d="M1107.5,449.5c0-6.2,3.7-9.7,7.8-9.7s7.8,3.5,7.8,9.7c0,6.1-3.7,9.7-7.8,9.7S1107.5,455.7,1107.5,449.5z M1120.4,449.5
						c0-4.3-2-7.1-5.1-7.1c-3,0-5.1,2.8-5.1,7.1c0,4.2,2,7,5.1,7C1118.3,456.6,1120.4,453.8,1120.4,449.5z"/>
					<path d="M1127.6,451.8v-11.5h2.7v11.1c0,3.5,1,5.1,3.7,5.1c1.8,0,3.2-1,4.9-3.4v-12.8h2.7v18.5h-2.3l-0.2-3.2h-0.1
						c-1.6,2.2-3.5,3.7-5.9,3.7C1129.3,459.2,1127.6,456.6,1127.6,451.8z"/>
					<path d="M1151.1,464.9c2.8-1.4,4.1-3.5,4.1-6.6l-0.6-3.5l1.8,3c-0.5,0.7-1.2,0.9-1.8,0.9c-1.4,0-2.5-1-2.5-2.8
						c0-1.9,1.2-2.9,2.6-2.9c1.9,0,2.9,1.9,2.9,4.9c0,4.4-2.2,7.6-5.7,9.1L1151.1,464.9z"/>
					<path d="M658,517.8h5.3c6.4,0,9.9,4.4,9.9,12.3c0,7.9-3.5,12.6-9.8,12.6H658V517.8z M663.1,540.1c4.9,0,7.3-3.6,7.3-10
						c0-6.3-2.4-9.7-7.3-9.7h-2.4v19.7H663.1z"/>
					<path d="M685,526.8h-7.3v-2.5h10.1v18.5H685V526.8z M683.9,518c0-1.4,0.9-2.4,2.2-2.4s2.2,1,2.2,2.4c0,1.5-0.9,2.4-2.2,2.4
						S683.9,519.5,683.9,518z"/>
					<path d="M697.3,524.3h2.2l0.2,3.1h0.1c1.7-2,3.5-3.6,6-3.6c3.8,0,5.5,2.6,5.5,7.4v11.5h-2.7v-11.1c0-3.5-1-5.1-3.6-5.1
						c-1.9,0-3.2,1.1-5,3.3v12.9h-2.7V524.3z"/>
					<path d="M715.8,533.5c0-6.2,3.7-9.7,7.8-9.7s7.8,3.5,7.8,9.7c0,6.1-3.7,9.7-7.8,9.7S715.8,539.7,715.8,533.5z M728.7,533.5
						c0-4.3-2-7.1-5.1-7.1c-3,0-5.1,2.8-5.1,7.1c0,4.2,2,7,5.1,7C726.7,540.6,728.7,537.8,728.7,533.5z"/>
					<path d="M755.6,533.5c0-6.2,4-9.7,8.8-9.7c2.6,0,4.5,1.2,5.8,2.7l-1.3,2c-1.3-1.3-2.7-2.1-4.3-2.1c-3.7,0-6.2,2.8-6.2,7.1
						c0,4.2,2.5,7,6.1,7c2,0,3.6-1,4.9-2.3l1.2,2.1c-1.8,1.8-3.9,2.9-6.3,2.9C759.4,543.2,755.6,539.7,755.6,533.5z"/>
					<path d="M775.2,538c0-4.1,3.3-6.2,11.5-6.9c-0.1-2.5-1.1-4.6-4.2-4.6c-2.1,0-4.1,1.1-5.5,2.2l-1.1-2.1c1.6-1.2,4.3-2.7,7.1-2.7
						c4.3,0,6.5,3,6.5,7.6v11.3h-2.3l-0.2-2.5h-0.1c-1.7,1.6-4,3-6.2,3C777.7,543.2,775.2,541.3,775.2,538z M786.8,537.9v-4.8
						c-6.8,0.6-8.8,2.2-8.8,4.6c0,2.1,1.6,2.9,3.5,2.9C783.2,540.7,784.9,539.7,786.8,537.9z"/>
					<path d="M795.2,524.3h2.2l0.2,3.1h0.1c1.7-2,3.5-3.6,6-3.6c3.8,0,5.5,2.6,5.5,7.4v11.5h-2.7v-11.1c0-3.5-1-5.1-3.6-5.1
						c-1.9,0-3.2,1.1-5,3.3v12.9h-2.7V524.3z"/>
					<path d="M834.7,524.5l4.6-0.2h9.2v2.5h-13.8V524.5z M839.3,522.7c0-4.5,2-7.5,6.4-7.5c1.6,0,3.1,0.3,4.6,1.1l-0.6,2.4
						c-1.3-0.6-2.3-0.9-3.7-0.9c-2.8,0-4,1.9-4,4.8v20.1h-2.7V522.7z"/>
					<path d="M859,536.6v-18.3h-5.6v-2.5h8.3v21.1c0,2.7,1.2,3.8,3.1,3.8c0.9,0,1.9-0.3,3-0.8l0.7,2.4c-1.5,0.7-2.5,1.1-4.2,1.1
						C860.8,543.2,859,540.9,859,536.6z"/>
					<path d="M872.7,550.3l0.6-2.5c0.4,0.2,0.9,0.3,1.4,0.3c2.2,0,3.6-1.6,4.3-3.9l0.5-1.4l-7.4-18.5h2.7l3.9,10.2
						c0.6,1.6,1.3,3.6,2,5.4h0.1c0.6-1.7,1.2-3.7,1.7-5.4l3.4-10.2h2.6l-7,20c-1.2,3.6-3.1,6.4-6.7,6.4
						C874.1,550.7,873.3,550.5,872.7,550.3z"/>
					<path d="M916.4,535.6v-8.7h-4.5v-2.4l4.6-0.2l0.4-5.9h2.3v5.9h7.8v2.5h-7.8v8.8c0,3.3,0.9,5,4,5c1.5,0,2.6-0.3,3.8-0.8l0.6,2.3
						c-1.4,0.6-3,1.1-5,1.1C917.9,543.2,916.4,540.1,916.4,535.6z"/>
					<path d="M931.2,533.5c0-6.2,3.7-9.7,7.8-9.7s7.8,3.5,7.8,9.7c0,6.1-3.7,9.7-7.8,9.7S931.2,539.7,931.2,533.5z M944.1,533.5
						c0-4.3-2-7.1-5.1-7.1c-3,0-5.1,2.8-5.1,7.1c0,4.2,2,7,5.1,7C942.1,540.6,944.1,537.8,944.1,533.5z"/>
					<path d="M970.8,540.3l1.2-2.1c1.8,1.5,4,2.5,6.9,2.5c2.7,0,4-1.3,4-2.8c0-1.4-0.6-2.4-4.9-3.4c-4.1-1-6.2-2.6-6.2-5.4
						c0-3,2.3-5.2,6.6-5.2c2.4,0,4.8,1.1,6.4,2.4l-1.3,2c-1.5-1.2-3.3-1.9-5.3-1.9c-2.7,0-3.7,1.3-3.7,2.7c0,1.6,1.4,2.3,4.6,3.1
						c5.3,1.3,6.5,2.8,6.5,5.7c0,3-2.5,5.5-7,5.5C975.5,543.2,972.7,541.9,970.8,540.3z"/>
					<path d="M990.2,533.5c0-6,3.9-9.7,8.1-9.7c4.6,0,7.2,3.5,7.2,8.7c0,0.7-0.1,1.4-0.1,1.9H992V532h11.8l-0.7,0.9
						c0-4.4-1.9-6.5-4.8-6.5c-2.9,0-5.5,2.6-5.5,7.2c0,4.8,2.7,7.2,6.2,7.2c1.9,0,3.4-0.7,4.8-1.7l1,2.1c-1.6,1.2-3.6,2.2-6.1,2.2
						C994,543.2,990.2,539.6,990.2,533.5z"/>
					<path d="M1010.2,538c0-4.1,3.3-6.2,11.5-6.9c-0.1-2.5-1.1-4.6-4.2-4.6c-2.1,0-4.1,1.1-5.5,2.2l-1.1-2.1
						c1.6-1.2,4.3-2.7,7.1-2.7c4.3,0,6.5,3,6.5,7.6v11.3h-2.3l-0.2-2.5h-0.1c-1.7,1.6-4,3-6.2,3
						C1012.7,543.2,1010.2,541.3,1010.2,538z M1021.7,537.9v-4.8c-6.8,0.6-8.8,2.2-8.8,4.6c0,2.1,1.6,2.9,3.5,2.9
						C1018.2,540.7,1019.9,539.7,1021.7,537.9z"/>
					<path d="M1031.9,524.3h2.3l0.3,4.4h0.1c1.7-3,4.1-4.8,7.1-4.8c1.2,0,2.2,0.2,3.1,0.8l-0.6,2.7c-1.1-0.4-1.7-0.6-2.9-0.6
						c-2.4,0-4.6,1.4-6.5,5.3v10.8h-2.7V524.3z"/>
					<path d="M1049.4,533.5c0-6.2,4-9.7,8.8-9.7c2.6,0,4.5,1.2,5.8,2.7l-1.3,2c-1.3-1.3-2.7-2.1-4.3-2.1c-3.7,0-6.2,2.8-6.2,7.1
						c0,4.2,2.5,7,6.1,7c2,0,3.6-1,4.9-2.3l1.2,2.1c-1.8,1.8-3.9,2.9-6.3,2.9C1053.1,543.2,1049.4,539.7,1049.4,533.5z"/>
					<path d="M1069.4,515.7h2.7v7.4l-0.2,4.4h0.1c1.6-2.1,3.5-3.6,5.9-3.6c3.8,0,5.5,2.6,5.5,7.4v11.5h-2.7v-11.1
						c0-3.5-1-5.1-3.6-5.1c-1.9,0-3.2,1.1-5,3.3v12.9h-2.7V515.7z"/>
					<path d="M1108.9,524.5l4.6-0.2h9.2v2.5h-13.8V524.5z M1113.4,522.7c0-4.5,2-7.5,6.4-7.5c1.6,0,3.1,0.3,4.6,1.1l-0.6,2.4
						c-1.3-0.6-2.3-0.9-3.7-0.9c-2.8,0-4,1.9-4,4.8v20.1h-2.7V522.7z"/>
					<path d="M1127.1,533.5c0-6.2,3.7-9.7,7.8-9.7s7.8,3.5,7.8,9.7c0,6.1-3.7,9.7-7.8,9.7S1127.1,539.7,1127.1,533.5z M1140,533.5
						c0-4.3-2-7.1-5.1-7.1c-3,0-5.1,2.8-5.1,7.1c0,4.2,2,7,5.1,7C1137.9,540.6,1140,537.8,1140,533.5z"/>
					<path d="M1149.4,524.3h2.3l0.3,4.4h0.1c1.7-3,4.1-4.8,7.1-4.8c1.2,0,2.2,0.2,3.1,0.8l-0.6,2.7c-1.1-0.4-1.7-0.6-2.9-0.6
						c-2.4,0-4.6,1.4-6.5,5.3v10.8h-2.7V524.3z"/>
					<path d="M1186.5,538c0-4.1,3.3-6.2,11.5-6.9c-0.1-2.5-1.1-4.6-4.2-4.6c-2.1,0-4.1,1.1-5.5,2.2l-1.1-2.1
						c1.6-1.2,4.3-2.7,7.1-2.7c4.3,0,6.5,3,6.5,7.6v11.3h-2.3l-0.2-2.5h-0.1c-1.7,1.6-4,3-6.2,3
						C1188.9,543.2,1186.5,541.3,1186.5,538z M1198,537.9v-4.8c-6.8,0.6-8.8,2.2-8.8,4.6c0,2.1,1.6,2.9,3.5,2.9
						C1194.4,540.7,1196.2,539.7,1198,537.9z"/>
					<path d="M1226.1,524.3h2.2l0.2,3.1h0.1c1.7-2,3.5-3.6,6-3.6c3.8,0,5.5,2.6,5.5,7.4v11.5h-2.7v-11.1c0-3.5-1-5.1-3.6-5.1
						c-1.9,0-3.2,1.1-5,3.3v12.9h-2.7V524.3z"/>
					<path d="M1244.8,533.5c0-6,3.9-9.7,8.1-9.7c4.6,0,7.2,3.5,7.2,8.7c0,0.7-0.1,1.4-0.1,1.9h-13.4V532h11.8l-0.7,0.9
						c0-4.4-1.9-6.5-4.8-6.5c-2.9,0-5.5,2.6-5.5,7.2c0,4.8,2.7,7.2,6.2,7.2c1.9,0,3.4-0.7,4.8-1.7l1,2.1c-1.6,1.2-3.6,2.2-6.1,2.2
						C1248.6,543.2,1244.8,539.6,1244.8,533.5z"/>
					<path d="M1262.4,524.3h2.7l1.9,10.7c0.3,1.7,0.5,3.3,0.7,5.1h0.1c0.2-1.7,0.6-3.4,0.9-5.1l2-9.6h2.7l1.9,9.6
						c0.4,1.7,0.8,3.3,1,5.1h0.1c0.3-1.7,0.4-3.3,0.7-5.1l1.9-10.7h2.5l-3.4,18.5h-3.5l-1.8-8.8c-0.3-1.3-0.5-3.1-0.8-5.5h-0.1
						c-0.3,2.4-0.5,4.2-0.8,5.5l-1.8,8.8h-3.5L1262.4,524.3z"/>
					<path d="M1304.4,515.7h2.7v7.4l-0.2,4.4h0.1c1.6-2.1,3.5-3.6,5.9-3.6c3.8,0,5.5,2.6,5.5,7.4v11.5h-2.7v-11.1
						c0-3.5-1-5.1-3.6-5.1c-1.9,0-3.2,1.1-5,3.3v12.9h-2.7V515.7z"/>
					<path d="M1322.9,533.5c0-6.2,3.7-9.7,7.8-9.7s7.8,3.5,7.8,9.7c0,6.1-3.7,9.7-7.8,9.7S1322.9,539.7,1322.9,533.5z M1335.8,533.5
						c0-4.3-2-7.1-5.1-7.1c-3,0-5.1,2.8-5.1,7.1c0,4.2,2,7,5.1,7C1333.8,540.6,1335.8,537.8,1335.8,533.5z"/>
					<path d="M1342.4,524.3h2.2l0.2,2.4h0.1c0.8-1.7,1.8-2.9,3.6-2.9c1.6,0,2.5,1.1,3,3.2c0.9-2,1.9-3.2,3.7-3.2
						c2.2,0,3.5,2,3.5,5.7v13.2h-2.7v-13c0-2.1-0.5-3.2-1.7-3.2c-1.1,0-1.7,0.9-2.5,2.8v13.4h-2.5v-13c0-2.1-0.5-3.2-1.6-3.2
						c-1.1,0-1.8,0.9-2.6,2.8v13.4h-2.7V524.3z"/>
					<path d="M1362.3,533.5c0-6,3.9-9.7,8.1-9.7c4.6,0,7.2,3.5,7.2,8.7c0,0.7-0.1,1.4-0.1,1.9h-13.4V532h11.8l-0.7,0.9
						c0-4.4-1.9-6.5-4.8-6.5c-2.9,0-5.5,2.6-5.5,7.2c0,4.8,2.7,7.2,6.2,7.2c1.9,0,3.4-0.7,4.8-1.7l1,2.1c-1.6,1.2-3.6,2.2-6.1,2.2
						C1366.1,543.2,1362.3,539.6,1362.3,533.5z"/>
					<path d="M1387.1,540.2c0-1.8,1.1-2.9,2.4-2.9c1.3,0,2.4,1.1,2.4,2.9s-1.1,3-2.4,3C1388.2,543.2,1387.1,542.1,1387.1,540.2z
						 M1388.2,520.9l-0.1-3.6h2.7l-0.1,3.6l-0.4,13h-1.8L1388.2,520.9z"/>
					<path d="M833.5,614.3c0-8,4-12.9,9.6-12.9c2.6,0,4.6,1.4,5.9,3l-1.6,2c-1.1-1.4-2.5-2.2-4.3-2.2c-4.1,0-6.8,3.8-6.8,10
						c0,6.3,2.7,10.2,6.8,10.2c2,0,3.5-1,4.8-2.7l1.6,1.9c-1.7,2.3-3.8,3.6-6.6,3.6C837.5,627.2,833.5,622.4,833.5,614.3z"/>
					<path d="M853.6,622c0-4.1,3.3-6.2,11.5-6.9c-0.1-2.5-1.1-4.6-4.2-4.6c-2.1,0-4.1,1.1-5.5,2.2l-1.1-2.1c1.6-1.2,4.3-2.7,7.1-2.7
						c4.3,0,6.5,3,6.5,7.6v11.3h-2.3l-0.2-2.5h-0.1c-1.7,1.6-4,3-6.2,3C856,627.2,853.6,625.3,853.6,622z M865.1,621.9v-4.8
						c-6.8,0.6-8.8,2.2-8.8,4.6c0,2.1,1.6,2.9,3.5,2.9C861.5,624.7,863.3,623.7,865.1,621.9z"/>
					<path d="M873.6,608.3h2.2l0.2,3.1h0.1c1.7-2,3.5-3.6,6-3.6c3.8,0,5.5,2.6,5.5,7.4v11.5h-2.7v-11.1c0-3.5-1-5.1-3.6-5.1
						c-1.9,0-3.2,1.1-5,3.3v12.9h-2.7V608.3z"/>
					<path d="M911.9,634.3l0.6-2.5c0.4,0.2,0.9,0.3,1.4,0.3c2.2,0,3.6-1.6,4.3-3.9l0.5-1.4l-7.4-18.5h2.7l3.9,10.2
						c0.6,1.6,1.3,3.6,2,5.4h0.1c0.6-1.7,1.2-3.7,1.7-5.4l3.4-10.2h2.6l-7,20c-1.2,3.6-3.1,6.4-6.7,6.4
						C913.2,634.7,912.4,634.5,911.9,634.3z"/>
					<path d="M931.2,617.5c0-6.2,3.7-9.7,7.8-9.7s7.8,3.5,7.8,9.7c0,6.1-3.7,9.7-7.8,9.7S931.2,623.7,931.2,617.5z M944.1,617.5
						c0-4.3-2-7.1-5.1-7.1c-3,0-5.1,2.8-5.1,7.1c0,4.2,2,7,5.1,7C942.1,624.6,944.1,621.8,944.1,617.5z"/>
					<path d="M951.4,619.8v-11.5h2.7v11.1c0,3.5,1,5.1,3.7,5.1c1.8,0,3.2-1,4.9-3.4v-12.8h2.7v18.5h-2.3l-0.2-3.2h-0.1
						c-1.6,2.2-3.5,3.7-5.9,3.7C953.1,627.2,951.4,624.6,951.4,619.8z"/>
					<path d="M990,617.5c0-6,3.4-9.7,7.2-9.7c1.9,0,3.4,0.9,4.8,2.4h0.1l-0.1-3.4v-7.1h2.7v27.1h-2.2l-0.2-2.4h-0.1
						c-1.3,1.6-3.2,2.9-5.2,2.9C992.7,627.2,990,623.7,990,617.5z M1001.9,621.8v-9.2c-1.4-1.6-2.8-2.1-4.1-2.1c-2.7,0-5,2.8-5,7
						c0,4.4,1.8,7,4.7,7C999,624.5,1000.5,623.6,1001.9,621.8z"/>
					<path d="M1009.6,617.5c0-6.2,3.7-9.7,7.8-9.7s7.8,3.5,7.8,9.7c0,6.1-3.7,9.7-7.8,9.7S1009.6,623.7,1009.6,617.5z M1022.5,617.5
						c0-4.3-2-7.1-5.1-7.1c-3,0-5.1,2.8-5.1,7.1c0,4.2,2,7,5.1,7C1020.4,624.6,1022.5,621.8,1022.5,617.5z"/>
					<path d="M1057.1,610.8h-7.3v-2.5h10.1v18.5h-2.7V610.8z M1056,602c0-1.4,0.9-2.4,2.2-2.4s2.2,1,2.2,2.4c0,1.5-0.9,2.4-2.2,2.4
						S1056,603.5,1056,602z"/>
					<path d="M1073.1,619.6v-8.7h-4.5v-2.4l4.6-0.2l0.4-5.9h2.3v5.9h7.8v2.5h-7.8v8.8c0,3.3,0.9,5,4,5c1.5,0,2.6-0.3,3.8-0.8
						l0.6,2.3c-1.4,0.6-3,1.1-5,1.1C1074.6,627.2,1073.1,624.1,1073.1,619.6z"/>
					<path d="M1108.1,622c0-4.1,3.3-6.2,11.5-6.9c-0.1-2.5-1.1-4.6-4.2-4.6c-2.1,0-4.1,1.1-5.5,2.2l-1.1-2.1
						c1.6-1.2,4.3-2.7,7.1-2.7c4.3,0,6.5,3,6.5,7.6v11.3h-2.3l-0.2-2.5h-0.1c-1.7,1.6-4,3-6.2,3
						C1110.6,627.2,1108.1,625.3,1108.1,622z M1119.7,621.9v-4.8c-6.8,0.6-8.8,2.2-8.8,4.6c0,2.1,1.6,2.9,3.5,2.9
						C1116.1,624.7,1117.8,623.7,1119.7,621.9z"/>
					<path d="M1127.5,630.1c0-1.5,0.9-3,2.6-4.1v-0.2c-0.8-0.5-1.6-1.5-1.6-3c0-1.2,0.7-2.5,1.9-3.5v-0.2c-1.1-0.9-2-2.6-2-4.8
						c0-4,2.9-6.6,6.2-6.6c0.9,0,1.7,0.2,2.3,0.5h6.6v2.5h-4.1c0.7,0.9,1.3,2.2,1.3,3.7c0,4-2.7,6.3-6.1,6.3c-0.8,0-1.8-0.2-2.7-0.7
						c-0.8,0.6-1.2,1.3-1.2,2.1c0,1.4,1.2,2.1,3.3,2.1h3.6c4.1,0,6,1.2,6,4.3c0,3.5-3.4,6.5-8.8,6.5
						C1130.1,635.3,1127.5,633.4,1127.5,630.1z M1140.9,629.3c0-1.7-1.2-2.2-3.6-2.2h-3.1c-0.9,0-1.7-0.1-2.4-0.3
						c-1.5,0.9-2,2-2,3.1c0,1.9,1.8,3.2,5.2,3.2C1138.6,633,1140.9,631.2,1140.9,629.3z M1138.3,614.4c0-2.6-1.6-4.3-3.7-4.3
						c-2,0-3.7,1.7-3.7,4.3c0,2.7,1.7,4.4,3.7,4.4C1136.6,618.8,1138.3,617.1,1138.3,614.4z"/>
					<path d="M1147.3,622c0-4.1,3.3-6.2,11.5-6.9c-0.1-2.5-1.1-4.6-4.2-4.6c-2.1,0-4.1,1.1-5.5,2.2l-1.1-2.1
						c1.6-1.2,4.3-2.7,7.1-2.7c4.3,0,6.5,3,6.5,7.6v11.3h-2.3l-0.2-2.5h-0.1c-1.7,1.6-4,3-6.2,3
						C1149.7,627.2,1147.3,625.3,1147.3,622z M1158.8,621.9v-4.8c-6.8,0.6-8.8,2.2-8.8,4.6c0,2.1,1.6,2.9,3.5,2.9
						C1155.2,624.7,1157,623.7,1158.8,621.9z"/>
					<path d="M1174.6,610.8h-7.3v-2.5h10.1v18.5h-2.7V610.8z M1173.5,602c0-1.4,0.9-2.4,2.2-2.4s2.2,1,2.2,2.4
						c0,1.5-0.9,2.4-2.2,2.4S1173.5,603.5,1173.5,602z"/>
					<path d="M1186.9,608.3h2.2l0.2,3.1h0.1c1.7-2,3.5-3.6,6-3.6c3.8,0,5.5,2.6,5.5,7.4v11.5h-2.7v-11.1c0-3.5-1-5.1-3.6-5.1
						c-1.9,0-3.2,1.1-5,3.3v12.9h-2.7V608.3z"/>
					<path d="M1216.4,607.1c0-2.1-1.2-3.6-3.6-3.6c-1.7,0-3.1,0.8-4.2,2.2l-1.6-1.7c1.5-1.8,3.5-3.1,6-3.1c3.6,0,6.1,2.3,6.1,5.9
						c0,5.2-5.9,6.2-5.4,11.1h-2.4C1210.5,612.5,1216.4,611,1216.4,607.1z M1210.4,624.2c0-1.8,1.1-2.9,2.4-2.9s2.4,1.1,2.4,2.9
						s-1.1,3-2.4,3S1210.4,626.1,1210.4,624.2z"/>
				</g>
			</g>
			<g>
				<polygon class="st4" points="1586.3,655.5 1553,654.7 1586.3,653.9 1586.3,655.5 				"/>
				<polygon class="st4" points="1587.5,653.5 1586.9,689 1585.3,653.6 1587.5,653.5 				"/>
				<polygon class="st4" points="1586.6,653.4 1616,653.1 1586.9,655 1586.6,653.4 				"/>
				<polygon class="st4" points="1585.6,653.4 1586.6,624 1587.8,653.4 1585.6,653.4 				"/>
				<polygon class="st4" points="1587.1,655.3 1579,661.2 1585.6,653.5 1587.1,655.3 				"/>
				<polygon class="st4" points="1585.5,654.4 1578.8,646.8 1587,652.6 1585.5,654.4 				"/>
				<polygon class="st4" points="1586.1,652.3 1594.6,647 1587.5,654.2 1586.1,652.3 				"/>
				<polygon class="st4" points="1588.1,653.5 1594.2,661.6 1586.5,655.1 1588.1,653.5 				"/>
			</g>
			<g>
				<polygon class="st4" points="1110,912.5 1110.8,895 1112.2,912.4 1110,912.5 				"/>
				<polygon class="st4" points="1110.9,913.8 1098.1,912.5 1110.9,910.8 1110.9,913.8 				"/>
				<polygon class="st4" points="1111.2,910.8 1124,911.8 1111.2,913.8 1111.2,910.8 				"/>
				<polygon class="st4" points="1112.1,912.4 1111.3,929.9 1110,912.5 1112.1,912.4 				"/>
			</g>
			<g>
				<polygon class="st4" points="353.1,148.1 354.6,124.2 357.1,148 353.1,148.1 				"/>
				<polygon class="st4" points="354.7,149.8 330.9,148.1 354.7,145.8 354.7,149.8 				"/>
				<polygon class="st4" points="355.2,145.8 379.1,147.1 355.4,149.8 355.2,145.8 				"/>
				<polygon class="st4" points="357,148 355.5,171.8 353,148.1 357,148 				"/>
			</g>
			<g>
				<polygon class="st4" points="1855.9,338.5 1857.5,303 1860.3,338.4 1855.9,338.5 				"/>
				<polygon class="st4" points="1857.7,341.1 1831,338.6 1857.6,335.1 1857.7,341.1 				"/>
				<polygon class="st4" points="1858.3,335.2 1885,337.1 1858.4,341.1 1858.3,335.2 				"/>
				<polygon class="st4" points="1860.2,338.4 1858.6,373.8 1855.7,338.5 1860.2,338.4 				"/>
			</g>
			<g>
				<polygon class="st4" points="51.3,393.8 52,382 53.1,393.7 51.3,393.8 				"/>
				<polygon class="st4" points="52,394.6 41,393.8 52,392.7 52,394.6 				"/>
				<polygon class="st4" points="52.3,392.7 63.3,393.3 52.3,394.6 52.3,392.7 				"/>
				<polygon class="st4" points="53.1,393.7 52.4,405.5 51.2,393.8 53.1,393.7 				"/>
			</g>
			<g>
				<polygon class="st4" points="42.4,54.8 43.3,37 44.8,54.7 42.4,54.8 				"/>
				<polygon class="st4" points="43.4,56.1 29.1,54.8 43.3,53.1 43.4,56.1 				"/>
				<polygon class="st4" points="43.7,53.1 58,54.1 43.7,56.1 43.7,53.1 				"/>
				<polygon class="st4" points="44.7,54.7 43.8,72.5 42.3,54.8 44.7,54.7 				"/>
			</g>
			<g>
				<polygon class="st4" points="1066.1,61.3 1066.9,44 1068.2,61.2 1066.1,61.3 				"/>
				<polygon class="st4" points="1067,62.6 1054.2,61.3 1066.9,59.7 1067,62.6 				"/>
				<polygon class="st4" points="1067.2,59.7 1080,60.6 1067.3,62.6 1067.2,59.7 				"/>
				<polygon class="st4" points="1068.2,61.2 1067.4,78.5 1066,61.3 1068.2,61.2 				"/>
			</g>
		</g>
		<g>
			
				<ellipse transform="matrix(0.3587 -0.9334 0.9334 0.3587 -685.6636 877.4046)" class="st56" cx="295.8" cy="937.7" rx="253" ry="609.5"/>
			<path class="st57" d="M358,690.9c-15.7-5.7-29.3-2.4-33,5c-0.7,1.3-2.1,4.9,0,11c-3.9-0.4-10.2-1.5-17-5c-5.6-2.9-9.5-6.4-12-9
				c-3.4-2.7-7.8-5.4-11-4c-6,2.7-0.2,16.5-6,30c-7.1,16.6-29.2,27.2-46,24c-9.6-1.9-15.7-7.9-19-11c-12.9-12-35.4-26.3-77-35
				c-23.6,24.8-45.3,37.2-55,31c-2.3-1.5-6.1-5.5-6-18c1.9-22.9-9.7-39.1-21-40c-8.6-0.7-15.9,7.4-18,10c-2.7-4-5.3-8-8-12
				c-9.3-1.7-18.7-3.3-28-5c-3-10.5-8.1-23.4-17-25c-9.9-1.8-17.5,11.5-25,9c-4.1-1.4-8.7-7.6-9-31c52.2,0,112.6,3.5,179,14
				C219.6,644.2,296.7,667.6,358,690.9z"/>
			<path class="st57" d="M441,871.9c0.8,15.3,12.1,19.1,10,34c-0.4,3.1-1.3,5.6-2,12c-0.9,8.8-1.4,13.3,0,17c2.9,7.6,9.2,6.1,17,16
				c3.5,4.4,7.7,9.7,7,16c-0.9,8-8.9,10.9-8,17c0.5,3.7,4,6.3,7,8c-23.1,10.3-34.1,18-33,23c0.5,2.1,3.1,3.8,8,5
				c6.3,2,14.7,5.9,20,14c4.1,6.2,2.7,9.4,5,15c6.8,16.4,28.8,13.1,57,33c10.6,7.5,17.3,12.3,18,20c1.2,13.7-18,22.4-15,32
				c1.2,3.7,4.9,5.3,20,10c31.6,9.8,45.9,12.2,47,19c0.8,4.9-6.1,7.5-5,13c1.2,5.9,10.7,8.4,19,11c0,0,18,5.5,39,15
				c11.7,5.3,25.9,18.4,35,54c20.1-1.5,49.3-5.8,82-19c32.5-13.1,56.5-30.1,72-43c-9.9-10.5-11.5-18.5-11-24c0.6-7.1,4.6-9.9,9-20
				c3.7-8.6,4.6-15.3,6-26c3.5-26.5-2.5-35.6,5-47c3.9-5.9,9.3-9.2,13-11c-5.2-13.8-12.3-29.5-22-46c-15.1-25.7-31.8-45.5-46-60
				c-30.7-13-55.2-22.8-71-29c-41-16.1-67.5-25.4-69-42c-0.4-4.1,0.8-7.6,2-10c-3.8-4.2-10-10-19-14c-12.5-5.5-17.6-1.8-29-6
				c-18.3-6.8-16.4-20.5-31-24c-14.7-3.5-18.9,10-37,8c-13.8-1.5-16.3-9.9-36-16c-10.6-3.3-19.9-3.9-26-4c-1.3-4.7-3.6-11.5-8-19
				c-0.9-1.5-12.6-21.1-19-19c-3.1,1-1.8,6.1-5,17c-4.9,16.3-12.5,20.5-10,28c1.8,5.4,6,4.3,9,10C451.2,849.8,440.2,856.6,441,871.9
				z"/>
			<path class="st58" d="M132.6,811.3c6.4,2.1,10.1-7.7,21.3-8.1c2.1-0.1,7.3-0.2,11.3,3.4c4.7,4.2,2.6,9.1,6.9,12.8
				c4.5,3.8,12.2,3.1,17.5-0.7c4.7-3.3,6.4-8.4,6.9-10.1c4.6,4,9.2,8.1,13.8,12.1c6.3-2.9,12.5-5.8,18.8-8.7
				c-5.6,18.4-3.9,25.8-0.6,28.9c2.7,2.5,6,1.5,8.1,4.7c3.4,5.1-1.8,12-1.3,18.8c0.5,5.8,5.5,13.8,26.9,22.2c1.8,3.6,3.6,8.1,5,13.4
				c2.3,8.8,2.7,16.5,2.5,22.2c-7.1,6.5-12.5,14.2-12.5,22.8c0,15.6,17.7,21.5,24.4,41.6c4.4,13.2,2.1,26.6-1.3,36.9
				c-4.4,3.8-8.8,7.6-13.1,11.4c-6.7-8.3-13.3-16.6-20-24.8c-5.2,3-13.2,6.4-22.5,5.4c-16.3-1.7-22-15.3-37.5-18.1
				c-6.7-1.2-16.6-0.7-30,8.1c-10.8-13-21.7-26-32.5-38.9c2.7-14.8,5.4-29.5,8.1-44.3c-9.6-1.1-28.3-4.8-39.4-20.1
				c-0.9-1.3-9.8-13.7-6.3-19.5c2.2-3.5,7.5-2.1,8.8-5.4c1.8-4.6-7.8-9.1-8.1-16.8c-0.4-10.5,17.2-12.8,19.4-25.5
				c2.2-12.9-13.6-23.1-9.4-30.9c2.3-4.3,7.4-1.5,13.8-8.1c4.8-4.9,5-9.7,9.4-10.7c2.8-0.7,6.5,0.4,7.5,2.7c1.3,3-2.9,5.5-3.1,10.7
				C124.8,803.6,128.1,809.9,132.6,811.3z"/>
			<path class="st58" d="M45,794.2c-0.1,1.6-1.1,2-0.9,3.6c0,0.3,0.1,0.6,0.2,1.3c0.1,0.9,0.1,1.4,0,1.8c-0.3,0.8-0.8,0.7-1.5,1.7
				c-0.3,0.5-0.7,1-0.6,1.7c0.1,0.9,0.8,1.2,0.7,1.8c0,0.4-0.3,0.7-0.6,0.9c2,1.1,3,1.9,2.9,2.5c0,0.2-0.3,0.4-0.7,0.5
				c-0.6,0.2-1.3,0.6-1.7,1.5c-0.4,0.7-0.2,1-0.4,1.6c-0.6,1.8-2.5,1.4-5,3.5c-0.9,0.8-1.5,1.3-1.6,2.1c-0.1,1.5,1.6,2.4,1.3,3.4
				c-0.1,0.4-0.4,0.6-1.7,1.1c-2.8,1.1-4,1.3-4.1,2c-0.1,0.5,0.5,0.8,0.4,1.4c-0.1,0.6-0.9,0.9-1.7,1.2c0,0-1.6,0.6-3.4,1.6
				c-1,0.6-2.3,2-3.1,5.8c-1.8-0.2-4.3-0.6-7.2-2c-2.8-1.4-4.9-3.2-6.3-4.6c0.9-1.1,1-2,1-2.6c-0.1-0.8-0.4-1.1-0.8-2.1
				c-0.3-0.9-0.4-1.6-0.5-2.8c-0.3-2.8,0.2-3.8-0.4-5c-0.3-0.6-0.8-1-1.1-1.2c0.5-1.5,1.1-3.2,1.9-4.9c1.3-2.8,2.8-4.9,4-6.4
				c2.7-1.4,4.8-2.4,6.2-3.1c3.6-1.7,5.9-2.7,6-4.5c0-0.4-0.1-0.8-0.2-1.1c0.3-0.4,0.9-1.1,1.7-1.5c1.1-0.6,1.5-0.2,2.5-0.6
				c1.6-0.7,1.4-2.2,2.7-2.6c1.3-0.4,1.7,1.1,3.2,0.9c1.2-0.2,1.4-1.1,3.1-1.7c0.9-0.4,1.7-0.4,2.3-0.4c0.1-0.5,0.3-1.2,0.7-2
				c0.1-0.2,1.1-2.3,1.7-2c0.3,0.1,0.2,0.7,0.4,1.8c0.4,1.7,1.1,2.2,0.9,3c-0.2,0.6-0.5,0.5-0.8,1.1C44.1,791.9,45,792.6,45,794.2z"
				/>
			<path class="st58" d="M320.3,987c-1.4-0.3-1.6-1.5-3.1-1.5c-0.3,0-0.6,0.1-1.2,0c-0.9,0-1.3,0-1.6-0.2c-0.7-0.4-0.4-1-1.3-2
				c-0.4-0.4-0.8-0.9-1.4-0.9c-0.8,0-1.2,0.8-1.7,0.6c-0.3-0.1-0.5-0.5-0.7-0.8c-1.3,2.3-2.2,3.3-2.7,3.1c-0.2-0.1-0.3-0.4-0.4-0.9
				c-0.1-0.7-0.3-1.6-1-2.3c-0.5-0.5-0.9-0.4-1.4-0.7c-1.5-0.9-0.8-3.2-2.3-6.4c-0.6-1.2-0.9-2-1.6-2.1c-1.3-0.3-2.4,1.6-3.3,1.1
				c-0.3-0.2-0.4-0.6-0.7-2.2c-0.5-3.4-0.5-4.9-1.1-5.1c-0.5-0.1-0.8,0.5-1.3,0.3c-0.5-0.2-0.6-1.2-0.8-2.1c0,0-0.3-1.9-0.8-4.3
				c-0.3-1.3-1.4-2.9-4.6-4.4c0.4-2.1,1.3-5,3-8.3c1.7-3.2,3.7-5.5,5.2-6.9c0.9,1.2,1.6,1.4,2.1,1.5c0.7,0,1-0.3,2-0.7
				c0.9-0.3,1.5-0.3,2.6-0.3c2.6,0,3.3,0.7,4.5,0.1c0.6-0.3,1-0.8,1.2-1.2c1.2,0.7,2.6,1.7,4,2.9c2.2,1.9,3.9,3.9,5,5.6
				c0.8,3.4,1.4,6,1.7,7.8c0.9,4.5,1.4,7.4,3,7.7c0.4,0.1,0.7,0,1-0.1c0.3,0.4,0.8,1.2,1,2.2c0.3,1.4-0.1,1.8,0.1,3.1
				c0.4,2,1.7,2,1.8,3.5c0.1,1.6-1.2,1.8-1.3,3.7c-0.1,1.5,0.7,1.8,1,4c0.2,1.1,0.1,2.1,0,2.8c0.4,0.2,1,0.5,1.7,1.1
				c0.1,0.1,1.8,1.6,1.5,2.2c-0.1,0.3-0.6,0.1-1.7,0.3c-1.6,0.3-2.1,1-2.8,0.7c-0.5-0.3-0.3-0.7-0.8-1.1
				C322.6,986.2,321.8,987.2,320.3,987z"/>
			<path class="st58" d="M229.8,786.6c0,0.8-0.7,1-0.6,1.8c0,0.2,0.1,0.3,0.1,0.6c0.1,0.5,0.1,0.7,0,0.9c-0.2,0.4-0.5,0.3-1,0.9
				c-0.2,0.2-0.4,0.5-0.4,0.9c0.1,0.4,0.5,0.6,0.5,0.9c0,0.2-0.2,0.3-0.4,0.4c1.3,0.5,2,1,1.9,1.2c0,0.1-0.2,0.2-0.5,0.3
				c-0.4,0.1-0.9,0.3-1.2,0.7c-0.2,0.3-0.2,0.5-0.3,0.8c-0.4,0.9-1.7,0.7-3.3,1.8c-0.6,0.4-1,0.7-1,1.1c-0.1,0.7,1,1.2,0.9,1.7
				c-0.1,0.2-0.3,0.3-1.2,0.5c-1.8,0.5-2.7,0.6-2.7,1c0,0.3,0.4,0.4,0.3,0.7c-0.1,0.3-0.6,0.4-1.1,0.6c0,0-1,0.3-2.3,0.8
				c-0.7,0.3-1.5,1-2,2.9c-1.2-0.1-2.9-0.3-4.7-1c-1.9-0.7-3.3-1.6-4.2-2.3c0.6-0.6,0.7-1,0.6-1.3c0-0.4-0.3-0.5-0.5-1.1
				c-0.2-0.5-0.3-0.8-0.3-1.4c-0.2-1.4,0.1-1.9-0.3-2.5c-0.2-0.3-0.5-0.5-0.8-0.6c0.3-0.7,0.7-1.6,1.3-2.4c0.9-1.4,1.8-2.4,2.7-3.2
				c1.8-0.7,3.2-1.2,4.1-1.5c2.4-0.9,3.9-1.3,4-2.2c0-0.2,0-0.4-0.1-0.5c0.2-0.2,0.6-0.5,1.1-0.7c0.7-0.3,1-0.1,1.7-0.3
				c1.1-0.4,0.9-1.1,1.8-1.3c0.9-0.2,1.1,0.5,2.1,0.4c0.8-0.1,0.9-0.5,2.1-0.9c0.6-0.2,1.2-0.2,1.5-0.2c0.1-0.2,0.2-0.6,0.5-1
				c0.1-0.1,0.7-1.1,1.1-1c0.2,0.1,0.1,0.3,0.3,0.9c0.3,0.9,0.7,1.1,0.6,1.5c-0.1,0.3-0.3,0.2-0.5,0.5
				C229.2,785.4,229.8,785.7,229.8,786.6z"/>
			<path class="st57" d="M399.9,850.5c2.7,4.6,1.7,6.8,4.8,11c0.6,0.9,1.2,1.6,2.5,3.4c1.8,2.6,2.6,3.8,3.1,5.1
				c1,2.5-0.2,2.6,0.5,6.3c0.3,1.6,0.7,3.6,1.9,5.4c1.6,2.3,3.3,2.5,4.3,4.4c0.6,1.2,0.6,2.2,0.5,3c5.2,1,8.2,2.3,9,3.9
				c0.3,0.7,0.2,1.4-0.2,2.2c-0.5,1.2-1,3.1-0.3,6c0.6,2.2,1.3,3.1,2,4.9c2,5.5-1.8,6.5-2.2,14.9c-0.2,3.2-0.2,5.2,1.1,7.6
				c2.3,4.2,6.7,5.1,8,8.2c0.5,1.2,0.3,2-1.1,4.8c-2.8,5.7-4.4,7.7-3.3,9.9c0.8,1.5,2.3,1.7,3.1,3.4c0.9,1.9,0,3.5-0.7,5
				c0,0-1.6,3.3-2.9,8c-0.7,2.6-0.4,7.8,4.8,19.2c-3.2,1.4-8.2,2.7-15.4,1.6c-7.1-1-13.7-3.9-18.3-6.4c-0.5-4-1.7-6.6-2.8-8.1
				c-1.4-2-2.5-2.5-5-5.2c-2.1-2.2-3.5-4.1-5.6-7.2c-5.4-7.6-6.2-10.8-9.4-13.6c-1.6-1.4-3-1.9-3.9-2.1c-1.8-4.6-3.6-9.9-5.3-15.7
				c-2.5-9-3.8-16.4-4.4-22c2.1-6.6,3.8-11.7,5-15c3-8.5,5.1-13.6,2.3-18.7c-0.7-1.2-1.5-2.2-2.1-2.8c-0.2-1.6-0.4-3.9,0.2-5.9
				c0.8-2.8,2.2-2.1,3.1-4.4c1.4-3.7-1.4-7.6,0.1-9.9c1.5-2.4,4.6,1.3,6.8-0.9c1.7-1.7,0.5-4.4,2.3-8c0.9-1.9,2.2-3,3-3.5
				c-0.7-1.5-1.6-3.8-2.3-6.4c-0.1-0.5-2.1-7.4-0.7-7.4c0.6,0,1.4,1.7,3.8,4.6c3.7,4.4,5.6,5,6.6,7.5c0.7,1.8-0.1,1.8,0.5,3.8
				C394.4,844.8,397.2,845.8,399.9,850.5z"/>
			<path class="st58" d="M63.3,903.9c-0.9-0.2-1-1-1.9-0.9c-0.2,0-0.3,0-0.7,0c-0.5,0-0.8,0-1-0.1c-0.4-0.3-0.3-0.7-0.8-1.3
				c-0.2-0.3-0.5-0.6-0.9-0.6c-0.5,0-0.7,0.5-1.1,0.4c-0.2-0.1-0.3-0.3-0.4-0.5c-0.8,1.4-1.4,2.1-1.6,2c-0.1,0-0.2-0.2-0.2-0.6
				c-0.1-0.4-0.2-1-0.6-1.4c-0.3-0.3-0.5-0.3-0.8-0.5c-0.9-0.6-0.5-2-1.4-4c-0.3-0.8-0.6-1.2-1-1.4c-0.8-0.2-1.5,1-2,0.7
				c-0.2-0.1-0.3-0.4-0.4-1.4c-0.3-2.2-0.3-3.1-0.7-3.3c-0.3-0.1-0.5,0.3-0.8,0.2c-0.3-0.1-0.4-0.8-0.5-1.3c0,0-0.2-1.2-0.5-2.7
				c-0.2-0.8-0.8-1.9-2.8-2.7c0.3-1.3,0.8-3.2,1.9-5.2c1.1-2,2.3-3.5,3.2-4.4c0.5,0.7,1,0.9,1.3,0.9c0.4,0,0.6-0.2,1.2-0.4
				c0.5-0.2,0.9-0.2,1.6-0.2c1.6,0,2,0.5,2.8,0.1c0.4-0.2,0.6-0.5,0.8-0.8c0.7,0.5,1.6,1.1,2.5,1.8c1.3,1.2,2.3,2.5,3,3.5
				c0.5,2.1,0.8,3.8,1,4.9c0.5,2.8,0.8,4.7,1.8,4.9c0.2,0.1,0.4,0,0.6,0c0.2,0.3,0.5,0.7,0.6,1.4c0.2,0.9-0.1,1.2,0.1,2
				c0.2,1.3,1,1.3,1.1,2.2c0.1,1-0.8,1.2-0.8,2.4c0,0.9,0.4,1.2,0.6,2.5c0.1,0.7,0,1.3,0,1.7c0.3,0.1,0.6,0.3,1,0.7
				c0.1,0.1,1.1,1,0.9,1.4c-0.1,0.2-0.4,0.1-1,0.2c-1,0.2-1.3,0.7-1.7,0.4c-0.3-0.2-0.2-0.4-0.5-0.7
				C64.6,903.4,64.2,904.1,63.3,903.9z"/>
		</g>
	</g>
</g>
<g id="Asteroid">
</g>
<g id="GameScreen">
</g>
</svg>
