<?xml version="1.0" encoding="UTF-8"?><svg xmlns="http://www.w3.org/2000/svg" width="1920" height="1080" xmlns:xlink="http://www.w3.org/1999/xlink" viewBox="0 0 1920 1080"><defs><style>.s{fill:#5fb8e0;}.t{fill:#fff;}.u{fill:#ce287f;}.v{fill:#000200;}.w{fill:#337f5c;}.x{fill:#f45a0c;}.y{fill:#00a01a;}.a`{fill:#825e84;}.aa{fill:#f2c0e3;}.ab{opacity:.3;}.ac{fill:#fafafc;}.ad{fill:#0b38f7;}.ae{fill:#45db7a;}.af{fill:#fdfffe;}.ag{fill:#c5a7c6;}.ah{fill:#fafcfa;}.ai{filter:url(#n);}.aj{fill:url(#o);}.ak{fill:#f7da06;}.al{fill:#dcf4e4;}.am{fill:#fcfcfc;}</style><filter id="n" x="-20%" y="-20%" width="140%" height="140%"><feGaussianBlur in="SourceAlpha" result="blur" stdDeviation="4"/><feOffset dx="4" dy="4" in="blur" result="offsetBlur"/><feSpecularLighting in="blur" result="specOut" specularConstant="1" specularExponent="10" surfaceScale="5"><fePointLight x="-5000" y="-10000" z="-20000"/></feSpecularLighting><feComposite in="specOut" in2="SourceAlpha" operator="in" result="specOut"/><feComposite in="SourceGraphic" in2="specOut" k1="0" k2="1" k3="1" k4="0" operator="arithmetic" result="litPaint"/><feMerge><feMergeNode in="offsetBlur"/><feMergeNode in="litPaint"/></feMerge></filter><linearGradient id="o" x1="83.91" y1="1944.75" x2="1099.42" y2="315.29" gradientTransform="matrix(1, 0, 0, 1, 0, 0)" gradientUnits="userSpaceOnUse"><stop offset="0" stop-color="#fff"/><stop offset=".04" stop-color="#fff"/><stop offset=".14" stop-color="#d8d5dd"/><stop offset=".26" stop-color="#b7b2c1"/><stop offset=".39" stop-color="#968fa5"/><stop offset=".61" stop-color="#79708c"/><stop offset=".65" stop-color="#625879"/><stop offset=".73" stop-color="#44385f"/><stop offset=".82" stop-color="#271a46"/><stop offset="1" stop-color="#110334"/></linearGradient></defs><g id="a"/><g id="b"/><g id="c"/><g id="d"/><g id="e"><g id="f"><g id="g"/><g id="h"><g id="i"/></g></g></g><g id="j"/><g id="k"><g id="l"><g id="m"><g class="ai"><rect class="aj" y="-2" width="1920" height="1082"/></g><g class="ab"><circle class="ac" cx="1876.5" cy="935.45" r="2.42"/><circle class="ac" cx="1789.51" cy="1048.66" r="3.56"/><circle class="ac" cx="1732.69" cy="1005.17" r="2.71"/><circle class="ac" cx="1662.89" cy="1024.93" r="2.48"/><circle class="ac" cx="1713.15" cy="1015.8" r="3.32"/><circle class="ac" cx="1712.68" cy="933.38" r="2.07"/><circle class="ac" cx="1724.03" cy="760.49" r="3.67"/><circle class="ac" cx="1670.64" cy="705.86" r="2.42"/><circle class="ac" cx="1429.93" cy="250.72" r="3.24"/><circle class="ac" cx="1099.46" cy="746.33" r="3.65"/><circle class="ac" cx="1173.65" cy="786.77" r="3.11"/><circle class="ac" cx="1072.82" cy="952.66" r="1.9"/><circle class="ac" cx="1184.29" cy="791.83" r="1.79"/><circle class="ac" cx="1014.18" cy="828.46" r="2.83"/><circle class="ac" cx="895.51" cy="814.15" r="1.72"/><circle class="ac" cx="978.52" cy="714.89" r="1.55"/><circle class="ac" cx="1115.42" cy="680.49" r="4.22"/><circle class="ac" cx="1019.4" cy="507.94" r="3.38"/><circle class="ac" cx="947.21" cy="440.35" r="1.72"/><circle class="ac" cx="964.14" cy="647.33" r="1.53"/><circle class="ac" cx="1015.08" cy="846.45" r="4.4"/><circle class="ac" cx="1177.03" cy="1038.77" r="2.95"/><circle class="ac" cx="1777.17" cy="192.81" r="4.23"/><circle class="ac" cx="1426.9" cy="296.72" r="2.56"/><circle class="ac" cx="1291.87" cy="432.31" r="3.01"/><circle class="ac" cx="1120.32" cy="597.89" r="3.71"/><circle class="ac" cx="1051.5" cy="452.32" r="3.19"/><circle class="ac" cx="837.69" cy="566.98" r="1.97"/><circle class="ac" cx="759.34" cy="480.02" r="4.46"/><circle class="ac" cx="720.2" cy="558.47" r="1.66"/><circle class="ac" cx="497.62" cy="431.32" r="3.55"/><circle class="ac" cx="365.18" cy="528.34" r="1.53"/><circle class="ac" cx="410.79" cy="496.15" r="3.97"/><circle class="ac" cx="361.87" cy="629.77" r="2.76"/><circle class="ac" cx="445.33" cy="685.53" r="3.18"/><circle class="ac" cx="600.92" cy="652.14" r="4.21"/><circle class="ac" cx="632.95" cy="746.44" r="3.58"/><circle class="ac" cx="665.56" cy="694.16" r="2.8"/><circle class="ac" cx="722.75" cy="827.48" r="2.94"/><circle class="ac" cx="827.91" cy="879.15" r="2.52"/><circle class="ac" cx="1026.11" cy="1005.07" r="4.04"/><circle class="ac" cx="1229.89" cy="1074.56" r="3.55"/><circle class="ac" cx="1788.07" cy="95.09" r="2.66"/><circle class="ac" cx="1547.43" cy="86.8" r="2.11"/><circle class="ac" cx="1521.27" cy="48.3" r="1.64"/><circle class="ac" cx="1218.83" cy="81.2" r="1.75"/><circle class="ac" cx="987.01" cy="50.76" r="4.03"/><circle class="ac" cx="772.77" cy="107.97" r="2.35"/><circle class="ac" cx="581.19" cy="68.31" r="2.88"/><circle class="ac" cx="414.3" cy="74.1" r="2.84"/><circle class="ac" cx="197.71" cy="111.27" r="3.23"/><circle class="ac" cx="61.37" cy="717.22" r="1.9"/><circle class="ac" cx="158.43" cy="695.85" r="4.05"/><circle class="ac" cx="413.34" cy="787.59" r="1.69"/><circle class="ac" cx="473.57" cy="914.07" r="4.1"/><circle class="ac" cx="661.98" cy="907.65" r="3.47"/><circle class="ac" cx="697.8" cy="1058.52" r="3.48"/><circle class="ac" cx="1815.53" cy="585.59" r="4.31"/><circle class="ac" cx="1660.99" cy="483.14" r="2.38"/><circle class="ac" cx="1517.64" cy="367.12" r="1.72"/><circle class="ac" cx="1413.14" cy="346.74" r="4.47"/><circle class="ac" cx="1129.13" cy="331.77" r="2.23"/><circle class="ac" cx="823.39" cy="367.9" r="3.32"/><circle class="ac" cx="771.63" cy="831.32" r="3.53"/><circle class="ac" cx="1796.87" cy="1049.2" r="2"/><circle class="ac" cx="1852.54" cy="997.24" r="3.24"/><circle class="ac" cx="1880.66" cy="804.73" r="2.13"/><circle class="ac" cx="1643.8" cy="368.2" r="4.44"/><circle class="ac" cx="1393.45" cy="329.04" r="2.36"/><circle class="ac" cx="1221.72" cy="359.92" r="1.96"/><circle class="ac" cx="895.72" cy="269.56" r="3.75"/><circle class="ac" cx="681.57" cy="248.91" r="3.99"/><circle class="ac" cx="510.62" cy="352.31" r="2.65"/><circle class="ac" cx="283.7" cy="789.78" r="3.89"/><circle class="ac" cx="561.61" cy="1077.07" r="1.8"/><circle class="ac" cx="1653.13" cy="1033.71" r="3.18"/><circle class="ac" cx="1829.25" cy="956.51" r="2.92"/><circle class="ac" cx="1779.94" cy="397.36" r="4.35"/><circle class="ac" cx="1471.01" cy="373.86" r="3.66"/><circle class="ac" cx="1165.17" cy="452.52" r="4.29"/><circle class="ac" cx="1400.94" cy="949.3" r="2.79"/><circle class="ac" cx="1485.65" cy="885.16" r="3.5"/><circle class="ac" cx="1651.93" cy="780.32" r="4.22"/><circle class="ac" cx="1760.28" cy="356.18" r="3.91"/><circle class="ac" cx="1398.29" cy="194.91" r="3.34"/><circle class="ac" cx="986.36" cy="179.13" r="4.27"/><circle class="ac" cx="839.03" cy="381.64" r="3.98"/><circle class="ac" cx="1030.46" cy="826.87" r="3.45"/><circle class="ac" cx="1366.77" cy="968.62" r="2.77"/><circle class="ac" cx="1402.07" cy="837.9" r="3.8"/><circle class="ac" cx="1457.88" cy="821.64" r="2.72"/><circle class="ac" cx="1769.7" cy="770.21" r="2.87"/><circle class="ac" cx="1919.97" cy="139.18" r="2.49"/><circle class="ac" cx="1746.6" cy="180.59" r="3.32"/><circle class="ac" cx="1590.85" cy="34.59" r="1.68"/><circle class="ac" cx="1476.93" cy="116.55" r="4.16"/><circle class="ac" cx="1197.88" cy="151.81" r="4.16"/><circle class="ac" cx="1116.89" cy="192.49" r="3.83"/><circle class="ac" cx="1028.67" cy="129.1" r="2.38"/><circle class="ac" cx="899.65" cy="205.9" r="1.78"/><circle class="ac" cx="621.64" cy="169.16" r="2.65"/><circle class="ac" cx="516.55" cy="169.87" r="2.1"/><circle class="ac" cx="234.21" cy="423.97" r="4.08"/></g><g><circle class="ac" cx="1492.56" cy="862.03" r="3.74"/><circle class="ac" cx="1511.55" cy="753.53" r="3.56"/><circle class="ac" cx="1307.64" cy="891.58" r="3.64"/><circle class="ac" cx="1390.12" cy="868.85" r="1.9"/><circle class="ac" cx="1372.34" cy="803.22" r="3.64"/><circle class="ac" cx="1388.89" cy="609.49" r="2.92"/><circle class="ac" cx="1433.57" cy="424.59" r="2.21"/><circle class="ac" cx="1000.31" cy="212.34" r="1.94"/><circle class="ac" cx="943.84" cy="493.08" r="3.72"/><circle class="ac" cx="832.1" cy="521.77" r="3.53"/><circle class="ac" cx="881.51" cy="719.34" r="2.85"/><circle class="ac" cx="835.67" cy="620.88" r="1.64"/><circle class="ac" cx="731.31" cy="603.69" r="2.26"/><circle class="ac" cx="595.21" cy="552.76" r="2.04"/><circle class="ac" cx="635.56" cy="459.69" r="2.18"/><circle class="ac" cx="703.89" cy="337.29" r="3.09"/><circle class="ac" cx="811.46" cy="419.35" r="4.43"/><circle class="ac" cx="807.08" cy="397.07" r="4.04"/><circle class="ac" cx="594.77" cy="343.38" r="3.3"/><circle class="ac" cx="680.34" cy="672.22" r="4.48"/><circle class="ac" cx="967.81" cy="901.91" r="3.91"/><circle class="ac" cx="969.56" cy="1045.83" r="2.92"/><circle class="ac" cx="1142.12" cy="1081.52" r="3.49"/><circle class="ac" cx="1623.98" cy="1011.71" r="2.22"/><circle class="ac" cx="1771.8" cy="777.31" r="3.95"/><circle class="ac" cx="1803.67" cy="595.49" r="3.52"/><circle class="ac" cx="1775.77" cy="440.2" r="3.85"/><circle class="ac" cx="1645.79" cy="81.69" r="2.74"/><circle class="ac" cx="1287.24" cy="-3.02" r="4.49"/><circle class="ac" cx="1229.35" cy="131.67" r="4"/><circle class="ac" cx="1037.91" cy="149.53" r="4.49"/><circle class="ac" cx="879.55" cy="269.1" r="1.66"/><circle class="ac" cx="785.2" cy="306.95" r="4.31"/><circle class="ac" cx="641.63" cy="273.09" r="3.72"/><circle class="ac" cx="605.4" cy="183.15" r="3.52"/><circle class="ac" cx="324.28" cy="311.11" r="2.91"/><circle class="ac" cx="198.3" cy="337.88" r="2.99"/><circle class="ac" cx="158.4" cy="246.26" r="3.51"/><circle class="ac" cx="122.74" cy="264.21" r="3.26"/><circle class="ac" cx="97.61" cy="330.43" r="4.39"/><circle class="ac" cx="115.06" cy="473.36" r="2.9"/><circle class="ac" cx="283.28" cy="397.42" r="2.71"/><circle class="ac" cx="399.26" cy="419.55" r="1.89"/><circle class="ac" cx="371.71" cy="571.2" r="4.23"/><circle class="ac" cx="480.57" cy="664.57" r="4.13"/><circle class="ac" cx="575.56" cy="608.27" r="2.7"/><circle class="ac" cx="834.94" cy="850.67" r="3.34"/><circle class="ac" cx="1167.77" cy="1022.44" r="4.07"/><circle class="ac" cx="1405.75" cy="903.55" r="2.9"/><circle class="ac" cx="1555.64" cy="931.35" r="3.87"/><circle class="ac" cx="1658.07" cy="984.61" r="2.4"/><circle class="ac" cx="1908.06" cy="615.67" r="3.14"/><circle class="ac" cx="1907.13" cy="420.57" r="1.75"/><circle class="ac" cx="1911.08" cy="148.64" r="3.86"/><circle class="ac" cx="1862.9" cy="104.51" r="3.2"/><circle class="ac" cx="104.96" cy="608.56" r="3.47"/><circle class="ac" cx="159.52" cy="583.22" r="3.44"/><circle class="ac" cx="237.35" cy="613.17" r="2.77"/><circle class="ac" cx="379.91" cy="604.97" r="2.23"/><circle class="ac" cx="513.44" cy="755.79" r="2.05"/><circle class="ac" cx="676.23" cy="872.31" r="1.72"/><circle class="ac" cx="750.07" cy="1038.88" r="3.38"/><circle class="ac" cx="1134.81" cy="1051.02" r="2.06"/><circle class="ac" cx="1865.81" cy="728.56" r="3.85"/><circle class="ac" cx="1673.84" cy="419.27" r="2.48"/><circle class="ac" cx="1442.61" cy="279.71" r="4.04"/><circle class="ac" cx="1372.02" cy="256.6" r="2.38"/><circle class="ac" cx="1116.82" cy="168.76" r="1.58"/><circle class="ac" cx="855.88" cy="71.44" r="2.54"/><circle class="ac" cx="701.41" cy="135.25" r="2.12"/><circle class="ac" cx="484.59" cy="549.6" r="2.77"/><circle class="ac" cx="666.03" cy="903.25" r="2.46"/><circle class="ac" cx="863.96" cy="1018.47" r="4.46"/><circle class="ac" cx="949.67" cy="1033.02" r="1.84"/><circle class="ac" cx="1164.24" cy="970.98" r="4.19"/><circle class="ac" cx="1252.45" cy="988.13" r="3.63"/><circle class="ac" cx="1486.98" cy="859.76" r="1.78"/><circle class="ac" cx="1734.32" cy="490.24" r="3.31"/><circle class="ac" cx="1560.51" cy="197.42" r="2.94"/><circle class="ac" cx="1263.3" cy="42.15" r="3.33"/><circle class="ac" cx="994.04" cy="5.86" r="4.47"/><circle class="ac" cx="959.37" cy="8.69" r="2.33"/><circle class="ac" cx="647.79" cy="43.54" r="2.52"/><circle class="ac" cx="182.71" cy="194.61" r="3.67"/><circle class="ac" cx="130.86" cy="691.21" r="4.28"/><circle class="ac" cx="318.26" cy="925.62" r="2.37"/><circle class="ac" cx="663.82" cy="1036.78" r="1.8"/><circle class="ac" cx="754.42" cy="1054.18" r="2.66"/><circle class="ac" cx="1022.02" cy="952.16" r="2.96"/><circle class="ac" cx="1293.44" cy="928.06" r="3.66"/><circle class="ac" cx="1291.92" cy="807.92" r="2.34"/><circle class="ac" cx="1526.23" cy="414.49" r="2.32"/><circle class="ac" cx="1146.59" cy="40.84" r="3.32"/><circle class="ac" cx="942.1" cy="52.61" r="3.96"/><circle class="ac" cx="922.41" cy="192.56" r="3.74"/><circle class="ac" cx="975.65" cy="692.54" r="2.17"/><circle class="ac" cx="1287.53" cy="645.3" r="1.98"/><circle class="ac" cx="1590.6" cy="45.05" r="2.96"/><circle class="ac" cx="483.07" cy="196.41" r="3.91"/><circle class="ac" cx="706.17" cy="660.24" r="2.49"/><circle class="ac" cx="1061.8" cy="718.87" r="4.08"/><circle class="ac" cx="1152.21" cy="636.11" r="3.89"/><circle class="ac" cx="1201.68" cy="693.4" r="2.66"/><circle class="ac" cx="1366.3" cy="561.57" r="1.88"/><circle class="ac" cx="1679.97" cy="413.73" r="3.25"/></g><path class="t" d="M1632.29,192.07l227.47-129.13-225.98,131.73c-1.69,.96-3.23-1.57-1.5-2.6h0Z"/><path class="t" d="M1641.73,929.99l128.27-71.99-126.78,74.59c-1.71,.97-3.23-1.58-1.5-2.6h0Z"/><g id="p"><rect class="am" x="557" y="379" width="925" height="388" rx="74.87" ry="74.87"/><g><path class="ac" d="M705.13,211.28c8.04,0,15.31,10.99,21.66,20.67,7.74,11.21,10.83,14.51,13.92,14.51,3.4,0,6.96-3.74,15.31-16.71,9.13-13.41,13.3-18.03,17.33-18.03s6.65,3.96,6.65,9.89c0,8.14-4.79,21.55-10.36,36.72-5.88,16.49-12.53,34.96-14.39,50.57-2.78,21.55-8.51,32.54-17.33,32.54s-14.7-10.99-17.33-32.54c-1.86-14.95-8.35-29.9-14.23-43.54-6.19-14.07-11.76-27.05-11.76-38.04,0-9.46,4.18-16.05,10.52-16.05Zm2.78,52.55c5.88,13.85,12.53,29.24,14.54,44.42,2.17,19.13,6.96,29.46,14.23,30.56-5.57-2.2-9.28-11.43-11.45-28.58-2.01-15.61-8.66-31.44-14.7-45.08-6.19-14.07-11.29-25.95-11.29-35.62,0-7.26,2.94-11.65,7.43-11.65,6.65,0,12.99,9.67,19.49,19.35,8.2,12.09,11.91,15.83,16.09,15.83,4.49,0,8.66-4.4,17.63-18.03,8.51-12.75,12.22-16.71,15.01-16.71,1.7,0,2.78,.88,3.25,2.86-.15-4.18-2.01-6.82-4.79-6.82-3.4,0-7.43,4.4-15.93,17.15-8.82,13.63-12.68,17.59-16.71,17.59-3.71,0-7.12-3.52-15.16-15.39-6.5-9.46-13.3-19.79-20.42-19.79-5.26,0-8.66,5.28-8.66,13.41,0,10.11,5.26,22.43,11.45,36.5Z"/><path class="ac" d="M824.86,210.84c31.4,0,43.93,18.47,43.93,64.86s-13.46,65.08-43.93,65.08-43.31-19.35-43.31-65.08,13.61-64.86,43.31-64.86Zm-12.84,125.77c-18.25-5.5-25.83-23.31-25.83-58.71,0-42.22,12.22-60.47,40.22-60.47,23.82,0,35.73,10.55,39.45,37.38-3.4-29.68-15.78-41.34-40.99-41.34-28.77,0-41.46,19.13-41.46,62.23,0,37.16,8.51,55.85,28.62,60.91Zm20.57-36.72c15.01,0,22.28-10.77,22.28-33.2,0-19.57-4.8-29.68-15.93-32.32,9.28,3.08,13.15,12.31,13.15,30.12,0,21.55-6.65,31.44-21.04,31.44-11.76,0-18.25-5.94-20.42-19.35,1.86,16.05,8.97,23.31,21.97,23.31Zm-1.55-6.6c13.3,0,19.18-8.8,19.18-28.8s-5.26-28.58-19.18-28.58-19.34,8.8-19.34,28.58,5.57,28.8,19.34,28.8Z"/><path class="ac" d="M898.65,211.5c14.23,0,14.39,25.07,14.54,48.81,.16,21.33,.31,41.56,10.67,41.56s10.52-24.19,10.98-47.49c.62-32.1,2.63-42.88,9.13-42.88,12.38,0,19.03,27.27,19.03,74.32,0,33.42-6.5,56.51-16.55,56.51-2.48,0-4.02-.88-6.96-3.3-2.32-2.2-5.1-4.4-10.67-4.62-3.25-.22-6.19,1.32-9.44,2.64-3.71,1.76-7.74,3.74-13.46,3.74-18.25,0-27.84-23.09-27.84-66.18,0-34.08,9.28-63.11,20.57-63.11Zm3.71,126.21c-12.99-3.96-19.65-24.85-19.65-60.91,0-31.66,8.51-58.71,17.48-58.71,5.72,0,8.51,5.5,10.06,14.07-1.39-10.77-4.49-18.03-11.6-18.03-10.05,0-18.72,28.36-18.72,60.47,0,38.48,7.58,60.25,22.43,63.11Zm23.05-29.24c13,0,13.61-28.36,14.08-51.67,.62-29.68,2.32-38.7,6.03-38.7,6.19,0,10.98,10.33,13.61,29.46-2.63-21.55-7.73-33.42-15.16-33.42-4.95,0-6.65,10.33-7.27,40.46-.46,23.31-1.08,49.91-12.84,49.91-6.5,0-9.59-6.6-11.14-15.83,1.55,11.43,4.8,19.79,12.68,19.79Z"/><path class="ac" d="M1012.03,211.72c6.03,0,9.28,7.04,12.84,26.39,3.09,14.95,4.64,18.25,7.43,18.25,2.63,0,4.79-3.74,9.59-18.03,6.5-19.79,10.67-26.6,16.55-26.6s10.06,6.82,16.55,26.6c4.79,14.29,6.96,18.03,9.59,18.03,2.78,0,4.33-3.3,7.42-18.25,3.56-19.35,6.81-26.39,12.84-26.39,10.83,0,13.61,24.19,8.35,64.86-5.1,39.8-15.93,64.64-28.77,64.64-6.34,0-10.21-7.48-15.31-28.8-4.33-18.03-6.65-22.65-10.67-22.65s-6.34,4.62-10.67,22.87c-5.1,21.11-8.97,28.58-15.31,28.58-12.84,0-23.67-24.85-28.77-64.64-5.26-40.68-2.47-64.86,8.35-64.86Zm19.18,126.87c-9.75-3.74-18.41-26.17-22.89-60.69-4.95-37.82-2.48-59.59,5.26-59.59,4.18,0,5.26,5.5,8.82,23.09,2.78,13.85,4.64,21.55,11.14,21.55,4.95,0,8.2-7.04,12.68-20.45,6.03-18.25,9.44-24.19,13.77-24.19s7.12,5.94,13.15,24.19c4.49,13.41,7.27,20.45,12.22,20.45,5.57,0,8.51-7.7,11.14-21.55,3.4-17.59,5.72-23.09,9.9-23.09,3.4,0,5.88,4.4,6.96,12.31-1.08-10.33-4.02-16.27-8.51-16.27-4.95,0-7.73,6.38-11.14,24.41-3.25,16.27-5.11,20.23-9.13,20.23-3.71,0-6.19-4.18-11.29-19.35-6.19-18.91-9.9-25.29-14.85-25.29s-8.66,6.38-14.85,25.29c-5.1,15.17-7.58,19.35-11.29,19.35-4.02,0-5.88-3.96-9.13-20.23-3.4-18.03-6.19-24.41-11.14-24.41-9.13,0-11.45,23.75-6.5,61.57,4.8,37.16,14.39,60.91,25.68,62.67Zm39.6-26.83c4.79,19.35,8.2,26.39,13.15,26.83-3.4-1.76-6.34-8.58-10.36-25.29-4.02-16.49-6.81-25.07-12.68-25.73,3.56,1.76,6.19,8.14,9.9,24.19Z"/><path class="ac" d="M1166.1,210.84c31.4,0,43.93,18.47,43.93,64.86s-13.46,65.08-43.93,65.08-43.31-19.35-43.31-65.08,13.61-64.86,43.31-64.86Zm-12.84,125.77c-18.25-5.5-25.83-23.31-25.83-58.71,0-42.22,12.22-60.47,40.22-60.47,23.82,0,35.73,10.55,39.45,37.38-3.4-29.68-15.78-41.34-40.99-41.34-28.77,0-41.46,19.13-41.46,62.23,0,37.16,8.51,55.85,28.62,60.91Zm20.57-36.72c15.01,0,22.28-10.77,22.28-33.2,0-19.57-4.8-29.68-15.93-32.32,9.28,3.08,13.15,12.31,13.15,30.12,0,21.55-6.65,31.44-21.04,31.44-11.76,0-18.25-5.94-20.42-19.35,1.86,16.05,8.97,23.31,21.97,23.31Zm-1.55-6.6c13.3,0,19.18-8.8,19.18-28.8s-5.26-28.58-19.18-28.58-19.34,8.8-19.34,28.58,5.57,28.8,19.34,28.8Z"/><path class="ac" d="M1235.86,211.72c6.03,0,11.76,7.7,22.74,30.56,8.82,18.25,12.38,23.09,15.93,23.09s4.8-4.4,5.88-22.43c1.39-23.53,3.87-31.22,10.67-31.22,10.52,0,15.62,23.09,15.62,67.06s-5.72,62.45-19.34,62.45c-7.27,0-13.61-10.55-19.65-20.67-4.95-9.02-9.9-17.37-15.16-17.37-4.18,0-6.03,3.74-7.58,17.81-1.86,14.95-4.18,20.23-9.59,20.23-10.36,0-16.09-24.19-16.09-64.86,0-43.1,5.26-64.64,16.55-64.64Zm-.77,126.87c-6.65-3.3-11.14-25.07-11.14-60.03,0-40.9,4.8-60.25,13.46-60.25,4.79,0,8.97,7.26,19.34,28.58,9.13,18.91,14.23,25.07,19.34,25.07,6.5,0,8.04-9.45,8.97-26.39,1.08-20.89,2.94-27.27,7.58-27.27s8.35,7.92,10.52,23.31c-2.17-17.81-6.19-27.27-12.07-27.27-5.57,0-7.58,7.04-8.82,28.8-1.24,19.35-2.94,24.85-7.74,24.85-4.33,0-8.2-5.28-17.33-24.41-10.67-21.77-16.09-29.24-21.35-29.24-9.9,0-14.7,21.11-14.7,62.01,0,38.04,5.1,61.79,13.92,62.23Zm34.19-19.79c5.57,9.67,11.14,18.91,17.17,19.79-4.95-1.98-9.75-9.89-14.7-18.69-4.8-8.58-10.36-18.03-16.71-18.91,5.1,2.2,9.9,10.11,14.23,17.81Z"/><path class="ac" d="M1334.7,211.06c13.92,0,18.72,6.38,18.72,24.85,0,25.95-8.66,49.03-18.72,49.03s-18.72-23.09-18.72-49.03c0-18.47,4.8-24.85,18.72-24.85Zm.16,83.33c13.15,0,18.41,6.38,18.41,22.87,0,15.61-5.88,22.65-18.41,22.65-13.46,0-18.56-6.16-18.56-22.65s5.57-22.87,18.56-22.87Zm-.62-12.09c-7.12-3.3-13.61-22.87-13.61-44.2,0-16.05,3.56-20.45,15.62-20.45,9.28,0,13.61,2.64,15.01,11.21-1.08-11.43-5.72-15.17-16.55-15.17-12.84,0-16.86,5.28-16.86,22.21,0,23.53,7.73,45.52,16.4,46.39Zm-5.57,54.31c-5.72-1.98-7.73-7.04-7.73-17.15,0-13.41,4.02-18.47,15.47-18.47,9.13,0,13.46,2.86,14.85,10.99-1.08-10.99-5.72-14.95-16.4-14.95-12.07,0-16.71,5.72-16.71,20.23,0,12.09,2.78,17.81,10.52,19.35Z"/></g></g><g><polygon class="t" points="1586.26 655.49 1553 654.67 1586.27 653.88 1586.26 655.49 1586.26 655.49"/><polygon class="t" points="1587.5 653.47 1586.94 689 1585.26 653.61 1587.5 653.47 1587.5 653.47"/><polygon class="t" points="1586.63 653.41 1616 653.12 1586.94 655.04 1586.63 653.41 1586.63 653.41"/><polygon class="t" points="1585.6 653.45 1586.6 624 1587.84 653.42 1585.6 653.45 1585.6 653.45"/><polygon class="t" points="1587.1 655.25 1579.01 661.19 1585.62 653.51 1587.1 655.25 1587.1 655.25"/><polygon class="t" points="1585.55 654.37 1578.79 646.84 1587 652.6 1585.55 654.37 1585.55 654.37"/><polygon class="t" points="1586.14 652.35 1594.63 647.05 1587.5 654.2 1586.14 652.35 1586.14 652.35"/><polygon class="t" points="1588.06 653.47 1594.19 661.59 1586.48 655.12 1588.06 653.47 1588.06 653.47"/></g><g><polygon class="t" points="1110.01 912.47 1110.81 895 1112.16 912.41 1110.01 912.47 1110.01 912.47"/><polygon class="t" points="1110.89 913.76 1098.07 912.53 1110.87 910.83 1110.89 913.76 1110.89 913.76"/><polygon class="t" points="1111.17 910.85 1124 911.79 1111.23 913.77 1111.17 910.85 1111.17 910.85"/><polygon class="t" points="1112.11 912.41 1111.31 929.89 1109.96 912.48 1112.11 912.41 1112.11 912.41"/></g><g><polygon class="t" points="353.09 148.06 354.59 124.2 357.09 147.98 353.09 148.06 353.09 148.06"/><polygon class="t" points="354.74 149.82 330.89 148.14 354.68 145.82 354.74 149.82 354.74 149.82"/><polygon class="t" points="355.24 145.84 379.11 147.12 355.36 149.84 355.24 145.84 355.24 145.84"/><polygon class="t" points="356.99 147.98 355.51 171.84 352.99 148.07 356.99 147.98 356.99 147.98"/></g><g><polygon class="t" points="1855.86 338.48 1857.54 303 1860.34 338.35 1855.86 338.48 1855.86 338.48"/><polygon class="t" points="1857.7 341.1 1831 338.59 1857.64 335.15 1857.7 341.1 1857.7 341.1"/><polygon class="t" points="1858.27 335.18 1885 337.08 1858.4 341.12 1858.27 335.18 1858.27 335.18"/><polygon class="t" points="1860.23 338.36 1858.57 373.84 1855.75 338.49 1860.23 338.36 1860.23 338.36"/></g><g><polygon class="t" points="51.27 393.77 51.96 382 53.12 393.73 51.27 393.77 51.27 393.77"/><polygon class="t" points="52.03 394.64 41 393.81 52 392.66 52.03 394.64 52.03 394.64"/><polygon class="t" points="52.26 392.67 63.3 393.31 52.32 394.65 52.26 392.67 52.26 392.67"/><polygon class="t" points="53.07 393.73 52.39 405.5 51.22 393.77 53.07 393.73 53.07 393.73"/></g><g><polygon class="t" points="42.38 54.78 43.28 37 44.78 54.72 42.38 54.78 42.38 54.78"/><polygon class="t" points="43.37 56.09 29.06 54.84 43.34 53.11 43.37 56.09 43.37 56.09"/><polygon class="t" points="43.67 53.12 58 54.08 43.75 56.1 43.67 53.12 43.67 53.12"/><polygon class="t" points="44.72 54.72 43.84 72.5 42.32 54.79 44.72 54.72 44.72 54.72"/></g><g><polygon class="t" points="1066.08 61.28 1066.88 44 1068.22 61.22 1066.08 61.28 1066.08 61.28"/><polygon class="t" points="1066.96 62.55 1054.21 61.33 1066.93 59.66 1066.96 62.55 1066.96 62.55"/><polygon class="t" points="1067.23 59.67 1080 60.6 1067.3 62.57 1067.23 59.67 1067.23 59.67"/><polygon class="t" points="1068.17 61.22 1067.38 78.5 1066.03 61.29 1068.17 61.22 1068.17 61.22"/></g></g><g><ellipse class="s" cx="295.76" cy="937.74" rx="253" ry="609.5" transform="translate(-685.66 877.4) rotate(-68.98)"/><path class="ae" d="M358.05,690.93c-15.66-5.72-29.28-2.43-33,5-.66,1.32-2.06,4.87,0,11-3.92-.37-10.19-1.46-17-5-5.57-2.9-9.51-6.4-12-9-3.36-2.69-7.79-5.45-11-4-5.97,2.69-.2,16.46-6,30-7.11,16.61-29.23,27.23-46,24-9.6-1.85-15.66-7.91-19-11-12.92-11.98-35.36-26.29-77-35-23.65,24.83-45.31,37.24-55,31-2.32-1.49-6.14-5.47-6-18,1.93-22.94-9.74-39.06-21-40-8.56-.71-15.87,7.44-18,10-2.67-4-5.33-8-8-12-9.33-1.67-18.67-3.33-28-5-2.95-10.54-8.1-23.39-17-25-9.87-1.79-17.48,11.5-25,9-4.13-1.37-8.67-7.64-9-31,52.24-.02,112.64,3.52,179,14,90.55,14.3,167.63,37.64,229,61Z"/><path class="ae" d="M441.05,871.93c.81,15.26,12.13,19.06,10,34-.45,3.12-1.32,5.61-2,12-.94,8.84-1.41,13.26,0,17,2.88,7.61,9.2,6.12,17,16,3.51,4.45,7.68,9.73,7,16-.87,7.98-8.89,10.87-8,17,.54,3.7,3.99,6.32,7,8-23.09,10.3-34.1,17.97-33,23,.47,2.15,3.13,3.81,8,5,6.31,2.03,14.72,5.93,20,14,4.06,6.21,2.7,9.43,5,15,6.78,16.39,28.79,13.13,57,33,10.63,7.49,17.32,12.35,18,20,1.22,13.69-18.03,22.42-15,32,1.16,3.65,4.87,5.29,20,10,31.58,9.83,45.9,12.2,47,19,.8,4.94-6.14,7.55-5,13,1.24,5.95,10.66,8.44,19,11,0,0,17.97,5.53,39,15,11.68,5.26,25.87,18.41,35,54,20.14-1.45,49.31-5.82,82-19,32.54-13.12,56.5-30.12,72-43-9.92-10.5-11.48-18.54-11-24,.62-7.05,4.64-9.89,9-20,3.71-8.58,4.59-15.29,6-26,3.48-26.46-2.51-35.62,5-47,3.89-5.9,9.3-9.2,13-11-5.24-13.83-12.33-29.49-22-46-15.08-25.74-31.76-45.53-46-60-30.67-13-55.21-22.8-71-29-40.98-16.09-67.53-25.37-69-42-.36-4.07,.84-7.57,2-10-3.75-4.18-9.96-10.02-19-14-12.51-5.5-17.57-1.77-29-6-18.34-6.79-16.42-20.52-31-24-14.74-3.52-18.9,9.98-37,8-13.8-1.51-16.31-9.9-36-16-10.63-3.29-19.92-3.95-26-4-1.27-4.66-3.59-11.52-8-19-.89-1.5-12.62-21.14-19-19-3.08,1.04-1.75,6.11-5,17-4.86,16.27-12.46,20.47-10,28,1.77,5.41,6.03,4.26,9,10,5.11,9.88-5.82,16.62-5,32Z"/><path class="al" d="M132.56,811.33c6.4,2.07,10.06-7.72,21.28-8.06,2.08-.06,7.3-.22,11.26,3.36,4.67,4.21,2.64,9.15,6.88,12.76,4.45,3.79,12.23,3.08,17.52-.67,4.72-3.35,6.39-8.37,6.88-10.07,4.59,4.03,9.18,8.06,13.77,12.09,6.26-2.91,12.52-5.82,18.77-8.73-5.63,18.45-3.93,25.85-.63,28.87,2.73,2.5,5.98,1.5,8.13,4.7,3.44,5.09-1.84,11.99-1.25,18.8,.5,5.8,5.45,13.8,26.91,22.16,1.76,3.6,3.59,8.1,5.01,13.43,2.34,8.78,2.69,16.54,2.5,22.16-7.11,6.48-12.54,14.17-12.52,22.83,.04,15.59,17.71,21.49,24.4,41.63,4.39,13.21,2.08,26.58-1.25,36.93-4.38,3.8-8.76,7.61-13.14,11.41-6.67-8.28-13.35-16.56-20.02-24.84-5.25,2.98-13.23,6.37-22.53,5.37-16.26-1.74-22.01-15.32-37.55-18.13-6.69-1.21-16.65-.69-30.04,8.06-10.85-12.98-21.69-25.96-32.54-38.94,2.71-14.77,5.42-29.54,8.13-44.32-9.63-1.08-28.27-4.84-39.42-20.14-.93-1.27-9.8-13.68-6.26-19.47,2.17-3.55,7.45-2.09,8.76-5.37,1.83-4.59-7.81-9.14-8.13-16.79-.44-10.47,17.19-12.81,19.4-25.52,2.24-12.86-13.59-23.14-9.39-30.89,2.33-4.29,7.37-1.5,13.77-8.06,4.81-4.93,5.03-9.66,9.39-10.74,2.85-.71,6.51,.37,7.51,2.69,1.28,2.96-2.88,5.47-3.13,10.74-.24,4.99,3.08,11.33,7.51,12.76Z"/><path class="al" d="M44.95,794.24c-.07,1.63-1.06,2.04-.87,3.63,.04,.33,.12,.6,.17,1.28,.08,.94,.12,1.42,0,1.82-.25,.81-.8,.65-1.49,1.71-.31,.48-.67,1.04-.61,1.71,.08,.85,.78,1.16,.7,1.82-.05,.4-.35,.67-.61,.85,2.02,1.1,2.98,1.92,2.89,2.46-.04,.23-.27,.41-.7,.53-.55,.22-1.29,.63-1.75,1.5-.36,.66-.24,1.01-.44,1.6-.59,1.75-2.52,1.4-4.98,3.53-.93,.8-1.51,1.32-1.57,2.14-.11,1.46,1.58,2.39,1.31,3.42-.1,.39-.43,.56-1.75,1.07-2.76,1.05-4.01,1.3-4.11,2.03-.07,.53,.54,.81,.44,1.39-.11,.64-.93,.9-1.66,1.18,0,0-1.57,.59-3.41,1.6-1.02,.56-2.26,1.97-3.06,5.77-1.76-.16-4.31-.62-7.17-2.03-2.85-1.4-4.94-3.22-6.3-4.59,.87-1.12,1-1.98,.96-2.56-.05-.75-.41-1.06-.79-2.14-.32-.92-.4-1.63-.52-2.78-.3-2.83,.22-3.81-.44-5.02-.34-.63-.81-.98-1.14-1.18,.46-1.48,1.08-3.15,1.92-4.91,1.32-2.75,2.78-4.86,4.02-6.41,2.68-1.39,4.83-2.44,6.21-3.1,3.58-1.72,5.91-2.71,6.03-4.49,.03-.43-.07-.81-.17-1.07,.33-.45,.87-1.07,1.66-1.5,1.09-.59,1.54-.19,2.54-.64,1.6-.73,1.44-2.19,2.71-2.56,1.29-.38,1.65,1.07,3.24,.85,1.21-.16,1.43-1.06,3.15-1.71,.93-.35,1.74-.42,2.27-.43,.11-.5,.31-1.23,.7-2.03,.08-.16,1.1-2.26,1.66-2.03,.27,.11,.15,.65,.44,1.82,.42,1.74,1.09,2.19,.87,2.99-.15,.58-.53,.46-.79,1.07-.45,1.06,.51,1.78,.44,3.42Z"/><path class="al" d="M320.31,986.95c-1.44-.29-1.63-1.52-3.08-1.5-.3,0-.55,.06-1.17,.05-.85-.02-1.28-.03-1.62-.23-.68-.4-.45-1.04-1.27-1.98-.37-.42-.81-.93-1.42-.94-.77-.02-1.16,.78-1.73,.6-.34-.11-.54-.5-.66-.84-1.32,2.26-2.21,3.3-2.67,3.12-.2-.08-.32-.38-.36-.9-.1-.68-.35-1.61-1.04-2.27-.53-.51-.86-.41-1.35-.72-1.46-.93-.82-3.17-2.29-6.37-.55-1.21-.92-1.97-1.63-2.14-1.28-.31-2.4,1.57-3.26,1.12-.33-.17-.43-.58-.65-2.21-.47-3.41-.48-4.93-1.11-5.14-.46-.15-.81,.54-1.31,.34-.55-.21-.64-1.22-.76-2.12,0,0-.26-1.94-.85-4.25-.33-1.28-1.37-2.94-4.62-4.37,.44-2.07,1.28-5.04,3.02-8.26,1.73-3.2,3.7-5.46,5.15-6.9,.85,1.17,1.59,1.44,2.12,1.47,.68,.03,1.01-.35,2.03-.66,.87-.27,1.52-.27,2.56-.27,2.57,0,3.35,.74,4.54,.12,.62-.32,1.01-.84,1.24-1.2,1.24,.73,2.62,1.68,4.05,2.91,2.22,1.91,3.86,3.91,5.02,5.59,.78,3.36,1.35,6.04,1.71,7.77,.92,4.47,1.41,7.36,2.97,7.73,.38,.09,.73,.01,.98-.07,.34,.45,.81,1.17,1.05,2.16,.34,1.37-.09,1.85,.14,3.09,.37,2,1.71,1.98,1.82,3.54,.12,1.58-1.23,1.83-1.31,3.73-.06,1.45,.7,1.83,.99,3.96,.16,1.15,.08,2.12,0,2.75,.42,.19,1.04,.53,1.69,1.09,.13,.11,1.82,1.6,1.53,2.23-.14,.31-.61,.1-1.69,.29-1.62,.28-2.13,1.02-2.81,.66-.49-.26-.32-.68-.82-1.07-.86-.66-1.67,.38-3.12,.09Z"/><path class="al" d="M229.79,786.56c-.05,.81-.7,1.01-.58,1.81,.03,.17,.08,.3,.12,.64,.05,.47,.08,.7,0,.9-.17,.4-.53,.33-.98,.85-.2,.24-.44,.52-.4,.85,.05,.42,.51,.58,.46,.9-.03,.2-.23,.34-.4,.43,1.34,.55,1.97,.95,1.91,1.22-.03,.11-.18,.2-.46,.27-.37,.11-.85,.32-1.16,.74-.24,.33-.16,.5-.29,.8-.39,.87-1.67,.7-3.3,1.75-.61,.4-1,.66-1.04,1.06-.07,.73,1.04,1.19,.87,1.7-.07,.19-.28,.28-1.16,.53-1.83,.52-2.66,.65-2.72,1.01-.05,.26,.36,.4,.29,.69-.07,.32-.62,.45-1.1,.58,0,0-1.04,.29-2.26,.8-.68,.28-1.5,.98-2.02,2.87-1.17-.08-2.85-.31-4.74-1.01-1.88-.7-3.27-1.6-4.17-2.29,.57-.56,.66-.99,.64-1.28-.04-.37-.27-.53-.52-1.06-.21-.46-.27-.81-.35-1.38-.2-1.41,.15-1.89-.29-2.5-.23-.31-.54-.49-.75-.58,.3-.73,.71-1.57,1.27-2.44,.87-1.37,1.84-2.42,2.66-3.19,1.77-.69,3.19-1.21,4.11-1.54,2.37-.86,3.91-1.35,3.99-2.23,.02-.22-.05-.4-.12-.53,.22-.22,.58-.53,1.1-.74,.72-.29,1.02-.09,1.68-.32,1.06-.36,.95-1.09,1.79-1.28,.85-.19,1.09,.53,2.14,.43,.8-.08,.94-.53,2.08-.85,.61-.17,1.15-.21,1.5-.21,.07-.25,.21-.61,.46-1.01,.05-.08,.73-1.12,1.1-1.01,.18,.06,.1,.32,.29,.9,.28,.86,.72,1.09,.58,1.49-.1,.29-.35,.23-.52,.53-.3,.53,.34,.88,.29,1.7Z"/><path class="ae" d="M399.88,850.5c2.68,4.62,1.74,6.77,4.79,11.03,.64,.89,1.22,1.56,2.49,3.4,1.76,2.55,2.64,3.83,3.12,5.07,.98,2.53-.21,2.65,.48,6.29,.31,1.64,.67,3.59,1.92,5.4,1.59,2.3,3.28,2.45,4.28,4.36,.6,1.15,.58,2.24,.45,3.01,5.24,1.01,8.24,2.32,9,3.92,.33,.68,.25,1.42-.24,2.2-.54,1.17-1.04,3.08-.33,5.96,.55,2.22,1.34,3.05,2.03,4.92,2.03,5.49-1.76,6.48-2.2,14.92-.17,3.18-.24,5.23,1.06,7.57,2.34,4.19,6.73,5.08,8.05,8.2,.5,1.19,.27,2.01-1.06,4.77-2.77,5.75-4.41,7.73-3.32,9.86,.79,1.54,2.28,1.7,3.11,3.43,.91,1.88,0,3.47-.73,4.97,0,0-1.59,3.25-2.9,7.95-.73,2.61-.37,7.8,4.85,19.22-3.18,1.36-8.21,2.66-15.37,1.65-7.12-1.01-13.72-3.94-18.33-6.4-.49-4.02-1.74-6.55-2.81-8.14-1.38-2.05-2.49-2.54-4.98-5.16-2.11-2.23-3.47-4.15-5.64-7.22-5.36-7.58-6.18-10.84-9.35-13.57-1.65-1.41-3.04-1.91-3.9-2.12-1.78-4.59-3.63-9.9-5.26-15.68-2.54-9.02-3.76-16.41-4.35-22,2.06-6.61,3.81-11.72,4.96-14.98,2.98-8.45,5.12-13.59,2.28-18.68-.69-1.24-1.51-2.18-2.13-2.8-.22-1.58-.4-3.88,.18-5.87,.8-2.76,2.22-2.09,3.1-4.38,1.41-3.66-1.39-7.58,.08-9.92,1.49-2.37,4.57,1.29,6.83-.91,1.72-1.68,.54-4.41,2.28-7.98,.94-1.93,2.16-2.95,3.03-3.51-.67-1.5-1.6-3.75-2.33-6.38-.15-.53-2.05-7.43-.74-7.36,.64,.03,1.38,1.67,3.85,4.62,3.69,4.42,5.56,4.99,6.59,7.46,.74,1.77-.09,1.81,.53,3.78,1.07,3.4,3.9,4.44,6.6,9.1Z"/><path class="al" d="M63.28,903.89c-.87-.18-.99-.96-1.87-.94-.18,0-.34,.04-.71,.03-.52-.01-.78-.02-.98-.14-.41-.25-.27-.66-.76-1.25-.22-.27-.49-.59-.86-.59-.47,0-.71,.5-1.06,.39-.21-.07-.33-.31-.4-.53-.81,1.44-1.36,2.1-1.64,1.98-.12-.05-.19-.24-.21-.57-.06-.43-.2-1.02-.62-1.43-.32-.32-.52-.26-.82-.45-.88-.58-.49-2-1.37-4.03-.33-.76-.55-1.24-.99-1.35-.78-.19-1.46,1-1.99,.72-.2-.11-.26-.36-.39-1.4-.27-2.16-.27-3.12-.66-3.25-.28-.09-.49,.34-.8,.22-.33-.13-.39-.77-.46-1.34,0,0-.15-1.23-.5-2.69-.19-.81-.82-1.86-2.79-2.75,.27-1.31,.8-3.2,1.87-5.24,1.06-2.04,2.27-3.47,3.16-4.39,.51,.74,.96,.91,1.28,.92,.41,.02,.61-.22,1.24-.43,.53-.17,.93-.18,1.56-.18,1.56-.01,2.03,.46,2.76,.06,.38-.21,.62-.54,.76-.77,.75,.46,1.59,1.05,2.45,1.83,1.35,1.2,2.33,2.47,3.03,3.52,.46,2.13,.8,3.82,1.01,4.92,.55,2.83,.83,4.66,1.78,4.89,.23,.06,.45,0,.6-.05,.21,.28,.49,.74,.63,1.37,.2,.87-.06,1.17,.07,1.96,.22,1.26,1.03,1.25,1.1,2.24,.07,1-.75,1.16-.81,2.37-.04,.92,.42,1.16,.59,2.5,.09,.73,.04,1.34-.01,1.75,.26,.12,.63,.33,1.02,.68,.08,.07,1.1,1.01,.92,1.41-.09,.19-.37,.07-1.03,.19-.99,.19-1.3,.65-1.71,.43-.3-.16-.19-.43-.49-.68-.52-.42-1.01,.25-1.9,.07Z"/></g><g><g><path class="ak" d="M573.21,166.07c-2.49-2.18-5.94-5.44-9.62-9.8-5.69-6.73-18.67-22.11-20.16-44.5-.32-4.76-.86-14.55,3.71-25.83,4.66-11.49,11.99-18.02,13.6-19.41,3.05-2.64,12.3-10.41,26.25-11.23,3.54-.21,13.69-.66,23.2,5.6,17.13,11.28,17.47,34.65,17.54,39.24,.3,20.45-10.67,34.75-15.03,40.43-13.38,17.44-30.68,23.83-37.8,26,1,2.04,1.99,4.07,2.99,6.11-.58,.61-1.45,1.3-2.62,1.56-2.41,.53-5.15-.99-6.79-3.84l4.73-4.32Z"/><path class="af" d="M552.93,104.5c1.31-1.21,3.86-.27,4.48,1.76,.59,1.91-.67,4.36-2.42,4.33-1.27-.02-2.49-1.32-2.82-2.89-.24-1.14,0-2.49,.76-3.2Z"/><path class="af" d="M583.21,63.55c-10.61-.78-19.86,13.24-20.3,13.94-2.74,4.26-3.94,8.41-4.48,10.35-1.03,3.68-1.36,6.87-1.46,9.21,2.53-4.18,4.26-7.69,5.39-10.18,1.73-3.8,2.43-6,4.96-8.62,1.34-1.39,2.62-2.28,5.18-4.05,3.03-2.1,5.17-3.59,8.13-4.78,5.34-2.16,9.01-1.62,9.21-2.66,.2-1.02-3.05-2.93-6.63-3.2Z"/></g><g><path class="y" d="M487.96,203.39c-1.05-3.97-2.35-9.71-3.16-16.72-1.25-10.86-4.11-35.64,9.08-59.67,2.8-5.11,8.68-15.54,20.63-23.95,12.17-8.56,23.75-10.18,26.27-10.5,4.77-.59,19.08-2.16,33.51,6.67,3.66,2.24,14.07,8.81,19.44,21.84,9.67,23.45-5.3,47.68-8.25,52.45-13.1,21.2-33.41,28.27-41.47,31.08-24.76,8.63-46.18,3.18-54.7,.47-.34,2.78-.68,5.56-1.02,8.34-.98,.22-2.3,.33-3.63-.22-2.75-1.12-4.48-4.58-4.25-8.65l7.55-1.16Z"/><path class="af" d="M502.21,137.62c2.02-.69,4.36,1.67,4.06,4.27-.28,2.45-2.84,4.55-4.75,3.62-1.38-.67-2.09-2.76-1.69-4.69,.3-1.4,1.2-2.8,2.38-3.2Z"/><path class="af" d="M563.04,107.59c-11.25-6.3-28.17,4.7-29,5.26-5.07,3.38-8.39,7.43-9.92,9.32-2.91,3.6-4.82,7.01-6.06,9.58,4.79-3.4,8.39-6.45,10.84-8.66,3.74-3.38,5.56-5.49,9.61-7.14,2.15-.87,3.98-1.22,7.64-1.9,4.34-.81,7.4-1.38,11.23-1.21,6.9,.31,10.66,2.79,11.39,1.72,.71-1.05-1.93-4.85-5.72-6.98Z"/></g><g><path class="ad" d="M595.98,184.16c-1.24-2.64-2.87-6.48-4.29-11.26-2.21-7.41-7.26-24.32-.64-42.57,1.41-3.88,4.39-11.83,11.99-19.08,7.75-7.38,15.91-9.87,17.69-10.38,3.37-.97,13.5-3.74,24.98,.71,2.91,1.13,11.22,4.48,16.66,12.91,9.8,15.18,1.92,33.79,.37,37.45-6.89,16.28-20.69,23.58-26.17,26.48-16.83,8.9-32.94,7.63-39.4,6.74,.09,1.97,.18,3.95,.27,5.92-.68,.27-1.62,.5-2.65,.27-2.12-.46-3.79-2.66-4.11-5.52l5.31-1.69Z"/><path class="af" d="M596.2,130.35c1.47-.48,3.19,1.2,2.98,3.03-.2,1.73-2.06,3.2-3.46,2.54-1.01-.48-1.54-1.96-1.25-3.32,.21-.99,.86-1.97,1.73-2.25Z"/><path class="af" d="M637.67,108.85c-8.24-4.5-20.55,3.21-21.16,3.6-3.69,2.37-6.09,5.22-7.21,6.55-2.11,2.53-3.49,4.93-4.38,6.75,3.49-2.38,6.1-4.53,7.88-6.08,2.72-2.37,4.04-3.86,6.99-5.01,1.56-.61,2.9-.84,5.57-1.31,3.16-.56,5.4-.95,8.19-.81,5.04,.25,7.8,2.02,8.32,1.26,.51-.74-1.43-3.44-4.21-4.95Z"/></g><g><path class="u" d="M492.45,104.04c-1.24-2.64-2.87-6.48-4.29-11.26-2.21-7.41-7.26-24.32-.64-42.57,1.41-3.88,4.39-11.83,11.99-19.08,7.75-7.38,15.91-9.87,17.69-10.38,3.37-.97,13.5-3.74,24.98,.71,2.91,1.13,11.22,4.48,16.66,12.91,9.8,15.18,1.92,33.79,.37,37.45-6.89,16.28-20.69,23.58-26.17,26.48-16.83,8.9-32.94,7.63-39.4,6.74,.09,1.97,.18,3.95,.27,5.92-.68,.27-1.62,.5-2.65,.27-2.12-.46-3.79-2.66-4.11-5.52l5.31-1.69Z"/><path class="af" d="M502.69,52.1c1.47-.48,3.19,1.2,2.98,3.03-.2,1.73-2.06,3.2-3.46,2.54-1.01-.48-1.54-1.96-1.25-3.32,.21-.99,.86-1.97,1.73-2.25Z"/><path class="af" d="M541.28,30.79c-8.24-4.5-20.55,3.21-21.16,3.6-3.69,2.37-6.09,5.22-7.21,6.55-2.11,2.53-3.49,4.93-4.38,6.75,3.49-2.38,6.1-4.53,7.88-6.08,2.72-2.37,4.04-3.86,6.99-5.01,1.56-.61,2.9-.84,5.57-1.31,3.16-.56,5.4-.95,8.19-.81,5.04,.25,7.8,2.02,8.32,1.26,.51-.74-1.43-3.44-4.21-4.95Z"/></g><g><path class="x" d="M430.36,113.57c-1.24-2.64-2.87-6.48-4.29-11.26-2.21-7.41-7.26-24.32-.64-42.57,1.41-3.88,4.39-11.83,11.99-19.08,7.75-7.38,15.91-9.87,17.69-10.38,3.37-.97,13.5-3.74,24.98,.71,2.91,1.13,11.22,4.48,16.66,12.91,9.8,15.18,1.92,33.79,.37,37.45-6.89,16.28-20.69,23.58-26.17,26.48-16.83,8.9-32.94,7.63-39.4,6.74,.09,1.97,.18,3.95,.27,5.92-.68,.27-1.62,.5-2.65,.27-2.12-.46-3.79-2.66-4.11-5.52l5.31-1.69Z"/><path class="af" d="M437.68,58.25c1.47-.48,3.19,1.2,2.98,3.03-.2,1.73-2.06,3.2-3.46,2.54-1.01-.48-1.54-1.96-1.25-3.32,.21-.99,.86-1.97,1.73-2.25Z"/><path class="af" d="M476.27,36.94c-8.24-4.5-20.55,3.21-21.16,3.6-3.69,2.37-6.09,5.22-7.21,6.55-2.11,2.53-3.49,4.93-4.38,6.75,3.49-2.38,6.1-4.53,7.88-6.08,2.72-2.37,4.04-3.86,6.99-5.01,1.56-.61,2.9-.84,5.57-1.31,3.16-.56,5.4-.95,8.19-.81,5.04,.25,7.8,2.02,8.32,1.26,.51-.74-1.43-3.44-4.21-4.95Z"/></g><g><path class="ak" d="M482.26,178.57c-2.47-1.54-5.91-3.88-9.7-7.11-5.86-5.01-19.23-16.45-23.48-35.34-.91-4.02-2.67-12.29-.15-22.5,2.56-10.39,8.11-16.9,9.34-18.3,2.32-2.64,9.38-10.46,21.47-12.95,3.07-.63,11.88-2.33,21.02,1.79,16.46,7.41,19.83,27.29,20.5,31.2,2.95,17.39-4.76,31-7.82,36.4-9.41,16.59-23.69,24.26-29.63,27.03,1.14,1.61,2.28,3.21,3.42,4.82-.43,.6-1.1,1.3-2.09,1.66-2.04,.76-4.63-.18-6.44-2.4l3.57-4.29Z"/><path class="af" d="M456.43,128.69c.98-1.2,3.34-.73,4.15,.93,.77,1.56-.01,3.8-1.55,4-1.11,.15-2.35-.81-2.84-2.1-.36-.95-.33-2.12,.24-2.83Z"/><path class="af" d="M477.51,89.89c-9.38,.7-15.62,13.84-15.92,14.5-1.84,3.99-2.33,7.68-2.55,9.4-.42,3.27-.29,6.03-.06,8.03,1.66-3.89,2.71-7.1,3.37-9.37,1.02-3.46,1.33-5.42,3.2-7.99,.99-1.36,1.99-2.28,4-4.12,2.37-2.18,4.05-3.72,6.48-5.12,4.39-2.53,7.67-2.54,7.71-3.45,.04-.9-3.06-2.11-6.22-1.87Z"/></g><g><path class="x" d="M567.64,222.12c-1.01-2.73-2.32-6.7-3.35-11.59-1.59-7.57-5.22-24.85,2.88-42.5,1.72-3.76,5.35-11.43,13.53-18.02,8.33-6.71,16.66-8.51,18.48-8.88,3.43-.69,13.76-2.6,24.82,2.79,2.81,1.37,10.8,5.4,15.53,14.26,8.51,15.95-.88,33.85-2.73,37.37-8.22,15.66-22.56,21.79-28.26,24.22-17.5,7.47-33.44,4.86-39.81,3.44-.07,1.98-.15,3.95-.22,5.93-.7,.21-1.66,.36-2.66,.05-2.07-.64-3.55-2.97-3.64-5.85l5.42-1.24Z"/><path class="af" d="M579.51,167.57c1.5-.35,3.08,1.46,2.72,3.27-.34,1.71-2.31,3.02-3.65,2.24-.97-.56-1.37-2.08-.97-3.41,.29-.97,1.02-1.89,1.91-2.1Z"/><path class="af" d="M619.71,149.54c-7.84-5.17-20.74,1.49-21.37,1.83-3.87,2.06-6.5,4.69-7.72,5.93-2.31,2.35-3.89,4.63-4.92,6.36,3.67-2.09,6.45-4,8.35-5.4,2.9-2.14,4.34-3.51,7.38-4.41,1.61-.48,2.96-.6,5.66-.84,3.2-.29,5.46-.5,8.23-.13,5,.67,7.6,2.66,8.18,1.95,.57-.69-1.14-3.55-3.78-5.29Z"/></g><g><path class="u" d="M517.54,231.39c-.79-1.77-1.82-4.36-2.73-7.58-1.39-4.99-4.58-16.38-.21-28.73,.93-2.63,2.9-8,7.86-12.93,5.05-5.02,10.34-6.74,11.5-7.09,2.18-.67,8.76-2.59,16.16,.36,1.88,.75,7.24,2.97,10.72,8.64,6.27,10.2,1.08,22.8,.06,25.28-4.54,11.02-13.51,16.02-17.07,18-10.93,6.09-21.35,5.3-25.54,4.74,.05,1.33,.1,2.66,.15,4-.44,.19-1.05,.34-1.71,.2-1.37-.3-2.44-1.78-2.63-3.71l3.44-1.16Z"/><path class="af" d="M524.41,196.29c.95-.33,2.06,.79,1.91,2.03-.14,1.17-1.35,2.17-2.25,1.73-.65-.32-.99-1.31-.79-2.23,.14-.67,.57-1.34,1.13-1.53Z"/><path class="af" d="M549.49,181.72c-5.31-3-13.32,2.27-13.71,2.53-2.4,1.62-3.97,3.55-4.7,4.46-1.38,1.72-2.28,3.35-2.87,4.58,2.27-1.63,3.97-3.08,5.13-4.14,1.77-1.62,2.63-2.62,4.55-3.41,1.01-.42,1.88-.58,3.61-.91,2.05-.39,3.5-.67,5.31-.59,3.26,.14,5.04,1.33,5.38,.81,.34-.5-.91-2.31-2.7-3.32Z"/></g><g><path class="ak" d="M554.57,305.72c-2.09-3.88-4.86-9.53-7.33-16.55-3.82-10.86-12.54-35.67-2.32-62.09,2.18-5.62,6.79-17.12,18.97-27.47,12.4-10.54,25.61-13.93,28.5-14.62,5.45-1.32,21.88-5.06,40.7,1.77,4.78,1.73,18.4,6.86,27.52,19.31,16.42,22.42,4.14,49.33,1.72,54.62-10.74,23.54-33,33.79-41.84,37.85-27.14,12.49-53.41,10.16-63.97,8.68,.2,2.88,.41,5.76,.61,8.65-1.1,.38-2.62,.68-4.3,.32-3.46-.73-6.25-3.99-6.85-8.17l8.59-2.31Z"/><path class="af" d="M561.4,224.06c2.38-.65,5.23,1.84,4.94,4.51-.27,2.52-3.26,4.61-5.55,3.6-1.66-.73-2.56-2.9-2.14-4.88,.31-1.44,1.35-2.85,2.74-3.23Z"/><path class="af" d="M623.6,194.1c-13.56-6.8-33.37,4.09-34.35,4.63-5.93,3.35-9.77,7.43-11.54,9.34-3.36,3.63-5.54,7.09-6.94,9.71,5.61-3.37,9.8-6.42,12.65-8.64,4.36-3.38,6.46-5.51,11.23-7.1,2.53-.84,4.7-1.15,9.03-1.75,5.13-.72,8.77-1.23,13.32-.94,8.21,.51,12.76,3.17,13.59,2.09,.81-1.06-2.43-5.05-7-7.35Z"/></g><g><path class="ad" d="M457.38,243.9c-1.24-2.64-2.87-6.48-4.29-11.26-2.21-7.41-7.26-24.32-.64-42.57,1.41-3.88,4.39-11.83,11.99-19.08,7.75-7.38,15.91-9.87,17.69-10.38,3.37-.97,13.5-3.74,24.98,.71,2.91,1.13,11.22,4.48,16.66,12.91,9.8,15.18,1.92,33.79,.37,37.45-6.89,16.28-20.69,23.58-26.17,26.48-16.83,8.9-32.94,7.63-39.4,6.74,.09,1.97,.18,3.95,.27,5.92-.68,.27-1.62,.5-2.65,.27-2.12-.46-3.79-2.66-4.11-5.52l5.31-1.69Z"/><path class="af" d="M457.6,190.1c1.47-.48,3.19,1.2,2.98,3.03-.2,1.73-2.06,3.2-3.46,2.54-1.01-.48-1.54-1.96-1.25-3.32,.21-.99,.86-1.97,1.73-2.25Z"/><path class="af" d="M499.07,168.6c-8.24-4.5-20.55,3.21-21.16,3.6-3.69,2.37-6.09,5.22-7.21,6.55-2.11,2.53-3.49,4.93-4.38,6.75,3.49-2.38,6.1-4.53,7.88-6.08,2.72-2.37,4.04-3.86,6.99-5.01,1.56-.61,2.9-.84,5.57-1.31,3.16-.56,5.4-.95,8.19-.81,5.04,.25,7.8,2.02,8.32,1.26,.51-.74-1.43-3.44-4.21-4.95Z"/></g><g><path class="y" d="M444.34,192.31c-4.16-.86-10.07-2.32-16.91-4.8-10.57-3.84-34.72-12.61-50.14-35.59-3.28-4.89-9.9-15-11.63-29.7-1.76-14.97,2.55-26.23,3.52-28.66,1.84-4.6,7.56-18.31,22.87-27.36,3.89-2.3,15.11-8.74,29.74-7.64,26.33,1.97,41.04,26.67,43.94,31.53,12.87,21.61,9.2,43.29,7.74,51.9-4.48,26.43-20.18,43.38-26.92,49.87,2.38,1.58,4.76,3.17,7.13,4.75-.28,.99-.85,2.24-2.02,3.2-2.4,1.98-6.44,1.97-10.05-.11l2.72-7.38Z"/><path class="af" d="M391.2,149.22c.38-2.15,3.71-3.19,5.94-1.73,2.1,1.38,2.74,4.66,.94,5.97-1.3,.95-3.57,.63-5.14-.62-1.14-.91-1.96-2.37-1.74-3.63Z"/><path class="af" d="M394.1,80.24c-11.4,7.33-9.78,27.73-9.69,28.74,.56,6.15,2.61,11.02,3.58,13.28,1.84,4.3,4.01,7.59,5.75,9.89-.72-5.91-1.72-10.57-2.52-13.81-1.23-4.95-2.25-7.57-1.73-12,.27-2.35,.87-4.17,2.08-7.81,1.43-4.31,2.43-7.35,4.5-10.75,3.73-6.12,7.89-8.4,7.27-9.55-.61-1.12-5.41-.48-9.26,2Z"/></g><g><path class="u" d="M540.92,347.9c-.34-2.9-.67-7.07-.51-12.07,.24-7.74,.8-25.41,12.83-40.66,2.56-3.24,7.89-9.84,17.38-14.32,9.67-4.55,18.18-4.32,20.02-4.24,3.49,.15,13.97,.74,23.43,8.62,2.4,2,9.2,7.82,11.7,17.57,4.49,17.54-8.85,32.72-11.47,35.71-11.67,13.28-27.04,15.83-33.14,16.85-18.74,3.11-33.59-3.22-39.44-6.12-.54,1.9-1.08,3.81-1.62,5.71-.73,.04-1.69-.04-2.59-.58-1.86-1.11-2.74-3.73-2.15-6.55l5.56,.08Z"/><path class="af" d="M567.01,301.79c1.54,.01,2.64,2.15,1.86,3.83-.73,1.58-2.96,2.39-4.07,1.31-.81-.78-.84-2.35-.14-3.55,.51-.88,1.44-1.6,2.35-1.59Z"/><path class="af" d="M610.27,293.81c-6.39-6.89-20.47-3.48-21.17-3.3-4.24,1.08-7.42,3.02-8.89,3.93-2.8,1.74-4.86,3.58-6.28,5.02,4.05-1.16,7.2-2.36,9.38-3.27,3.32-1.39,5.04-2.38,8.2-2.54,1.67-.08,3.01,.12,5.69,.52,3.17,.48,5.41,.82,8.01,1.83,4.69,1.84,6.74,4.4,7.48,3.85,.72-.54-.27-3.72-2.42-6.04Z"/></g><g><path class="x" d="M389.11,261.57c-1.49-3.19-3.45-7.83-5.17-13.62-2.66-8.95-8.73-29.4-.75-51.47,1.7-4.7,5.3-14.3,14.47-23.07,9.34-8.93,19.18-11.94,21.33-12.56,4.06-1.18,16.28-4.53,30.11,.85,3.51,1.37,13.52,5.41,20.08,15.6,11.81,18.35,2.3,40.86,.43,45.28-8.32,19.69-24.96,28.53-31.57,32.04-20.29,10.78-39.71,9.24-47.5,8.18,.11,2.39,.21,4.78,.32,7.16-.82,.33-1.95,.6-3.19,.33-2.55-.56-4.56-3.22-4.95-6.67l6.4-2.04Z"/><path class="af" d="M397.97,194.68c1.77-.58,3.84,1.45,3.59,3.66-.24,2.09-2.48,3.87-4.17,3.07-1.22-.58-1.85-2.37-1.51-4.01,.25-1.2,1.04-2.39,2.08-2.72Z"/><path class="af" d="M444.5,168.88c-9.93-5.43-24.78,3.9-25.51,4.37-4.45,2.87-7.35,6.31-8.69,7.92-2.55,3.07-4.21,5.96-5.29,8.16,4.2-2.88,7.36-5.48,9.5-7.36,3.28-2.87,4.87-4.67,8.43-6.06,1.89-.74,3.5-1.02,6.72-1.59,3.81-.67,6.51-1.15,9.88-.99,6.07,.3,9.4,2.44,10.03,1.52,.62-.89-1.72-4.15-5.07-5.99Z"/></g><g><path class="ak" d="M371.53,228.6c-2.67-1.14-6.44-2.91-10.68-5.52-6.56-4.04-21.54-13.26-28.65-31.26-1.51-3.83-4.53-11.72-3.61-22.19,.94-10.65,5.43-17.94,6.42-19.51,1.89-2.97,7.67-11.78,19.25-16.11,2.94-1.1,11.39-4.13,21.06-1.48,17.41,4.77,23.8,23.87,25.06,27.63,5.59,16.71,.05,31.34-2.15,37.15-6.75,17.83-19.7,27.61-25.15,31.26,1.37,1.41,2.75,2.82,4.12,4.23-.33,.65-.89,1.45-1.81,1.97-1.9,1.07-4.61,.54-6.74-1.37l2.87-4.79Z"/><path class="af" d="M338.33,183.36c.79-1.34,3.19-1.23,4.24,.27,1,1.42,.57,3.75-.92,4.19-1.08,.32-2.45-.43-3.14-1.64-.5-.88-.66-2.04-.19-2.83Z"/><path class="af" d="M353.22,141.79c-9.17,2.14-13.32,16.08-13.52,16.77-1.2,4.22-1.13,7.94-1.08,9.68,.09,3.29,.64,6,1.17,7.94,1.04-4.1,1.59-7.43,1.9-9.77,.47-3.58,.48-5.56,1.94-8.38,.77-1.49,1.62-2.56,3.32-4.69,2.01-2.52,3.43-4.3,5.62-6.06,3.95-3.17,7.19-3.69,7.09-4.6-.1-.89-3.35-1.61-6.44-.89Z"/></g><g><path class="y" d="M471.38,312.25c-.82-3.46-1.83-8.48-2.42-14.61-.91-9.5-3-31.17,8.03-52.34,2.35-4.5,7.26-13.69,17.12-21.17,10.04-7.62,19.54-9.15,21.6-9.45,3.91-.57,15.64-2.08,27.36,5.52,2.98,1.93,11.43,7.58,15.69,18.93,7.68,20.44-4.82,41.81-7.27,46.01-10.93,18.69-27.62,25.08-34.25,27.62-20.35,7.8-37.83,3.24-44.77,.95-.31,2.44-.61,4.88-.92,7.32-.8,.21-1.89,.31-2.97-.16-2.24-.96-3.62-3.97-3.39-7.53l6.19-1.09Z"/><path class="af" d="M483.71,254.52c1.66-.62,3.55,1.42,3.28,3.7-.26,2.15-2.37,4.01-3.93,3.22-1.12-.57-1.68-2.4-1.33-4.09,.26-1.23,1.01-2.46,1.98-2.83Z"/><path class="af" d="M533.79,227.63c-9.15-5.41-23.1,4.4-23.79,4.89-4.18,3.01-6.94,6.59-8.21,8.26-2.42,3.18-4.02,6.18-5.05,8.45,3.96-3.02,6.93-5.73,8.96-7.69,3.1-3,4.61-4.86,7.94-6.34,1.77-.79,3.27-1.1,6.27-1.74,3.56-.75,6.07-1.28,9.2-1.17,5.64,.2,8.7,2.34,9.3,1.4,.59-.92-1.53-4.23-4.61-6.05Z"/></g><g><path class="ad" d="M441.13,381.94c-.34-4.41-.59-10.72-.03-18.22,.87-11.61,2.84-38.13,22.34-59.51,4.15-4.55,12.78-13.79,27.7-19.29,15.19-5.6,28.3-4.15,31.14-3.79,5.38,.67,21.49,2.92,35.58,16,3.58,3.32,13.7,12.96,16.93,27.94,5.82,26.97-15.71,48.08-19.94,52.23-18.83,18.47-42.69,20.32-52.16,21.06-29.09,2.26-51.59-9.19-60.42-14.3-.95,2.8-1.9,5.59-2.85,8.39-1.13-.03-2.61-.28-3.96-1.21-2.8-1.91-4-5.97-2.9-10.13l8.56,.84Z"/><path class="af" d="M470.86,307.36c2.38,.22,3.94,3.58,2.63,6-1.23,2.28-4.71,3.21-6.36,1.45-1.19-1.27-1.14-3.64,.01-5.36,.84-1.25,2.32-2.22,3.72-2.09Z"/><path class="af" d="M542.33,302.4c-9.41-11.2-31.35-7.88-32.43-7.71-6.6,1.08-11.63,3.58-13.96,4.77-4.43,2.25-7.72,4.75-10,6.74,6.32-1.22,11.26-2.62,14.67-3.71,5.21-1.66,7.92-2.93,12.8-2.75,2.58,.09,4.64,.57,8.74,1.52,4.86,1.13,8.29,1.93,12.24,3.79,7.12,3.37,10.12,7.48,11.29,6.75,1.14-.72-.18-5.63-3.35-9.41Z"/></g><g><path d="M353.08,463.53l-.74-1.86c11.77-6.09,20.58-14.28,26.19-24.34,5.78-10.37,8.32-22.96,10.77-35.13,.94-4.67,1.53-8.4,1.99-11.39,1.03-6.55,1.65-10.51,4.59-15.45,4.42-7.42,11.57-12.95,21.26-16.44l.52,1.95c-9.25,3.34-16.06,8.57-20.23,15.57-2.72,4.57-3.28,8.14-4.3,14.64-.47,3.01-1.06,6.77-2.01,11.48-2.49,12.35-5.06,25.12-11.02,35.79-5.82,10.43-14.91,18.9-27.03,25.17Z"/><path d="M340.8,465.23l.16-2.06c14.45,.74,28.82-2.6,42.71-9.92,14.33-7.55,28.4-19.43,42.01-30.92,5.21-4.4,9.24-8.01,12.48-10.91,7.24-6.48,11.22-10.05,17.98-13.42,10.26-5.13,20.7-6.59,31.03-4.39l-.42,2.02c-9.95-2.14-20-.71-29.89,4.24-6.53,3.26-10.44,6.77-17.55,13.13-3.25,2.91-7.29,6.53-12.53,10.95-13.69,11.56-27.84,23.51-42.35,31.15-14.18,7.47-28.86,10.87-43.62,10.12Z"/><path d="M354.44,460.25l.21-2.05c12.74,1.08,23.92-1.33,33.23-7.16,9.6-6.01,17.45-15.76,25.05-25.2,2.91-3.62,5.09-6.6,6.85-8.99,3.84-5.24,6.16-8.4,10.89-11.16,7.11-4.14,15.68-5.1,25.47-2.88l-.44,2.02c-9.35-2.13-17.5-1.23-24.2,2.67-4.37,2.55-6.47,5.41-10.27,10.6-1.77,2.41-3.96,5.41-6.91,9.07-7.7,9.57-15.66,19.46-25.55,25.65-9.65,6.04-21.2,8.54-34.32,7.43Z"/><path d="M355.01,462.34c2.33-21.95,8.34-39.17,17.87-51.16,9.79-12.32,23.29-19.24,36.35-25.93,4.99-2.56,9.02-4.3,12.27-5.7,6.98-3.02,10.83-4.68,14.95-10.25,6.36-8.6,9.65-21.42,9.78-38.12l1.87-.06c-.14,17.19-3.58,30.46-10.22,39.44-4.45,6.02-8.7,7.85-15.76,10.9-3.22,1.39-7.22,3.12-12.16,5.65-12.88,6.6-26.19,13.42-35.7,25.39-9.26,11.66-15.11,28.48-17.4,50l-1.86-.16Z"/><path d="M356.03,460.74l-1.37-1.34c7.8-9.58,12.28-18.96,13.33-27.88,1.07-9.15-1.44-18.09-3.87-26.73-.93-3.32-1.82-5.88-2.54-7.94-1.59-4.59-2.55-7.37-1.86-11.96,1.02-6.8,5.1-13.8,12.12-20.78l1.22,1.5c-6.68,6.65-10.54,13.23-11.5,19.54-.61,4.05,.23,6.48,1.76,10.91,.72,2.09,1.62,4.69,2.57,8.06,2.49,8.85,5.07,18,3.94,27.59-1.1,9.35-5.75,19.11-13.81,29.03Z"/><path d="M343.36,466.56l-.21-2.04c12.74-2.1,23.24-7.18,31.22-15.1,8.22-8.17,13.96-19.53,19.51-30.52,2.13-4.21,3.67-7.63,4.91-10.37,2.71-6.01,4.35-9.64,8.44-13.47,6.15-5.75,14.38-8.8,24.46-9.05l-.03,2.06c-9.63,.24-17.46,3.12-23.25,8.54-3.78,3.54-5.26,6.82-7.95,12.78-1.25,2.76-2.8,6.2-4.95,10.46-5.63,11.14-11.45,22.66-19.92,31.07-8.27,8.22-19.11,13.47-32.24,15.63Z"/></g><g><path class="x" d="M455.66,401.11c-1.24-2.64-2.87-6.48-4.29-11.26-2.21-7.41-7.26-24.32-.64-42.57,1.41-3.88,4.39-11.83,11.99-19.08,7.75-7.38,15.91-9.87,17.69-10.38,3.37-.97,13.5-3.74,24.98,.71,2.91,1.13,11.22,4.48,16.66,12.91,9.8,15.18,1.92,33.79,.37,37.45-6.89,16.28-20.69,23.58-26.17,26.48-16.83,8.9-32.94,7.63-39.4,6.74,.09,1.97,.18,3.95,.27,5.92-.68,.27-1.62,.5-2.65,.27-2.12-.46-3.79-2.66-4.11-5.52l5.31-1.69Z"/><path class="af" d="M462.98,345.79c1.47-.48,3.19,1.2,2.98,3.03-.2,1.73-2.06,3.2-3.46,2.54-1.01-.48-1.54-1.96-1.25-3.32,.21-.99,.86-1.97,1.73-2.25Z"/><path class="af" d="M501.57,324.48c-8.24-4.5-20.55,3.21-21.16,3.6-3.69,2.37-6.09,5.22-7.21,6.55-2.11,2.53-3.49,4.93-4.38,6.75,3.49-2.38,6.1-4.53,7.88-6.08,2.72-2.37,4.04-3.86,6.99-5.01,1.56-.61,2.9-.84,5.57-1.31,3.16-.56,5.4-.95,8.19-.81,5.04,.25,7.8,2.02,8.32,1.26,.51-.74-1.43-3.44-4.21-4.95Z"/></g><g><path class="ak" d="M448.77,326.13c-2.16-2.53-5.11-6.25-8.1-11.03-4.62-7.4-15.18-24.28-12.73-45.35,.52-4.48,1.71-13.67,8.4-23.21,6.82-9.71,15.49-14.29,17.39-15.25,3.59-1.83,14.45-7.17,28.88-5.11,3.66,.52,14.14,2.15,22.76,9.88,15.53,13.92,11.72,35.66,10.97,39.94-3.33,19.02-17.12,30.07-22.59,34.46-16.81,13.47-35.67,15.89-43.34,16.47,.66,2.09,1.32,4.18,1.98,6.27-.7,.45-1.72,.91-2.96,.91-2.56,0-5.1-1.95-6.27-4.93l5.62-3.05Z"/><path class="af" d="M438.96,264.93c1.55-.86,4,.53,4.27,2.54,.26,1.89-1.46,3.9-3.25,3.53-1.3-.27-2.32-1.73-2.37-3.25-.04-1.11,.44-2.31,1.35-2.81Z"/><path class="af" d="M477.26,233.09c-10.73-2.87-22.69,8.26-23.28,8.82-3.57,3.4-5.53,7.01-6.43,8.69-1.71,3.2-2.62,6.09-3.13,8.24,3.33-3.37,5.73-6.27,7.33-8.35,2.45-3.18,3.55-5.07,6.62-6.99,1.62-1.02,3.09-1.58,6.03-2.71,3.47-1.34,5.93-2.28,9.18-2.79,5.85-.92,9.52,.32,9.91-.61,.38-.91-2.61-3.34-6.23-4.31Z"/></g><g><path class="y" d="M417.92,372.46c-2.35-1.28-5.64-3.23-9.27-6.01-5.62-4.3-18.44-14.12-22.84-31.62-.94-3.72-2.77-11.39-.61-21.19,2.2-9.98,7.28-16.51,8.41-17.91,2.13-2.65,8.62-10.53,19.94-13.74,2.88-.82,11.14-3.04,19.83,.18,15.65,5.81,19.24,24.3,19.94,27.93,3.14,16.18-3.84,29.55-6.61,34.86-8.51,16.31-21.8,24.56-27.33,27.59,1.11,1.43,2.21,2.87,3.32,4.3-.39,.59-1.01,1.3-1.93,1.72-1.9,.86-4.36,.16-6.11-1.8l3.27-4.3Z"/><path class="af" d="M394.89,335.48c.7-1.32,2.96-1.42,4-.09,.98,1.25,.66,3.49-.73,4.02-1,.39-2.32-.21-3-1.28-.5-.79-.68-1.87-.27-2.65Z"/><path class="af" d="M411.72,291.41c-8.56,2.77-12.03,16.23-12.19,16.9-1,4.07-.81,7.57-.71,9.2,.19,3.09,.79,5.59,1.35,7.38,.85-3.94,1.26-7.13,1.48-9.36,.33-3.41,.28-5.27,1.56-8.05,.68-1.47,1.44-2.54,2.97-4.69,1.81-2.54,3.09-4.33,5.1-6.17,3.62-3.31,6.65-4.07,6.53-4.92-.12-.83-3.2-1.24-6.09-.3Z"/></g><g><path class="u" d="M369.27,361.2c-3.69-2.62-8.83-6.56-14.44-11.94-8.69-8.33-28.53-27.34-34.1-57.24-1.18-6.36-3.47-19.45,.87-35.19,4.42-16.03,13.21-25.74,15.15-27.81,3.67-3.93,14.84-15.56,33.4-18.43,4.71-.73,18.25-2.63,31.99,4.58,24.75,12.98,28.92,44.34,29.74,50.5,3.65,27.43-8.79,48.05-13.73,56.24-15.17,25.14-37.35,35.92-46.55,39.74,1.66,2.61,3.32,5.22,4.98,7.83-.68,.9-1.74,1.93-3.26,2.43-3.14,1.02-7.06-.67-9.71-4.3l5.66-6.41Z"/><path class="af" d="M342.16,282.81c1.56-1.79,5.13-.85,6.29,1.8,1.09,2.5-.21,5.94-2.56,6.13-1.7,.14-3.55-1.46-4.24-3.53-.5-1.51-.4-3.35,.51-4.4Z"/><path class="af" d="M376.25,223.94c-14.35,.3-24.52,20.31-25.01,21.31-3,6.08-3.94,11.81-4.36,14.48-.8,5.08-.74,9.4-.49,12.55,2.72-5.94,4.49-10.87,5.61-14.36,1.72-5.33,2.3-8.37,5.28-12.22,1.58-2.04,3.15-3.4,6.3-6.11,3.72-3.21,6.36-5.48,10.14-7.46,6.82-3.58,11.83-3.32,11.93-4.75,.1-1.4-4.56-3.55-9.4-3.45Z"/></g><path class="ag" d="M153.35,550.51c-1.66,3.04-3,6.27-5.69,12.73-6.72,16.14-6.45,19.87-6.12,21.91,.23,1.42,1.53,8.34,7.79,12.88,6.2,4.5,13.05,3.6,14.72,3.35,10.12-1.49,15.74-10.15,16.81-11.8,3.12-4.8,1.6-5.85,6.8-16.71,.62-1.29,2.51-5.18,5.61-9.89,3.97-6.03,6.02-9.06,9.1-9.64,2.83-.53,3.47,1.33,9.91,2.74,5.68,1.24,7.24,.24,8.11,1.52,1.81,2.64-4.03,7.98-10.56,19.97-3.23,5.94-5.64,10.45-6.8,16.71-1.08,5.83-2.56,13.83,2.26,19.93,5.08,6.42,14.88,7.85,21.99,5.36,7.53-2.64,11.31-9.42,13.88-14.04,4.44-7.97,2.36-10.65,7.54-19.37,2.85-4.79,3.67-4.3,8.15-11.34,4.17-6.56,6.29-9.96,6.91-14.54,0,0,.89-6.62-3.08-14.44-9.71-19.12-61.83-38.66-88.02-18.58-4.35,3.33-12.92,11.54-19.31,23.27Z"/><g><path class="w" d="M342.94,446.34c.15,1.01,1.51,1.48,1.7,1.54,1.73,.59,3.46-.82,4.27-2.75,.47-1.13,.89-3.05,.38-3.7-.47-.61-1.51,.12-2.97,1.13-1.63,1.13-3.57,2.48-3.38,3.78Z"/><path class="w" d="M358.44,463.45c-.13,1.02,1.05,1.84,1.21,1.95,1.5,1.04,3.54,.16,4.84-1.48,.76-.96,1.67-2.69,1.37-3.47-.28-.71-1.48-.3-3.16,.28-1.87,.65-4.1,1.41-4.26,2.72Z"/><path class="w" d="M356.37,454.86c-.13,1.02,1.05,1.84,1.21,1.95,1.5,1.04,3.54,.16,4.84-1.48,.76-.96,1.67-2.69,1.37-3.47-.28-.71-1.48-.3-3.16,.28-1.87,.65-4.1,1.41-4.26,2.72Z"/><path class="w" d="M351.43,448.83c-.13,1.02,1.05,1.84,1.21,1.95,1.5,1.04,3.54,.16,4.84-1.48,.76-.96,1.67-2.69,1.37-3.47-.28-.71-1.48-.3-3.16,.28-1.87,.65-4.1,1.41-4.26,2.72Z"/></g><path class="w" d="M296.52,335.55c.2-1.16,.15-2.7,.79-5.91,.9-4.52,1.91-6.14,1.06-8.35-.49-1.27-1.59-3.02-3.16-3.23-1.19-.17-2,.63-4.69,2.93,0,0-3.38,2.9-7.45,5.91-2.86,2.12-3.8,2.55-4.98,2.66-.37,.03-2.95,.22-4.68-1.49-.98-.97-1.09-1.96-1.68-4.49-.99-4.23-1.48-6.35-2.32-7.61-1.43-2.17-4.41-4.3-7.3-3.88-2.9,.42-4.59,3.26-6.36,6.19-3.76,6.27-3.58,11.44-5.53,11.63-.57,.05-.73-.37-3.43-3.15-3.28-3.39-3.72-3.47-4.88-5.06-1.07-1.46-.84-1.59-2.73-5.17-2.2-4.18-3.35-6.28-4.77-7.25-2.01-1.38-5.13-2.04-7.53-.89-2.31,1.11-2.65,3.28-4.94,8.57-3.93,9.08-5.07,7.65-5.63,11.35-.45,3.02-.57,10.37,.62,14.39,.09,.3,.4,1.3,.05,1.54-.61,.42-2.85-1.88-3.36-2.4-1.7-1.74-2.81-3.39-5.09-7.14-2.51-4.14-2.7-4.68-3.83-5.82-1.34-1.34-3.37-3.37-5.56-3.06-2.42,.34-3.77,3.36-4.99,6.08-.61,1.37-2.27,5.36-2.63,13.92-.21,4.97-.29,7.96,.59,12.04,.87,4.03,2.19,6.65,1.06,7.63-.59,.52-1.51,.27-5.16-.95-7.16-2.39-7.33-2.66-8.87-2.83-2.79-.3-4.96,.3-8.26,1.22-4,1.12-6.01,1.68-6.79,2.82-3.49,5.12,5.83,18.96,6.6,20.09,1.65,2.42,3.69,4.96,2.85,6.28-.35,.55-1.09,.72-4.93,.6-5.26-.15-6.86-.56-10.13-.46-1.61,.05-2.95,.25-5.64,.63-5.41,.78-8.12,1.13-8.81,2.03-2.06,2.7,1.48,8.89,4.29,13.82,3.95,6.92,7.31,9.78,6.15,12.84-.61,1.6-2.12,2.37-3.5,3.07-4.67,2.36-8.44,0-17.49-.04-8.49-.03-9.44,.39-9.91,1.19-1.32,2.23,1.65,6.49,7.34,14.64,1.79,2.57,3.36,5.3,5.31,7.74,2.22,2.77,3.43,3.8,3.13,5.06-.62,2.61-6.69,1.77-7.66,4.49-.79,2.22,2.93,3.72,6.33,9.68,3.36,5.91,2.84,9.96,6.09,11.2,1.87,.71,3.76,.01,4.7-.35,7.99-3.11,9.86-15.46,16.02-27.9,1.34-2.71,.81-1.22,17.71-23.95,15.32-20.61,15.79-21.87,19.97-25.57,9.37-8.31,11.31-5.77,23.98-15.76,11.76-9.26,10.55-11.81,21.51-19.6,5.77-4.1,11.67-6.85,23.42-12.42,11.79-5.6,23.88-10.49,25.07-17.51Z"/><path class="ag" d="M354.28,474.64c-3.45,3.99-6.99,6.03-10.4,7.95-3.76,2.12-9.65,4.9-17.57,6.57-.98,9.64-4.8,34.04-23.92,55.94-14.66,16.8-31.07,23.82-39.85,27.46-9.96,4.13-35.05,14.54-63.95,6.62-6.76-1.85-20.36-5.78-32.44-18-7.11-7.2-11.22-14.82-13.58-20.3-4.74,.29-10.61,.05-17.06-1.58-19.03-4.81-29.13-18.19-31.75-21.77-6.09-8.33-11.22-20.19-8.17-22.98,1.29-1.18,3.14,.12,11.68,1.74,7.03,1.33,10.84,2.05,15.32,1.63,1.45-.14,3.35-.43,15.54-5.31,1.85-.74,3.44-1.39,4.82-1.95,0-.09,0-.17,0-.26,.12-7.91,1.19-37.31,17.81-71.25,3.7-7.56,20.58-40.7,56.31-66.6,19.88-14.41,34.22-18.32,41.68-19.85,18.26-3.73,30.85-.43,33.98,.46,5.32,1.51,12.21,3.47,18.37,8.96,14.28,12.75,12.79,33.95,12.44,37.88,1.99,1.57,4.65,3.89,7.41,7.04,1.48,1.69,7.27,8.28,9.34,14.78,4.24,13.34-6.76,27.5-8.35,29.48-.45,6.04-.89,12.08-1.34,18.12,2.86-1.39,7.86-3.25,14.06-2.81,3.7,.26,8.3,.58,11.82,4.21,4.56,4.68,3.84,11.3,3.73,12.37-.57,5.22-3.5,8.62-5.94,11.43Z"/><path class="ah" d="M349.36,454.36c.85,.7,2.52,2.08,2.68,4.74,.25,3.99-3.05,7.63-3.75,8.41-3.72,4.1-8.24,4.88-8.84,4.97-1,.16-4.92,.77-7.25-1.74-2.54-2.73-1.64-7.52,.31-10.92,.25-.45,3.45-5.88,8.98-7.26,4.39-1.09,7.12,1.16,7.88,1.79Z"/><path class="a`" d="M212.45,423.8c.24,.21,.49,.44,.73,.66,3.23,3,6.29,6.87,9.12,11.5l-.6,.39c-2.79-4.58-5.83-8.41-9.01-11.36-1.17-1.09-2.38-2.07-2.51-2.18-2.22-1.8-4.75-3.51-7.53-5.07-3.99-2.24-5.99-3.37-8.05-3.43-1.98-.06-3.99,.48-5.99,1.59-1.85,.82-3.28,1.92-4.28,3.3-2.87,3.96-1.22,9.84,2.08,21.57l.38,1.34c1.63,5.82,3.37,11.72,5.18,17.53l-.67,.24c-1.81-5.82-3.55-11.72-5.18-17.55l-.38-1.34c-3.35-11.94-5.04-17.94-1.96-22.18,1.08-1.49,2.61-2.68,4.56-3.54,2.08-1.16,4.22-1.73,6.33-1.67,2.23,.06,4.28,1.22,8.36,3.51,2.81,1.58,5.38,3.31,7.62,5.13,.11,.09,.9,.73,1.81,1.54Z"/><path class="t" d="M246.49,558.39c-11.1,6.23-23.72,1.17-26.91-.11-9.36-3.75-14.37-10.31-16.73-13.39-2.14-2.8-3.14-4.91-3.73-6.91-1.27-4.3-.69-8.04-.17-10.62,3.57-17.95,10.9-30.18,10.9-30.18,4.47-7.45,8.75-14.58,17.4-21.16,10.57-8.04,20.75-9.99,25.93-10.92,.65-.12,13.21-2.29,19.6,2.16,.99,.69,6.1,4.25,7.4,11.28,.87,4.72-.36,8.89-1.84,13.17-5.5,15.97-8.94,17.77-12.91,29.01-4.3,12.16-2.62,16.7-8.4,27.22-.74,1.35-4.43,7.02-10.53,10.44Z"/><g><path class="w" d="M196.55,414.82c-1.07,.45-2.33-.59-2.49-.73-1.59-1.32-1.25-3.8,.15-5.71,.82-1.11,2.43-2.63,3.37-2.53,.86,.09,.77,1.52,.65,3.51-.14,2.23-.3,4.88-1.68,5.46Z"/><path class="w" d="M183.92,427.57c-.28,1.12-1.88,1.51-2.09,1.56-2.02,.49-3.82-1.25-4.52-3.49-.41-1.31-.66-3.49-.01-4.18,.6-.63,1.69,.28,3.23,1.55,1.72,1.43,3.76,3.12,3.39,4.56Z"/><path class="w" d="M184.91,420.44c-.69,.93-2.31,.68-2.53,.65-2.05-.32-3.04-2.61-2.82-4.95,.13-1.37,.74-3.49,1.6-3.88,.79-.36,1.45,.9,2.37,2.67,1.03,1.98,2.26,4.32,1.37,5.52Z"/><path class="w" d="M190.19,414.79c-.81,.84-2.38,.39-2.59,.33-1.99-.57-2.68-2.97-2.17-5.27,.3-1.34,1.17-3.37,2.08-3.65,.83-.26,1.32,1.08,2.02,2.95,.77,2.09,1.69,4.57,.66,5.65Z"/></g><g><ellipse class="v" cx="278.38" cy="374.93" rx="9.87" ry="6.53" transform="translate(-138.53 585.3) rotate(-80.18)"/><ellipse class="t" cx="277.61" cy="379.49" rx="4.3" ry="3.11" transform="translate(-143.92 587.79) rotate(-80.11)"/><ellipse class="t" cx="280.31" cy="373.75" rx="1.57" ry="1.55" transform="translate(-175.04 478.28) rotate(-66.06)"/><ellipse class="t" cx="282.04" cy="377.04" rx="1.45" ry="1.44" transform="translate(-177.01 481.81) rotate(-66.06)"/></g><g><ellipse class="v" cx="304.69" cy="375.57" rx="9.87" ry="6.53" transform="translate(-117.35 611.75) rotate(-80.18)"/><ellipse class="t" cx="303.91" cy="380.13" rx="4.3" ry="3.11" transform="translate(-122.77 614.24) rotate(-80.11)"/><ellipse class="t" cx="306.61" cy="374.39" rx="1.57" ry="1.55" transform="translate(-159.99 502.7) rotate(-66.06)"/><ellipse class="t" cx="308.34" cy="377.68" rx="1.45" ry="1.44" transform="translate(-161.97 506.23) rotate(-66.06)"/></g><ellipse class="aa" cx="321.09" cy="402.62" rx="14.56" ry="9.3" transform="translate(-51.79 47.43) rotate(-7.82)"/><ellipse class="aa" cx="260.84" cy="397.98" rx="9.31" ry="14.55" transform="translate(-145.94 644.87) rotate(-88.01)"/><path d="M264.8,352.06c-.16-.21,1.64-1.63,4.07-2.32,.39-.11,1.63-.44,3.33-.46,1.84-.01,3.73,.35,3.73,.56,0,.23-2.24-.02-5.35,.54-3.64,.65-5.62,1.89-5.78,1.68Z"/><path d="M303.03,351.66c-.05-.27,2.19-.72,4.67-.25,.4,.07,1.65,.33,3.17,1.09,1.64,.81,3.18,1.99,3.08,2.18-.1,.21-1.99-1.02-5.02-1.92-3.54-1.05-5.85-.83-5.9-1.1Z"/><path class="t" d="M218.81,358.95c-2.55-.59-5.05,2.05-9.94,7.36-5.16,5.6-8.11,10.19-8.89,11.44-1.91,3.03-3.33,5.73-4.29,7.7,1.67-1.37,4.16-3.5,7.04-6.34,5.06-4.99,4.93-5.86,7.87-8.3,6.39-5.32,11.41-4.89,11.73-7.66,.2-1.78-1.66-3.76-3.51-4.18Z"/><path class="t" d="M189.5,390.07c2.28-.94,4.84,2.03,4.43,5.39-.39,3.16-3.32,5.94-5.44,4.8-1.53-.82-2.27-3.5-1.76-6,.37-1.82,1.43-3.64,2.77-4.19Z"/><path class="t" d="M224.08,326.4c-.44,.04-1.03-2.32-.65-3.8,.05-.21,.38-1.38,.38-1.38h0s.87-1.76,1.41-3.76c.06-.21,.13-.51,.28-1.05,.24-.86,.48-1.58,.55-1.78,.28-.81,1.31-2.76,3.02-3.18,1.42-.35,2.91,.44,3.84,1.96-.69-.39-1.93-.94-3.24-.43-1.76,.68-2.6,2.89-3.48,5.3-1.78,4.83-1.54,8.07-2.12,8.13Z"/><path d="M287.33,396.26c.96,2.5,1.99,4.34,2.77,5.57,1.21,1.92,1.74,2.24,2.22,2.35,1.51,.36,3.23-1.09,4.11-2.53,.43-.7,.41-.99,1.27-3.39,.5-1.41,.95-2.55,1.26-3.31-1.22,1.2-3.1,2.64-5.38,2.84-1.04,.09-1.98-.09-2.59-.21-1.58-.31-2.82-.87-3.66-1.33Z"/><path class="ah" d="M193.52,424.85c.94-.74,2.79-2.17,5.57-1.87,4.15,.45,7.02,4.42,7.63,5.27,3.23,4.48,2.84,9.17,2.77,9.8-.1,1.03-.5,5.1-3.69,7.01-3.47,2.08-8.13,.33-11.11-2.23-.39-.33-5.12-4.52-5.08-10.33,.03-4.62,3.06-6.98,3.91-7.64Z"/></g></g></g><g id="q"/><g id="r"/></svg>