<?xml version="1.0" encoding="UTF-8"?><svg xmlns="http://www.w3.org/2000/svg" width="155.27" height="293.51" viewBox="0 0 155.27 293.51"><defs><style>.q{fill:none;stroke:#000;stroke-miterlimit:10;stroke-width:2px;}.r{fill:#fdfffe;}.s{fill:#f7da06;}</style></defs><g id="a"/><g id="b"/><g id="c"/><g id="d"><g><path class="q" d="M73.91,205.14c.14,2.85,.68,7.15,2.81,12.03,1.84,4.22,3.55,5.88,5.75,9.57,4.07,6.81,6.53,15.04,6.82,20.24,.1,1.79,.09,5.76-8.91,15.12-7.46,7.76-11.26,8.99-10.83,15.46,.26,3.92,3.72,11.28,4.04,12.04,.65,1.52,1.17,2.62,1.61,3.49"/><g><path class="s" d="M71.48,202.09c-5.13-3.28-12.29-8.24-20.14-15.09-12.16-10.6-39.92-34.79-48.49-74.27-1.83-8.4-5.38-25.68,.05-46.87C8.41,44.29,20.12,30.88,22.7,28.01,27.59,22.57,42.49,6.48,67.79,1.63c6.42-1.23,24.87-4.52,43.9,4.31,34.27,15.89,41,57.39,42.32,65.55,5.88,36.3-10.46,64.43-16.95,75.61-19.93,34.3-49.92,49.88-62.37,55.47,2.36,3.38,4.71,6.76,7.07,10.14-.9,1.23-2.32,2.67-4.39,3.41-4.27,1.53-9.68-.5-13.42-5.18l7.53-8.84Z"/><path class="r" d="M9.36,102.2c2.08-2.47,6.98-1.42,8.66,2.04,1.57,3.26-.09,7.91-3.3,8.3-2.33,.28-4.91-1.75-5.91-4.46-.73-1.98-.66-4.43,.56-5.88Z"/><path class="r" d="M54.08,21.97c-19.62,1.2-32.87,28.4-33.51,29.75-3.9,8.25-5.01,15.93-5.49,19.51-.93,6.8-.71,12.55-.26,16.73,3.53-8.05,5.78-14.72,7.21-19.42,2.18-7.19,2.87-11.26,6.83-16.55,2.09-2.8,4.2-4.69,8.42-8.48,4.99-4.48,8.52-7.64,13.63-10.49,9.21-5.14,16.07-5.07,16.16-6.98,.09-1.87-6.35-4.47-12.97-4.07Z"/></g></g></g><g id="e"><g id="f"><g id="g"/><g id="h"><g id="i"/></g></g></g><g id="j"/><g id="k"><g id="l"><g id="m"><g id="n"/></g></g></g><g id="o"/><g id="p"/></svg>